<?xml version="1.0" encoding="UTF-8"?>
<svg width="135px" height="40px" viewBox="0 0 135 40" version="1.1" xmlns="http://www.w3.org/2000/svg" xmlns:xlink="http://www.w3.org/1999/xlink">
    <!-- Generator: Sketch 61 (89581) - https://sketch.com -->
    <title>App Store Badge US Black</title>
    <desc>Created with Sketch.</desc>
    <g id="Page-1" stroke="none" stroke-width="1" fill="none" fill-rule="evenodd">
        <g id="1" transform="translate(-998.000000, -2090.000000)" fill-rule="nonzero">
            <g id="Group-9" transform="translate(160.000000, 1745.000000)">
                <g id="Group-11" transform="translate(838.000000, 297.000000)">
                    <g id="App-Store-Badge-US-Black" transform="translate(0.000000, 48.000000)">
                        <path d="M124.249442,-0.00013 L10.7566273,-0.00013 C10.3429317,-0.00013 9.93419996,-0.00013 9.52159867,0.002 C9.17621304,0.004 8.83358012,0.00981 8.48487771,0.0147 C7.72733492,0.0226018036 6.97157362,0.0816762599 6.22416152,0.19141 C5.47779923,0.303532628 4.7548173,0.51491574 4.07966819,0.81841 C3.40534482,1.12447171 2.78919627,1.52216753 2.25357495,1.99707 C1.71514171,2.47063699 1.26631603,3.01801638 0.924356409,3.61816 C0.581453001,4.21710912 0.343682672,4.8589383 0.219257543,5.52148 C0.0936494727,6.18318491 0.0260586272,6.85252054 0.0170915965,7.52348 C0.00662228854,7.83008 0.00551669352,8.1377 0,8.44434 L0,31.5586 C0.00551669352,31.8691 0.00662228854,32.1699 0.0170915965,32.4805 C0.0260613769,33.1514262 0.0936522236,33.8207284 0.219257543,34.4824 C0.343339096,35.145329 0.581123484,35.7875266 0.924356409,36.3867 C1.26616076,36.9849029 1.71504955,37.5300662 2.25357495,38.001 C2.78716536,38.478014 3.40371217,38.8759804 4.07966819,39.1797 C4.75481217,39.4840065 5.47771616,39.6966478 6.22416152,39.8105 C6.97170068,39.9193547 7.72738425,39.9784532 8.48487771,39.9873 C8.83358012,39.9941 9.17621304,39.998 9.52159867,39.998 C9.93418868,40 10.3429542,40 10.7566273,40 L124.249442,40 C124.654902,40 125.066906,40 125.472366,39.998 C125.816115,39.998 126.168665,39.9941 126.512415,39.9873 C127.268476,39.9789237 128.022737,39.9198215 128.768731,39.8105 C129.517585,39.6958464 130.24308,39.4832614 130.921483,39.1797 C131.596829,38.8758046 132.212807,38.4778491 132.74594,38.001 C133.283076,37.5282218 133.732923,36.9834573 134.078972,36.3867 C134.419629,35.7870908 134.65515,35.1449445 134.777414,34.4824 C134.903221,33.8206376 134.97321,33.1514843 134.986801,32.4805 C134.9912,32.1699 134.9912,31.8691 134.9912,31.5586 C135,31.1953 135,30.834 135,30.4648 L135,9.53613 C135,9.16992 135,8.80664 134.9912,8.44434 C134.9912,8.1377 134.9912,7.83008 134.986801,7.52344 C134.973213,6.85242244 134.903224,6.18323567 134.777414,5.52144 C134.654809,4.8592816 134.419302,4.21750328 134.078972,3.61812 C133.382587,2.41519608 132.278322,1.4360254 130.921483,0.81832 C130.243078,0.51556738 129.517505,0.30424041 128.768731,0.19132 C128.022866,0.0811027831 127.268527,0.0220077649 126.512415,0.01456 C126.168665,0.00968 125.816115,0.00382 125.472366,0.00187 C125.066906,-0.00013 124.654902,-0.00013 124.249442,-0.00013 L124.249442,-0.00013 Z" id="Background-Gray" fill="#A6A6A6"></path>
                        <path d="M9.54026991,39.125 C9.19662077,39.125 8.86127299,39.1211 8.52031953,39.1143 C7.81400683,39.1061407 7.10934495,39.051625 6.41211304,38.9512 C5.76197946,38.8519282 5.13217479,38.6672645 4.5434729,38.4033 C3.96016909,38.1415227 3.42814913,37.7982729 2.96779399,37.3867 C2.50077531,36.9799753 2.11196093,36.508244 1.81675886,35.9902 C1.51830391,35.4687891 1.31175533,34.9098996 1.20430814,34.333 C1.08827452,33.7131149 1.02549552,33.0863132 1.01651248,32.458 C1.00936159,32.2471 1,31.5449 1,31.5449 L1,8.44434 C1,8.44434 1.00997065,7.75293 1.01656888,7.5498 C1.02517006,6.92248205 1.087584,6.2966531 1.20327047,5.67773 C1.31091599,5.09925008 1.51762448,4.53874887 1.81624002,4.01563 C2.11035715,3.49794385 2.49701292,3.02586029 2.96121832,2.61768 C3.42490197,2.20562142 3.95862376,1.86060412 4.54292023,1.59521 C5.13026911,1.3320936 5.75888353,1.14873255 6.40770294,1.05127 C7.10722467,0.949836139 7.81433286,0.894996084 8.52309417,0.88721 L9.54082258,0.875 L125.453662,0.875 L126.483549,0.8877 C127.185864,0.895099198 127.886548,0.949450006 128.579642,1.05029 C129.23503,1.14897507 129.870195,1.33361553 130.464253,1.59814 C131.634811,2.13298605 132.587271,2.97916295 133.188136,4.01807 C133.481985,4.53757756 133.685506,5.09350676 133.791789,5.66699 C133.908853,6.29099138 133.974371,6.92173834 133.987819,7.5542 C133.99109,7.8374 133.99109,8.1416 133.99109,8.44434 C134,8.81934 134,9.17627 134,9.53613 L134,30.4648 C134,30.8281 134,31.1826 133.99109,31.54 C133.99109,31.8652 133.99109,32.1631 133.986691,32.4697 C133.973534,33.0908757 133.909109,33.7103642 133.793932,34.3232 C133.688688,34.9042612 133.483263,35.4675131 133.184865,35.9932 C132.887576,36.5056211 132.500995,36.9732662 132.039368,37.3789 C131.578599,37.7926846 131.04564,38.1379427 130.460982,38.4014 C129.86857,38.6673937 129.234339,38.8527403 128.579642,38.9512 C127.882463,39.052161 127.177733,39.1066802 126.471368,39.1143 C126.141005,39.1211 125.795078,39.125 125.459189,39.125 L124.236543,39.127 L9.54026991,39.125 Z" id="Background-Black" fill="#000000"></path>
                        <path d="M48.875,27.13965 L44.1416,27.13965 L43.00488,30.4961 L41,30.4961 L45.4834,18.0781 L47.5664,18.0781 L52.0498,30.4961 L50.01073,30.4961 L48.875,27.13965 Z M44.63183,25.59082 L48.38383,25.59082 L46.53422,20.14355 L46.48246,20.14355 L44.63183,25.59082 Z M61.73242,25.96973 C61.73242,28.78321 60.22656,30.59082 57.9541,30.59082 C56.7794853,30.6522646 55.6730624,30.0370307 55.10547,29.00682 L55.06247,29.00682 L55.06247,33.4912 L53.20407,33.4912 L53.20407,21.44238 L55.00293,21.44238 L55.00293,22.94824 L55.03711,22.94824 C55.6299183,21.9244879 56.7375343,21.3095188 57.91992,21.34765 C60.21773,21.34766 61.73242,23.16406 61.73242,25.96973 Z M59.82226,25.96973 C59.82226,24.13673 58.87499,22.93164 57.42968,22.93164 C56.00976,22.93164 55.05468,24.16211 55.05468,25.96973 C55.05468,27.79395 56.00976,29.01563 57.42968,29.01563 C58.875,29.01563 59.82226,27.81934 59.82226,25.96973 Z M71.69726,25.96973 C71.69726,28.78321 70.1914,30.59082 67.91894,30.59082 C66.7443253,30.6522646 65.6379024,30.0370307 65.07031,29.00682 L65.02731,29.00682 L65.02731,33.4912 L63.16891,33.4912 L63.16891,21.44238 L64.96773,21.44238 L64.96773,22.94824 L65.00191,22.94824 C65.5947226,21.9244885 66.7023428,21.3095231 67.88473,21.34766 C70.18261,21.34766 71.69726,23.16406 71.69726,25.96973 Z M69.78711,25.96973 C69.78711,24.13673 68.83983,22.93164 67.39452,22.93164 C65.9746,22.93164 65.01952,24.16211 65.01952,25.96973 C65.01952,27.79395 65.9746,29.01563 67.39452,29.01563 C68.83984,29.01563 69.78711,27.81934 69.78711,25.96973 L69.78711,25.96973 Z M78.2832,27.03613 C78.4209,28.26758 79.6172,29.07613 81.25195,29.07613 C82.81836,29.07613 83.94531,28.26754 83.94531,27.15718 C83.94531,26.19331 83.26562,25.61618 81.65625,25.22066 L80.04688,24.83296 C77.76661,24.28218 76.70801,23.21577 76.70801,21.4853 C76.70801,19.34272 78.5752,17.87104 81.22656,17.87104 C83.85056,17.87104 85.64941,19.34272 85.70996,21.4853 L83.83396,21.4853 C83.72166,20.24604 82.69724,19.498 81.20017,19.498 C79.7031,19.498 78.67869,20.25484 78.67869,21.3564 C78.67869,22.23433 79.33299,22.75093 80.93357,23.1464 L82.30173,23.48234 C84.84958,24.08488 85.90818,25.10834 85.90818,26.92472 C85.90818,29.24796 84.05759,30.70304 81.11423,30.70304 C78.36032,30.70304 76.50095,29.28214 76.38083,27.03604 L78.2832,27.03613 Z M89.91894,19.2998 L89.91894,21.44238 L91.64062,21.44238 L91.64062,22.91406 L89.91894,22.91406 L89.91894,27.90527 C89.91894,28.68066 90.26367,29.04199 91.0205,29.04199 C91.2248914,29.0384259 91.4289521,29.0240726 91.63183,28.99899 L91.63183,30.46188 C91.2915583,30.5254596 90.9457008,30.5542545 90.5996,30.54782 C88.7666,30.54782 88.05175,29.85934 88.05175,28.10348 L88.05175,22.91406 L86.73535,22.91406 L86.73535,21.44238 L88.05173,21.44238 L88.05173,19.2998 L89.91894,19.2998 Z M92.63773,25.96973 C92.63773,23.1211 94.31546,21.33106 96.93168,21.33106 C99.55668,21.33106 101.2266,23.12106 101.2266,25.96973 C101.2266,28.82618 99.56547,30.6084 96.93168,30.6084 C94.29882,30.6084 92.63773,28.82617 92.63773,25.96973 Z M99.33304,25.96973 C99.33304,24.01563 98.43753,22.86231 96.93167,22.86231 C95.42581,22.86231 94.53128,24.02442 94.53128,25.96973 C94.53128,27.93164 95.42581,29.07618 96.93167,29.07618 C98.43753,29.07618 99.33304,27.93164 99.33304,25.96973 L99.33304,25.96973 Z M102.75878,21.44238 L104.53125,21.44238 L104.53125,22.98338 L104.57425,22.98338 C104.821426,21.9913684 105.730383,21.3086316 106.75198,21.34764 C106.966144,21.3468922 107.179717,21.3701507 107.3887,21.41698 L107.3887,23.15526 C107.118331,23.0726433 106.83629,23.0347113 106.5537,23.04296 C106.007348,23.0207954 105.478601,23.2385347 105.106291,23.639006 C104.733982,24.0394772 104.555307,24.5826707 104.61718,25.12596 L104.61718,30.49608 L102.75878,30.49608 L102.75878,21.44238 Z M115.95703,27.83691 C115.70703,29.48046 114.10644,30.60839 112.05859,30.60839 C109.4248,30.60839 107.79004,28.84374 107.79004,26.01269 C107.79004,23.17285 109.43359,21.33105 111.98047,21.33105 C114.48535,21.33105 116.06055,23.05175 116.06055,25.79687 L116.06055,26.43359 L109.66602,26.43359 L109.66602,26.54589 C109.606317,27.2199216 109.839062,27.8871194 110.30505,28.3777699 C110.771038,28.8684204 111.425357,29.1352333 112.10157,29.11034 C113.003412,29.1948396 113.853673,28.6769777 114.19239,27.8369 L115.95703,27.83691 Z M109.674792,25.13477 L114.20117,25.13477 C114.234895,24.5290975 114.014427,23.9368231 113.59288,23.5006315 C113.171334,23.06444 112.586931,22.8238804 111.98047,22.83691 C111.369212,22.8332622 110.781821,23.0739346 110.348856,23.5054332 C109.91589,23.9369319 109.673226,24.5235029 109.674792,25.13477 L109.674792,25.13477 Z" id="App-Store" fill="#FFFFFF"></path>
                        <path d="M44.39892,8.731 C45.1878666,8.67438418 45.9606223,8.97454743 46.5044913,9.54887182 C47.0483603,10.1231962 47.3060159,10.9111448 47.20654,11.69584 C47.20654,13.60209 46.17627,14.69784 44.39892,14.69784 L42.24365,14.69784 L42.24365,8.731 L44.39892,8.731 Z M43.1704,13.854 L44.2954,13.854 C44.8592219,13.887702 45.4082165,13.665559 45.7899485,13.2492518 C46.1716805,12.8329446 46.3455096,12.2667944 46.26317,11.708 C46.339519,11.1515245 46.1631866,10.5900462 45.7824011,10.177134 C45.4016156,9.76422175 44.8562257,9.5430863 44.2954,9.57421 L43.1704,9.57421 L43.1704,13.854 Z M48.25341,12.44434 C48.1761971,11.6372251 48.5632137,10.8561119 49.2521459,10.4285974 C49.9410782,10.0010828 50.8128118,10.0010828 51.5017441,10.4285974 C52.1906763,10.8561119 52.5776929,11.6372251 52.50048,12.44434 C52.5791619,13.2523223 52.1924987,14.0349504 51.5029555,14.4633853 C50.8134124,14.8918202 49.9404776,14.8918202 49.2509345,14.4633853 C48.5613913,14.0349504 48.1747281,13.2523223 48.25341,12.44434 Z M51.58642,12.44434 C51.58642,11.46827 51.14793,10.89747 50.37841,10.89747 C49.60595,10.89747 49.17141,11.46827 49.17141,12.44435 C49.17141,13.42824 49.60598,13.99464 50.37841,13.99464 C51.14795,13.99464 51.58642,13.42432 51.58642,12.44434 L51.58642,12.44434 Z M58.14599,14.69775 L57.22412,14.69775 L56.29346,11.38134 L56.22315,11.38134 L55.29639,14.69775 L54.3833,14.69775 L53.14209,10.19482 L54.04346,10.19482 L54.8501,13.63082 L54.91651,13.63082 L55.84229,10.19482 L56.69483,10.19482 L57.62061,13.63082 L57.69092,13.63082 L58.49365,10.19482 L59.38232,10.19482 L58.14599,14.69775 Z M60.42626,10.19482 L61.28173,10.19482 L61.28173,10.91015 L61.34814,10.91015 C61.5790749,10.3834779 62.1187029,10.0613075 62.69189,10.1079 C63.1357068,10.0745318 63.5706159,10.2447899 63.8738208,10.5706021 C64.1770257,10.8964142 64.3156231,11.3424238 64.25048,11.7827 L64.25048,14.6977 L63.36181,14.6977 L63.36181,12.00586 C63.36181,11.28223 63.04736,10.92236 62.39013,10.92236 C62.0890958,10.9083391 61.7969502,11.0264826 61.5902846,11.2458168 C61.383619,11.465151 61.283045,11.763801 61.31493,12.06347 L61.31493,14.69775 L60.42626,14.69775 L60.42626,10.19482 Z M65.6665,8.437 L66.55517,8.437 L66.55517,14.69774 L65.6665,14.69774 L65.6665,8.437 Z M67.79052,12.44434 C67.7133664,11.6371722 68.100444,10.8560394 68.7894274,10.4285182 C69.4784108,10.000997 70.3501892,10.000997 71.0391726,10.4285182 C71.728156,10.8560394 72.1152336,11.6371722 72.03808,12.44434 C72.116662,13.2523512 71.7299279,14.0349572 71.0403505,14.4633732 C70.3507732,14.8917893 69.4778268,14.8917893 68.7882495,14.4633732 C68.0986721,14.0349572 67.711938,13.2523512 67.79052,12.44434 L67.79052,12.44434 Z M71.12353,12.44434 C71.12353,11.46827 70.68504,10.89747 69.91552,10.89747 C69.14306,10.89747 68.70852,11.46827 68.70852,12.44435 C68.70852,13.42824 69.14309,13.99464 69.91552,13.99464 C70.68505,13.99464 71.12353,13.42432 71.12353,12.44434 L71.12353,12.44434 Z M72.97363,13.42432 C72.97363,12.61377 73.57715,12.14649 74.64843,12.08008 L75.86816,12.00977 L75.86816,11.6211 C75.86816,11.14551 75.55371,10.87696 74.94629,10.87696 C74.4502,10.87696 74.10645,11.05909 74.00781,11.37745 L73.14746,11.37745 C73.23828,10.60401 73.96582,10.10792 74.9873,10.10792 C76.11621,10.10792 76.75293,10.66992 76.75293,11.6211 L76.75293,14.69776 L75.89746,14.69776 L75.89746,14.06495 L75.82715,14.06495 C75.5365986,14.5270763 75.0199036,14.7971632 74.47461,14.77195 C74.0923461,14.8117118 73.7111011,14.6879107 73.4251258,14.4311524 C73.1391505,14.1743942 72.9751361,13.8086433 72.97363,13.42432 L72.97363,13.42432 Z M75.86816,13.03955 L75.86816,12.66309 L74.76855,12.7334 C74.14843,12.7749 73.86718,12.98584 73.86718,13.38281 C73.86718,13.78808 74.21874,14.02392 74.70218,14.02392 C74.9883661,14.0528899 75.2740564,13.9644751 75.4938504,13.7789156 C75.7136444,13.5933561 75.8487216,13.3265411 75.86816,13.03955 Z M77.92089,12.44434 C77.92089,11.02149 78.65234,10.12012 79.79003,10.12012 C80.3645068,10.0936501 80.9025575,10.4014729 81.17089,10.91012 L81.2373,10.91012 L81.2373,8.437 L82.12597,8.437 L82.12597,14.69774 L81.27441,14.69774 L81.27441,13.98631 L81.2041,13.98631 C80.9154842,14.490737 80.3708045,14.7933565 79.79004,14.77195 C78.64453,14.772 77.92089,13.87061 77.92089,12.44434 Z M78.83889,12.44434 C78.83889,13.39942 79.28909,13.97413 80.04202,13.97413 C80.79102,13.97413 81.25393,13.39113 81.25393,12.44825 C81.25393,11.50977 80.78616,10.91846 80.04202,10.91846 C79.29394,10.91846 78.83886,11.49707 78.83886,12.44434 L78.83889,12.44434 Z M85.80273,12.44434 C85.7255171,11.6372251 86.1125337,10.8561119 86.8014659,10.4285974 C87.4903982,10.0010828 88.3621318,10.0010828 89.0510641,10.4285974 C89.7399963,10.8561119 90.1270129,11.6372251 90.0498,12.44434 C90.1284819,13.2523223 89.7418187,14.0349504 89.0522755,14.4633853 C88.3627324,14.8918202 87.4897976,14.8918202 86.8002545,14.4633853 C86.1107113,14.0349504 85.7240481,13.2523223 85.80273,12.44434 L85.80273,12.44434 Z M89.13573,12.44434 C89.13573,11.46827 88.69725,10.89747 87.92773,10.89747 C87.15527,10.89747 86.72073,11.46827 86.72073,12.44435 C86.72073,13.42824 87.1553,13.99464 87.92773,13.99464 C88.69726,13.99464 89.13573,13.42432 89.13573,12.44434 Z M91.24218,10.19482 L92.09765,10.19482 L92.09765,10.91015 L92.16406,10.91015 C92.3949949,10.3834779 92.9346229,10.0613075 93.50781,10.1079 C93.9516268,10.0745318 94.3865359,10.2447899 94.6897408,10.5706021 C94.9929457,10.8964142 95.1315431,11.3424238 95.0664,11.7827 L95.0664,14.6977 L94.17773,14.6977 L94.17773,12.00586 C94.17773,11.28223 93.86328,10.92236 93.20605,10.92236 C92.9050158,10.9083391 92.6128702,11.0264826 92.4062046,11.2458168 C92.199539,11.465151 92.098965,11.763801 92.13085,12.06347 L92.13085,14.69775 L91.24218,14.69775 L91.24218,10.19482 Z M100.08789,9.07373 L100.08789,10.21533 L101.06348,10.21533 L101.06348,10.96387 L100.08789,10.96387 L100.08789,13.2793 C100.08789,13.75098 100.28223,13.95752 100.72461,13.95752 C100.837866,13.9571575 100.951007,13.9503097 101.06348,13.93701 L101.06348,14.67724 C100.90389,14.7057907 100.742196,14.72098 100.58008,14.72265 C99.5918,14.72265 99.19824,14.37499 99.19824,13.50683 L99.19824,10.96383 L98.4834,10.96383 L98.4834,10.21529 L99.19824,10.21529 L99.19824,9.07373 L100.08789,9.07373 Z M102.27734,8.437 L103.1582,8.437 L103.1582,10.91845 L103.22851,10.91845 C103.470538,10.3871686 104.01961,10.0645875 104.60151,10.11181 C105.042807,10.0877973 105.471828,10.2618037 105.771719,10.5864339 C106.07161,10.911064 106.211135,11.3525056 106.15229,11.79052 L106.15229,14.69775 L105.26273,14.69775 L105.26273,12.00975 C105.26273,11.29051 104.92773,10.92625 104.29984,10.92625 C103.990669,10.9008937 103.686069,11.013291 103.467472,11.2333935 C103.248876,11.453496 103.138572,11.7588603 103.16605,12.06785 L103.16605,14.69775 L102.27738,14.69775 L102.27734,8.437 Z M111.33398,13.48193 C111.084787,14.3313095 110.262829,14.880103 109.38281,14.78466 C108.782374,14.8005102 108.205321,14.5516307 107.804758,14.1040552 C107.404195,13.6564796 107.220616,13.0554559 107.30273,12.46045 C107.222797,11.8637905 107.405688,11.2618037 107.804021,10.810447 C108.202353,10.3590902 108.776932,10.1027768 109.3789,10.10791 C110.63183,10.10791 111.38769,10.96391 111.38769,12.37791 L111.38769,12.688 L108.208,12.688 L108.208,12.7378 C108.179862,13.0719401 108.293981,13.4024478 108.522291,13.6480407 C108.750601,13.8936336 109.071918,14.0315239 109.40722,14.0278 C109.841992,14.0799947 110.265213,13.864333 110.47851,13.4819 L111.33398,13.48193 Z M108.20798,12.03076 L110.48239,12.03076 C110.505043,11.7251604 110.397588,11.4242051 110.186507,11.2020591 C109.975425,10.9799131 109.680347,10.8572362 109.37399,10.86426 C109.063482,10.8603589 108.764558,10.9820212 108.545026,11.2016489 C108.325495,11.4212765 108.203963,11.7202537 108.208,12.03076 L108.20798,12.03076 Z" id="Download-on-the" fill="#FFFFFF"></path>
                        <path d="M24.76888,20.30068 C24.790737,18.6042091 25.6801229,17.0371861 27.12544,16.14862 C26.2095126,14.8405128 24.730392,14.0408784 23.13428,13.99094 C21.45504,13.81468 19.82709,14.99577 18.97138,14.99577 C18.09911,14.99577 16.78161,14.00844 15.36288,14.03763 C13.4962013,14.0979384 11.7981372,15.1335255 10.88996,16.7655 C8.95596,20.11392 10.39855,25.03497 12.25116,27.74158 C13.17806,29.06693 14.26134,30.54738 15.67879,30.49488 C17.06585,30.43735 17.58389,29.6104 19.25819,29.6104 C20.91695,29.6104 21.40298,30.49488 22.84919,30.4615 C24.33757,30.43734 25.27532,29.13026 26.1697,27.79236 C26.8356761,26.8479997 27.3481437,25.8042759 27.68812,24.69985 C25.9203766,23.9521813 24.7709432,22.2200343 24.76888,20.30068 L24.76888,20.30068 Z M22.03725,12.21089 C22.8487766,11.2366819 23.248585,9.98450245 23.15177,8.72027 C21.9119378,8.85049049 20.7666802,9.44304968 19.94419,10.37988 C19.1320187,11.304189 18.7205746,12.5134327 18.80048,13.74127 C20.0569368,13.7542068 21.2499161,13.1901532 22.03725,12.21089 L22.03725,12.21089 Z" id="Icon" fill="#FFFFFF"></path>
                    </g>
                </g>
            </g>
        </g>
    </g>
</svg>