<?xml version="1.0" encoding="utf-8"?>
<!-- Generator: Adobe Illustrator 24.2.3, SVG Export Plug-In . SVG Version: 6.00 Build 0)  -->
<svg version="1.1" id="Capa_1" xmlns="http://www.w3.org/2000/svg" xmlns:xlink="http://www.w3.org/1999/xlink" x="0px" y="0px"
	 viewBox="0 0 512 512" style="enable-background:new 0 0 512 512;" xml:space="preserve">
<style type="text/css">
	.st0{stroke:#000000;stroke-width:5;stroke-miterlimit:10;}
</style>
<g id="XMLID_1357_">
	<g id="XMLID_301_">
		<path id="XMLID_310_" class="st0" d="M348.3,348.9c-13.3-23-42.8-30.9-65.8-17.6l-40.7,23.5c-4,2.3-9,0.9-11.3-3L138.8,193
			c-2.3-4-0.9-9,3-11.3l40.7-23.5c23-13.3,30.9-42.8,17.6-65.8l-39.4-68.3C147.5,1.1,118-6.8,95,6.5l-13.8,8
			C3.6,59.2-23.1,158.8,21.7,236.3L134,430.8c30.1,52,84.8,81.2,140.9,81.2c27.5,0,55.4-7,80.9-21.7l13.8-8
			c11.1-6.4,19.1-16.8,22.4-29.2c3.3-12.4,1.6-25.4-4.8-36.5L348.3,348.9z M105,23.8c13.4-7.8,30.7-3.1,38.4,10.3l39.4,68.3
			c7.8,13.4,3.1,30.7-10.3,38.4l-32.1,18.5L73.7,43.6C79.2,39.3,105,23.8,105,23.8z M274.9,492c-49.3,0-97.2-25.5-123.6-71.2
			L39.1,226.3C6.9,170.7,16.7,102.1,58.7,57.5l65.5,113.4c-7.2,8.8-8.7,21.6-2.6,32.1l91.7,158.8c3.8,6.5,9.9,11.2,17.2,13.2
			c3.9,1.1,8,1.2,11.9,0.6l65.1,112.7C296.6,490.8,285.7,492,274.9,492L274.9,492z M372.8,447.9c-1.9,7.3-6.6,13.3-13.1,17.1
			c0,0-26.4,14.6-32.8,17.2l-66.4-115l32.1-18.5c13.4-7.8,30.7-3.1,38.4,10.3l39,67.6C373.8,433,374.8,440.6,372.8,447.9
			L372.8,447.9z"/>
		<path id="XMLID_329_" class="st0" d="M379,199.4c5.5,0,10-4.5,10-10v-66.9c0-5.5-4.5-10-10-10s-10,4.5-10,10v66.9
			C369,194.9,373.5,199.4,379,199.4L379,199.4z"/>
		<path id="XMLID_330_" class="st0" d="M379,91.8c2.6,0,5.2-1.1,7.1-2.9c1.9-1.9,2.9-4.4,2.9-7.1c0-2.6-1.1-5.2-2.9-7.1
			c-1.9-1.9-4.4-2.9-7.1-2.9c-2.6,0-5.2,1.1-7.1,2.9c-1.9,1.9-2.9,4.4-2.9,7.1c0,2.6,1.1,5.2,2.9,7.1
			C373.8,90.7,376.4,91.8,379,91.8z"/>
		<path id="XMLID_332_" class="st0" d="M379,0c-73.3,0-133,59.6-133,133c0,35.4,13.6,68.3,38.3,93.4v34.8c0,3.6,1.9,6.8,4.9,8.6
			c1.6,0.9,3.3,1.4,5.1,1.4c1.7,0,3.4-0.4,4.9-1.3l26.7-15c16.7,7.3,34.5,11,53,11c18.9,0,37.1-3.9,54.2-11.5
			c5-2.3,7.3-8.2,5.1-13.2c-2.3-5-8.2-7.3-13.2-5.1c-14.5,6.5-30,9.8-46,9.8c-17.2,0-33.7-3.8-49.1-11.2c-2.9-1.4-6.4-1.3-9.2,0.3
			l-16.3,9.1v-22c0-2.7-1.1-5.4-3.1-7.3c-22.7-21.5-35.2-50.6-35.2-81.9C266.1,70.7,316.8,20,379,20S492,70.7,492,133
			c0,15.9-3.2,31.2-9.6,45.6c-2.2,5.1,0.1,11,5.1,13.2c5.1,2.2,11-0.1,13.2-5.1c7.5-16.9,11.3-35,11.3-53.6C512,59.6,452.4,0,379,0
			L379,0z"/>
		<path id="XMLID_333_" class="st0" d="M466.2,209.7c-2.6,0-5.2,1.1-7.1,2.9c-1.9,1.9-2.9,4.4-2.9,7.1c0,2.6,1.1,5.2,2.9,7.1
			c1.9,1.9,4.4,2.9,7.1,2.9c2.6,0,5.2-1.1,7.1-2.9c1.9-1.9,2.9-4.4,2.9-7.1c0-2.6-1.1-5.2-2.9-7.1
			C471.4,210.8,468.8,209.7,466.2,209.7z"/>
	</g>
</g>
</svg>
