<?xml version="1.0" encoding="utf-8"?>
<!-- Generator: Adobe Illustrator 24.2.3, SVG Export Plug-In . SVG Version: 6.00 Build 0)  -->
<svg version="1.1" id="Capa_1" xmlns="http://www.w3.org/2000/svg" xmlns:xlink="http://www.w3.org/1999/xlink" x="0px" y="0px"
	 viewBox="0 0 512 512" style="enable-background:new 0 0 512 512;" xml:space="preserve">
<style type="text/css">
	.st0{stroke:#000000;stroke-width:5;stroke-miterlimit:10;}
</style>
<path id="XMLID_1468_" class="st0" d="M502.3,77.8l6.7-6.7c3.9-3.9,3.9-10.2,0-14.1c-3.9-3.9-10.2-3.9-14.1,0l-6.7,6.7l-6.7-6.7
	c-1.9-1.9-4.4-2.9-7.1-2.9h-11L412.3,2.9c-1.9-1.9-4.4-2.9-7.1-2.9H36C16.2,0,0,16.2,0,36v187.4c0,19.9,16.2,36,36,36h87.1L64.5,318
	c-6.8,6.8-10.5,15.8-10.5,25.5c0,9.6,3.7,18.7,10.5,25.5l132.5,132.5c6.8,6.8,15.8,10.5,25.5,10.5c9.6,0,18.7-3.7,25.5-10.5
	l99.2-99.2c3.9-3.9,3.9-10.2,0-14.1c-3.9-3.9-10.2-3.9-14.1,0l-99.2,99.2c-3,3-7,4.7-11.3,4.7c-4.3,0-8.3-1.7-11.3-4.7L78.7,354.8
	c-3-3-4.7-7-4.7-11.3c0-4.3,1.7-8.3,4.7-11.3L336.8,74h133.4l3.8,3.8l-23.1,23.1C447,99.1,442.6,98,438,98c-16.5,0-30,13.5-30,30
	s13.5,30,30,30c16.5,0,30-13.5,30-30c0-4.6-1.1-9-2.9-12.9L488.2,92l3.8,3.8v133.4l-95.3,95.3c-3.9,3.9-3.9,10.2,0,14.1
	c3.9,3.9,10.2,3.9,14.1,0l98.2-98.2c1.9-1.9,2.9-4.4,2.9-7.1V91.6c0-2.7-1.1-5.2-2.9-7.1L502.3,77.8z M179.6,179.4
	c-5.5,0-10-4.5-10-10c0-5.5,4.5-10,10-10c5.5,0,10,4.5,10,10C189.6,174.9,185.1,179.4,179.6,179.4z M332.7,54
	c-2.7,0-5.2,1.1-7.1,2.9L209.3,173.2c0.2-1.2,0.2-2.5,0.2-3.8c0-16.5-13.5-30-30-30c-16.5,0-30,13.5-30,30s13.5,30,30,30
	c1.3,0,2.6-0.1,3.8-0.2l-40.2,40.2H36c-8.8,0-16-7.2-16-16V36c0-8.8,7.2-16,16-16h365.1l34,34L332.7,54z M438,138
	c-5.5,0-10-4.5-10-10s4.5-10,10-10c2.3,0,4.4,0.8,6.1,2.1c0.3,0.3,0.5,0.7,0.9,1c0.3,0.3,0.7,0.6,1,0.9c1.3,1.7,2.1,3.8,2.1,6.1
	C448,133.5,443.5,138,438,138z"/>
<path id="XMLID_1527_" d="M332.6,295.8c2.7,0,5.2-1.1,7.1-2.9l22.6-22.6c3.9-3.9,3.9-10.2,0-14.1c-3.9-3.9-10.2-3.9-14.1,0
	l-15.6,15.6l-49.5-49.5c-3.9-3.9-10.2-3.9-14.1,0c-3.9,3.9-3.9,10.2,0,14.1l56.6,56.6C327.4,294.8,329.9,295.8,332.6,295.8
	L332.6,295.8z"/>
<path id="XMLID_1528_" d="M410.4,208.1c-3.9-3.9-10.2-3.9-14.1,0l-12.7,12.7l-14.1-14.1l12.7-12.7c3.9-3.9,3.9-10.2,0-14.1
	c-3.9-3.9-10.2-3.9-14.1,0l-12.7,12.7l-14.1-14.1l12.7-12.7c3.9-3.9,3.9-10.2,0-14.1c-3.9-3.9-10.2-3.9-14.1,0l-19.8,19.8
	c-1.9,1.9-2.9,4.4-2.9,7.1s1.1,5.2,2.9,7.1l56.6,56.6c2,2,4.5,2.9,7.1,2.9s5.1-1,7.1-2.9l19.8-19.8
	C414.3,218.3,414.3,212,410.4,208.1L410.4,208.1z"/>
<path id="XMLID_1531_" d="M299.8,323c4.9,2.5,10.9,0.5,13.4-4.4c2.5-4.9,0.5-10.9-4.4-13.4l-75-38.2c-3.9-2-8.5-1.2-11.6,1.8
	c-3.1,3.1-3.8,7.8-1.8,11.6l38.2,75c1.8,3.5,5.3,5.5,8.9,5.5c1.5,0,3.1-0.4,4.5-1.1c4.9-2.5,6.9-8.5,4.4-13.4l-3.1-6l20.4-20.4
	L299.8,323z M263.8,321.6l-11.6-22.8l22.8,11.6L263.8,321.6z"/>
<path id="XMLID_1532_" d="M203.9,400.4c-3.9,3.9-3.9,10.2,0,14.1c2,2,4.5,2.9,7.1,2.9c2.6,0,5.1-1,7.1-2.9l14.1-14.1
	c11.7-11.7,11.7-30.7,0-42.4c-11.1-11.1-28.9-11.7-40.6-1.6c-0.4,0.3-0.7,0.6-1.1,0.9l-0.7,0.7c-1.9,1.9-4.4,2.9-7.1,2.9
	s-5.2-1-7.1-2.9c-3.9-3.9-3.9-10.2,0-14.1l14.1-14.1c3.9-3.9,3.9-10.2,0-14.1c-3.9-3.9-10.2-3.9-14.1,0l-14.1,14.1
	c-11.7,11.7-11.7,30.7,0,42.4c5.7,5.7,13.2,8.8,21.2,8.8c8,0,15.5-3.1,21.2-8.8c0,0,0,0,0,0c3.9-3.9,10.2-3.9,14.1,0
	c1.9,1.9,2.9,4.4,2.9,7.1c0,2.7-1,5.2-2.9,7.1L203.9,400.4z"/>
<path id="XMLID_1533_" d="M171.3,64.6c-4.8-2.7-10.9-1-13.6,3.8L93.2,182.6c-2.7,4.8-1,10.9,3.8,13.6c1.6,0.9,3.2,1.3,4.9,1.3
	c3.5,0,6.9-1.8,8.7-5.1l64.5-114.3C177.8,73.4,176.1,67.3,171.3,64.6z"/>
<path id="XMLID_1536_" d="M125.2,90c0-16.5-13.5-30-30-30s-30,13.5-30,30s13.5,30,30,30S125.2,106.5,125.2,90z M85.2,90
	c0-5.5,4.5-10,10-10c5.5,0,10,4.5,10,10c0,5.5-4.5,10-10,10C89.7,100,85.2,95.5,85.2,90z"/>
<path id="XMLID_1537_" d="M372,353.3c-2.6,0-5.2,1.1-7.1,2.9c-1.9,1.9-2.9,4.4-2.9,7.1c0,2.6,1.1,5.2,2.9,7.1
	c1.9,1.9,4.4,2.9,7.1,2.9c2.6,0,5.2-1.1,7.1-2.9c1.9-1.9,2.9-4.4,2.9-7.1c0-2.6-1.1-5.2-2.9-7.1C377.2,354.4,374.6,353.3,372,353.3z
	"/>
</svg>
