<?xml version="1.0" encoding="utf-8"?>
<!-- Generator: Adobe Illustrator 24.2.3, SVG Export Plug-In . SVG Version: 6.00 Build 0)  -->
<svg version="1.1" id="Capa_1" xmlns="http://www.w3.org/2000/svg" xmlns:xlink="http://www.w3.org/1999/xlink" x="0px" y="0px"
	 viewBox="0 0 463.9 463.9" style="enable-background:new 0 0 463.9 463.9;" xml:space="preserve">
<style type="text/css">
	.st0{stroke:#000000;stroke-width:5;stroke-miterlimit:10;}
</style>
<g>
	<g>
		<path class="st0" d="M460.4,216.5l-85.6-73.1c0.1-0.5,0.2-1,0.3-1.6V46.2c-0.1-5.7-4.6-10.3-10.3-10.5H317c-5.5,0-10,4.9-10,10.5
			v39.6l-68.5-58.4c-3.7-3.2-9.2-3.2-13,0L3.6,216.4c-4.3,3.5-4.8,9.8-1.3,14.1s9.8,4.8,14.1,1.3c0.1-0.1,0.1-0.1,0.2-0.2L232,48.2
			l77.1,65.7l46.1,39.2l92.3,78.6c4.2,3.6,10.5,3.1,14.1-1.1C465.1,226.4,464.6,220.1,460.4,216.5z M355,126.5l-28-23.6V55.8h28
			V126.5z"/>
	</g>
</g>
<g>
	<g>
		<path class="st0" d="M416.3,236.7l-28.1-24L238.5,84.8c-3.7-3.2-9.2-3.2-13,0L75.8,212.7l-28.1,24c-4.2,3.6-4.7,9.9-1.1,14.1
			c3.5,4.2,9.7,4.7,13.8,1.2l0.1-0.1L73,241.1v187.5c0.1,5.6,4.7,10.2,10.3,10.3h297.3c5.6-0.1,10.2-4.6,10.3-10.3V241.1l12.5,10.8
			c1.8,1.5,4,2.4,6.4,2.4c2.9,0,5.7-1.3,7.6-3.5C421.1,246.5,420.5,240.2,416.3,236.7z M272,418.8h-80v-108h80V418.8z M292,418.8
			V301.1c0-5.5-4.1-10.3-9.6-10.3H181.6c-5.5,0-9.6,4.8-9.6,10.3v117.7H93V224l139-118.4L371,224v194.8H292z"/>
	</g>
</g>
</svg>
