<svg xmlns="http://www.w3.org/2000/svg" viewBox="0 0 692.01 399.85"><defs><style>.cls-1{isolation:isolate;}.cls-2{fill:#e0e0e0;}.cls-3{fill:#ebebeb;}.cls-4{fill:#fafafa;}.cls-5{fill:#f5f5f5;}.cls-6{fill:#00acf0;}.cls-7{fill:#263238;}.cls-8{fill:#455a64;}.cls-9{opacity:0.4;}.cls-10{fill:#fff;}.cls-11{opacity:0.3;}.cls-12{fill:#e69870;}.cls-13{fill:#dfbd94;}.cls-14{fill:#6f4942;}.cls-15{fill:#524741;}.cls-16{fill:#423632;}.cls-17{fill:#eebe8d;}.cls-18{fill:#e3d6af;}.cls-19{fill:#a07b71;}.cls-20{fill:#fbf3d6;}.cls-21{fill:#d0af8a;}.cls-22{fill:#eaac76;}.cls-23{fill:#453330;}.cls-24{fill:#342926;}.cls-25{fill:#a45745;opacity:0.5;mix-blend-mode:multiply;}.cls-26{fill:#77443c;}.cls-27{fill:#cf5151;}.cls-28{fill:#b93838;}.cls-29{fill:#4c413d;}.cls-30{fill:#c16a4e;}.cls-31{fill:#291d1c;}.cls-32{fill:#fbf4e5;}.cls-33{fill:#f8e6a7;}.cls-34{fill:#c9a457;}.cls-35{fill:#eed58e;}.cls-36{fill:#e7c573;}.cls-37{fill:#7c6961;}</style></defs><g class="cls-1"><g id="Background_Complete" data-name="Background Complete"><path class="cls-2" d="M578.56,118.66l1,3.53-3.18,22.48-5.93,1.65,3.14-21.48L565.75,127l1.07,3.84L562,132.2l-2.31-8.29Z" transform="translate(-27.83 -50.03)"/><path class="cls-2" d="M602.72,129.35c1.16,4.18-.89,8.67-7.62,10.54a16.91,16.91,0,0,1-9.7,0l1-4.78a11.83,11.83,0,0,0,7.3.26c2.72-.76,4.09-2.37,3.56-4.29s-2.07-2.73-6.35-1.54l-6,1.68-2.48-13.61,14.38-4L598,118l-9.84,2.73.88,4.59,1.92-.54C597.93,122.81,601.56,125.18,602.72,129.35Z" transform="translate(-27.83 -50.03)"/><path class="cls-2" d="M602.28,118.77c-1.06-3.84.38-7,3.55-7.88s6,1,7.1,4.92-.41,7-3.55,7.88S603.35,122.61,602.28,118.77Zm9-2.49c-.85-3.06-2.8-4.48-5-3.87s-3.13,2.86-2.28,5.9,2.77,4.49,5,3.87S612.09,119.35,611.24,116.28Zm8.91-9.19,2-.55-9.54,28.05-2,.55Zm-.33,18.78c-1.06-3.84.41-7,3.54-7.88s6,1.08,7.11,4.92-.38,7-3.55,7.88S620.89,129.71,619.82,125.87Zm9-2.49c-.84-3-2.77-4.49-5-3.87s-3.14,2.83-2.28,5.89,2.8,4.48,5,3.87S629.62,126.41,628.78,123.38Z" transform="translate(-27.83 -50.03)"/><rect class="cls-3" x="630.26" y="358.36" width="70.41" height="88.88" transform="translate(1299.93 760.74) rotate(-179.55)"/><polygon class="cls-4" points="645.66 311.2 644.4 397.26 633.28 397.17 635.66 311.13 645.66 311.2"/><polygon class="cls-2" points="562.36 310.55 602.76 310.87 673.16 311.42 602.68 320.69 602.09 396.93 561.71 396.61 562.36 310.55"/><polygon class="cls-4" points="584.35 310.73 582.75 396.78 570.76 396.68 572.72 310.63 584.35 310.73"/><path class="cls-2" d="M644.15,334.56c0,.18-1.19.4-3.36.61a87.78,87.78,0,0,1-9.23.41,51.69,51.69,0,0,1-13.78-1.81,9.88,9.88,0,0,1-2-.9,5.41,5.41,0,0,1-1.84-1.74,4.86,4.86,0,0,1-.74-2.57,9.64,9.64,0,0,1,.3-2.36,52.35,52.35,0,0,1,2.61-8.46,21.57,21.57,0,0,1,2.28-4.06,12.72,12.72,0,0,1,3.35-3.31,6.82,6.82,0,0,1,2.32-1,6,6,0,0,1,2.56,0,10.14,10.14,0,0,1,3.89,2.12A40.4,40.4,0,0,1,639.67,322a33.69,33.69,0,0,1,3.71,8.57c.55,2.14.61,3.36.46,3.4-.44.13-1.43-4.68-5.72-11a42.45,42.45,0,0,0-9.11-9.57,8.15,8.15,0,0,0-3-1.59,3.8,3.8,0,0,0-2.95.64,10.47,10.47,0,0,0-2.62,2.68,20,20,0,0,0-2,3.58,55,55,0,0,0-2.51,8,4,4,0,0,0,.07,3,4.79,4.79,0,0,0,2.53,1.7,32.72,32.72,0,0,0,3.47.92c1.15.26,2.29.46,3.4.63,2.21.35,4.29.55,6.21.68,3.83.26,7,.31,9.13.42S644.14,334.38,644.15,334.56Z" transform="translate(-27.83 -50.03)"/><path class="cls-4" d="M642.69,335.21c0-.18,1.28-.56,3.65-1.1s5.83-1.25,10-2.26a95.38,95.38,0,0,0,14.38-4.54,16.09,16.09,0,0,0,3.61-1.92,4,4,0,0,0,1.16-1.28,2.23,2.23,0,0,0,.2-1.46,8.07,8.07,0,0,0-.69-1.9c-.33-.71-.67-1.43-1-2.15a34.71,34.71,0,0,0-2.3-4.14,17.92,17.92,0,0,0-3-3.49,11.45,11.45,0,0,0-3.58-2.31,5.72,5.72,0,0,0-3.71-.16,9.68,9.68,0,0,0-3.33,2,50.48,50.48,0,0,0-9.63,11.35,43.77,43.77,0,0,0-4.28,9.14c-.75,2.29-1.05,3.6-1.25,3.57s-.19-1.39.27-3.82a35.07,35.07,0,0,1,3.66-9.82,48.13,48.13,0,0,1,9.65-12.22,11.69,11.69,0,0,1,4.15-2.59,8.18,8.18,0,0,1,5.33.13,11.27,11.27,0,0,1,2.38,1.19,18.65,18.65,0,0,1,2.07,1.59,19.85,19.85,0,0,1,3.39,4,37.86,37.86,0,0,1,2.47,4.45l1,2.21a9.86,9.86,0,0,1,.86,2.56,4.69,4.69,0,0,1-.49,3.06,6.42,6.42,0,0,1-1.88,2.07,18,18,0,0,1-4.2,2.16,82.56,82.56,0,0,1-14.91,4.12c-4.31.8-7.82,1.21-10.24,1.46S642.72,335.38,642.69,335.21Z" transform="translate(-27.83 -50.03)"/><rect class="cls-2" x="577.49" y="331.47" width="103.5" height="29.42" transform="translate(1227.92 647.23) rotate(-179.55)"/><rect class="cls-3" x="615.54" y="331.73" width="93.55" height="29.42" transform="translate(1294.08 648) rotate(-179.55)"/><polygon class="cls-4" points="652.68 281.84 652.02 311.39 641.11 311.17 641.87 281.76 652.68 281.84"/><polygon class="cls-4" points="575.16 281.38 574.1 310.67 562.11 310.57 562.75 281.14 575.16 281.38"/><rect class="cls-3" x="683.77" y="407.52" width="32.16" height="40.6" transform="translate(1368.52 811.07) rotate(-179.55)"/><polygon class="cls-4" points="675.69 358.81 675.12 398.12 670.04 398.08 671.13 358.77 675.69 358.81"/><polygon class="cls-2" points="637.64 358.51 656.09 358.66 688.25 358.91 656.06 363.14 655.79 397.97 637.34 397.82 637.64 358.51"/><polygon class="cls-4" points="647.69 358.59 646.95 397.9 641.48 397.86 642.37 358.55 647.69 358.59"/><path class="cls-2" d="M690.12,396.66c0,.33-2.15.83-5.77,1a22.44,22.44,0,0,1-6.49-.71,3.79,3.79,0,0,1-2.12-1.46,2.88,2.88,0,0,1-.45-1.53,5.67,5.67,0,0,1,.14-1.25,23.87,23.87,0,0,1,1.22-4,10.48,10.48,0,0,1,1.12-2A6.34,6.34,0,0,1,679.5,385a3.54,3.54,0,0,1,2.75-.49,5.24,5.24,0,0,1,2,1.12,18.07,18.07,0,0,1,4.21,5c1.81,3.31,1.79,5.7,1.48,5.74s-1-2-3-4.74a19.92,19.92,0,0,0-4.14-4.12,2.94,2.94,0,0,0-1.11-.59,1.06,1.06,0,0,0-.82.22,4.23,4.23,0,0,0-1,1.05,8.39,8.39,0,0,0-.83,1.51,24.19,24.19,0,0,0-1.12,3.53c-.15.56-.12.81-.07.87a1.53,1.53,0,0,0,.79.51,20.89,20.89,0,0,0,3,.75c1,.18,1.92.3,2.78.39C687.88,396.11,690.11,396.27,690.12,396.66Z" transform="translate(-27.83 -50.03)"/><path class="cls-4" d="M689.45,397c-.06-.38,2.35-1,6.14-2a49.57,49.57,0,0,0,6.43-2.19,7.07,7.07,0,0,0,1.49-.81,1.2,1.2,0,0,0,.33-.37c0-.08,0-.08,0-.23a11.1,11.1,0,0,0-.72-1.66,17.34,17.34,0,0,0-1-1.81,8,8,0,0,0-1.23-1.46,4.74,4.74,0,0,0-1.4-.92,1.91,1.91,0,0,0-1.26-.08,3.68,3.68,0,0,0-1.29.76,24.06,24.06,0,0,0-4.4,4.95c-2.11,3.18-2.55,5.62-3,5.56-.16,0-.27-.67-.14-1.82a14.31,14.31,0,0,1,1.51-4.66,21.28,21.28,0,0,1,4.41-5.83,5.84,5.84,0,0,1,2.12-1.33,4.34,4.34,0,0,1,2.87.05,5.3,5.3,0,0,1,1.24.61,8.71,8.71,0,0,1,1,.78,10,10,0,0,1,1.67,2,17.84,17.84,0,0,1,1.17,2.11c.16.35.31.69.47,1a5.34,5.34,0,0,1,.44,1.35,2.9,2.9,0,0,1-.3,1.83,3.66,3.66,0,0,1-1.06,1.16,8.29,8.29,0,0,1-2.08,1,35.11,35.11,0,0,1-6.95,1.77C692,397.31,689.51,397.28,689.45,397Z" transform="translate(-27.83 -50.03)"/><rect class="cls-2" x="659.67" y="395.24" width="47.27" height="13.44" transform="translate(1335.62 759.22) rotate(-179.55)"/><rect class="cls-3" x="677.05" y="395.36" width="42.73" height="13.44" transform="translate(1365.84 759.57) rotate(-179.55)"/><polygon class="cls-4" points="678.9 345.4 678.6 358.9 673.61 358.79 673.96 345.36 678.9 345.4"/><polygon class="cls-4" points="643.49 345.19 643 358.57 637.53 358.52 637.82 345.08 643.49 345.19"/><rect class="cls-3" x="71.98" y="375.25" width="57.68" height="72.81" transform="translate(170.6 774.05) rotate(-179.55)"/><polygon class="cls-4" points="79.56 327.58 78.54 398.07 69.43 398 71.38 327.51 79.56 327.58"/><polygon class="cls-2" points="11.33 327.04 44.42 327.3 102.1 327.75 44.36 335.35 43.87 397.8 10.79 397.54 11.33 327.04"/><polygon class="cls-4" points="29.34 327.19 28.03 397.68 18.21 397.6 19.82 327.11 29.34 327.19"/><path class="cls-2" d="M83.36,355.76c0,.36-1,.73-2.73,1.09a49.27,49.27,0,0,1-13,.7c-1-.09-2-.2-3-.38a25.79,25.79,0,0,1-3.3-.72,9.4,9.4,0,0,1-1.95-.85,5.92,5.92,0,0,1-2-1.87,5.53,5.53,0,0,1-.85-2.87,9.36,9.36,0,0,1,.27-2.3,42.64,42.64,0,0,1,2.19-7.2,19.46,19.46,0,0,1,2-3.6,17.28,17.28,0,0,1,1.37-1.62,9.15,9.15,0,0,1,1.81-1.47,7.21,7.21,0,0,1,2.41-1,6.27,6.27,0,0,1,2.73.06,9.55,9.55,0,0,1,3.73,2.06,32.31,32.31,0,0,1,7.56,9.09,23.84,23.84,0,0,1,2.69,7.42c.29,1.84.14,2.9-.19,3-.77.19-2-3.59-5.6-8.4a36.52,36.52,0,0,0-7.42-7.3,5.05,5.05,0,0,0-1.89-1,1.66,1.66,0,0,0-1.28.36,5.46,5.46,0,0,0-.85.74c-.28.31-.59.7-.87,1.08a15.23,15.23,0,0,0-1.46,2.65,46.17,46.17,0,0,0-2,6.29,4.47,4.47,0,0,0-.19,1.06c0,.23,0,.25,0,.3a2.52,2.52,0,0,0,1.29.82,26.19,26.19,0,0,0,2.65.78c.91.23,1.81.41,2.68.58,1.75.32,3.42.55,5,.73,3.08.35,5.64.56,7.41.83S83.35,355.4,83.36,355.76Z" transform="translate(-27.83 -50.03)"/><path class="cls-4" d="M82.17,356.28c-.13-.74,4.19-1.94,11-3.81a87.79,87.79,0,0,0,11.47-4,11.52,11.52,0,0,0,2.6-1.43,1.71,1.71,0,0,0,.53-.58c0-.09,0,0,0-.25a5.94,5.94,0,0,0-.46-1.16l-.83-1.73a29.71,29.71,0,0,0-1.79-3.21,13.47,13.47,0,0,0-2.16-2.57,10.25,10.25,0,0,0-1.24-1,5.44,5.44,0,0,0-1.18-.63,3.19,3.19,0,0,0-2.09-.15,6.36,6.36,0,0,0-2.23,1.32,43.53,43.53,0,0,0-7.89,8.77c-3.81,5.64-4.67,10-5.46,9.88-.34,0-.58-1.21-.36-3.29a25.49,25.49,0,0,1,2.64-8.43,38,38,0,0,1,7.9-10.54,10.92,10.92,0,0,1,3.89-2.45,8.17,8.17,0,0,1,5.33.09,10.43,10.43,0,0,1,2.27,1.12,15.27,15.27,0,0,1,1.88,1.43,17.65,17.65,0,0,1,3,3.55,32.7,32.7,0,0,1,2.12,3.83l.84,1.84a9.68,9.68,0,0,1,.81,2.49,5.35,5.35,0,0,1-.58,3.45,6.66,6.66,0,0,1-2,2.17,15.7,15.7,0,0,1-3.8,1.91,61.35,61.35,0,0,1-12.51,3.12,64.18,64.18,0,0,1-8.53.73C83.37,356.81,82.22,356.64,82.17,356.28Z" transform="translate(-27.83 -50.03)"/><rect class="cls-2" x="28.75" y="353.22" width="84.78" height="24.1" transform="translate(111.6 681.06) rotate(-179.55)"/><rect class="cls-3" x="59.93" y="353.43" width="76.64" height="24.1" transform="translate(165.81 681.7) rotate(-179.55)"/><polygon class="cls-4" points="85.32 303.52 84.78 327.73 75.84 327.55 76.46 303.45 85.32 303.52"/><polygon class="cls-4" points="21.81 303.15 20.95 327.14 11.12 327.06 11.65 302.95 21.81 303.15"/><path class="cls-2" d="M137.8,76.68l1,3.81-15.25,3.92-.78-3,5.9-9.35c1.35-2.16,1.4-3.28,1.15-4.26-.41-1.59-1.74-2.23-3.87-1.68a5.07,5.07,0,0,0-3.66,3.09l-4-1.32c1-2.68,3.42-4.87,7-5.81,4.5-1.15,8.09.39,9,4,.51,2,.42,3.89-1.74,7.24l-3.51,5.57Z" transform="translate(-27.83 -50.03)"/><path class="cls-2" d="M138.06,69.92c-1.71-6.67,1-11.39,6-12.66s9.62,1.55,11.33,8.21-1,11.38-6,12.66S139.77,76.58,138.06,69.92Zm12.6-3.24c-1.18-4.59-3.28-6.07-5.62-5.47s-3.43,2.91-2.25,7.49,3.28,6.07,5.59,5.48S151.84,71.26,150.66,66.68Z" transform="translate(-27.83 -50.03)"/><path class="cls-2" d="M156.51,60.11c-.85-3.29.44-6,3.15-6.65s5.11,1,6,4.31-.47,6-3.15,6.65S157.35,63.39,156.51,60.11Zm7.67-2c-.68-2.63-2.32-3.87-4.19-3.38s-2.71,2.38-2,5,2.28,3.87,4.19,3.38S164.85,60.76,164.18,58.14Zm7.74-7.68,1.7-.43L165,73.75l-1.7.44Zm-.6,16c-.84-3.29.47-6,3.15-6.65s5.12,1,6,4.31-.44,6-3.15,6.64S172.17,69.73,171.32,66.45Zm7.67-2c-.67-2.6-2.28-3.87-4.19-3.38s-2.71,2.35-2,5,2.32,3.86,4.19,3.38S179.66,67.07,179,64.48Z" transform="translate(-27.83 -50.03)"/><path class="cls-2" d="M372.23,139.91c.08,4.13-3,8-10,8.08a16.76,16.76,0,0,1-9.37-2.46l2.12-4.37a12,12,0,0,0,7,2.08c2.83-.05,4.56-1.23,4.53-3.23,0-1.85-1.42-3-4.63-2.92l-2.59,0-.06-3.74,4.93-5.78-10.42.18-.07-4.55,17.12-.29.07,3.67L365.47,133C369.89,133.63,372.17,136.31,372.23,139.91Z" transform="translate(-27.83 -50.03)"/><path class="cls-2" d="M374.77,135.12C374.63,127,379,122.39,385,122.28s10.56,4.4,10.7,12.47-4.22,12.74-10.26,12.84S374.91,143.19,374.77,135.12Zm15.28-.27c-.1-5.55-2.1-7.83-4.93-7.78s-4.71,2.39-4.61,8,2.09,7.83,4.88,7.78S390.14,140.41,390.05,134.85Z" transform="translate(-27.83 -50.03)"/><path class="cls-2" d="M398.51,128.94c-.07-4,2.12-6.68,5.41-6.74s5.57,2.53,5.64,6.55-2.16,6.68-5.41,6.73S398.58,132.92,398.51,128.94Zm9.3-.16c-.06-3.18-1.59-5-3.86-5s-3.75,2-3.69,5.14,1.55,5,3.86,5S407.86,132,407.81,128.78Zm10.93-6.66,2.06,0-16.28,24.75-2.06,0Zm-5,18.09c-.06-4,2.16-6.68,5.41-6.73s5.57,2.56,5.64,6.54-2.12,6.68-5.41,6.74S413.77,144.2,413.7,140.21Zm9.3-.16c-.05-3.14-1.55-5-3.86-5s-3.74,1.95-3.69,5.13,1.59,5,3.86,5S423.06,143.2,423,140.05Z" transform="translate(-27.83 -50.03)"/><path class="cls-5" d="M445.58,64.33c-.48,3.12-3.19,5.49-8.23,4.72a12.33,12.33,0,0,1-6.44-2.91L433,63.26a8.58,8.58,0,0,0,4.77,2.35c2.05.31,3.44-.35,3.66-1.79s-.56-2.43-3.76-2.92l-4.51-.69,2.42-9.79,10.76,1.64-.5,3.28-7.36-1.12-.79,3.3,1.44.22C444.35,58.54,446.06,61.2,445.58,64.33Z" transform="translate(-27.83 -50.03)"/><path class="cls-5" d="M447.74,61.31c.89-5.83,4.62-8.64,9-8s7.06,4.45,6.17,10.28-4.6,8.63-9,8S446.86,67.13,447.74,61.31Zm11,1.68c.61-4-.55-5.89-2.59-6.2s-3.68,1.14-4.29,5.15.54,5.88,2.56,6.19S458.15,67,458.76,63Z" transform="translate(-27.83 -50.03)"/><path class="cls-5" d="M465.57,59.77c.44-2.87,2.35-4.54,4.72-4.18s3.69,2.5,3.25,5.4-2.37,4.54-4.72,4.18S465.13,62.65,465.57,59.77ZM481,57.35l1.49.23L467.7,73.38l-1.49-.23Zm-8.67,3.45c.35-2.3-.53-3.82-2.17-4.07s-2.93,1-3.28,3.24.5,3.81,2.17,4.07S471.93,63.09,472.28,60.8Zm2.83,8.94c.44-2.87,2.37-4.54,4.72-4.18s3.69,2.53,3.25,5.4-2.35,4.54-4.72,4.18S474.67,72.62,475.11,69.74Zm6.71,1c.34-2.27-.5-3.82-2.17-4.07s-2.93.94-3.28,3.23.53,3.83,2.17,4.08S481.47,73,481.82,70.77Z" transform="translate(-27.83 -50.03)"/><path class="cls-5" d="M44.24,149.19l-3.66,15.63L37,164l3-12.73-3.13-.73.68-2.91Z" transform="translate(-27.83 -50.03)"/><path class="cls-5" d="M45.14,157.65c1.2-5.16,4.75-7.42,8.59-6.52s6,4.5,4.8,9.65-4.72,7.42-8.59,6.52S43.93,162.81,45.14,157.65Zm9.76,2.28c.83-3.55-.08-5.32-1.89-5.74s-3.38.76-4.21,4.31.07,5.32,1.86,5.74S54.06,163.48,54.9,159.93Z" transform="translate(-27.83 -50.03)"/><path class="cls-5" d="M75.19,156.44l1.32.31L62.17,169.88l-1.31-.31Zm-14,1.09c.6-2.55,2.43-3.91,4.53-3.42s3.13,2.5,2.53,5.07-2.44,3.9-4.52,3.42S60.63,160.07,61.22,157.53Zm5.94,1.39c.48-2-.2-3.46-1.65-3.8s-2.7.66-3.17,2.67.18,3.46,1.66,3.8S66.69,161,67.16,158.92Zm1.92,8.22c.59-2.55,2.44-3.9,4.52-3.42s3.13,2.53,2.54,5.07-2.43,3.91-4.53,3.42S68.48,169.68,69.08,167.14ZM75,168.53c.47-2-.18-3.46-1.65-3.8s-2.7.64-3.17,2.67.2,3.46,1.65,3.8S74.55,170.54,75,168.53Z" transform="translate(-27.83 -50.03)"/></g><g id="Plant"><path class="cls-6" d="M138.9,310.87c-17.41-17.81-44.68-25.3-68.74-18.86a125.25,125.25,0,0,0,69.55,21.73" transform="translate(-27.83 -50.03)"/><path class="cls-6" d="M115.58,228.31c2.87-20.26-5-43-20.17-57.77-.5,20.08,8,42.67,20.17,57.77" transform="translate(-27.83 -50.03)"/><path class="cls-6" d="M127.71,266.57A108.16,108.16,0,0,0,78,219.1c6.33,23.32,26.28,42.4,49.86,47.69" transform="translate(-27.83 -50.03)"/><path class="cls-6" d="M130.22,274c-12.23.34-24.62-.09-36.45-3.22s-23.16-9.15-31-18.52A121.84,121.84,0,0,1,130,272.77" transform="translate(-27.83 -50.03)"/><path class="cls-6" d="M124,249.64c6.21-23.28,16.46-39.38,34.75-52.42A48.4,48.4,0,0,1,124,249.64" transform="translate(-27.83 -50.03)"/><path class="cls-6" d="M170.19,289.78a34.44,34.44,0,0,0-20.93-31.91c1,12,10.46,25.92,20.93,31.91" transform="translate(-27.83 -50.03)"/><path class="cls-6" d="M176,270.15c1.39-19.44,15.2-37.43,33.63-43.79C205.44,245.81,194.2,262,176,270.15" transform="translate(-27.83 -50.03)"/><path class="cls-6" d="M167.23,305c4.31-6.17,11.35-10,18.64-11.92s14.9-2.07,22.43-2.23a52.43,52.43,0,0,1-40.5,16.87" transform="translate(-27.83 -50.03)"/><path class="cls-6" d="M158.48,354.59a57.46,57.46,0,0,1,70.15,33.23C203.15,383,178,371.67,158.48,354.59" transform="translate(-27.83 -50.03)"/><path class="cls-6" d="M130.52,337.35c4.23,12.51,3.42,27.64-6,38.42a45.88,45.88,0,0,1,6-38.42" transform="translate(-27.83 -50.03)"/><path class="cls-6" d="M114,330.4a47.1,47.1,0,0,1-26,38.2,2.92,2.92,0,0,1-2.3.37c-1.15-.46-1.25-2-1.11-3.26,1.84-16,13.72-31.53,29.41-35.31" transform="translate(-27.83 -50.03)"/><path class="cls-6" d="M103.19,328.77a38.61,38.61,0,0,1-56.39.29c17.92-2,38.61-3.27,56.39-.29" transform="translate(-27.83 -50.03)"/><path class="cls-7" d="M100.51,185.47a3.27,3.27,0,0,0,.16.53c.14.37.32.87.55,1.51.51,1.36,1.23,3.31,2.16,5.81s2.08,5.6,3.37,9.2l2.07,5.75c.71,2,1.46,4.22,2.24,6.49,3.18,9.08,6.7,20,10.51,32.1s7.67,25.57,11.53,39.72,7.19,27.74,10.06,40.13,5.2,23.6,6.93,33.06q.67,3.54,1.27,6.74c.37,2.13.71,4.15,1,6,.65,3.76,1.2,7,1.58,9.67s.72,4.69.94,6.12c.11.67.2,1.2.26,1.59a3.36,3.36,0,0,0,.11.54,3.24,3.24,0,0,0,0-.55c-.05-.39-.11-.92-.2-1.6-.19-1.44-.46-3.5-.81-6.14s-.85-5.92-1.46-9.69c-.31-1.89-.63-3.91-1-6.05s-.79-4.38-1.22-6.75c-1.68-9.48-4-20.69-6.79-33.11s-6.21-26-10-40.17-7.81-27.58-11.59-39.73-7.41-23-10.65-32.07q-1.2-3.4-2.29-6.47l-2.12-5.74c-1.33-3.59-2.48-6.67-3.48-9.17s-1.75-4.41-2.28-5.76l-.61-1.49A3.92,3.92,0,0,0,100.51,185.47Z" transform="translate(-27.83 -50.03)"/><path class="cls-7" d="M199,236.75a1.92,1.92,0,0,0-.31.29l-.86.9c-.75.8-1.83,2-3.18,3.56a125.14,125.14,0,0,0-10.56,14.08,94.11,94.11,0,0,0-11,23.61c-3,9.39-4.8,20.08-6.62,31.24-3.65,22.35-8.12,42.37-11.36,56.85-1.63,7.21-3,13.05-3.88,17.15-.44,2-.79,3.55-1,4.66-.11.51-.19.91-.26,1.22a2.16,2.16,0,0,0-.06.42,2,2,0,0,0,.13-.41c.08-.3.19-.7.32-1.2.28-1.1.66-2.65,1.16-4.63,1-4.08,2.37-9.91,4.09-17.1,3.36-14.45,7.91-34.47,11.56-56.85,1.83-11.16,3.64-21.81,6.55-31.17a95.59,95.59,0,0,1,10.84-23.53,133.88,133.88,0,0,1,10.35-14.16c1.32-1.6,2.37-2.82,3.09-3.65.33-.39.6-.7.8-.95A2.28,2.28,0,0,0,199,236.75Z" transform="translate(-27.83 -50.03)"/><path class="cls-7" d="M97.84,328a2.16,2.16,0,0,0,.64.12l1.86.2,1.34.14,1.58.23c1.14.17,2.44.34,3.85.65l2.23.45,2.38.6c1.66.37,3.37,1,5.2,1.53a76.31,76.31,0,0,1,11.35,5A63.67,63.67,0,0,1,138.45,344a50.34,50.34,0,0,1,3.9,3.75,39.37,39.37,0,0,1,3.09,3.57,35.89,35.89,0,0,1,2.29,3.15A25.12,25.12,0,0,1,149.3,357l.95,1.61a2.51,2.51,0,0,0,.37.54,2.21,2.21,0,0,0-.25-.61l-.84-1.67a20.06,20.06,0,0,0-1.48-2.57,34.48,34.48,0,0,0-2.22-3.24,40.64,40.64,0,0,0-3.06-3.66,49.24,49.24,0,0,0-3.91-3.83,61.12,61.12,0,0,0-10.26-7.19,73.11,73.11,0,0,0-11.48-5c-1.85-.54-3.58-1.13-5.26-1.48l-2.41-.57-2.25-.4c-1.43-.29-2.74-.42-3.89-.56l-1.6-.18-1.35-.07L98.49,328A2.48,2.48,0,0,0,97.84,328Z" transform="translate(-27.83 -50.03)"/><path class="cls-7" d="M92.73,237.17A8.74,8.74,0,0,0,94,238.42l3.69,3.2c3.14,2.68,7.5,6.34,12.34,10.36s9.26,7.63,12.47,10.21l3.83,3a8.23,8.23,0,0,0,1.46,1,8.74,8.74,0,0,0-1.29-1.25l-3.69-3.2c-3.14-2.68-7.5-6.34-12.34-10.36s-9.25-7.62-12.46-10.2l-3.83-3A9.9,9.9,0,0,0,92.73,237.17Z" transform="translate(-27.83 -50.03)"/><path class="cls-7" d="M88.32,260.89c0,.18,9.36,3.12,21,6.57s21.17,6.09,21.22,5.91-9.36-3.13-21-6.57S88.38,260.71,88.32,260.89Z" transform="translate(-27.83 -50.03)"/><path class="cls-7" d="M123.08,251.45a8.45,8.45,0,0,0,1-1.35l2.48-3.78c2.1-3.19,5.09-7.53,8.63-12.16s6.94-8.65,9.45-11.52c1.18-1.36,2.18-2.5,3-3.4a8.62,8.62,0,0,0,1-1.3,6.59,6.59,0,0,0-1.24,1.11c-.77.75-1.84,1.86-3.15,3.26-2.6,2.8-6.08,6.8-9.63,11.44s-6.48,9.05-8.49,12.3c-1,1.63-1.79,3-2.3,3.91A7.08,7.08,0,0,0,123.08,251.45Z" transform="translate(-27.83 -50.03)"/><path class="cls-7" d="M155.76,264.61a32.53,32.53,0,0,0,2.21,3.63c1.41,2.21,3.32,5.28,5.29,8.75s3.64,6.69,4.83,9a32,32,0,0,0,2,3.75,22.23,22.23,0,0,0-1.56-4c-1.07-2.4-2.68-5.66-4.66-9.16s-4-6.53-5.48-8.68A22,22,0,0,0,155.76,264.61Z" transform="translate(-27.83 -50.03)"/><path class="cls-7" d="M167,305.63c.05.09,1.84-.79,4.78-2.11s7-3,11.68-4.68,8.93-2.83,12.05-3.62,5.07-1.24,5-1.34a5.39,5.39,0,0,0-1.4.15c-.9.13-2.18.37-3.76.71a103,103,0,0,0-12.17,3.46,104.65,104.65,0,0,0-11.66,4.88c-1.45.72-2.6,1.33-3.39,1.79A5.75,5.75,0,0,0,167,305.63Z" transform="translate(-27.83 -50.03)"/><path class="cls-7" d="M158.14,354.67a2.29,2.29,0,0,0,.58.19l1.7.43,6.26,1.45a205.87,205.87,0,0,1,20.44,5.4,90.5,90.5,0,0,1,19.08,9c2.28,1.45,4.06,2.73,5.26,3.66a19.54,19.54,0,0,0,1.89,1.4s-.13-.17-.42-.45-.72-.68-1.31-1.16a55.08,55.08,0,0,0-5.16-3.86,83.62,83.62,0,0,0-19.11-9.2,169,169,0,0,0-20.57-5.22L160.47,355A15.81,15.81,0,0,0,158.14,354.67Z" transform="translate(-27.83 -50.03)"/><path class="cls-7" d="M126.31,366.75c.18,0,1.3-6.57,2.5-14.74s2-14.82,1.82-14.85-1.3,6.58-2.5,14.75S126.12,366.73,126.31,366.75Z" transform="translate(-27.83 -50.03)"/><path class="cls-7" d="M93.16,354.72a35.42,35.42,0,0,0,3-3.55c1.79-2.23,4.27-5.3,7.08-8.64s5.4-6.32,7.29-8.47a33.18,33.18,0,0,0,3-3.55,4.77,4.77,0,0,0-1,.81c-.58.56-1.39,1.38-2.39,2.42-2,2.07-4.64,5-7.46,8.35s-5.24,6.47-6.94,8.78c-.85,1.16-1.52,2.11-2,2.77A4.28,4.28,0,0,0,93.16,354.72Z" transform="translate(-27.83 -50.03)"/><polygon class="cls-8" points="153.05 335.43 153.05 351.81 148.96 351.81 134.4 397.76 102.11 397.76 88.01 352.27 82.55 351.81 82.55 335.43 153.05 335.43"/><path class="cls-7" d="M113.11,402.29c0,.19,14.25.35,31.83.35s31.84-.16,31.84-.35-14.25-.34-31.84-.34S113.11,402.1,113.11,402.29Z" transform="translate(-27.83 -50.03)"/><path class="cls-7" d="M89.89,296.94a12.86,12.86,0,0,0,2.07.56l5.66,1.37c4.78,1.18,11.34,3,18.45,5.36s13.43,4.93,18,6.88l5.34,2.33a13.67,13.67,0,0,0,2,.81,12.09,12.09,0,0,0-1.87-1.05c-1.22-.64-3-1.51-5.26-2.54a186.09,186.09,0,0,0-36.48-12.27c-2.4-.53-4.36-.92-5.72-1.15A13.35,13.35,0,0,0,89.89,296.94Z" transform="translate(-27.83 -50.03)"/><path class="cls-4" d="M123.83,427.81c0,.19,10,.34,22.33.34s22.34-.15,22.34-.34-10-.34-22.34-.34S123.83,427.62,123.83,427.81Z" transform="translate(-27.83 -50.03)"/><path class="cls-4" d="M122.57,424c0,.19,10.6.34,23.67.34s23.68-.15,23.68-.34-10.6-.34-23.68-.34S122.57,423.82,122.57,424Z" transform="translate(-27.83 -50.03)"/></g><g id="Label"><path class="cls-6" d="M636.15,321.77l-66.67-74.9a28.24,28.24,0,0,0-20.88-9.46l-219.49-1.59a28.22,28.22,0,0,0-28.43,28.29l.37,155.42a28.22,28.22,0,0,0,28.34,28.16l218.73-.92A28.21,28.21,0,0,0,569.4,437l67.07-78A28.24,28.24,0,0,0,636.15,321.77Zm-37.1,27a23.28,23.28,0,1,1-12.8-30.33A23.28,23.28,0,0,1,599.05,348.73Z" transform="translate(-27.83 -50.03)"/><g class="cls-9"><path d="M636.15,321.77l-66.67-74.9a28.24,28.24,0,0,0-20.88-9.46l-219.49-1.59a28.22,28.22,0,0,0-28.43,28.29l.37,155.42a28.22,28.22,0,0,0,28.34,28.16l218.73-.92A28.21,28.21,0,0,0,569.4,437l67.07-78A28.24,28.24,0,0,0,636.15,321.77Zm-37.1,27a23.28,23.28,0,1,1-12.8-30.33A23.28,23.28,0,0,1,599.05,348.73Z" transform="translate(-27.83 -50.03)"/></g><path class="cls-6" d="M647.7,321.77,581,246.87a28.26,28.26,0,0,0-20.88-9.46l-219.49-1.59a28.21,28.21,0,0,0-28.43,28.29l.36,155.42A28.23,28.23,0,0,0,341,447.69l218.72-.92A28.23,28.23,0,0,0,581,437l67.06-78A28.23,28.23,0,0,0,647.7,321.77Zm-37.09,27a23.28,23.28,0,1,1-12.8-30.33A23.28,23.28,0,0,1,610.61,348.73Z" transform="translate(-27.83 -50.03)"/><path class="cls-10" d="M385.24,316.56c.17-18.84,11.78-30.71,28.06-30.55s27.51,12.07,27.34,31.06S429,347.78,412.73,347.63,385.06,335.4,385.24,316.56Zm39.43.37c.11-12-4.46-17.77-11.49-17.83-6.86-.07-11.71,5.79-11.82,17.61s4.63,17.76,11.49,17.83C419.88,334.6,424.56,328.9,424.67,316.93Zm55.19-29,19,.18-77.35,111-19-.18ZM460.74,370c.18-18.84,11.78-30.71,27.91-30.56,16.28.16,27.66,12.24,27.49,31.07S504.36,401.17,488.07,401C472,400.87,460.57,388.79,460.74,370Zm39.27.36c.11-11.81-4.46-17.76-11.49-17.82-6.86-.07-11.7,5.63-11.81,17.61s4.62,17.76,11.48,17.83C495.22,388,499.9,382.13,500,370.31Z" transform="translate(-27.83 -50.03)"/><path class="cls-7" d="M640.4,368a10.19,10.19,0,0,1,2.19,1.57c1.37,1.09,3.37,2.73,5.9,4.9s5.61,4.85,9.07,8.08,7.34,7,11.35,11.47a116.24,116.24,0,0,1,11.93,15.57l1.42,2.27,1.34,2.37a52,52,0,0,1,2.54,5A31.29,31.29,0,0,1,689,430.77a18.22,18.22,0,0,1-.92,6.29,16.21,16.21,0,0,1-3.3,5.67,21.28,21.28,0,0,1-11.44,6.54,31.12,31.12,0,0,1-13.51-.32A59.1,59.1,0,0,1,647,444.22a80.18,80.18,0,0,1-21.51-16,103.46,103.46,0,0,1-8.31-9.66q-3.76-4.93-7.16-9.81c-9-13-16-25.5-20.4-36.68-1.1-2.79-2.05-5.47-2.87-8.05-.4-1.29-.78-2.55-1.09-3.8a23.61,23.61,0,0,1-.73-3.69,9.15,9.15,0,0,1,1.65-6.71,9.76,9.76,0,0,1,4.74-3.3,13.28,13.28,0,0,1,2.38-.55,13,13,0,0,1,2.14-.05,10.06,10.06,0,0,1,3.26.71,6.62,6.62,0,0,1,1.74,1.07c.34.31.49.48.46.52s-.24-.07-.62-.3a7.7,7.7,0,0,0-1.76-.79,10.3,10.3,0,0,0-3.1-.44,14.37,14.37,0,0,0-2,.16,13,13,0,0,0-2.17.62,8.81,8.81,0,0,0-4.08,3.08,7.83,7.83,0,0,0-1.2,5.8,21.89,21.89,0,0,0,.78,3.47c.33,1.2.74,2.42,1.16,3.68q1.31,3.78,3,7.88c4.53,10.9,11.61,23.21,20.65,36q3.4,4.8,7.17,9.67a102.14,102.14,0,0,0,8.17,9.4,78.69,78.69,0,0,0,20.84,15.48,57.26,57.26,0,0,0,12.3,4.54,28.77,28.77,0,0,0,12.4.35,18.93,18.93,0,0,0,10.12-5.7,14.7,14.7,0,0,0,3.68-10.26A29.13,29.13,0,0,0,684,420.15a50.58,50.58,0,0,0-2.39-4.84L680.36,413,679,410.74a117.8,117.8,0,0,0-11.49-15.49c-3.86-4.48-7.61-8.32-11-11.64s-6.32-6.1-8.75-8.37L642.24,370A11,11,0,0,1,640.4,368Z" transform="translate(-27.83 -50.03)"/><path class="cls-7" d="M536.23,212.79c-.14,0-2.94-19.55-6.26-43.71s-5.89-43.76-5.74-43.78,2.94,19.55,6.26,43.71S536.38,212.77,536.23,212.79Z" transform="translate(-27.83 -50.03)"/><path class="cls-7" d="M618.68,105.76a1.26,1.26,0,0,1-.09.3l-.32.87L617,110.26l-4.76,12.22c-4,10.32-9.48,24.6-15.3,40.47s-10.87,30.3-14.47,40.77c-1.79,5.21-3.24,9.44-4.25,12.41-.5,1.43-.89,2.56-1.17,3.37-.13.36-.24.64-.32.87a1.48,1.48,0,0,1-.12.29,1.05,1.05,0,0,1,.07-.31l.27-.89c.25-.81.61-2,1.07-3.4.94-2.95,2.34-7.21,4.1-12.46,3.52-10.5,8.52-25,14.34-40.83s11.33-30.14,15.43-40.43c2-5.14,3.74-9.3,4.93-12.16l1.37-3.29c.15-.35.28-.63.37-.85Z" transform="translate(-27.83 -50.03)"/><path class="cls-7" d="M677.76,182.72c.09.11-14.22,11.32-32,25s-32.2,24.74-32.29,24.62,14.23-11.32,32-25S677.68,182.6,677.76,182.72Z" transform="translate(-27.83 -50.03)"/><path class="cls-7" d="M501.52,216.44c-.12.09-5.65-7-12.36-15.76s-12.07-16-12-16.07,5.65,7,12.36,15.76S501.63,216.35,501.52,216.44Z" transform="translate(-27.83 -50.03)"/><path class="cls-7" d="M671,271.56c0,.14-8.81-2.3-19.59-5.44s-19.48-5.8-19.44-5.94,8.81,2.3,19.59,5.44S671.05,271.42,671,271.56Z" transform="translate(-27.83 -50.03)"/><polygon class="cls-10" points="517.16 221.22 523.66 217.47 527.12 210.81 530.86 217.31 537.52 220.77 531.02 224.51 527.56 231.17 523.82 224.67 517.16 221.22"/><polygon class="cls-10" points="482.02 210.89 484.3 209.58 485.51 207.25 486.82 209.53 489.15 210.74 486.88 212.05 485.67 214.38 484.36 212.1 482.02 210.89"/><polygon class="cls-10" points="504.46 256.82 508.86 254.29 511.2 249.78 513.73 254.18 518.24 256.52 513.84 259.05 511.5 263.56 508.97 259.16 504.46 256.82"/></g><g id="Floor"><path class="cls-7" d="M716.81,447.79c0,.14-154.25.26-344.48.26s-344.5-.12-344.5-.26,154.21-.26,344.5-.26S716.81,447.64,716.81,447.79Z" transform="translate(-27.83 -50.03)"/></g><g id="Speech_Bubble" data-name="Speech Bubble"><path class="cls-10" d="M239.34,189.73l-9.2-16.22a43.44,43.44,0,1,0-10.41,11.58v0Z" transform="translate(-27.83 -50.03)"/><path class="cls-7" d="M239.34,189.73l-19.65-4.5a.12.12,0,0,1-.1-.15s0,0,0-.05l0,0,.18.18a44.09,44.09,0,0,1-8.92,5.38A43.48,43.48,0,0,1,199,194a38.66,38.66,0,0,1-6.86.34c-1.19-.06-2.39-.09-3.6-.19l-3.67-.56a43.76,43.76,0,0,1-27.11-17.4,43.29,43.29,0,0,1-7.33-16.76,44.23,44.23,0,0,1,.51-19.3,42.84,42.84,0,0,1,9.3-17.84l1.77-2c.59-.66,1.28-1.2,1.91-1.8s1.26-1.21,2-1.71l2.08-1.56a18.35,18.35,0,0,1,2.16-1.43l2.2-1.33,2.3-1.12a20.19,20.19,0,0,1,2.33-1,44.2,44.2,0,0,1,19.44-3,42.71,42.71,0,0,1,17.85,5.27A44,44,0,0,1,234.83,138a46.71,46.71,0,0,1,1.89,14.11,43.32,43.32,0,0,1-2.12,12.18,44.1,44.1,0,0,1-4.36,9.34v-.13l9.09,16.28L230,173.57a.13.13,0,0,1,0-.12,44.18,44.18,0,0,0,4.27-9.3,42.85,42.85,0,0,0,2.06-12.1,46.8,46.8,0,0,0-1.91-14A43.67,43.67,0,0,0,214,113a42.31,42.31,0,0,0-17.65-5.19,43.77,43.77,0,0,0-19.22,3,20.47,20.47,0,0,0-2.3,1l-2.27,1.1-2.18,1.32a18.69,18.69,0,0,0-2.13,1.41l-2.06,1.54c-.7.5-1.29,1.14-1.94,1.7s-1.31,1.12-1.88,1.77l-1.75,1.93a42.33,42.33,0,0,0-9.2,17.63,43.8,43.8,0,0,0-.52,19.07,42.92,42.92,0,0,0,7.23,16.58,43.41,43.41,0,0,0,26.8,17.28l3.63.56c1.2.1,2.39.13,3.56.2a38.24,38.24,0,0,0,6.82-.32,43.12,43.12,0,0,0,11.81-3.32,44,44,0,0,0,8.89-5.29.13.13,0,0,1,.19,0,.15.15,0,0,1,0,.16l0,0-.07-.21Z" transform="translate(-27.83 -50.03)"/><path class="cls-6" d="M180.45,142.54a6,6,0,0,0-2.16-.56,6.46,6.46,0,0,0-5.95,2.2c4.69,2.72,11.08,6.33,15.65,8.94l5.77-3.3C189.6,147.53,184.38,144.65,180.45,142.54Z" transform="translate(-27.83 -50.03)"/><g class="cls-11"><path d="M180.45,142.54a6,6,0,0,0-2.16-.56,6.46,6.46,0,0,0-5.95,2.2c4.69,2.72,11.08,6.33,15.65,8.94l5.77-3.3C189.6,147.53,184.38,144.65,180.45,142.54Z" transform="translate(-27.83 -50.03)"/></g><path class="cls-6" d="M198.12,159.2l-.21-.18c-1.44-.83-3-2.41-4.42-2.38-.55,0-1.15.49-2.58,1.29-2.38,1.35-6.39,3.7-8.79,5-2,1.13-4.54,2-6.87,1.24a9.84,9.84,0,0,1-3.22-1.95l26.08-15.12c-.13-.39-.27-.76-.4-1.14a7.47,7.47,0,1,1,6.25,5,3.41,3.41,0,0,0-1.74.35c-1,.48-1.92,1.09-3.11,1.77,2,.9,3.37,2.34,5.72,2.12,3.24-.3,6.11,2.05,7.1,5.18a7.44,7.44,0,0,1-2.78,8.27,7.47,7.47,0,0,1-11.44-8.44C197.83,159.92,198,159.58,198.12,159.2Zm6.66-12a3.57,3.57,0,0,0,3.61-3.64,3.62,3.62,0,0,0-3.58-3.56,3.68,3.68,0,0,0-3.64,3.66A3.63,3.63,0,0,0,204.78,147.18Zm0,19.08a3.62,3.62,0,0,0,3.65-3.49,3.56,3.56,0,0,0-3.54-3.71,3.64,3.64,0,0,0-3.68,3.47A3.68,3.68,0,0,0,204.74,166.26Z" transform="translate(-27.83 -50.03)"/><path class="cls-7" d="M195.08,153c-.09,0-.05-.67-.79-1.2a1.52,1.52,0,0,0-1.41-.17,1.48,1.48,0,0,0,0,2.75,1.52,1.52,0,0,0,1.41-.17c.74-.53.7-1.23.79-1.21s.08.16,0,.44a1.67,1.67,0,0,1-.6,1.06,1.87,1.87,0,0,1-1.8.33,1.93,1.93,0,0,1,0-3.65,1.87,1.87,0,0,1,1.8.33,1.65,1.65,0,0,1,.6,1.05C195.16,152.84,195.11,153,195.08,153Z" transform="translate(-27.83 -50.03)"/><path class="cls-7" d="M201.46,151.73a5.15,5.15,0,0,1-.53.35l-1.49.9-4.93,2.9-5,2.84-1.52.84a3.71,3.71,0,0,1-.57.29,4.22,4.22,0,0,1,.53-.36l1.49-.9,4.93-2.89,5-2.84,1.52-.85A4.14,4.14,0,0,1,201.46,151.73Z" transform="translate(-27.83 -50.03)"/><path class="cls-7" d="M197.12,147.73a2,2,0,0,1-.24.17l-.72.45L193.5,150c-2.24,1.36-5.35,3.22-8.84,5.19l-8.91,5.06L173,161.71l-.74.4-.26.13s.08-.06.24-.16l.72-.44,2.68-1.57,8.89-5.11c3.48-2,6.6-3.81,8.87-5.13l2.69-1.55.74-.42Z" transform="translate(-27.83 -50.03)"/></g><g id="Stars"><polygon class="cls-6" points="334.49 152.16 336.39 155.63 339.86 157.52 336.39 159.42 334.49 162.89 332.6 159.42 329.13 157.52 332.6 155.63 334.49 152.16"/><polygon class="cls-6" points="347.17 104.63 349.14 104.5 350.74 103.33 350.87 105.3 352.04 106.89 350.07 107.02 348.48 108.2 348.35 106.22 347.17 104.63"/><polygon class="cls-6" points="667.03 262.43 669.01 262.3 670.6 261.13 670.73 263.1 671.9 264.69 669.93 264.82 668.34 265.99 668.21 264.02 667.03 262.43"/><polygon class="cls-6" points="441.72 163.7 443.7 163.57 445.29 162.4 445.42 164.37 446.59 165.96 444.62 166.09 443.03 167.27 442.9 165.29 441.72 163.7"/><polygon class="cls-6" points="453.74 79.21 455.71 79.08 457.3 77.9 457.43 79.88 458.61 81.47 456.63 81.6 455.04 82.77 454.91 80.8 453.74 79.21"/><polygon class="cls-6" points="393.19 131.65 396.19 129.92 397.79 126.84 399.51 129.85 402.59 131.44 399.59 133.17 397.99 136.24 396.26 133.24 393.19 131.65"/><polygon class="cls-6" points="645.24 302.15 648.24 300.43 649.83 297.35 651.56 300.35 654.63 301.95 651.63 303.68 650.04 306.75 648.31 303.75 645.24 302.15"/><polygon class="cls-6" points="630.17 247.3 633.18 245.57 634.77 242.5 636.5 245.5 639.57 247.1 636.57 248.82 634.98 251.9 633.25 248.9 630.17 247.3"/><path class="cls-12" d="M352.27,226c-4.81,1.43-7.68,4.72-12.29,7.36l1.67,4.61c6.28-2.6,11.75-2.95,13.07-4.42C355.16,233,353.88,225.49,352.27,226Z" transform="translate(-27.83 -50.03)"/><path class="cls-12" d="M352.38,234.51c2.08-.66,5.43-2.25,5.37-3.09-.12-1.32-2.17-.64-4.77.87C349.37,232.75,352.38,234.51,352.38,234.51Z" transform="translate(-27.83 -50.03)"/><path class="cls-12" d="M352.24,228.43c2-.94,8.48-3.24,8.25-4.2-.42-1.7-7.52,1.08-9.54,2.17C347.83,228.1,352.24,228.43,352.24,228.43Z" transform="translate(-27.83 -50.03)"/><path class="cls-12" d="M348.54,228.89c-2.75-1.27,4.42-6.18,2.22-7.17-1.48-.68-6.47,6.2-7.74,9.42C341.79,234.18,348.54,228.89,348.54,228.89Z" transform="translate(-27.83 -50.03)"/><path class="cls-12" d="M353.48,231.09c2.07-.67,5.85-2.56,5.78-3.45-.11-1.46-4,.61-6.21,1.18C349.55,229.72,353.48,231.09,353.48,231.09Z" transform="translate(-27.83 -50.03)"/><path class="cls-13" d="M244.86,201.69c6.47-6,13.79-4.95,21.26-5.06s24.07-13.95,27.81-25.9l-16.61-31.15s-12.72,30.12-21.71,36.87C239.26,188.7,239.71,200.57,244.86,201.69Z" transform="translate(-27.83 -50.03)"/><path class="cls-14" d="M242.21,193.14a14.1,14.1,0,0,0-.42,2l.81-1.79Z" transform="translate(-27.83 -50.03)"/><path class="cls-14" d="M243.76,190.45l.1.05L245,188l-.35-.15a24.51,24.51,0,0,0-1.45,2.67l.46.2Z" transform="translate(-27.83 -50.03)"/><path class="cls-14" d="M244,197.27l-.1,0L244,197l-2.32-1a7.46,7.46,0,0,0,.57,3.57l.61.28Z" transform="translate(-27.83 -50.03)"/><polygon class="cls-14" points="215.82 140.67 214.69 143.19 217.46 144.43 218.58 141.91 218.48 141.87 218.6 141.62 216.03 140.47 215.93 140.43 215.82 140.67"/><path class="cls-14" d="M247.67,189.13l1.13-2.52-.1-.05.11-.24-2.38-1.07q-.45.58-.87,1.17l-.65,1.47Z" transform="translate(-27.83 -50.03)"/><path class="cls-14" d="M251.19,181.28l-.1-.05.11-.25-.64-.28q-1.22,1.17-2.25,2.31l1.75.79Z" transform="translate(-27.83 -50.03)"/><path class="cls-14" d="M242.77,199.79l-.14.33a3.58,3.58,0,0,0,2.23,1.57c.21-.19.41-.35.62-.52l.06-.14Z" transform="translate(-27.83 -50.03)"/><polygon class="cls-14" points="216.19 147.24 218.76 148.4 218.87 148.15 218.97 148.19 220.1 145.68 217.33 144.43 216.21 146.95 216.09 147.2 216.19 147.24"/><polygon class="cls-14" points="218.58 141.91 221.15 143.06 221.26 142.81 221.36 142.86 222.49 140.34 219.72 139.1 218.6 141.62 218.48 141.87 218.58 141.91"/><polygon class="cls-14" points="220.97 136.58 223.54 137.73 223.65 137.49 223.75 137.53 224.88 135.01 222.11 133.77 220.99 136.29 220.88 136.54 220.97 136.58"/><path class="cls-14" d="M251.09,181.23l.1.05,2.57,1.15.11-.25.1,0,1.13-2.51-2.29-1c-.33.27-.63.55-.94.82L251.2,181Z" transform="translate(-27.83 -50.03)"/><path class="cls-14" d="M256.26,176.85l.1,0,.82-1.82a18.7,18.7,0,0,1-1.57,1.38l-.34.25.88.4Z" transform="translate(-27.83 -50.03)"/><path class="cls-14" d="M246.7,198.17l-.11.25-1.13,2.52.18.08a18.22,18.22,0,0,1,2.93-2l-1.77-.79Z" transform="translate(-27.83 -50.03)"/><polygon class="cls-14" points="221.15 143.06 220.02 145.58 222.79 146.82 223.91 144.3 223.82 144.26 223.93 144.01 221.36 142.86 221.26 142.81 221.15 143.06"/><polygon class="cls-14" points="223.54 137.73 222.41 140.25 225.18 141.49 226.31 138.97 226.21 138.93 226.32 138.68 223.75 137.53 223.65 137.49 223.54 137.73"/><polygon class="cls-14" points="225.93 132.4 224.8 134.92 227.57 136.16 228.69 133.64 228.6 133.6 228.71 133.35 226.14 132.2 226.04 132.15 225.93 132.4"/><polygon class="cls-14" points="228.32 127.07 227.19 129.59 229.96 130.83 231.09 128.31 230.99 128.26 231.1 128.02 228.53 126.86 228.43 126.82 228.32 127.07"/><path class="cls-14" d="M261.3,173l-.1,0,.11-.25-1.49-.67c-.69.89-1.37,1.7-2,2.41l2.39,1.07Z" transform="translate(-27.83 -50.03)"/><path class="cls-14" d="M263.69,167.67l-.1,0,.11-.25-.48-.21c-.56.88-1.13,1.74-1.7,2.55l1,.47Z" transform="translate(-27.83 -50.03)"/><path class="cls-14" d="M265.91,162.72c-.39.68-.79,1.37-1.19,2l.23.11Z" transform="translate(-27.83 -50.03)"/><path class="cls-14" d="M250.49,196.85l-.7,1.56a19.24,19.24,0,0,1,2.16-.78l.07-.09Z" transform="translate(-27.83 -50.03)"/><path class="cls-14" d="M251.74,194.33l1.92.86c.55-.82,1.12-1.68,1.68-2.57l-2.46-1.1L251.76,194l-.12.25Z" transform="translate(-27.83 -50.03)"/><polygon class="cls-14" points="226.31 138.97 228.87 140.12 228.98 139.88 229.08 139.92 230.21 137.4 227.45 136.16 226.32 138.68 226.21 138.93 226.31 138.97"/><polygon class="cls-14" points="228.69 133.64 231.26 134.79 231.37 134.54 231.47 134.59 232.6 132.07 229.84 130.83 228.71 133.35 228.6 133.6 228.69 133.64"/><polygon class="cls-14" points="231.09 128.31 233.65 129.46 233.76 129.21 233.86 129.26 234.99 126.74 232.23 125.5 231.1 128.02 230.99 128.26 231.09 128.31"/><polygon class="cls-14" points="233.47 122.98 236.04 124.13 236.15 123.88 236.25 123.92 237.38 121.41 234.62 120.17 233.49 122.69 233.38 122.93 233.47 122.98"/><polygon class="cls-14" points="235.87 117.64 238.43 118.8 238.54 118.55 238.64 118.59 239.77 116.08 237 114.84 235.88 117.35 235.76 117.6 235.87 117.64"/><path class="cls-14" d="M268.76,163.25l.1,0,1.13-2.52-2.39-1.07c-.48.89-1,1.78-1.48,2.66l2.53,1.13Z" transform="translate(-27.83 -50.03)"/><path class="cls-14" d="M269.11,156.88l-.17.34,1.49.67Z" transform="translate(-27.83 -50.03)"/><path class="cls-14" d="M256.7,190.15l-.48,1.06c.25-.4.5-.82.75-1.24l-.06,0-.1,0Z" transform="translate(-27.83 -50.03)"/><path class="cls-14" d="M259.09,184.82,258,187.33l.45.2c.5-.86,1-1.74,1.49-2.65l-.6-.27-.1,0Z" transform="translate(-27.83 -50.03)"/><path class="cls-14" d="M261.48,179.49,260.35,182l.88.4c.47-.89.93-1.79,1.39-2.7l-.93-.42-.1,0Z" transform="translate(-27.83 -50.03)"/><path class="cls-14" d="M263.87,174.16l-1.13,2.51,1.13.51c.44-.91.87-1.82,1.29-2.74l-1.08-.49-.1,0Z" transform="translate(-27.83 -50.03)"/><path class="cls-14" d="M266.26,168.82l-1.13,2.52,1.2.54c.41-.92.81-1.85,1.2-2.78l-1.06-.48-.1-.05Z" transform="translate(-27.83 -50.03)"/><path class="cls-14" d="M268.65,163.49,267.52,166l1.09.49c.38-.94.75-1.88,1.11-2.83l-.86-.38-.1,0Z" transform="translate(-27.83 -50.03)"/><path class="cls-14" d="M269.91,160.68l.79.35c.28-.77.55-1.54.82-2.31l-.55-.41Z" transform="translate(-27.83 -50.03)"/><path class="cls-15" d="M302.65,205.38c3.2,7,2.44,46.51,9.28,53.16,3.16,3.09.42,16.47-8.93,16.43s-24.72-39.31-19.84-55.8S298.79,197,302.65,205.38Z" transform="translate(-27.83 -50.03)"/><path class="cls-16" d="M302.43,204.94c-4.09-7.69-16.11-.69-20.9,15.49C276.66,236.92,293.65,274.94,303,275a8.63,8.63,0,0,0,2.94-.48C294.75,270.22,307.89,226.18,302.43,204.94Z" transform="translate(-27.83 -50.03)"/><path class="cls-15" d="M303.16,274.32c9.59,2.88,32.14-24,41.59-38l-1.41-5.34S308,250.1,303.7,255C299.76,259.5,294.58,271.75,303.16,274.32Z" transform="translate(-27.83 -50.03)"/><path class="cls-16" d="M328.24,250.6c-12.3,9.59-24.3,14.47-26.82,10.91a12.26,12.26,0,0,1-1.34-4.55c-2.9,5.89-3.55,16.74,3.09,18.73,9.59,2.88,32.13-25.37,41.58-39.42l-.56-2.11C341.23,238.89,335.51,244.92,328.24,250.6Z" transform="translate(-27.83 -50.03)"/><path class="cls-17" d="M317.91,352.2c-4.78-6.52-11.6,24.1-11,28.66S337.75,444,337.75,444h3.52S322.69,358.71,317.91,352.2Z" transform="translate(-27.83 -50.03)"/><path class="cls-12" d="M336.31,421.84c-5.86-25.76-15.21-65.29-18.4-69.64-4.78-6.52-11.6,24.1-11,28.66.49,3.6,19.42,40.9,27.36,56.44A64.68,64.68,0,0,1,336.31,421.84Z" transform="translate(-27.83 -50.03)"/><path class="cls-12" d="M260,352.2c-.78-6.52-26.38,24.1-28.55,28.66S223.52,444,223.52,444H227S260.78,358.71,260,352.2Z" transform="translate(-27.83 -50.03)"/><path class="cls-18" d="M219,446.66h12.64s-5.79-9-7.5-8.35S219,446.66,219,446.66Z" transform="translate(-27.83 -50.03)"/><path class="cls-18" d="M333.91,446.66h20.48s-15.58-9.77-17.28-9.13S333.91,446.66,333.91,446.66Z" transform="translate(-27.83 -50.03)"/><path class="cls-15" d="M213,421.24s48,40.39,124.79-11.07c-6.35-30.71-19.52-64.65-25.28-76.37-6.18-12.58-29.65-41.06-31.67-48-9-30.95,25.52-54.79,23-77.6-1.46-12.94-24.09-31.75-39-25.33-21.12,9.13-46.72,52.83-46.08,110.81.22,20.2,17.38,47.64,18.61,55C239.07,359,219.36,406.26,213,421.24Z" transform="translate(-27.83 -50.03)"/><path class="cls-19" d="M283.81,232.59l-2.23-1.27c5.43-11.52,11.83-27.71,6.42-42.85l1.22-.43C294.79,203.59,289.35,220.85,283.81,232.59Z" transform="translate(-27.83 -50.03)"/><path class="cls-16" d="M285.31,293.82c-6.27-6.06-16.39-27.23,8.49-55.15l7.14-1.94C285.61,252.9,274.93,273.47,285.31,293.82Z" transform="translate(-27.83 -50.03)"/><path class="cls-16" d="M245.7,434.85c-3.9-39.4,13.81-54.23,5.55-94.16-5.56-26.88-17.82-22.23-17.82-63.5,0-8.86,10.82-36.95,20.72-40.52-9.25-20.61-.61-31.32,8.76-43.33,6.43-8.23,15.71-1.07,22.26-7.07-7-4-14.53-6-20.37-3.44C243.68,192,213,236.25,213.6,294.22c.23,20.21,18.62,47.4,19.84,54.72,1.75,10.42-14.08,57.32-20.48,72.3C213,421.24,224.65,431.07,245.7,434.85Z" transform="translate(-27.83 -50.03)"/><path class="cls-20" d="M310.85,144.79S289,165.64,277.6,185.47c11.19,4.51,17.24,7.31,21.29,16.09,2.72,5.89,18.75,20.51,33-43.33Z" transform="translate(-27.83 -50.03)"/><path class="cls-21" d="M309.39,144.14S287.54,165,276.14,184.82c11.19,4.51,17.24,7.31,21.29,16.09,2.71,5.89,19.05,19.26,33.32-44.57Z" transform="translate(-27.83 -50.03)"/><path class="cls-15" d="M266,188.19c3.8,7.88,10.89,51.7,18.25,59.41,3.41,3.57.32,17.06-8.88,16.61s-34.81-36.39-31.59-54.53S261.43,178.67,266,188.19Z" transform="translate(-27.83 -50.03)"/><path class="cls-16" d="M264,189.25c4,7.77,12.3,51.38,19.87,58.88,1.7,1.68,1.93,5.73.68,9.44,1.57-3.81,1.51-8.16-.22-10-7.36-7.71-14.45-51.53-18.25-59.41-2-4.08-5.76-4-9.68-1.23C259.43,185.46,262.26,186,264,189.25Z" transform="translate(-27.83 -50.03)"/><path class="cls-16" d="M259.48,237.88c-6.94-17.29-6.29-34.78,1.44-39.07,2.46-1.36,5.34-1.22,8.35.15a30.67,30.67,0,0,0-2.46-12.6c-4.6-9.52-22.33,6.16-25.55,24.3s23.24,54.17,32.45,54.62a9.17,9.17,0,0,0,7.07-3C273.59,261,265,251.58,259.48,237.88Z" transform="translate(-27.83 -50.03)"/><path class="cls-15" d="M273,263.34c9.22,3.14,42.71-20.27,56.77-29.34l-1.88-7s-50.41,13.84-54.47,18.31C269.69,249.42,264.78,260.53,273,263.34Z" transform="translate(-27.83 -50.03)"/><path class="cls-16" d="M271.31,255.47a21.09,21.09,0,0,1-3.85-2.73c-1.11,4.55,1,10.68,5.59,12.25,9.21,3.14,42.69-21.92,56.75-31l-.7-2.6C314.15,240.78,280.22,258.5,271.31,255.47Z" transform="translate(-27.83 -50.03)"/><path class="cls-22" d="M316.18,187.53s14-27,12.28-30.3-23.75-21.49-33.64-8.67-7.17,43.5-7.17,43.5Z" transform="translate(-27.83 -50.03)"/><path class="cls-23" d="M319.26,177.56c.82-1.67.61-3.37-.48-3.79s-2.64.58-3.47,2.24-.62,3.37.47,3.79S318.43,179.22,319.26,177.56Z" transform="translate(-27.83 -50.03)"/><path class="cls-24" d="M292.18,180.47c.87-9.52.22-12.88,2.92-17.42,0,0-.32,4.22.44,5.95a25.82,25.82,0,0,1,2.16-6.6c1.41-2.49,1.08-8.77,2.16-11.69,0,0-.65,2.06,1.84,3.14s5.19,1.19,6.06,2.92c0,0-1.84-5.52,1.84-4s3.68,4.22,3.68,4.22.54,4,5.3,2.81c0,0-.43-4.11,3.9-2.27s4.76,5.19,2.81,7.46c0,0,4.65.44,5.19-6.49l-33.32-12.44L285.47,174Z" transform="translate(-27.83 -50.03)"/><path class="cls-25" d="M272.16,205.35c6.16,13.39,15.32,17,23.28,15.59,4.53-.78,7.77-4.32,9-9.37-.06-.4-.11-.79-.17-1.16a22.39,22.39,0,0,0-.12-2.46c-1.4-12.47-25.41-31.28-40.25-26.84C269.64,189.93,268.61,197.61,272.16,205.35Z" transform="translate(-27.83 -50.03)"/><path class="cls-24" d="M316.74,186.59s-17.31,5.71-30.58-18.24l-9,10.63s-.68,31,28.17,37.84C304.17,213.43,316.05,201.45,316.74,186.59Z" transform="translate(-27.83 -50.03)"/><path class="cls-22" d="M314.17,171.87s-1.86,19.53-3.67,19.81-6.7-8.05-5.91-9.22S313.49,170.78,314.17,171.87Z" transform="translate(-27.83 -50.03)"/><path class="cls-20" d="M280.92,134.38s-18.24,30.32-26,52.08c6.27-2.67,9.92,3.32,13.49,9,4,6.37,21.89-20.32,31-46.9Z" transform="translate(-27.83 -50.03)"/><path class="cls-13" d="M263.83,189a37.63,37.63,0,0,1,3.58-3.07c10.72-8.2,23.08-29.51,30.35-38.61l-16.84-12.89s-18.24,30.32-26,52.08C258.64,184.88,261.43,186.34,263.83,189Z" transform="translate(-27.83 -50.03)"/><path class="cls-26" d="M256.19,183.12c-.37,1-.73,1.91-1.07,2.85l.54.24a5.91,5.91,0,0,1,.77-.21l1-2.31Z" transform="translate(-27.83 -50.03)"/><path class="cls-26" d="M258.62,180.83l.1,0,1.13-2.52-1.45-.65c-.4.94-.8,1.87-1.17,2.8l1.28.57Z" transform="translate(-27.83 -50.03)"/><path class="cls-26" d="M261,175.5l.1.05,1.13-2.52-1.47-.66c-.43.92-.84,1.84-1.25,2.76l1.38.62Z" transform="translate(-27.83 -50.03)"/><path class="cls-26" d="M263.4,170.17l.1,0,1.13-2.51-1.38-.62c-.44.91-.87,1.82-1.3,2.74l1.34.6Z" transform="translate(-27.83 -50.03)"/><path class="cls-26" d="M265.79,164.84l.1,0,1.13-2.51-1.18-.53-1.35,2.71,1.19.54Z" transform="translate(-27.83 -50.03)"/><path class="cls-26" d="M268.18,159.51l.1,0,1.13-2.52-.89-.39c-.47.88-.93,1.78-1.4,2.69l.95.42Z" transform="translate(-27.83 -50.03)"/><path class="cls-26" d="M270.57,154.18l.1,0,1.13-2.52-.54-.24c-.47.88-.95,1.77-1.43,2.68l.63.28Z" transform="translate(-27.83 -50.03)"/><path class="cls-26" d="M273,148.85l.1,0,1.13-2.52-.12-.05L272.61,149l.24.1Z" transform="translate(-27.83 -50.03)"/><polygon class="cls-26" points="230.68 131.05 229.55 133.57 232.32 134.81 233.45 132.29 233.35 132.25 233.46 132 230.89 130.85 230.79 130.81 230.68 131.05"/><polygon class="cls-26" points="233.07 125.72 231.94 128.24 234.71 129.48 235.84 126.96 235.74 126.92 235.85 126.67 233.28 125.52 233.18 125.47 233.07 125.72"/><polygon class="cls-26" points="235.46 120.39 234.33 122.91 237.1 124.15 238.22 121.63 238.13 121.59 238.24 121.34 235.67 120.19 235.57 120.14 235.46 120.39"/><polygon class="cls-26" points="237.85 115.06 236.72 117.58 239.49 118.82 240.62 116.3 240.52 116.25 240.63 116.01 238.06 114.86 237.96 114.81 237.85 115.06"/><polygon class="cls-26" points="240.24 109.73 239.11 112.25 241.88 113.49 243 110.97 242.91 110.92 243.02 110.68 240.45 109.53 240.35 109.48 240.24 109.73"/><polygon class="cls-26" points="242.63 104.4 241.5 106.91 244.27 108.15 245.39 105.64 245.29 105.59 245.41 105.34 242.84 104.19 242.74 104.15 242.63 104.4"/><polygon class="cls-26" points="245.02 99.07 243.89 101.58 246.66 102.82 247.78 100.3 247.69 100.26 247.8 100.01 245.23 98.86 245.13 98.82 245.02 99.07"/><path class="cls-26" d="M276.87,147.52,278,145l-.1,0,.11-.25-2.43-1.09-1.43,2.56,0,.1Z" transform="translate(-27.83 -50.03)"/><path class="cls-26" d="M280.39,139.67l-.1,0,.11-.25-1.91-.86L277,141.16l2.29,1Z" transform="translate(-27.83 -50.03)"/><path class="cls-26" d="M282.29,135.43l-1.37-1.05-1,1.7,1.73.78Z" transform="translate(-27.83 -50.03)"/><path class="cls-26" d="M260,184.84l-.53,1.19a7.73,7.73,0,0,1,2.7,1.39l.6-1.34Z" transform="translate(-27.83 -50.03)"/><polygon class="cls-26" points="233.45 132.29 236.01 133.44 236.12 133.2 236.22 133.24 237.35 130.72 234.59 129.48 233.46 132 233.35 132.25 233.45 132.29"/><polygon class="cls-26" points="235.84 126.96 238.4 128.11 238.51 127.86 238.61 127.91 239.74 125.39 236.98 124.15 235.85 126.67 235.74 126.92 235.84 126.96"/><polygon class="cls-26" points="238.22 121.63 240.79 122.78 240.9 122.53 241 122.58 242.13 120.06 239.37 118.82 238.24 121.34 238.13 121.59 238.22 121.63"/><polygon class="cls-26" points="240.62 116.3 243.18 117.45 243.29 117.2 243.39 117.25 244.52 114.73 241.76 113.49 240.63 116.01 240.52 116.25 240.62 116.3"/><polygon class="cls-26" points="243 110.97 245.57 112.12 245.68 111.87 245.78 111.92 246.91 109.4 244.15 108.16 243.02 110.68 242.91 110.92 243 110.97"/><polygon class="cls-26" points="245.39 105.64 247.96 106.79 248.07 106.54 248.17 106.58 249.3 104.07 246.54 102.83 245.41 105.34 245.29 105.59 245.39 105.64"/><polygon class="cls-26" points="247.78 100.3 250.35 101.46 250.46 101.21 250.56 101.25 251.69 98.73 248.93 97.5 247.8 100.01 247.69 100.26 247.78 100.3"/><polygon class="cls-26" points="250.18 94.97 252.74 96.13 252.85 95.88 252.95 95.92 254.08 93.41 251.31 92.17 250.19 94.68 250.07 94.93 250.18 94.97"/><polygon class="cls-26" points="255.34 90.59 256.47 88.07 253.71 86.83 252.58 89.35 252.47 89.6 252.56 89.64 255.13 90.79 255.24 90.55 255.34 90.59"/><polygon class="cls-26" points="236.01 133.44 234.88 135.96 237.65 137.2 238.78 134.68 238.68 134.64 238.79 134.39 236.22 133.24 236.12 133.2 236.01 133.44"/><polygon class="cls-26" points="238.4 128.11 237.27 130.63 240.04 131.87 241.17 129.35 241.07 129.31 241.18 129.06 238.61 127.91 238.51 127.86 238.4 128.11"/><polygon class="cls-26" points="240.79 122.78 239.66 125.3 242.43 126.54 243.56 124.02 243.46 123.98 243.57 123.73 241 122.58 240.9 122.53 240.79 122.78"/><polygon class="cls-26" points="243.18 117.45 242.05 119.97 244.82 121.21 245.95 118.69 245.85 118.65 245.96 118.4 243.39 117.25 243.29 117.2 243.18 117.45"/><polygon class="cls-26" points="245.57 112.12 244.44 114.64 247.21 115.88 248.34 113.36 248.24 113.31 248.35 113.07 245.78 111.92 245.68 111.87 245.57 112.12"/><polygon class="cls-26" points="247.96 106.79 246.83 109.3 249.6 110.55 250.73 108.03 250.63 107.98 250.74 107.73 248.17 106.58 248.07 106.54 247.96 106.79"/><polygon class="cls-26" points="250.35 101.46 249.22 103.97 251.99 105.21 253.12 102.69 253.02 102.65 253.13 102.41 250.56 101.25 250.46 101.21 250.35 101.46"/><polygon class="cls-26" points="252.74 96.13 251.61 98.64 254.38 99.88 255.51 97.36 255.41 97.32 255.52 97.07 252.95 95.92 252.85 95.88 252.74 96.13"/><polygon class="cls-26" points="257.91 91.74 255.34 90.59 255.24 90.55 255.13 90.79 254 93.31 256.77 94.55 257.9 92.03 257.8 91.99 257.91 91.74"/><polygon class="cls-26" points="259.16 89.22 259.23 89.06 256.76 87.17 256.39 87.98 259.16 89.22"/><path class="cls-26" d="M266.89,191l.1,0,1.13-2.52-2.77-1.24-1,2.28c.25.3.49.6.73.91l1.72.77Z" transform="translate(-27.83 -50.03)"/><polygon class="cls-26" points="238.78 134.68 241.34 135.84 241.46 135.59 241.55 135.63 242.68 133.12 239.92 131.88 238.79 134.39 238.68 134.64 238.78 134.68"/><polygon class="cls-26" points="241.17 129.35 243.73 130.5 243.84 130.25 243.94 130.3 245.07 127.78 242.31 126.54 241.18 129.06 241.07 129.31 241.17 129.35"/><polygon class="cls-26" points="243.56 124.02 246.12 125.17 246.23 124.92 246.33 124.97 247.46 122.45 244.7 121.21 243.57 123.73 243.46 123.98 243.56 124.02"/><polygon class="cls-26" points="245.95 118.69 248.51 119.84 248.62 119.59 248.72 119.64 249.85 117.12 247.09 115.88 245.96 118.4 245.85 118.65 245.95 118.69"/><polygon class="cls-26" points="248.34 113.36 250.9 114.51 251.01 114.26 251.11 114.31 252.24 111.79 249.48 110.55 248.35 113.07 248.24 113.31 248.34 113.36"/><polygon class="cls-26" points="250.73 108.03 253.29 109.18 253.4 108.93 253.5 108.97 254.63 106.46 251.87 105.22 250.74 107.73 250.63 107.98 250.73 108.03"/><polygon class="cls-26" points="253.12 102.69 255.68 103.85 255.79 103.6 255.89 103.64 257.02 101.12 254.26 99.89 253.13 102.41 253.02 102.65 253.12 102.69"/><polygon class="cls-26" points="255.51 97.36 258.07 98.51 258.18 98.27 258.28 98.31 259.41 95.79 256.64 94.55 255.52 97.07 255.41 97.32 255.51 97.36"/><polygon class="cls-26" points="257.91 91.74 257.8 91.99 257.9 92.03 260.46 93.18 260.57 92.94 260.67 92.98 261.62 90.88 260.03 89.67 259.04 89.22 257.91 91.74"/><path class="cls-26" d="M269.55,192.43l-.1,0,.11-.25L267,191l-.1,0-.11.24-.45,1c.57.84,1.12,1.7,1.67,2.57l.42.19Z" transform="translate(-27.83 -50.03)"/><polygon class="cls-26" points="241.34 135.84 240.21 138.35 242.98 139.59 244.11 137.07 244.01 137.03 244.12 136.78 241.55 135.63 241.46 135.59 241.34 135.84"/><polygon class="cls-26" points="243.73 130.5 242.6 133.02 245.37 134.26 246.5 131.74 246.4 131.7 246.51 131.45 243.94 130.3 243.84 130.25 243.73 130.5"/><polygon class="cls-26" points="246.12 125.17 244.99 127.69 247.76 128.93 248.89 126.41 248.79 126.36 248.9 126.12 246.33 124.97 246.23 124.92 246.12 125.17"/><polygon class="cls-26" points="248.51 119.84 247.38 122.36 250.15 123.6 251.28 121.08 251.18 121.03 251.29 120.79 248.72 119.64 248.62 119.59 248.51 119.84"/><polygon class="cls-26" points="250.9 114.51 249.77 117.03 252.54 118.27 253.67 115.75 253.57 115.7 253.68 115.46 251.11 114.31 251.01 114.26 250.9 114.51"/><polygon class="cls-26" points="253.29 109.18 252.16 111.69 254.93 112.93 256.06 110.42 255.96 110.37 256.07 110.13 253.5 108.97 253.4 108.93 253.29 109.18"/><polygon class="cls-26" points="255.68 103.85 254.55 106.36 257.32 107.6 258.45 105.08 258.35 105.04 258.46 104.79 255.89 103.64 255.79 103.6 255.68 103.85"/><polygon class="cls-26" points="258.07 98.51 256.94 101.03 259.71 102.27 260.84 99.75 260.74 99.71 260.85 99.46 258.28 98.31 258.18 98.27 258.07 98.51"/><polygon class="cls-26" points="263.24 94.13 260.67 92.98 260.57 92.94 260.46 93.18 259.33 95.7 262.1 96.94 263.23 94.42 263.13 94.38 263.24 94.13"/><path class="cls-26" d="M268.3,195l-.08.17.21.33a2,2,0,0,0,2.63.75h0Z" transform="translate(-27.83 -50.03)"/><polygon class="cls-26" points="241.72 142.41 244.28 143.56 244.4 143.31 244.5 143.35 245.62 140.84 242.86 139.59 241.73 142.11 241.62 142.36 241.72 142.41"/><polygon class="cls-26" points="244.11 137.07 246.67 138.22 246.78 137.98 246.88 138.02 248.01 135.5 245.25 134.26 244.12 136.78 244.01 137.03 244.11 137.07"/><polygon class="cls-26" points="246.5 131.74 249.06 132.89 249.18 132.64 249.28 132.69 250.4 130.17 247.64 128.93 246.51 131.45 246.4 131.7 246.5 131.74"/><polygon class="cls-26" points="248.89 126.41 251.46 127.56 251.56 127.31 251.66 127.36 252.79 124.84 250.03 123.6 248.9 126.12 248.79 126.36 248.89 126.41"/><polygon class="cls-26" points="251.28 121.08 253.84 122.23 253.96 121.98 254.05 122.03 255.18 119.51 252.42 118.27 251.29 120.79 251.18 121.03 251.28 121.08"/><polygon class="cls-26" points="253.67 115.75 256.24 116.9 256.35 116.65 256.44 116.7 257.57 114.18 254.81 112.94 253.68 115.46 253.57 115.7 253.67 115.75"/><polygon class="cls-26" points="256.06 110.42 258.62 111.57 258.74 111.32 258.83 111.36 259.96 108.85 257.2 107.61 256.07 110.13 255.96 110.37 256.06 110.42"/><polygon class="cls-26" points="258.45 105.08 261.01 106.24 261.13 105.99 261.23 106.03 262.35 103.52 259.59 102.28 258.46 104.79 258.35 105.04 258.45 105.08"/><polygon class="cls-26" points="260.84 99.75 263.4 100.91 263.51 100.66 263.61 100.7 264.74 98.19 261.98 96.94 260.85 99.46 260.74 99.71 260.84 99.75"/><polygon class="cls-26" points="263.13 94.38 263.23 94.42 265.79 95.57 265.9 95.32 266 95.37 266.38 94.53 263.91 92.64 263.24 94.13 263.13 94.38"/><path class="cls-26" d="M272.22,193.33l-.11.25L271,196.1l.16.07a9.93,9.93,0,0,0,3-2l-1.78-.8Z" transform="translate(-27.83 -50.03)"/><polygon class="cls-26" points="246.67 138.22 245.54 140.74 248.31 141.98 249.44 139.46 249.34 139.42 249.45 139.17 246.88 138.02 246.78 137.98 246.67 138.22"/><polygon class="cls-26" points="249.06 132.89 247.94 135.41 250.7 136.65 251.83 134.13 251.73 134.09 251.84 133.84 249.28 132.69 249.18 132.64 249.06 132.89"/><polygon class="cls-26" points="251.46 127.56 250.33 130.08 253.09 131.32 254.22 128.8 254.12 128.76 254.23 128.51 251.66 127.36 251.56 127.31 251.46 127.56"/><polygon class="cls-26" points="253.84 122.23 252.72 124.75 255.48 125.99 256.61 123.47 256.51 123.43 256.62 123.18 254.05 122.03 253.96 121.98 253.84 122.23"/><polygon class="cls-26" points="256.24 116.9 255.11 119.42 257.87 120.66 259 118.14 258.9 118.09 259.01 117.85 256.44 116.7 256.35 116.65 256.24 116.9"/><polygon class="cls-26" points="258.62 111.57 257.5 114.08 260.26 115.32 261.39 112.81 261.29 112.76 261.4 112.51 258.83 111.36 258.74 111.32 258.62 111.57"/><polygon class="cls-26" points="261.01 106.24 259.89 108.75 262.65 109.99 263.78 107.47 263.68 107.43 263.79 107.18 261.23 106.03 261.13 105.99 261.01 106.24"/><polygon class="cls-26" points="263.4 100.91 262.27 103.42 265.04 104.66 266.17 102.14 266.07 102.1 266.18 101.85 263.61 100.7 263.51 100.66 263.4 100.91"/><polygon class="cls-26" points="268.57 96.52 266 95.37 265.9 95.32 265.79 95.57 264.67 98.09 267.43 99.33 268.56 96.81 268.46 96.77 268.57 96.52"/><path class="cls-26" d="M275.8,192.48c.13-.13.25-.26.37-.4L276,192Z" transform="translate(-27.83 -50.03)"/><path class="cls-26" d="M277.28,189.2l-.11.24.1.05.79.35c.61-.77,1.24-1.59,1.88-2.47l-1.53-.69Z" transform="translate(-27.83 -50.03)"/><path class="cls-26" d="M279.67,183.87l-.11.24.1,0,1.91.86c.56-.83,1.12-1.68,1.69-2.57l-2.46-1.1Z" transform="translate(-27.83 -50.03)"/><polygon class="cls-26" points="254.22 128.8 256.79 129.95 256.9 129.7 257 129.75 258.12 127.23 255.36 125.99 254.23 128.51 254.12 128.76 254.22 128.8"/><polygon class="cls-26" points="256.61 123.47 259.18 124.62 259.29 124.37 259.39 124.42 260.51 121.9 257.75 120.66 256.62 123.18 256.51 123.43 256.61 123.47"/><polygon class="cls-26" points="259 118.14 261.56 119.29 261.68 119.04 261.77 119.08 262.9 116.57 260.14 115.33 259.01 117.85 258.9 118.09 259 118.14"/><polygon class="cls-26" points="261.39 112.81 263.95 113.96 264.07 113.71 264.17 113.75 265.3 111.24 262.53 110 261.4 112.51 261.29 112.76 261.39 112.81"/><polygon class="cls-26" points="263.78 107.47 266.35 108.63 266.46 108.38 266.56 108.42 267.68 105.9 264.92 104.67 263.79 107.18 263.68 107.43 263.78 107.47"/><polygon class="cls-26" points="266.17 102.14 268.74 103.29 268.85 103.05 268.95 103.09 270.07 100.57 267.31 99.33 266.18 101.85 266.07 102.1 266.17 102.14"/><polygon class="cls-26" points="268.46 96.77 268.56 96.81 270.51 97.69 268.68 96.28 268.57 96.52 268.46 96.77"/><path class="cls-26" d="M284.72,179.73l-.11.25-.47,1.06.75-1.24-.07,0Z" transform="translate(-27.83 -50.03)"/><path class="cls-26" d="M287.11,174.4l-.11.25-1.13,2.51.45.2c.5-.86,1-1.74,1.49-2.65l-.6-.27Z" transform="translate(-27.83 -50.03)"/><path class="cls-26" d="M289.5,169.07l-.11.25-1.12,2.51.88.4c.46-.89.93-1.79,1.39-2.7l-.94-.42Z" transform="translate(-27.83 -50.03)"/><path class="cls-26" d="M291.89,163.74l-.11.24-1.13,2.52,1.13.51c.44-.91.87-1.82,1.3-2.74l-1.09-.49Z" transform="translate(-27.83 -50.03)"/><path class="cls-26" d="M294.28,158.4l-.11.25-1.12,2.52,1.19.54c.41-.92.81-1.85,1.21-2.78l-1.07-.48Z" transform="translate(-27.83 -50.03)"/><path class="cls-26" d="M296.67,153.07l-.11.25-1.13,2.52,1.09.49c.38-.94.75-1.88,1.11-2.83l-.86-.38Z" transform="translate(-27.83 -50.03)"/><path class="cls-26" d="M297.82,150.51l.79.35c.28-.77.55-1.54.82-2.31l-.54-.42Z" transform="translate(-27.83 -50.03)"/><polygon class="cls-25" points="270.47 102.01 244.5 99.41 248.96 91.06 271.93 99.33 270.47 102.01"/><path class="cls-20" d="M278.94,142.69c2.15-1.34-.64-5.28-.94-7.21-.47-3,2.19-9.33,5.67-12.54,13.32-12.29,57.56,3.71,53.45,24.8-.7,3.59-4.9,9.14-5.37,13.72Z" transform="translate(-27.83 -50.03)"/><path class="cls-13" d="M304,147.09c-3.89-11.22-2.47-22,2.9-27.4-9.29-2-18.32-1.25-23.2,3.25-3.48,3.21-6.14,9.56-5.67,12.54.3,1.93-2.17,4.69-4.32,6l32.55,10.88A42.63,42.63,0,0,1,304,147.09Z" transform="translate(-27.83 -50.03)"/><path class="cls-26" d="M275.78,142.22h2.55V142h.11v-2.76h-2.09a10.82,10.82,0,0,1-.94,1v1.92Z" transform="translate(-27.83 -50.03)"/><path class="cls-26" d="M278.33,136.1h.11v-2.76h-.37a6.85,6.85,0,0,0-.07,2.14,2.55,2.55,0,0,1-.06.9h.39Z" transform="translate(-27.83 -50.03)"/><polygon class="cls-26" points="253.43 92.19 253.43 91.92 250.61 91.92 250.5 91.92 250.5 92.19 250.5 93.04 253.53 94.06 253.53 92.19 253.43 92.19"/><polygon class="cls-26" points="253.43 86.08 250.61 86.08 250.5 86.08 250.5 86.35 250.5 89.11 253.53 89.11 253.53 86.35 253.43 86.35 253.43 86.08"/><path class="cls-26" d="M281.36,133.29v-2.76h-.11v-.27H279a18.5,18.5,0,0,0-.62,1.92v1.11Z" transform="translate(-27.83 -50.03)"/><path class="cls-26" d="M281.36,125.67c-.39.57-.75,1.17-1.09,1.78h1.09Z" transform="translate(-27.83 -50.03)"/><polygon class="cls-26" points="256.38 95 256.46 95.03 256.46 95 256.38 95"/><polygon class="cls-26" points="253.53 92.19 256.35 92.19 256.35 91.92 256.46 91.92 256.46 89.16 253.43 89.16 253.43 91.92 253.43 92.19 253.53 92.19"/><polygon class="cls-26" points="256.46 86.08 256.46 83.32 253.43 83.32 253.43 86.08 253.43 86.35 253.53 86.35 256.35 86.35 256.35 86.08 256.46 86.08"/><polygon class="cls-26" points="256.46 80.23 256.46 77.48 253.43 77.48 253.43 80.23 253.43 80.51 253.53 80.51 256.35 80.51 256.35 80.23 256.46 80.23"/><path class="cls-26" d="M284.17,124.42h.11v-2c-.2.16-.42.31-.61.49a15,15,0,0,0-1.59,1.75h2.09Z" transform="translate(-27.83 -50.03)"/><polygon class="cls-26" points="256.35 92.19 256.35 94.95 259.38 94.95 259.38 92.19 259.27 92.19 259.27 91.92 256.46 91.92 256.35 91.92 256.35 92.19"/><polygon class="cls-26" points="259.27 86.08 256.46 86.08 256.35 86.08 256.35 86.35 256.35 89.11 259.38 89.11 259.38 86.35 259.27 86.35 259.27 86.08"/><polygon class="cls-26" points="259.27 80.23 256.46 80.23 256.35 80.23 256.35 80.51 256.35 83.27 259.38 83.27 259.38 80.51 259.27 80.51 259.27 80.23"/><polygon class="cls-26" points="259.27 74.39 256.46 74.39 256.35 74.39 256.35 74.66 256.35 77.42 259.38 77.42 259.38 74.66 259.27 74.66 259.27 74.39"/><path class="cls-26" d="M287.21,120.65c-.19.08-.38.15-.56.24l-.39.22c-.28.16-.55.33-.82.5h1.77Z" transform="translate(-27.83 -50.03)"/><polygon class="cls-26" points="259.27 95 259.27 95.97 262.3 96.98 262.3 95 259.27 95"/><polygon class="cls-26" points="259.38 92.19 262.19 92.19 262.19 91.92 262.3 91.92 262.3 89.16 259.27 89.16 259.27 91.92 259.27 92.19 259.38 92.19"/><polygon class="cls-26" points="262.3 86.08 262.3 83.32 259.27 83.32 259.27 86.08 259.27 86.35 259.38 86.35 262.19 86.35 262.19 86.08 262.3 86.08"/><polygon class="cls-26" points="262.3 80.23 262.3 77.48 259.27 77.48 259.27 80.23 259.27 80.51 259.38 80.51 262.19 80.51 262.19 80.23 262.3 80.23"/><polygon class="cls-26" points="262.3 74.39 262.3 71.63 259.27 71.63 259.27 74.39 259.27 74.66 259.38 74.66 262.19 74.66 262.19 74.39 262.3 74.39"/><polygon class="cls-26" points="264.63 97.76 265.11 97.92 265.11 97.76 264.63 97.76"/><polygon class="cls-26" points="262.19 92.19 262.19 94.95 265.22 94.95 265.22 92.19 265.11 92.19 265.11 91.92 262.3 91.92 262.19 91.92 262.19 92.19"/><polygon class="cls-26" points="265.11 86.08 262.3 86.08 262.19 86.08 262.19 86.35 262.19 89.11 265.22 89.11 265.22 86.35 265.11 86.35 265.11 86.08"/><polygon class="cls-26" points="265.11 80.23 262.3 80.23 262.19 80.23 262.19 80.51 262.19 83.27 265.22 83.27 265.22 80.51 265.11 80.51 265.11 80.23"/><polygon class="cls-26" points="265.11 74.39 262.3 74.39 262.19 74.39 262.19 74.66 262.19 77.42 265.22 77.42 265.22 74.66 265.11 74.66 265.11 74.39"/><path class="cls-26" d="M293.05,121.61V119c-.33,0-.66.09-1,.15l-.66.14c-.37.08-.74.16-1.09.26l-.3.08v2Z" transform="translate(-27.83 -50.03)"/><polygon class="cls-26" points="268.03 97.76 268.14 97.76 268.14 95 265.11 95 265.11 97.76 265.11 97.92 265.44 98.03 268.03 98.03 268.03 97.76"/><polygon class="cls-26" points="265.22 92.19 268.03 92.19 268.03 91.92 268.14 91.92 268.14 89.16 265.11 89.16 265.11 91.92 265.11 92.19 265.22 92.19"/><polygon class="cls-26" points="268.14 86.08 268.14 83.32 265.11 83.32 265.11 86.08 265.11 86.35 265.22 86.35 268.03 86.35 268.03 86.08 268.14 86.08"/><polygon class="cls-26" points="268.14 80.23 268.14 77.48 265.11 77.48 265.11 80.23 265.11 80.51 265.22 80.51 268.03 80.51 268.03 80.23 268.14 80.23"/><polygon class="cls-26" points="268.14 74.39 268.14 71.63 265.11 71.63 265.11 74.39 265.11 74.66 265.22 74.66 268.03 74.66 268.03 74.39 268.14 74.39"/><path class="cls-26" d="M295.86,118.72h-.38l-.9.07-.46,0h1.74Z" transform="translate(-27.83 -50.03)"/><polygon class="cls-26" points="270.95 98.03 270.95 97.76 268.14 97.76 268.03 97.76 268.03 98.03 268.03 98.9 271.06 99.91 271.06 98.03 270.95 98.03"/><polygon class="cls-26" points="268.03 92.19 268.03 94.95 271.06 94.95 271.06 92.19 270.95 92.19 270.95 91.92 268.14 91.92 268.03 91.92 268.03 92.19"/><polygon class="cls-26" points="270.95 86.08 268.14 86.08 268.03 86.08 268.03 86.35 268.03 89.11 271.06 89.11 271.06 86.35 270.95 86.35 270.95 86.08"/><polygon class="cls-26" points="270.95 80.23 268.14 80.23 268.03 80.23 268.03 80.51 268.03 83.27 271.06 83.27 271.06 80.51 270.95 80.51 270.95 80.23"/><polygon class="cls-26" points="270.95 74.39 268.14 74.39 268.03 74.39 268.03 74.66 268.03 77.42 271.06 77.42 271.06 74.66 270.95 74.66 270.95 74.39"/><path class="cls-26" d="M295.86,121.61h3v-2.76h-.11v-.14c-.5,0-1,0-1.5,0h-.75l-.67,0v2.89Z" transform="translate(-27.83 -50.03)"/><polygon class="cls-26" points="273.86 100.85 273.98 100.89 273.98 100.85 273.86 100.85"/><polygon class="cls-26" points="271.06 98.03 273.88 98.03 273.88 97.76 273.98 97.76 273.98 95 270.95 95 270.95 97.76 270.95 98.03 271.06 98.03"/><polygon class="cls-26" points="271.06 92.19 273.88 92.19 273.88 91.92 273.98 91.92 273.98 89.16 270.95 89.16 270.95 91.92 270.95 92.19 271.06 92.19"/><polygon class="cls-26" points="273.98 86.08 273.98 83.32 270.95 83.32 270.95 86.08 270.95 86.35 271.06 86.35 273.88 86.35 273.88 86.08 273.98 86.08"/><polygon class="cls-26" points="273.98 80.23 273.98 77.48 270.95 77.48 270.95 80.23 270.95 80.51 271.06 80.51 273.88 80.51 273.88 80.23 273.98 80.23"/><polygon class="cls-26" points="273.98 74.39 273.98 71.63 270.95 71.63 270.95 74.39 270.95 74.66 271.06 74.66 273.88 74.66 273.88 74.39 273.98 74.39"/><path class="cls-26" d="M298.89,118.85h2.39c-.42,0-.84-.08-1.25-.1h-.16l-1.09,0v.14Z" transform="translate(-27.83 -50.03)"/><polygon class="cls-26" points="273.88 98.03 273.88 100.79 276.9 100.79 276.9 98.03 276.8 98.03 276.8 97.76 273.98 97.76 273.88 97.76 273.88 98.03"/><polygon class="cls-26" points="273.88 92.19 273.88 94.95 276.9 94.95 276.9 92.19 276.8 92.19 276.8 91.92 273.98 91.92 273.88 91.92 273.88 92.19"/><polygon class="cls-26" points="276.8 86.08 273.98 86.08 273.88 86.08 273.88 86.35 273.88 89.11 276.9 89.11 276.9 86.35 276.8 86.35 276.8 86.08"/><polygon class="cls-26" points="276.8 80.23 273.98 80.23 273.88 80.23 273.88 80.51 273.88 83.27 276.9 83.27 276.9 80.51 276.8 80.51 276.8 80.23"/><polygon class="cls-26" points="276.8 74.39 273.98 74.39 273.88 74.39 273.88 74.66 273.88 77.42 276.9 77.42 276.9 74.66 276.8 74.66 276.8 74.39"/><path class="cls-26" d="M304.73,121.61v-2.29c-.43-.07-.86-.17-1.29-.22h0l-1.48-.18-.22,0v2.72Z" transform="translate(-27.83 -50.03)"/><polygon class="cls-26" points="276.8 100.85 276.8 101.83 278.4 102.36 279.83 102.87 279.83 100.85 276.8 100.85"/><polygon class="cls-26" points="276.9 98.03 279.72 98.03 279.72 97.76 279.83 97.76 279.83 95 276.8 95 276.8 97.76 276.8 98.03 276.9 98.03"/><polygon class="cls-26" points="276.9 92.19 279.72 92.19 279.72 91.92 279.83 91.92 279.83 89.16 276.8 89.16 276.8 91.92 276.8 92.19 276.9 92.19"/><polygon class="cls-26" points="279.83 86.08 279.83 83.32 276.8 83.32 276.8 86.08 276.8 86.35 276.9 86.35 279.72 86.35 279.72 86.08 279.83 86.08"/><polygon class="cls-26" points="279.83 80.23 279.83 77.48 276.8 77.48 276.8 80.23 276.8 80.51 276.9 80.51 279.72 80.51 279.72 80.23 279.83 80.23"/><polygon class="cls-26" points="279.83 74.39 279.83 71.63 276.8 71.63 276.8 74.39 276.8 74.66 276.9 74.66 279.72 74.66 279.72 74.39 279.83 74.39"/><polygon class="cls-26" points="281.9 103.61 282.64 103.87 282.64 103.61 281.9 103.61"/><polygon class="cls-26" points="282.66 103.88 282.75 103.91 282.75 103.88 282.66 103.88"/><polygon class="cls-26" points="279.72 98.03 279.72 100.79 282.75 100.79 282.75 98.03 282.64 98.03 282.64 97.76 279.83 97.76 279.72 97.76 279.72 98.03"/><polygon class="cls-26" points="279.72 92.19 279.72 94.95 282.75 94.95 282.75 92.19 282.64 92.19 282.64 91.92 279.83 91.92 279.72 91.92 279.72 92.19"/><polygon class="cls-26" points="282.64 86.08 279.83 86.08 279.72 86.08 279.72 86.35 279.72 89.11 282.75 89.11 282.75 86.35 282.64 86.35 282.64 86.08"/><polygon class="cls-26" points="282.64 80.23 279.83 80.23 279.72 80.23 279.72 80.51 279.72 83.27 282.75 83.27 282.75 80.51 282.64 80.51 282.64 80.23"/><polygon class="cls-26" points="282.64 74.39 279.83 74.39 279.72 74.39 279.72 74.66 279.72 77.42 282.75 77.42 282.75 74.66 282.64 74.66 282.64 74.39"/><path class="cls-26" d="M310.57,121.61v-1c-1-.28-2-.54-3-.77v1.77Z" transform="translate(-27.83 -50.03)"/><polygon class="cls-26" points="285.56 103.88 285.56 103.61 285.67 103.61 285.67 100.85 282.64 100.85 282.64 103.61 282.64 103.87 282.66 103.88 282.75 103.88 285.56 103.88"/><polygon class="cls-26" points="282.75 98.03 285.56 98.03 285.56 97.76 285.67 97.76 285.67 95 282.64 95 282.64 97.76 282.64 98.03 282.75 98.03"/><polygon class="cls-26" points="282.75 92.19 285.56 92.19 285.56 91.92 285.67 91.92 285.67 89.16 282.64 89.16 282.64 91.92 282.64 92.19 282.75 92.19"/><polygon class="cls-26" points="285.67 86.08 285.67 83.32 282.64 83.32 282.64 86.08 282.64 86.35 282.75 86.35 285.56 86.35 285.56 86.08 285.67 86.08"/><polygon class="cls-26" points="285.67 80.23 285.67 77.48 282.64 77.48 282.64 80.23 282.64 80.51 282.75 80.51 285.56 80.51 285.56 80.23 285.67 80.23"/><polygon class="cls-26" points="285.67 74.39 285.67 71.63 282.64 71.63 282.64 74.39 282.64 74.66 282.75 74.66 285.56 74.66 285.56 74.39 285.67 74.39"/><polygon class="cls-26" points="288.48 103.88 288.48 103.61 285.67 103.61 285.56 103.61 285.56 103.88 285.56 104.91 288.59 105.98 288.59 103.88 288.48 103.88"/><polygon class="cls-26" points="285.56 98.03 285.56 100.79 288.59 100.79 288.59 98.03 288.48 98.03 288.48 97.76 285.67 97.76 285.56 97.76 285.56 98.03"/><polygon class="cls-26" points="285.56 92.19 285.56 94.95 288.59 94.95 288.59 92.19 288.48 92.19 288.48 91.92 285.67 91.92 285.56 91.92 285.56 92.19"/><polygon class="cls-26" points="288.48 86.08 285.67 86.08 285.56 86.08 285.56 86.35 285.56 89.11 288.59 89.11 288.59 86.35 288.48 86.35 288.48 86.08"/><polygon class="cls-26" points="288.48 80.23 285.67 80.23 285.56 80.23 285.56 80.51 285.56 83.27 288.59 83.27 288.59 80.51 288.48 80.51 288.48 80.23"/><polygon class="cls-26" points="288.48 74.39 285.67 74.39 285.56 74.39 285.56 74.66 285.56 77.42 288.59 77.42 288.59 74.66 288.48 74.66 288.48 74.39"/><path class="cls-26" d="M313.72,121.61l-.33-.12v.12Z" transform="translate(-27.83 -50.03)"/><polygon class="cls-26" points="290.57 106.69 291.51 107.02 291.51 106.69 290.57 106.69"/><polygon class="cls-26" points="288.59 103.88 291.4 103.88 291.4 103.61 291.51 103.61 291.51 100.85 288.48 100.85 288.48 103.61 288.48 103.88 288.59 103.88"/><polygon class="cls-26" points="288.59 98.03 291.4 98.03 291.4 97.76 291.51 97.76 291.51 95 288.48 95 288.48 97.76 288.48 98.03 288.59 98.03"/><polygon class="cls-26" points="288.59 92.19 291.4 92.19 291.4 91.92 291.51 91.92 291.51 89.16 288.48 89.16 288.48 91.92 288.48 92.19 288.59 92.19"/><polygon class="cls-26" points="291.51 86.08 291.51 83.32 288.48 83.32 288.48 86.08 288.48 86.35 288.59 86.35 291.4 86.35 291.4 86.08 291.51 86.08"/><polygon class="cls-26" points="291.51 80.23 291.51 77.48 288.48 77.48 288.48 80.23 288.48 80.51 288.59 80.51 291.4 80.51 291.4 80.23 291.51 80.23"/><path class="cls-26" d="M316.31,124.69h2.92v-.27h.11v-.51c-1-.47-2-.92-3-1.33v2.11Z" transform="translate(-27.83 -50.03)"/><polygon class="cls-26" points="291.4 103.88 291.4 106.64 294.43 106.64 294.43 103.88 294.32 103.88 294.32 103.61 291.51 103.61 291.4 103.61 291.4 103.88"/><polygon class="cls-26" points="291.4 98.03 291.4 100.79 294.43 100.79 294.43 98.03 294.32 98.03 294.32 97.76 291.51 97.76 291.4 97.76 291.4 98.03"/><polygon class="cls-26" points="291.4 92.19 291.4 94.95 294.43 94.95 294.43 92.19 294.32 92.19 294.32 91.92 291.51 91.92 291.4 91.92 291.4 92.19"/><polygon class="cls-26" points="294.32 86.08 291.51 86.08 291.4 86.08 291.4 86.35 291.4 89.11 294.43 89.11 294.43 86.35 294.32 86.35 294.32 86.08"/><polygon class="cls-26" points="294.32 80.23 291.51 80.23 291.4 80.23 291.4 80.51 291.4 83.27 294.43 83.27 294.43 80.51 294.32 80.51 294.32 80.23"/><path class="cls-26" d="M319.23,124.42v3h3v-2c-.61-.34-1.24-.67-1.87-1h-1.16Z" transform="translate(-27.83 -50.03)"/><polygon class="cls-26" points="294.32 106.69 294.32 108.02 297.35 109.1 297.35 106.69 294.32 106.69"/><polygon class="cls-26" points="294.43 103.88 297.24 103.88 297.24 103.61 297.35 103.61 297.35 100.85 294.32 100.85 294.32 103.61 294.32 103.88 294.43 103.88"/><polygon class="cls-26" points="294.43 98.03 297.24 98.03 297.24 97.76 297.35 97.76 297.35 95 294.32 95 294.32 97.76 294.32 98.03 294.43 98.03"/><polygon class="cls-26" points="294.43 92.19 297.24 92.19 297.24 91.92 297.35 91.92 297.35 89.16 294.32 89.16 294.32 91.92 294.32 92.19 294.43 92.19"/><polygon class="cls-26" points="297.35 86.08 297.35 83.32 294.32 83.32 294.32 86.08 294.32 86.35 294.43 86.35 297.24 86.35 297.24 86.08 297.35 86.08"/><polygon class="cls-26" points="297.35 80.23 297.35 77.48 294.32 77.48 294.32 80.23 294.32 80.51 294.43 80.51 297.24 80.51 297.24 80.23 297.35 80.23"/><polygon class="cls-26" points="300.17 109.72 300.17 109.45 298.34 109.45 300.27 110.13 300.27 109.72 300.17 109.72"/><polygon class="cls-26" points="297.24 103.88 297.24 106.64 300.27 106.64 300.27 103.88 300.17 103.88 300.17 103.61 297.35 103.61 297.24 103.61 297.24 103.88"/><polygon class="cls-26" points="297.24 98.03 297.24 100.79 300.27 100.79 300.27 98.03 300.17 98.03 300.17 97.76 297.35 97.76 297.24 97.76 297.24 98.03"/><polygon class="cls-26" points="297.24 92.19 297.24 94.95 300.27 94.95 300.27 92.19 300.17 92.19 300.17 91.92 297.35 91.92 297.24 91.92 297.24 92.19"/><polygon class="cls-26" points="300.17 86.08 297.35 86.08 297.24 86.08 297.24 86.35 297.24 89.11 300.27 89.11 300.27 86.35 300.17 86.35 300.17 86.08"/><polygon class="cls-26" points="300.17 80.23 297.35 80.23 297.24 80.23 297.24 80.51 297.24 83.27 300.27 83.27 300.27 80.51 300.17 80.51 300.17 80.23"/><path class="cls-26" d="M325.61,127.45l-.54-.35v.35Z" transform="translate(-27.83 -50.03)"/><polygon class="cls-26" points="300.27 109.72 303.09 109.72 303.09 109.45 303.19 109.45 303.19 106.69 300.17 106.69 300.17 109.45 300.17 109.72 300.27 109.72"/><polygon class="cls-26" points="300.27 103.88 303.09 103.88 303.09 103.61 303.19 103.61 303.19 100.85 300.17 100.85 300.17 103.61 300.17 103.88 300.27 103.88"/><polygon class="cls-26" points="300.27 98.03 303.09 98.03 303.09 97.76 303.19 97.76 303.19 95 300.17 95 300.17 97.76 300.17 98.03 300.27 98.03"/><polygon class="cls-26" points="300.27 92.19 303.09 92.19 303.09 91.92 303.19 91.92 303.19 89.16 300.17 89.16 300.17 91.92 300.17 92.19 300.27 92.19"/><polygon class="cls-26" points="303.19 86.08 303.19 83.32 300.17 83.32 300.17 86.08 300.17 86.35 300.27 86.35 303.09 86.35 303.09 86.08 303.19 86.08"/><path class="cls-26" d="M328,130.53h1.65c-.53-.46-1.08-.92-1.65-1.36v1.36Z" transform="translate(-27.83 -50.03)"/><path class="cls-26" d="M330.91,159.47v1.69l.84.3a11.32,11.32,0,0,1,.4-2h-1.24Z" transform="translate(-27.83 -50.03)"/><path class="cls-26" d="M333.84,153.9v-.27h-2.93v3h2.29c.24-.53.49-1.07.74-1.6V153.9Z" transform="translate(-27.83 -50.03)"/><polygon class="cls-26" points="303.09 98.03 303.09 100.79 306.12 100.79 306.12 98.03 306.01 98.03 306.01 97.76 303.19 97.76 303.09 97.76 303.09 98.03"/><polygon class="cls-26" points="303.09 92.19 303.09 94.95 306.12 94.95 306.12 92.19 306.01 92.19 306.01 91.92 303.19 91.92 303.09 91.92 303.09 92.19"/><polygon class="cls-26" points="306.01 86.08 303.19 86.08 303.09 86.08 303.09 86.35 303.09 89.11 306.12 89.11 306.12 86.35 306.01 86.35 306.01 86.08"/><path class="cls-26" d="M332.41,133.29c-.47-.54-1-1.06-1.5-1.58v1.58Z" transform="translate(-27.83 -50.03)"/><path class="cls-26" d="M333.84,153.63v.27h.67c.53-1,1.05-2.06,1.49-3h-2.16Z" transform="translate(-27.83 -50.03)"/><polygon class="cls-26" points="306.12 98.03 308.93 98.03 308.93 97.76 309.04 97.76 309.04 95 306.01 95 306.01 97.76 306.01 98.03 306.12 98.03"/><path class="cls-26" d="M333.84,142v.27h2.92V142h.11v-.78a17.8,17.8,0,0,0-.68-2h-2.35Z" transform="translate(-27.83 -50.03)"/><path class="cls-26" d="M333.84,136.38h.89c-.28-.45-.58-.89-.89-1.33v1.33Z" transform="translate(-27.83 -50.03)"/><path class="cls-26" d="M336.76,147.79V149a9.79,9.79,0,0,0,.35-1.24h-.35Z" transform="translate(-27.83 -50.03)"/><path class="cls-26" d="M336.76,142v3h.62a14.56,14.56,0,0,0-.32-3h-.3Z" transform="translate(-27.83 -50.03)"/><path class="cls-25" d="M332.07,153.94l-54.22-18.05a5,5,0,0,1-1.5,3.3l53.71,19.17C333.19,159.26,335,155.69,332.07,153.94Z" transform="translate(-27.83 -50.03)"/><path class="cls-27" d="M277.86,134.41a1.72,1.72,0,1,0-.68,3.38l56.13,19.59c3.12.91,4.91-2.66,2-4.42Z" transform="translate(-27.83 -50.03)"/><path class="cls-28" d="M305.78,147.38a32.38,32.38,0,0,1-.86-4.23l-27.06-8.74a1.72,1.72,0,1,0-.68,3.38l28.74,10C305.88,147.67,305.82,147.53,305.78,147.38Z" transform="translate(-27.83 -50.03)"/><path class="cls-16" d="M247.06,237.16,226.51,280c3,10.6,20.34,23.36,20.34,23.36C231.05,283.25,244,247.55,247.06,237.16Z" transform="translate(-27.83 -50.03)"/><path class="cls-29" d="M319.23,420.87s-11-46.09-24-67.19c0,0-4.54,65.57-37,82.12C258.21,435.8,281.58,441.65,319.23,420.87Z" transform="translate(-27.83 -50.03)"/><polygon class="cls-24" points="286.05 114.13 275.23 109.61 273.05 115.23 285.03 117.38 286.05 114.13"/><polygon class="cls-24" points="290.51 116.43 289.29 119.91 295.96 125 299.41 119.89 290.51 116.43"/><path class="cls-30" d="M313.27,172.87c-.57,5.25-2,17.13-3.42,17.35s-4.06-3.86-5.34-6.7c.05,2,4.33,9.07,6,8.81s3.67-19.81,3.67-19.81C314.06,172.34,313.73,172.5,313.27,172.87Z" transform="translate(-27.83 -50.03)"/><path class="cls-23" d="M308.41,173.3c.83-1.66.61-3.36-.48-3.79s-2.64.58-3.47,2.25-.62,3.36.47,3.79S307.58,175,308.41,173.3Z" transform="translate(-27.83 -50.03)"/><path class="cls-31" d="M307.87,194.15l-12.17-8.28s-4,4.5-2.41,8.07S305.92,195,307.87,194.15Z" transform="translate(-27.83 -50.03)"/><path class="cls-32" d="M307.12,193.82l-10.95-7.45s-3.62,4-2.17,7.25S305.37,194.55,307.12,193.82Z" transform="translate(-27.83 -50.03)"/><path class="cls-33" d="M350.61,231.09a1.91,1.91,0,0,1-1.54.25L335,227.6c-1.51-.54-2.1-4-1-5.1l8.75-8.76a2.59,2.59,0,0,1,2.81-.57l15.68,6.45c1,.39,2.13,3,1.33,3.64Z" transform="translate(-27.83 -50.03)"/><path class="cls-34" d="M345.2,216c0-1.19.1-4.32-2.44-2.21L334,222.5c-1.14,1.14-.55,4.56,1,5.1l13,3.45C344.77,227.94,345.2,221.72,345.2,216Z" transform="translate(-27.83 -50.03)"/><path class="cls-35" d="M351.38,232.6a1.91,1.91,0,0,1-1.87.32l-14-5.06a2.2,2.2,0,0,1-1.4-1.59,2.17,2.17,0,0,1,.59-2l8.75-8.77a2.59,2.59,0,0,1,2.8-.56l15.69,6.45a1.37,1.37,0,0,1,.35,2.32Z" transform="translate(-27.83 -50.03)"/><path class="cls-36" d="M335.42,227.83l13.21-11.93-2.42-1a2.58,2.58,0,0,0-2.8.57l-8.75,8.76a2.19,2.19,0,0,0,.76,3.6Z" transform="translate(-27.83 -50.03)"/><path class="cls-36" d="M361.9,221.35l-1.36-.56L347.3,232.12l2.21.8a1.91,1.91,0,0,0,1.87-.32l10.87-8.93a1.37,1.37,0,0,0-.35-2.32Z" transform="translate(-27.83 -50.03)"/><path class="cls-12" d="M339.4,221.32c-4.81,1.43-7.68,4.72-12.29,7.36l1.67,4.61c6.27-2.6,11.74-2.95,13.06-4.42C342.28,228.35,341,220.84,339.4,221.32Z" transform="translate(-27.83 -50.03)"/><path class="cls-12" d="M339.51,229.85c2.08-.65,5.83-1,5.77-1.86-.12-1.33-2.51-.68-5.17-.36C336.5,228.1,339.51,229.85,339.51,229.85Z" transform="translate(-27.83 -50.03)"/><path class="cls-12" d="M339.36,223.78c2-.94,5.59-1.81,5.35-2.77-.41-1.7-4.62-.35-6.63.74C335,223.45,339.36,223.78,339.36,223.78Z" transform="translate(-27.83 -50.03)"/><path class="cls-12" d="M335.66,224.23c-2.75-1.26,4.43-6.17,2.22-7.17-1.48-.67-6.46,6.21-7.74,9.43C328.91,229.53,335.66,224.23,335.66,224.23Z" transform="translate(-27.83 -50.03)"/><path class="cls-12" d="M340.6,226.44c2.07-.67,5.15-1.45,5.08-2.35-.11-1.45-3.25-.49-5.5.08C336.68,225.07,340.6,226.44,340.6,226.44Z" transform="translate(-27.83 -50.03)"/><path class="cls-37" d="M328.53,226l2,7.89-6.49,5s-1.19-8.93-.36-11.15Z" transform="translate(-27.83 -50.03)"/><path class="cls-37" d="M343.21,230.16l2.53,7-5.88,6.56s-2.75-8.48-2-10.73Z" transform="translate(-27.83 -50.03)"/><path class="cls-16" d="M243.93,376.08l.31,48.09c.44-10.66,9.65-52.85,24.35-78.28A81.85,81.85,0,0,0,243.93,376.08Z" transform="translate(-27.83 -50.03)"/><path class="cls-12" d="M357.75,231.14c.07-.57-1.2-1.22-2.84-1.44s-3,.07-3.12.65,1.2,1.22,2.84,1.44S357.67,231.72,357.75,231.14Z" transform="translate(-27.83 -50.03)"/><path class="cls-12" d="M359.21,227.61c.09-.58-.67-1.17-1.69-1.32s-1.91.21-2,.79.68,1.17,1.7,1.32S359.13,228.19,359.21,227.61Z" transform="translate(-27.83 -50.03)"/><path class="cls-12" d="M347.08,221.74c.09-.58-.95-1.2-2.32-1.38s-2.54.13-2.62.71,1,1,2.33,1.16S347,222.32,347.08,221.74Z" transform="translate(-27.83 -50.03)"/><path class="cls-12" d="M345.2,227.42a2.22,2.22,0,0,0-2.2.64c-.71.63-.87,1.37-.35,1.65s1.28-.1,2-.73S345.71,227.7,345.2,227.42Z" transform="translate(-27.83 -50.03)"/><path class="cls-12" d="M343.48,227.22c.57.12,1.37-.64,1.79-1.69s.3-2-.27-2.13-1.15.67-1.57,1.72S342.91,227.1,343.48,227.22Z" transform="translate(-27.83 -50.03)"/></g></g></svg>