<svg xmlns="http://www.w3.org/2000/svg" viewBox="0 0 500 500"><defs><style>.cls-1{isolation:isolate;}.cls-2{fill:#f5f5f5;}.cls-3{fill:#ebebeb;}.cls-4{fill:#e0e0e0;}.cls-5{fill:#fafafa;}.cls-6{fill:#fff;}.cls-7{fill:#00acf0;}.cls-8{opacity:0.3;}.cls-9{fill:#263238;}.cls-10{fill:#455a64;}.cls-11{opacity:0.2;}.cls-12{fill:#fbf3d6;}.cls-13{fill:#cf5151;}.cls-14{fill:#a45745;opacity:0.5;mix-blend-mode:multiply;}.cls-15{fill:#fcf8dd;}.cls-16{fill:none;}.cls-17{fill:#e7e4c9;}.cls-18{fill:#cfc29a;}.cls-19{fill:#eaac76;}.cls-20{fill:#e1aa7e;}.cls-21{fill:#f1cb9c;}.cls-22{fill:#53392f;}.cls-23{fill:#c16a4e;}.cls-24{fill:#4a302c;}.cls-25{fill:#432a27;}.cls-26{fill:#3a2727;}.cls-27{fill:#362027;}.cls-28{fill:#faf1ed;}</style></defs><g class="cls-1"><g id="Background_Complete" data-name="Background Complete"><rect class="cls-2" x="127.02" y="82.85" width="48.34" height="153.21"/><rect class="cls-3" x="151.19" y="82.85" width="24.17" height="152.79"/><rect class="cls-2" x="132.54" y="67.8" width="17.07" height="15.04"/><rect class="cls-3" x="145.54" y="67.8" width="4.07" height="15.04"/><polyline class="cls-4" points="122.99 82.85 122.99 81.97 176.78 81.97 176.78 82.85"/><rect class="cls-5" x="136.56" y="89.41" width="4.09" height="8.63"/><path class="cls-4" d="M151.19,101.42c0,.09-5.41.17-12.09.17s-12.08-.08-12.08-.17,5.41-.16,12.08-.16S151.19,101.33,151.19,101.42Z"/><rect class="cls-4" x="160.94" y="89.41" width="4.09" height="8.63"/><path class="cls-4" d="M175.57,101.42c0,.09-5.41.17-12.08.17s-12.09-.08-12.09-.17,5.41-.16,12.09-.16S175.57,101.33,175.57,101.42Z"/><rect class="cls-4" x="160.94" y="106.54" width="4.09" height="8.63"/><path class="cls-4" d="M175.57,118.55c0,.09-5.41.17-12.08.17s-12.09-.08-12.09-.17,5.41-.16,12.09-.16S175.57,118.46,175.57,118.55Z"/><rect class="cls-4" x="160.94" y="124.18" width="4.09" height="8.63"/><path class="cls-4" d="M175.57,136.2c0,.09-5.41.16-12.08.16s-12.09-.07-12.09-.16,5.41-.16,12.09-.16S175.57,136.11,175.57,136.2Z"/><rect class="cls-4" x="160.94" y="141.83" width="4.09" height="8.63"/><path class="cls-4" d="M175.57,153.85c0,.09-5.41.16-12.08.16s-12.09-.07-12.09-.16,5.41-.17,12.09-.17S175.57,153.76,175.57,153.85Z"/><rect class="cls-4" x="160.94" y="158.98" width="4.09" height="8.63"/><path class="cls-4" d="M175.57,171c0,.09-5.41.17-12.08.17s-12.09-.08-12.09-.17,5.41-.16,12.09-.16S175.57,170.9,175.57,171Z"/><rect class="cls-4" x="160.94" y="176.19" width="4.09" height="8.63"/><rect class="cls-4" x="160.94" y="193.63" width="4.09" height="8.63"/><path class="cls-4" d="M175.57,188.2c0,.09-5.41.17-12.08.17s-12.09-.08-12.09-.17,5.41-.16,12.09-.16S175.57,188.11,175.57,188.2Z"/><rect class="cls-5" x="136.56" y="106.8" width="4.09" height="8.63"/><path class="cls-4" d="M151.19,118.81c0,.09-5.41.17-12.09.17S127,118.9,127,118.81s5.41-.16,12.08-.16S151.19,118.72,151.19,118.81Z"/><rect class="cls-5" x="136.56" y="124.19" width="4.09" height="8.63"/><path class="cls-4" d="M151.19,136.21c0,.09-5.41.16-12.09.16S127,136.3,127,136.21s5.41-.17,12.08-.17S151.19,136.12,151.19,136.21Z"/><rect class="cls-5" x="136.56" y="141.58" width="4.09" height="8.63"/><path class="cls-4" d="M151.19,153.6c0,.09-5.41.16-12.09.16S127,153.69,127,153.6s5.41-.17,12.08-.17S151.19,153.51,151.19,153.6Z"/><rect class="cls-5" x="136.56" y="158.98" width="4.09" height="8.63"/><path class="cls-4" d="M151.19,171c0,.09-5.41.17-12.09.17S127,171.08,127,171s5.41-.16,12.08-.16S151.19,170.9,151.19,171Z"/><rect class="cls-5" x="136.56" y="176.37" width="4.09" height="8.63"/><path class="cls-4" d="M151.19,188.38c0,.09-5.41.17-12.09.17s-12.08-.08-12.08-.17,5.41-.16,12.08-.16S151.19,188.29,151.19,188.38Z"/><rect class="cls-5" x="136.56" y="193.76" width="4.09" height="8.63"/><rect class="cls-2" x="304.06" y="115.33" width="48.34" height="153.21"/><rect class="cls-3" x="328.24" y="115.33" width="24.17" height="152.79"/><rect class="cls-2" x="309.59" y="100.29" width="17.07" height="15.04"/><rect class="cls-3" x="322.59" y="100.29" width="4.07" height="15.04"/><polyline class="cls-4" points="300.04 115.33 300.04 114.45 353.82 114.45 353.82 115.33"/><rect class="cls-5" x="313.61" y="121.89" width="4.09" height="8.63"/><path class="cls-4" d="M328.24,133.91c0,.09-5.41.16-12.09.16s-12.09-.07-12.09-.16,5.42-.17,12.09-.17S328.24,133.82,328.24,133.91Z"/><rect class="cls-4" x="337.99" y="121.89" width="4.09" height="8.63"/><path class="cls-4" d="M352.62,133.91c0,.09-5.41.16-12.09.16s-12.08-.07-12.08-.16,5.41-.17,12.08-.17S352.62,133.82,352.62,133.91Z"/><rect class="cls-4" x="337.99" y="139.02" width="4.09" height="8.63"/><path class="cls-4" d="M352.62,151c0,.09-5.41.16-12.09.16s-12.08-.07-12.08-.16,5.41-.17,12.08-.17S352.62,151,352.62,151Z"/><rect class="cls-4" x="337.99" y="156.67" width="4.09" height="8.63"/><path class="cls-4" d="M352.62,168.69c0,.09-5.41.16-12.09.16s-12.08-.07-12.08-.16,5.41-.17,12.08-.17S352.62,168.6,352.62,168.69Z"/><rect class="cls-4" x="337.99" y="174.32" width="4.09" height="8.63"/><path class="cls-4" d="M352.62,186.33c0,.1-5.41.17-12.09.17s-12.08-.07-12.08-.17,5.41-.16,12.08-.16S352.62,186.24,352.62,186.33Z"/><rect class="cls-4" x="337.99" y="191.46" width="4.09" height="8.63"/><path class="cls-4" d="M352.62,203.48c0,.09-5.41.16-12.09.16s-12.08-.07-12.08-.16,5.41-.17,12.08-.17S352.62,203.39,352.62,203.48Z"/><rect class="cls-4" x="337.99" y="208.67" width="4.09" height="8.63"/><rect class="cls-4" x="337.99" y="226.11" width="4.09" height="8.63"/><path class="cls-4" d="M352.62,220.69c0,.09-5.41.16-12.09.16s-12.08-.07-12.08-.16,5.41-.16,12.08-.16S352.62,220.6,352.62,220.69Z"/><rect class="cls-5" x="313.61" y="139.28" width="4.09" height="8.63"/><path class="cls-4" d="M328.24,151.3c0,.09-5.41.16-12.09.16s-12.09-.07-12.09-.16,5.42-.16,12.09-.16S328.24,151.21,328.24,151.3Z"/><rect class="cls-5" x="313.61" y="156.68" width="4.09" height="8.63"/><path class="cls-4" d="M328.24,168.69c0,.09-5.41.17-12.09.17s-12.09-.08-12.09-.17,5.42-.16,12.09-.16S328.24,168.6,328.24,168.69Z"/><rect class="cls-5" x="313.61" y="174.07" width="4.09" height="8.63"/><path class="cls-4" d="M328.24,186.08c0,.1-5.41.17-12.09.17s-12.09-.07-12.09-.17,5.42-.16,12.09-.16S328.24,186,328.24,186.08Z"/><rect class="cls-5" x="313.61" y="191.46" width="4.09" height="8.63"/><path class="cls-4" d="M328.24,203.48c0,.09-5.41.16-12.09.16s-12.09-.07-12.09-.16,5.42-.17,12.09-.17S328.24,203.39,328.24,203.48Z"/><rect class="cls-5" x="313.61" y="208.86" width="4.09" height="8.63"/><path class="cls-4" d="M328.24,220.87c0,.09-5.41.16-12.09.16s-12.09-.07-12.09-.16,5.42-.16,12.09-.16S328.24,220.78,328.24,220.87Z"/><rect class="cls-5" x="313.61" y="226.25" width="4.09" height="8.63"/><rect class="cls-3" x="334.49" y="174.78" width="78.28" height="103.24"/><rect class="cls-4" x="376.06" y="174.78" width="36.7" height="103.24"/><rect class="cls-2" x="350.9" y="188.76" width="7.04" height="17.1"/><rect class="cls-2" x="350.9" y="255.68" width="7.04" height="17.1"/><path class="cls-2" d="M376.06,212.57c0,.19-9.3.34-20.78.34s-20.79-.15-20.79-.34,9.3-.35,20.79-.35S376.06,212.37,376.06,212.57Z"/><rect class="cls-2" x="350.9" y="222.47" width="7.04" height="17.1"/><path class="cls-2" d="M376.06,246.28c0,.19-9.3.35-20.78.35s-20.79-.16-20.79-.35,9.3-.35,20.79-.35S376.06,246.09,376.06,246.28Z"/><rect class="cls-2" x="383.86" y="188.76" width="7.04" height="17.1"/><rect class="cls-2" x="399.13" y="188.76" width="7.04" height="17.1"/><rect class="cls-2" x="383.86" y="221.2" width="7.04" height="17.1"/><rect class="cls-2" x="399.13" y="221.2" width="7.04" height="17.1"/><rect class="cls-2" x="383.86" y="253.65" width="7.04" height="17.1"/><rect class="cls-2" x="399.13" y="253.65" width="7.04" height="17.1"/><rect class="cls-4" x="328.6" y="171.18" width="90.05" height="3.72"/><path class="cls-3" d="M413.31,175.26c0,.19-17.49.34-39.07.34s-39.08-.15-39.08-.34,17.5-.35,39.08-.35S413.31,175.06,413.31,175.26Z"/><polygon class="cls-3" points="157.43 280.08 86.29 280.08 85.98 167.65 157.12 167.65 157.43 280.08"/><rect class="cls-4" x="121.55" y="167.65" width="35.57" height="112.43"/><rect class="cls-3" x="94.1" y="145.52" width="25.12" height="22.13"/><rect class="cls-4" x="113.23" y="145.52" width="5.99" height="22.13"/><rect class="cls-4" x="80.05" y="166.36" width="79.15" height="1.29"/><rect class="cls-6" x="100.02" y="177.31" width="6.02" height="12.7"/><path class="cls-4" d="M121.55,195c0,.13-8,.24-17.79.24S86,195.12,86,195s8-.24,17.78-.24S121.55,194.85,121.55,195Z"/><rect class="cls-2" x="135.9" y="177.31" width="6.02" height="12.7"/><path class="cls-3" d="M157.43,195c0,.13-8,.24-17.79.24s-17.78-.11-17.78-.24,8-.24,17.78-.24S157.43,194.85,157.43,195Z"/><rect class="cls-2" x="135.9" y="202.52" width="6.02" height="12.7"/><path class="cls-3" d="M157.43,220.2c0,.13-8,.24-17.79.24s-17.78-.11-17.78-.24,8-.25,17.78-.25S157.43,220.06,157.43,220.2Z"/><rect class="cls-2" x="135.9" y="228.49" width="6.02" height="12.7"/><path class="cls-3" d="M157.43,246.17c0,.13-8,.24-17.79.24s-17.78-.11-17.78-.24,8-.25,17.78-.25S157.43,246,157.43,246.17Z"/><rect class="cls-2" x="135.9" y="254.45" width="6.02" height="12.7"/><path class="cls-3" d="M157.43,272.14c0,.13-8,.24-17.79.24s-17.78-.11-17.78-.24,8-.25,17.78-.25S157.43,272,157.43,272.14Z"/><rect class="cls-6" x="100.02" y="202.9" width="6.02" height="12.7"/><path class="cls-4" d="M121.55,220.58c0,.14-8,.24-17.79.24S86,220.72,86,220.58s8-.24,17.78-.24S121.55,220.45,121.55,220.58Z"/><rect class="cls-6" x="100.02" y="228.49" width="6.02" height="12.7"/><path class="cls-4" d="M121.55,246.17c0,.14-8,.25-17.79.25S86,246.31,86,246.17s8-.24,17.78-.24S121.55,246,121.55,246.17Z"/><rect class="cls-6" x="100.02" y="254.09" width="6.02" height="12.7"/><path class="cls-4" d="M121.55,271.77c0,.13-8,.24-17.79.24S86,271.9,86,271.77s8-.24,17.78-.24S121.55,271.63,121.55,271.77Z"/><path class="cls-2" d="M439.16,144.93c.38-2.74-3.48-5-6.38-5.22a16.68,16.68,0,0,1-4.13-.35c-2.83-1-4-4.66-6.73-5.82-2.07-.88-4.45-.1-6.46.91s-4,2.28-6.23,2.42c-2,.13-4.07-.6-5.77.36-1.27.71-1.94,2.17-3.11,3a7.48,7.48,0,0,1-4.06,1.1,11.31,11.31,0,0,0-4.19.68,3.3,3.3,0,0,0-2.1,3.36Z"/><path class="cls-3" d="M318.81,67c.59-4.27-5.45-7.79-10-8.16-2.16-.17-4.41.16-6.45-.55-4.44-1.55-6.22-7.29-10.55-9.12-3.24-1.36-7-.15-10.11,1.43s-6.24,3.57-9.75,3.8c-3,.19-6.37-.94-9,.55-2,1.11-3,3.41-4.86,4.76s-4.14,1.6-6.36,1.72-4.53.15-6.56,1.07-3.7,3.08-3.28,5.26Z"/><path class="cls-2" d="M113.2,126.2c.47-3.41-4.34-6.22-8-6.51-1.72-.14-3.51.13-5.15-.44-3.54-1.24-5-5.81-8.4-7.27-2.59-1.09-5.56-.12-8.06,1.14s-5,2.85-7.78,3c-2.43.15-5.07-.75-7.2.44-1.59.88-2.42,2.71-3.88,3.79a9.14,9.14,0,0,1-5.07,1.37,14.4,14.4,0,0,0-5.23.86c-1.61.74-2.95,2.45-2.61,4.19Z"/></g><g id="Background_Simple" data-name="Background Simple"><path class="cls-2" d="M398.23,105.81l-1.91-3.16C380.17,76,351,60,320.18,61.94a79.58,79.58,0,0,0-11.79,1.62c-28,6-52.35,27.16-62.44,54.27-5.94,15.94-7.6,34.3-18.87,47-14.66,16.47-39.56,17-61.44,16.31s-46.81-.1-61.4,16.43c-9.14,10.36-12,25.09-11.3,39,2,36.71,27.53,69.55,60.07,85.86S223.86,340.12,259.47,333c49.89-10.06,97.33-37.68,125.85-80.33S421.05,151.85,398.23,105.81Z"/><circle class="cls-2" cx="143.17" cy="98.2" r="25.36" transform="translate(14.4 214.65) rotate(-76.57)"/></g><g id="Locations"><path class="cls-7" d="M77.83,201.41A21.36,21.36,0,0,0,61,235.23h0l.2.29,0,0,15.13,20.57a3.25,3.25,0,0,0,5.31-.11l13.67-20.33c2.58-3.94,4.36-8.07,4.36-12.93A21.36,21.36,0,0,0,77.83,201.41Zm.51,36.89A16.06,16.06,0,1,1,94.4,222.24,16.06,16.06,0,0,1,78.34,238.3Z"/><g class="cls-8"><path d="M77.83,201.41A21.36,21.36,0,0,0,61,235.23h0l.2.29,0,0,15.13,20.57a3.25,3.25,0,0,0,5.31-.11l13.67-20.33c2.58-3.94,4.36-8.07,4.36-12.93A21.36,21.36,0,0,0,77.83,201.41Zm.51,36.89A16.06,16.06,0,1,1,94.4,222.24,16.06,16.06,0,0,1,78.34,238.3Z"/></g><path class="cls-7" d="M76.57,201.41a21.43,21.43,0,0,0-20.85,20.83,21.18,21.18,0,0,0,4,13h0l.21.29,0,0,15.12,20.57A3.25,3.25,0,0,0,80.4,256l13.67-20.33c2.59-3.94,4.36-8.07,4.36-12.93A21.36,21.36,0,0,0,76.57,201.41Zm.5,34a12.16,12.16,0,1,1,12.17-12.16A12.16,12.16,0,0,1,77.07,235.4Z"/><path class="cls-7" d="M412.86,181.16A16.28,16.28,0,0,0,400,206.94h0l.16.22,0,0,11.53,15.67a2.47,2.47,0,0,0,4-.08l10.42-15.49a17.66,17.66,0,0,0,3.33-9.85A16.29,16.29,0,0,0,412.86,181.16Zm.39,28.12A12.24,12.24,0,1,1,425.49,197,12.24,12.24,0,0,1,413.25,209.28Z"/><g class="cls-8"><path d="M412.86,181.16A16.28,16.28,0,0,0,400,206.94h0l.16.22,0,0,11.53,15.67a2.47,2.47,0,0,0,4-.08l10.42-15.49a17.66,17.66,0,0,0,3.33-9.85A16.29,16.29,0,0,0,412.86,181.16Zm.39,28.12A12.24,12.24,0,1,1,425.49,197,12.24,12.24,0,0,1,413.25,209.28Z"/></g><path class="cls-7" d="M411.9,181.16a16.28,16.28,0,0,0-12.83,25.78h0l.15.22,0,0,11.52,15.67a2.48,2.48,0,0,0,4.05-.08l10.42-15.49a17.65,17.65,0,0,0,3.32-9.85A16.28,16.28,0,0,0,411.9,181.16Zm.38,25.91a9.27,9.27,0,1,1,9.27-9.27A9.26,9.26,0,0,1,412.28,207.07Z"/></g><g id="Map"><polygon class="cls-6" points="89.51 278.19 18.09 455.55 152 433.53 250.21 455.55 350.79 433.53 485.3 459.19 413.29 278.19 332.94 257.95 251.7 273.43 168.67 257.95 89.51 278.19"/><path class="cls-9" d="M89.51,278.19l1.31-.35,3.91-1,15.32-3.95,58.59-15h.05l83,15.43h-.07l81.24-15.5H333L413.34,278l.12,0,0,.11,72,181,.18.44-.47-.09-69.19-13.2-65.32-12.46h.11l-100.59,22,0,0-.06,0-98.2-22H152l-133.92,22-.33.05.13-.31c22.09-54.76,40-99.1,52.34-129.75l14.26-35.27,3.71-9.16c.84-2.06,1.28-3.11,1.28-3.11s-.41,1.07-1.24,3.15l-3.68,9.2L70.42,325.87,18.27,455.62l-.21-.26L152,433.3h.09l98.2,22h-.1l100.58-22,.05,0h0l65.32,12.46,69.19,13.2-.29.35-72-181,.16.14-80.34-20.26H333L251.73,273.6h-.07l-83-15.52h0L110.13,273l-15.35,3.89-3.93,1Z"/><polygon class="cls-6" points="93.68 282.95 30.59 446.62 151.41 426.98 251.7 450.19 350.79 426.39 473.99 450.19 409.12 282.95 334.13 264.5 251.7 279.98 167.48 264.5 93.68 282.95"/><polygon class="cls-10" points="37.6 428.44 133.63 406.19 130.09 385.51 138.07 380.48 125.65 332.17 87.25 299.62 37.6 428.44"/><polygon class="cls-3" points="30.59 446.62 35.27 434.48 196.29 397.07 205.03 421.14 202.2 426 171.96 431.74 151.41 426.98 30.59 446.62"/><polygon class="cls-3" points="205.03 394.74 211.42 418.55 229.97 426.61 256.35 414.89 311.7 398.77 294.43 372.75 205.03 394.74"/><polygon class="cls-4" points="140.72 403.56 170.64 397.07 164.67 377.63 142.87 382.89 137.07 386.99 140.72 403.56"/><polygon class="cls-10" points="134.61 339.13 145.47 374.78 162.45 371.04 159.39 357.35 196.74 348.98 134.61 339.13"/><polygon class="cls-3" points="90.08 292.3 137.07 330.02 199.45 341.85 265.99 325.31 235.62 277.02 167.48 264.5 93.68 282.95 90.08 292.3"/><polygon class="cls-3" points="244.71 278.69 342.26 428.44 350.79 426.39 256.37 279.1 251.7 279.98 244.71 278.69"/><polygon class="cls-4" points="165.67 361.12 178.03 397.07 287.77 369.03 267.46 334.46 165.67 361.12"/><polyline class="cls-4" points="226.72 444.41 227.79 442.82 235 432.11 252.29 426.61 264.19 417.65 315.76 403.56 331.78 430.95 251.7 450.19"/><polygon class="cls-4" points="318.08 267.51 343.92 296.26 409.12 282.95 334.13 264.5 318.08 267.51"/><polygon class="cls-4" points="422.84 318.32 374.96 331.63 350.79 299.62 410.75 287.17 422.84 318.32"/><polygon class="cls-3" points="261.49 278.13 311.7 350.25 369.64 333.62 311.7 268.71 261.49 278.13"/><polygon class="cls-4" points="401.85 436.25 459.78 413.56 473.99 450.19 401.85 436.25"/><polygon class="cls-10" points="341.26 345.94 372.74 337.73 405.99 377.63 373.63 388.37 341.26 345.94"/><polygon class="cls-4" points="379.83 334.46 414.86 374.62 441.24 365.76 423.89 321.04 379.83 334.46"/><polygon class="cls-10" points="405.99 426.88 379.83 390.59 443.06 370.44 455.9 403.56 447.66 411.85 405.99 426.88"/><polygon class="cls-4" points="314.77 355.55 362.83 428.44 392.43 434.43 398.01 431.88 337.11 348.82 314.77 355.55"/><polygon class="cls-4" points="117.81 409.86 105.84 353.56 63.62 360.94 37.6 428.44 117.81 409.86"/><polygon class="cls-10" points="156.63 267.21 156.63 292.99 165.67 294.13 190.91 323.53 212.61 321.04 222.94 336.01 199.45 341.85 137.07 330.02 90.08 292.3 93.68 282.95 156.63 267.21"/><polygon class="cls-4" points="288.59 273.27 324.04 325 354.58 316.75 311.7 268.71 288.59 273.27"/><polygon class="cls-3" points="392.66 326.71 379.83 306.66 414.51 296.86 422.84 318.32 392.66 326.71"/><polygon class="cls-3" points="341.26 395.73 358.05 389.92 390.61 434.06 362.83 428.44 341.26 395.73"/><polygon class="cls-10" points="186.41 435.08 202.02 433.18 207.22 425.57 226.72 431.7 221.62 443.23 186.41 435.08"/><path class="cls-9" d="M93.68,283l4.86-1.25,14.28-3.6,54.63-13.73h.05l84.23,15.43h-.07l82.43-15.51h.09l75,18.43.11,0,0,.12C429.2,334,451.13,390.56,474.23,450.1l.17.44-.46-.09-61.81-11.94-61.39-11.87h.11l-99.09,23.8h-.12L151.36,427.21h.09L30.62,446.81l-.32.05.11-.31C49.94,396,65.75,355.08,76.67,326.8c5.47-14.12,9.71-25.09,12.59-32.53l3.29-8.45c.74-1.91,1.13-2.87,1.13-2.87s-.37,1-1.1,2.91l-3.24,8.48-12.51,32.6L30.77,446.69l-.21-.25,120.81-19.68h.09L251.75,450h-.11l99.09-23.81.06,0h0L412.23,438,474,449.94l-.29.35c-23.09-59.55-45-116.07-64.85-167.25l.16.14-75-18.47h.09l-82.44,15.44h-.07l-84.2-15.52h0L112.9,278.21l-14.31,3.55Z"/><g class="cls-11"><polygon points="250.21 455.55 251.7 273.43 168.67 257.95 152 433.53 250.21 455.55"/></g><g class="cls-11"><polygon points="332.94 257.95 350.79 433.53 485.3 459.19 413.29 278.19 332.94 257.95"/></g></g><g id="Character"><path class="cls-7" d="M252.34,101.09c-58,1.35-105.31,48.63-106.69,106.63a108.79,108.79,0,0,0,20.55,66.47h0l1.07,1.45.15.21,77.4,105.28a16.62,16.62,0,0,0,27.18-.57l70-104c13.24-20.2,22.32-41.3,22.32-66.18A109.32,109.32,0,0,0,252.34,101.09Zm2.6,188.79a82.19,82.19,0,1,1,82.18-82.19A82.19,82.19,0,0,1,254.94,289.88Z"/><g class="cls-8"><path d="M252.34,101.09c-58,1.35-105.31,48.63-106.69,106.63a108.79,108.79,0,0,0,20.55,66.47h0l1.07,1.45.15.21,77.4,105.28a16.62,16.62,0,0,0,27.18-.57l70-104c13.24-20.2,22.32-41.3,22.32-66.18A109.32,109.32,0,0,0,252.34,101.09Zm2.6,188.79a82.19,82.19,0,1,1,82.18-82.19A82.19,82.19,0,0,1,254.94,289.88Z"/></g><path class="cls-7" d="M245.86,101.09c-58,1.35-105.31,48.63-106.69,106.63a108.79,108.79,0,0,0,20.55,66.47h0l1.07,1.45.15.21,77.4,105.28a16.62,16.62,0,0,0,27.18-.57l70-104c13.24-20.2,22.32-41.3,22.32-66.18A109.32,109.32,0,0,0,245.86,101.09Zm2.6,188.79a82.19,82.19,0,1,1,82.18-82.19A82.19,82.19,0,0,1,248.46,289.88Z"/><rect class="cls-6" x="181.88" y="309.63" width="138.93" height="44.95" rx="4.86"/><path class="cls-9" d="M316,354.59s.32,0,.92-.12a4.81,4.81,0,0,0,2.36-1.24,4.9,4.9,0,0,0,1.5-4c0-1.76,0-3.78,0-6,0-4.55,0-10.11,0-16.57q0-4.85,0-10.34a19.35,19.35,0,0,0-.09-2.75,4.72,4.72,0,0,0-1.29-2.39,4.65,4.65,0,0,0-2.48-1.29,24.21,24.21,0,0,0-3-.07l-127.06.07a4.6,4.6,0,0,0-4.56,3.95c-.09.71,0,1.51-.05,2.27v31.34c0,.72,0,1.45,0,2.17a4.67,4.67,0,0,0,.41,2,4.61,4.61,0,0,0,3,2.56,7.26,7.26,0,0,0,2,.17H206.2l57.12,0,38.51.09,10.47,0,2.73,0,.92,0-.92,0-2.73,0-10.47.05-38.51.08-57.12.06H187.57a7.79,7.79,0,0,1-2.18-.19,5.11,5.11,0,0,1-3.76-5v-6.54q0-8.77,0-17.85v-9.12a23.14,23.14,0,0,1,.06-2.34,5,5,0,0,1,.89-2.24,5.18,5.18,0,0,1,4.18-2.16l127.06.08a23.86,23.86,0,0,1,3,.09,5,5,0,0,1,4,4,17.79,17.79,0,0,1,.09,2.81q0,5.49,0,10.34c0,6.46,0,12,0,16.57q0,3.4,0,6a5.54,5.54,0,0,1-.41,2.39,5,5,0,0,1-1.18,1.64,4.76,4.76,0,0,1-2.42,1.21,4.51,4.51,0,0,1-.69.07Z"/><path class="cls-9" d="M195.74,328.53a3.7,3.7,0,0,1,3.94-3.72,3.79,3.79,0,0,1,3.08,1.35l-1.29,1.17a2.09,2.09,0,0,0-1.69-.84,2,2,0,0,0,0,4.09,2.12,2.12,0,0,0,1.69-.84l1.29,1.16a3.79,3.79,0,0,1-3.08,1.35A3.7,3.7,0,0,1,195.74,328.53Z"/><path class="cls-9" d="M203.51,328.92v-4h2v3.91c0,1.23.51,1.72,1.36,1.72s1.35-.49,1.35-1.72V325h2v4a3.37,3.37,0,0,1-6.73,0Z"/><path class="cls-9" d="M214.74,330.21h-1.11v1.9h-2V325h3.27c2,0,3.18,1,3.18,2.65a2.37,2.37,0,0,1-1.4,2.26l1.54,2.25H216Zm0-3.66h-1.13v2.09h1.13c.83,0,1.25-.38,1.25-1S215.59,326.55,214.76,326.55Z"/><path class="cls-9" d="M222.3,330.21h-1.11v1.9h-2V325h3.27c2,0,3.18,1,3.18,2.65a2.37,2.37,0,0,1-1.4,2.26l1.54,2.25H223.6Zm0-3.66h-1.13v2.09h1.13c.84,0,1.26-.38,1.26-1S223.16,326.55,222.32,326.55Z"/><path class="cls-9" d="M232.48,330.55v1.56h-5.75V325h5.62v1.57h-3.61v1.2h3.18v1.52h-3.18v1.31Z"/><path class="cls-9" d="M240.41,325v7.16h-1.67l-3.15-3.81v3.81h-2V325h1.67l3.16,3.82V325Z"/><path class="cls-9" d="M243.36,326.56h-2.19V325h6.41v1.61h-2.19v5.55h-2Z"/><path class="cls-9" d="M251.3,325h2v5.56h3.41v1.6H251.3Z"/><path class="cls-9" d="M257.06,328.53a4,4,0,1,1,4,3.72A3.74,3.74,0,0,1,257.06,328.53Zm5.91,0a1.94,1.94,0,1,0-1.94,2.05A1.92,1.92,0,0,0,263,328.53Z"/><path class="cls-9" d="M265.71,328.53a3.69,3.69,0,0,1,3.93-3.72,3.79,3.79,0,0,1,3.08,1.35l-1.29,1.17a2.09,2.09,0,0,0-1.69-.84,2,2,0,0,0,0,4.09,2.12,2.12,0,0,0,1.69-.84l1.29,1.16a3.79,3.79,0,0,1-3.08,1.35A3.69,3.69,0,0,1,265.71,328.53Z"/><path class="cls-9" d="M278.29,330.72h-3l-.56,1.39h-2.07l3.16-7.16h2l3.17,7.16h-2.11Zm-.6-1.49-.91-2.29-.92,2.29Z"/><path class="cls-9" d="M282.69,326.56h-2.2V325h6.41v1.61h-2.18v5.55h-2Z"/><path class="cls-9" d="M287.66,325h2v7.16h-2Z"/><path class="cls-9" d="M290.76,328.53a4,4,0,1,1,4,3.72A3.74,3.74,0,0,1,290.76,328.53Zm5.91,0a1.94,1.94,0,1,0-1.94,2.05A1.92,1.92,0,0,0,296.67,328.53Z"/><path class="cls-9" d="M306.58,325v7.16h-1.67l-3.16-3.81v3.81h-2V325h1.67l3.16,3.82V325Z"/><path class="cls-4" d="M211.37,340.47a3.74,3.74,0,0,1,6.49-2.31l-1,.93a2.21,2.21,0,0,0-1.71-.8,2.18,2.18,0,0,0,0,4.36,2.16,2.16,0,0,0,1.71-.81l1,.93a3.73,3.73,0,0,1-6.49-2.3Z"/><path class="cls-4" d="M218.91,337.07h1.58v6.8h-1.58Z"/><path class="cls-4" d="M223.51,338.35h-2.18v-1.28h5.93v1.28h-2.18v5.52h-1.57Z"/><path class="cls-4" d="M231.24,341.46v2.41h-1.57v-2.43L227,337.07h1.67l1.81,3,1.82-3h1.55Z"/><path class="cls-4" d="M235.59,343a2.23,2.23,0,0,1-.27,1l-.55,1.4h-1l.42-1.55a.83.83,0,0,1-.52-.82.94.94,0,0,1,1.88,0Z"/><path class="cls-4" d="M239,340.47a3.75,3.75,0,0,1,6.5-2.31l-1,.93a2.2,2.2,0,0,0-1.71-.8,2.18,2.18,0,0,0,0,4.36,2.14,2.14,0,0,0,1.71-.81l1,.93a3.74,3.74,0,0,1-6.5-2.3Z"/><path class="cls-4" d="M246,340.47a3.73,3.73,0,1,1,3.72,3.52A3.52,3.52,0,0,1,246,340.47Zm5.85,0a2.13,2.13,0,1,0-2.13,2.18A2.08,2.08,0,0,0,251.87,340.47Z"/><path class="cls-4" d="M254.59,340.88v-3.81h1.57v3.75c0,1.29.56,1.83,1.52,1.83s1.51-.54,1.51-1.83v-3.75h1.56v3.81a3.08,3.08,0,1,1-6.16,0Z"/><path class="cls-4" d="M268.54,337.07v6.8h-1.29l-3.39-4.13v4.13H262.3v-6.8h1.3L267,341.2v-4.13Z"/><path class="cls-4" d="M271.56,338.35h-2.18v-1.28h5.93v1.28h-2.18v5.52h-1.57Z"/><path class="cls-4" d="M280.49,343.87,279.18,342h-1.45v1.89h-1.58v-6.8h3c1.81,0,2.95.94,2.95,2.47a2.21,2.21,0,0,1-1.4,2.15l1.53,2.18ZM279,338.35h-1.28v2.37H279c1,0,1.45-.44,1.45-1.18S280,338.35,279,338.35Z"/><path class="cls-4" d="M286.46,341.46v2.41h-1.57v-2.43l-2.64-4.37h1.67l1.82,3,1.82-3h1.55Z"/><path class="cls-12" d="M266.14,55.66l-45-.24s-25.3,62.41-7.63,69.43c18.82,7.48,49.85,2,60-.23C298.19,119.31,266.14,55.66,266.14,55.66Z"/><path class="cls-13" d="M208.74,117.92h.14l.22-3.28-1.65-.11a22.72,22.72,0,0,0,.72,3.67l.55,0Z"/><path class="cls-13" d="M209.22,111h.13l.22-3.28-2.27-.15c-.06,1.25-.09,2.46-.07,3.61l2,.13Z"/><path class="cls-13" d="M209.69,104h.13l.23-3.28-2-.13c-.18,1.21-.34,2.41-.46,3.59l2.11.13Z"/><path class="cls-13" d="M210.17,97.1h.13l.22-3.28-1.27-.08c-.25,1.19-.48,2.39-.69,3.57l1.58.1Z"/><path class="cls-13" d="M210.64,90.16h.13l.23-3.28h-.16c-.3,1.18-.59,2.37-.87,3.56l.65,0Z"/><path class="cls-13" d="M212.39,118.48h-.13l0-.32-3.4-.22h-.14l0,.32-.09,1.32a12.14,12.14,0,0,0,1,2l2.52.16Z"/><polygon class="cls-13" points="209.19 111.3 208.97 114.58 212.64 114.82 212.87 111.54 212.73 111.53 212.75 111.21 209.35 110.99 209.22 110.98 209.19 111.3"/><polygon class="cls-13" points="209.67 104.36 209.45 107.64 213.12 107.88 213.34 104.6 213.21 104.59 213.23 104.27 209.82 104.05 209.69 104.04 209.67 104.36"/><polygon class="cls-13" points="210.14 97.42 209.92 100.7 213.59 100.94 213.81 97.66 213.68 97.66 213.7 97.33 210.3 97.11 210.17 97.1 210.14 97.42"/><polygon class="cls-13" points="210.62 90.48 210.39 93.76 214.06 94 214.29 90.72 214.16 90.71 214.17 90.39 210.77 90.17 210.64 90.16 210.62 90.48"/><path class="cls-13" d="M214.53,87.06l.23-3.28h-.13l0-.32-2.84-.19c-.07.23-.14.45-.2.68-.25.93-.5,1.87-.74,2.81v.07Z"/><path class="cls-13" d="M215.23,76.84h-.13l0-.32-1.35-.09c-.36,1.16-.71,2.35-1.06,3.55l2.29.15Z"/><path class="cls-13" d="M215.67,70.49c-.29.86-.58,1.74-.86,2.64l.67.05Z"/><path class="cls-13" d="M215.48,125.34l.22-3.29-3.67-.23-.15,2.16a7.55,7.55,0,0,0,1.61.87c.6.24,1.22.47,1.84.68l0-.21Z"/><polygon class="cls-13" points="212.39 118.48 215.8 118.71 215.82 118.39 215.95 118.39 216.18 115.12 212.5 114.88 212.28 118.15 212.26 118.47 212.39 118.48"/><polygon class="cls-13" points="212.87 111.54 216.27 111.77 216.29 111.44 216.43 111.46 216.65 108.18 212.98 107.94 212.75 111.21 212.73 111.53 212.87 111.54"/><polygon class="cls-13" points="213.34 104.6 216.75 104.83 216.77 104.5 216.9 104.52 217.12 101.24 213.45 101 213.23 104.27 213.21 104.59 213.34 104.6"/><polygon class="cls-13" points="213.81 97.66 217.22 97.89 217.24 97.56 217.37 97.57 217.59 94.3 213.93 94.05 213.7 97.33 213.68 97.66 213.81 97.66"/><polygon class="cls-13" points="214.29 90.72 217.69 90.94 217.71 90.62 217.85 90.63 218.07 87.35 214.4 87.11 214.17 90.39 214.16 90.71 214.29 90.72"/><polygon class="cls-13" points="214.76 83.78 218.16 84.01 218.19 83.69 218.32 83.69 218.54 80.41 214.87 80.17 214.65 83.45 214.63 83.77 214.76 83.78"/><polygon class="cls-13" points="215.24 76.84 218.64 77.06 218.66 76.74 218.79 76.75 219.02 73.48 215.34 73.23 215.13 76.51 215.1 76.83 215.24 76.84"/><path class="cls-13" d="M219.14,69.8h.13l.22-3.28-2.43-.16c-.39,1.12-.79,2.31-1.2,3.54l3.25.21Z"/><path class="cls-13" d="M219.61,62.86h.13l.22-3.28-.44,0c-.38,1-.82,2.21-1.3,3.54l1.37.08Z"/><path class="cls-13" d="M218.86,125.88l0-.32-3.4-.22-.13,0,0,.21c1.17.4,2.38.75,3.62,1.06l.05-.7Z"/><polygon class="cls-13" points="215.8 118.71 215.57 121.99 219.25 122.23 219.47 118.95 219.33 118.94 219.36 118.62 215.95 118.39 215.82 118.39 215.8 118.71"/><polygon class="cls-13" points="216.27 111.77 216.05 115.04 219.72 115.28 219.94 112.01 219.81 112 219.83 111.67 216.43 111.46 216.29 111.44 216.27 111.77"/><polygon class="cls-13" points="216.75 104.83 216.52 108.1 220.19 108.34 220.41 105.07 220.28 105.06 220.31 104.74 216.9 104.52 216.77 104.5 216.75 104.83"/><polygon class="cls-13" points="217.22 97.89 217 101.16 220.66 101.4 220.89 98.13 220.76 98.12 220.78 97.79 217.37 97.57 217.24 97.56 217.22 97.89"/><polygon class="cls-13" points="217.69 90.94 217.47 94.22 221.14 94.46 221.36 91.19 221.23 91.18 221.25 90.85 217.85 90.63 217.71 90.62 217.69 90.94"/><polygon class="cls-13" points="218.16 84.01 217.94 87.28 221.61 87.52 221.84 84.25 221.7 84.24 221.72 83.92 218.32 83.69 218.19 83.69 218.16 84.01"/><polygon class="cls-13" points="218.64 77.06 218.41 80.34 222.08 80.58 222.31 77.31 222.18 77.3 222.2 76.97 218.79 76.75 218.66 76.74 218.64 77.06"/><polygon class="cls-13" points="222.67 70.03 219.27 69.81 219.13 69.8 219.11 70.12 218.89 73.4 222.56 73.64 222.78 70.36 222.65 70.35 222.67 70.03"/><polygon class="cls-13" points="223.15 63.09 219.74 62.87 219.61 62.86 219.59 63.18 219.36 66.46 223.03 66.7 223.25 63.42 223.12 63.41 223.15 63.09"/><polygon class="cls-13" points="219 125.89 222.4 126.11 222.42 125.79 222.55 125.8 222.78 122.52 219.11 122.28 218.88 125.56 218.86 125.88 219 125.89"/><polygon class="cls-13" points="219.47 118.95 222.87 119.17 222.9 118.85 223.03 118.86 223.25 115.58 219.58 115.34 219.36 118.62 219.33 118.94 219.47 118.95"/><polygon class="cls-13" points="219.94 112.01 223.35 112.23 223.37 111.91 223.5 111.91 223.72 108.64 220.05 108.4 219.83 111.67 219.81 112 219.94 112.01"/><polygon class="cls-13" points="220.41 105.07 223.82 105.29 223.84 104.97 223.97 104.97 224.2 101.7 220.53 101.46 220.31 104.74 220.28 105.06 220.41 105.07"/><polygon class="cls-13" points="220.89 98.13 224.29 98.35 224.32 98.03 224.45 98.03 224.67 94.76 221 94.52 220.78 97.79 220.76 98.12 220.89 98.13"/><polygon class="cls-13" points="221.36 91.19 224.77 91.41 224.79 91.09 224.92 91.09 225.15 87.82 221.47 87.58 221.25 90.85 221.23 91.18 221.36 91.19"/><polygon class="cls-13" points="221.84 84.25 225.24 84.47 225.26 84.15 225.4 84.16 225.62 80.88 221.95 80.64 221.72 83.92 221.7 84.24 221.84 84.25"/><polygon class="cls-13" points="222.31 77.31 225.72 77.53 225.74 77.21 225.87 77.21 226.09 73.94 222.42 73.7 222.2 76.97 222.18 77.3 222.31 77.31"/><polygon class="cls-13" points="226.34 70.27 226.57 67 222.9 66.75 222.67 70.03 222.65 70.35 222.78 70.36 226.19 70.59 226.21 70.27 226.34 70.27"/><polygon class="cls-13" points="226.82 63.34 227.04 60.05 223.37 59.82 223.15 63.09 223.12 63.41 223.25 63.42 226.66 63.65 226.68 63.33 226.82 63.34"/><path class="cls-13" d="M225.94,126.34l0-.32-3.41-.22h-.13l0,.32-.08,1.21c1.19.23,2.41.42,3.64.58l.11-1.55Z"/><polygon class="cls-13" points="222.87 119.17 222.65 122.45 226.32 122.69 226.54 119.41 226.41 119.4 226.43 119.08 223.03 118.86 222.9 118.85 222.87 119.17"/><polygon class="cls-13" points="223.35 112.23 223.13 115.51 226.79 115.75 227.02 112.47 226.88 112.46 226.91 112.14 223.5 111.91 223.37 111.91 223.35 112.23"/><polygon class="cls-13" points="223.82 105.29 223.6 108.57 227.27 108.81 227.49 105.53 227.36 105.53 227.38 105.2 223.97 104.97 223.84 104.97 223.82 105.29"/><polygon class="cls-13" points="224.29 98.35 224.07 101.63 227.74 101.87 227.96 98.59 227.83 98.58 227.85 98.26 224.45 98.03 224.32 98.03 224.29 98.35"/><polygon class="cls-13" points="224.77 91.41 224.54 94.69 228.21 94.93 228.44 91.65 228.31 91.64 228.33 91.32 224.92 91.09 224.79 91.09 224.77 91.41"/><polygon class="cls-13" points="225.24 84.47 225.02 87.75 228.69 87.99 228.91 84.71 228.78 84.7 228.8 84.38 225.4 84.16 225.26 84.15 225.24 84.47"/><polygon class="cls-13" points="225.72 77.53 225.49 80.81 229.16 81.05 229.38 77.77 229.25 77.76 229.27 77.44 225.87 77.21 225.74 77.21 225.72 77.53"/><polygon class="cls-13" points="229.75 70.5 226.34 70.27 226.21 70.27 226.19 70.59 225.96 73.87 229.63 74.11 229.86 70.83 229.72 70.82 229.75 70.5"/><polygon class="cls-13" points="230.22 63.56 226.82 63.34 226.68 63.33 226.66 63.65 226.44 66.92 230.11 67.17 230.33 63.89 230.2 63.88 230.22 63.56"/><polygon class="cls-13" points="226.07 126.36 229.48 126.57 229.5 126.25 229.63 126.26 229.85 122.99 226.18 122.75 225.96 126.02 225.94 126.34 226.07 126.36"/><polygon class="cls-13" points="226.54 119.41 229.95 119.63 229.97 119.32 230.1 119.32 230.33 116.05 226.66 115.81 226.43 119.08 226.41 119.4 226.54 119.41"/><polygon class="cls-13" points="227.02 112.47 230.42 112.7 230.45 112.37 230.57 112.38 230.8 109.11 227.13 108.86 226.91 112.14 226.88 112.46 227.02 112.47"/><polygon class="cls-13" points="227.49 105.53 230.9 105.75 230.92 105.43 231.05 105.44 231.27 102.17 227.6 101.93 227.38 105.2 227.36 105.53 227.49 105.53"/><polygon class="cls-13" points="227.96 98.59 231.37 98.81 231.39 98.5 231.52 98.5 231.75 95.23 228.08 94.99 227.85 98.26 227.83 98.58 227.96 98.59"/><polygon class="cls-13" points="228.44 91.65 231.84 91.87 231.87 91.55 232 91.56 232.22 88.28 228.55 88.04 228.33 91.32 228.31 91.64 228.44 91.65"/><polygon class="cls-13" points="228.91 84.71 232.32 84.93 232.34 84.61 232.47 84.62 232.69 81.34 229.02 81.1 228.8 84.38 228.78 84.7 228.91 84.71"/><polygon class="cls-13" points="229.38 77.77 232.79 77.99 232.81 77.67 232.94 77.68 233.17 74.4 229.5 74.16 229.27 77.44 229.25 77.76 229.38 77.77"/><polygon class="cls-13" points="233.42 70.74 233.64 67.46 229.97 67.22 229.75 70.5 229.72 70.82 229.86 70.83 233.26 71.06 233.29 70.73 233.42 70.74"/><polygon class="cls-13" points="233.89 63.8 234.12 60.52 230.44 60.28 230.22 63.56 230.2 63.88 230.33 63.89 233.74 64.11 233.76 63.79 233.89 63.8"/><path class="cls-13" d="M233,126.81l0-.33-3.4-.22h-.13l0,.31-.12,1.71c1.21.1,2.44.18,3.67.24l.11-1.7Z"/><polygon class="cls-13" points="229.95 119.63 229.73 122.92 233.39 123.15 233.62 119.88 233.49 119.87 233.51 119.55 230.1 119.32 229.97 119.32 229.95 119.63"/><polygon class="cls-13" points="230.42 112.7 230.2 115.97 233.87 116.21 234.09 112.94 233.96 112.93 233.98 112.61 230.57 112.38 230.45 112.37 230.42 112.7"/><polygon class="cls-13" points="230.9 105.75 230.67 109.03 234.34 109.27 234.56 106 234.43 105.99 234.46 105.66 231.05 105.44 230.92 105.43 230.9 105.75"/><polygon class="cls-13" points="231.37 98.81 231.15 102.09 234.81 102.33 235.04 99.05 234.91 99.05 234.93 98.73 231.52 98.5 231.39 98.5 231.37 98.81"/><polygon class="cls-13" points="231.84 91.87 231.62 95.15 235.29 95.39 235.51 92.12 235.38 92.11 235.4 91.78 232 91.56 231.87 91.55 231.84 91.87"/><polygon class="cls-13" points="232.32 84.93 232.09 88.21 235.76 88.45 235.99 85.18 235.85 85.17 235.87 84.84 232.47 84.62 232.34 84.61 232.32 84.93"/><polygon class="cls-13" points="232.79 77.99 232.57 81.27 236.24 81.51 236.46 78.23 236.33 78.22 236.35 77.91 232.94 77.68 232.81 77.67 232.79 77.99"/><polygon class="cls-13" points="236.82 70.97 233.42 70.74 233.29 70.73 233.26 71.06 233.04 74.33 236.71 74.57 236.93 71.29 236.8 71.28 236.82 70.97"/><polygon class="cls-13" points="237.29 64.02 233.89 63.8 233.76 63.79 233.74 64.11 233.51 67.39 237.18 67.63 237.41 64.35 237.28 64.35 237.29 64.02"/><path class="cls-13" d="M233.14,126.82l2.39.15.39-3.59-2.66-.18-.23,3.28,0,.33Z"/><path class="cls-13" d="M233.62,119.88l2.69.17.45-3.58-3-.2-.22,3.28,0,.32Z"/><path class="cls-13" d="M234.09,112.94l3.12.2c.17-1.2.35-2.4.52-3.58l-3.52-.23-.23,3.28,0,.32Z"/><polygon class="cls-13" points="234.56 106 237.97 106.22 238 105.9 238.13 105.91 238.35 102.63 234.68 102.39 234.46 105.66 234.43 105.99 234.56 106"/><polygon class="cls-13" points="235.04 99.05 238.44 99.28 238.47 98.96 238.6 98.97 238.82 95.69 235.15 95.45 234.93 98.73 234.91 99.05 235.04 99.05"/><polygon class="cls-13" points="235.51 92.12 238.92 92.34 238.94 92.01 239.07 92.02 239.3 88.75 235.63 88.51 235.4 91.78 235.38 92.11 235.51 92.12"/><polygon class="cls-13" points="235.99 85.18 239.39 85.4 239.41 85.08 239.54 85.08 239.77 81.81 236.1 81.57 235.87 84.84 235.85 85.17 235.99 85.18"/><polygon class="cls-13" points="236.46 78.23 239.87 78.46 239.89 78.14 240.02 78.14 240.24 74.87 236.57 74.63 236.35 77.91 236.33 78.22 236.46 78.23"/><polygon class="cls-13" points="240.49 71.2 240.72 67.92 237.05 67.69 236.82 70.97 236.8 71.28 236.93 71.29 240.34 71.52 240.36 71.19 240.49 71.2"/><polygon class="cls-13" points="240.96 64.26 241.19 60.98 237.52 60.74 237.29 64.02 237.28 64.35 237.41 64.35 240.81 64.58 240.83 64.25 240.96 64.26"/><path class="cls-13" d="M238,106.22l-.22,3.22c.18-1.19.36-2.36.55-3.52H238Z"/><path class="cls-13" d="M238.44,99.28l-.22,3.28.62,0c.21-1.21.42-2.4.63-3.58l-.87,0h-.13Z"/><path class="cls-13" d="M238.92,92.34l-.22,3.28,1.38.09c.23-1.22.47-2.41.7-3.57L239.07,92h-.13Z"/><path class="cls-13" d="M239.39,85.4l-.22,3.27,2.3.16c.26-1.22.53-2.41.79-3.57l-2.72-.18h-.13Z"/><path class="cls-13" d="M239.87,78.46l-.23,3.27L243,82c.12-.52.25-1,.38-1.5l.12-1.76h-.14l0-.32L240,78.14h-.13Z"/><polygon class="cls-13" points="243.9 71.43 240.49 71.2 240.36 71.19 240.34 71.52 240.12 74.8 243.78 75.04 244.01 71.76 243.88 71.75 243.9 71.43"/><polygon class="cls-13" points="244.37 64.49 240.96 64.26 240.83 64.25 240.81 64.58 240.59 67.86 244.26 68.1 244.48 64.82 244.35 64.81 244.37 64.49"/><path class="cls-13" d="M243.54,78.7l.32,0c.33-1.25.66-2.44,1-3.55l-1.19-.08-.22,3.28,0,.32Z"/><polygon class="cls-13" points="247.57 71.67 247.79 68.39 244.12 68.15 243.9 71.43 243.88 71.75 244.01 71.76 247.41 71.98 247.44 71.66 247.57 71.67"/><polygon class="cls-13" points="248.04 64.73 248.27 61.45 244.6 61.21 244.37 64.49 244.35 64.81 244.48 64.82 247.89 65.04 247.91 64.72 248.04 64.73"/><polygon class="cls-13" points="250.97 71.89 247.57 71.67 247.44 71.66 247.41 71.98 247.35 72.85 251.03 72.98 251.08 72.22 250.95 72.22 250.97 71.89"/><polygon class="cls-13" points="251.45 64.95 248.04 64.73 247.91 64.72 247.89 65.04 247.66 68.32 251.33 68.56 251.56 65.28 251.43 65.28 251.45 64.95"/><polygon class="cls-13" points="254.64 72.14 254.87 68.86 251.19 68.61 250.97 71.89 250.95 72.22 251.08 72.22 254.49 72.45 254.51 72.13 254.64 72.14"/><polygon class="cls-13" points="255.12 65.19 255.34 61.91 251.67 61.67 251.45 64.95 251.43 65.28 251.56 65.28 254.96 65.51 254.99 65.18 255.12 65.19"/><polygon class="cls-13" points="258.05 72.36 254.64 72.14 254.51 72.13 254.49 72.45 254.44 73.11 258.12 73.24 258.16 72.69 258.03 72.68 258.05 72.36"/><polygon class="cls-13" points="258.52 65.42 255.12 65.19 254.99 65.18 254.96 65.51 254.74 68.78 258.41 69.02 258.63 65.74 258.5 65.74 258.52 65.42"/><polygon class="cls-13" points="261.72 72.6 261.94 69.32 258.27 69.08 258.05 72.36 258.03 72.68 258.16 72.69 261.57 72.91 261.59 72.59 261.72 72.6"/><polygon class="cls-13" points="262.19 65.66 262.42 62.38 258.75 62.14 258.52 65.42 258.5 65.74 258.63 65.74 262.04 65.97 262.06 65.65 262.19 65.66"/><polygon class="cls-13" points="265.12 72.82 261.72 72.6 261.59 72.59 261.57 72.91 261.53 73.36 265.21 73.5 265.23 73.15 265.1 73.14 265.12 72.82"/><polygon class="cls-13" points="265.6 65.88 262.19 65.66 262.06 65.65 262.04 65.97 261.81 69.25 265.49 69.49 265.71 66.21 265.58 66.2 265.6 65.88"/><polygon class="cls-13" points="268.79 73.06 269.02 69.78 265.35 69.55 265.12 72.82 265.1 73.14 265.23 73.15 268.64 73.38 268.66 73.05 268.79 73.06"/><polygon class="cls-13" points="269.27 66.12 269.49 62.84 265.82 62.6 265.6 65.88 265.58 66.2 265.71 66.21 269.11 66.43 269.13 66.11 269.27 66.12"/><polygon class="cls-13" points="272.2 73.28 268.79 73.06 268.66 73.05 268.64 73.38 268.62 73.62 272.3 73.75 272.31 73.62 272.18 73.61 272.2 73.28"/><path class="cls-13" d="M269.13,66.11l0,.32-.22,3.28,3.67.24h0c-.53-1.3-1.05-2.55-1.56-3.71l-1.73-.12Z"/><path class="cls-13" d="M272.2,73.29l0,.32h.13l1.77.11c-.5-1.28-1-2.52-1.49-3.71h-.17Z"/><path class="cls-13" d="M223.59,59.75l.24-3.6L220.91,56c-.2.48-.51,1.28-.91,2.34l-.09,1.21Z"/><polygon class="cls-13" points="227.37 56.32 227.43 55.45 223.75 55.43 223.7 56.08 227.37 56.32"/><rect class="cls-13" x="227.14" y="56.45" width="3.61" height="3.68" transform="translate(155.65 282.89) rotate(-86.21)"/><polygon class="cls-13" points="234.45 56.78 234.54 55.49 230.85 55.47 230.78 56.54 234.45 56.78"/><polygon class="cls-13" points="237.98 57.08 234.31 56.84 234.07 60.44 237.74 60.68 237.98 57.08"/><polygon class="cls-13" points="241.52 57.25 241.64 55.53 237.96 55.51 237.85 57.01 241.52 57.25"/><polygon class="cls-13" points="245.06 57.54 241.39 57.3 241.14 60.9 244.81 61.14 245.06 57.54"/><polygon class="cls-13" points="248.6 57.71 248.75 55.56 245.06 55.54 244.93 57.47 248.6 57.71"/><polygon class="cls-13" points="252.13 58 248.46 57.76 248.22 61.36 251.89 61.61 252.13 58"/><polygon class="cls-13" points="255.67 58.18 255.85 55.6 252.16 55.58 252 57.93 255.67 58.18"/><polygon class="cls-13" points="259.21 58.47 255.54 58.23 255.29 61.83 258.96 62.07 259.21 58.47"/><polygon class="cls-13" points="262.75 58.64 262.95 55.64 259.27 55.62 259.08 58.4 262.75 58.64"/><polygon class="cls-13" points="266.28 58.94 262.61 58.69 262.37 62.3 266.04 62.53 266.28 58.94"/><path class="cls-13" d="M267.74,59c-.65-1.38-1.14-2.39-1.39-2.9l-.2,2.8Z"/><path class="cls-13" d="M269.48,62.76l0-.07v.07Z"/><path class="cls-13" d="M245.44,128.06l0-.32-1.89.09c-.12.25-.23.47-.34.71l2.4-.11,0-.37Z"/><path class="cls-13" d="M245.37,123.83l-.25.57h.28Z"/><polygon class="cls-13" points="245.57 128.06 248.98 127.9 248.96 127.58 249.09 127.58 248.94 124.3 245.27 124.46 245.42 127.74 245.44 128.06 245.57 128.06"/><path class="cls-13" d="M248.77,120.63l-.14-3.28-.52,0c-.51,1.29-1,2.52-1.51,3.68l2.06-.09,0-.33Z"/><path class="cls-13" d="M252.52,127.75l0-.32-3.41.15H249l0,.32v.3c1.24-.1,2.47-.21,3.67-.33v-.13Z"/><polygon class="cls-13" points="252.18 120.48 248.77 120.63 248.64 120.63 248.66 120.95 248.81 124.24 252.48 124.08 252.33 120.8 252.2 120.8 252.18 120.48"/><path class="cls-13" d="M251.86,113.53l-2.32.1c-.36,1-.72,2-1.09,2.88l0,.78,3.68-.16-.16-3.28h-.13Z"/><path class="cls-13" d="M251.71,107.16c-.32,1-.65,2.07-1,3.07l1.12,0Z"/><path class="cls-13" d="M256.18,127.27,256,124l-3.68.16.15,3.29,0,.32h.13l2.14-.09,1.27-.15v-.23Z"/><polygon class="cls-13" points="255.86 120.32 255.71 117.03 252.04 117.2 252.18 120.48 252.2 120.8 252.33 120.8 255.74 120.64 255.73 120.32 255.86 120.32"/><polygon class="cls-13" points="255.54 113.37 255.39 110.09 251.72 110.25 251.86 113.53 251.88 113.85 252.01 113.85 255.42 113.7 255.41 113.37 255.54 113.37"/><path class="cls-13" d="M255.22,106.42l-.15-3.28-2.24.09c-.34,1.26-.69,2.47-1.05,3.66l3.32-.15v-.31Z"/><path class="cls-13" d="M254.9,99.47l-.15-3.29-.27,0c-.25,1.24-.52,2.45-.8,3.65l1.1-.06v-.32Z"/><path class="cls-13" d="M256.05,127.27v.23q1.45-.16,2.85-.36l-2.73.13Z"/><polygon class="cls-13" points="259.27 120.17 255.86 120.32 255.73 120.32 255.74 120.64 255.89 123.93 259.57 123.76 259.42 120.48 259.28 120.49 259.27 120.17"/><polygon class="cls-13" points="258.95 113.22 255.54 113.37 255.41 113.37 255.42 113.7 255.57 116.97 259.25 116.81 259.1 113.53 258.97 113.54 258.95 113.22"/><polygon class="cls-13" points="258.63 106.27 255.22 106.42 255.09 106.43 255.1 106.74 255.25 110.03 258.93 109.86 258.78 106.58 258.65 106.59 258.63 106.27"/><polygon class="cls-13" points="258.31 99.32 254.9 99.47 254.77 99.47 254.78 99.8 254.93 103.08 258.61 102.92 258.46 99.63 258.33 99.64 258.31 99.32"/><path class="cls-13" d="M258,92.37l-2.84.12c-.17,1.05-.36,2.09-.56,3.11l0,.53,3.68-.16-.15-3.29H258Z"/><path class="cls-13" d="M257.67,85.42l-1.62.07c-.11,1.23-.25,2.44-.4,3.63L258,89l-.15-3.28h-.13Z"/><path class="cls-13" d="M257.35,78.47l-1,0a7.23,7.23,0,0,1-1.06,2.25l1.1-.08-.09,1.45,1.34-.06-.15-3.28h-.13Z"/><path class="cls-13" d="M257,71.52l-1.87.08a6.51,6.51,0,0,0,.65,1.45,5.59,5.59,0,0,1,.75,2.1l.77,0-.15-3.28h-.13Z"/><path class="cls-13" d="M259.44,123.83l.15,3.22,3.65-.54-.13-2.84Z"/><polygon class="cls-13" points="262.94 120 262.79 116.72 259.12 116.88 259.27 120.17 259.28 120.49 259.42 120.48 262.83 120.33 262.81 120.01 262.94 120"/><polygon class="cls-13" points="262.62 113.06 262.47 109.77 258.8 109.93 258.95 113.22 258.97 113.54 259.1 113.53 262.51 113.38 262.49 113.06 262.62 113.06"/><polygon class="cls-13" points="262.3 106.1 262.15 102.82 258.48 102.98 258.63 106.27 258.65 106.59 258.78 106.58 262.19 106.43 262.17 106.11 262.3 106.1"/><polygon class="cls-13" points="261.99 99.15 261.84 95.87 258.16 96.03 258.31 99.32 258.33 99.64 258.46 99.63 261.87 99.48 261.85 99.16 261.99 99.15"/><polygon class="cls-13" points="261.66 92.21 261.51 88.92 257.84 89.09 257.99 92.37 258 92.69 258.14 92.68 261.55 92.54 261.53 92.22 261.66 92.21"/><polygon class="cls-13" points="261.35 85.26 261.2 81.98 257.52 82.14 257.67 85.42 257.69 85.74 257.82 85.74 261.23 85.58 261.21 85.26 261.35 85.26"/><polygon class="cls-13" points="261.03 78.31 260.88 75.03 257.2 75.19 257.35 78.47 257.37 78.8 257.5 78.79 260.91 78.64 260.89 78.31 261.03 78.31"/><polygon class="cls-13" points="260.71 71.36 260.56 68.08 256.88 68.24 257.03 71.52 257.05 71.84 257.18 71.84 260.59 71.69 260.57 71.36 260.71 71.36"/><polygon class="cls-13" points="266.36 119.85 262.94 120 262.81 120.01 262.83 120.33 262.98 123.61 266.65 123.45 266.5 120.17 266.37 120.17 266.36 119.85"/><polygon class="cls-13" points="266.04 112.9 262.62 113.06 262.49 113.06 262.51 113.38 262.66 116.66 266.33 116.5 266.18 113.22 266.05 113.22 266.04 112.9"/><polygon class="cls-13" points="265.71 105.95 262.3 106.1 262.17 106.11 262.19 106.43 262.34 109.72 266.01 109.55 265.86 106.27 265.73 106.27 265.71 105.95"/><polygon class="cls-13" points="265.39 99 261.99 99.15 261.85 99.16 261.87 99.48 262.02 102.77 265.69 102.6 265.54 99.32 265.41 99.33 265.39 99"/><polygon class="cls-13" points="265.07 92.06 261.66 92.21 261.53 92.22 261.55 92.54 261.7 95.81 265.37 95.65 265.22 92.37 265.09 92.38 265.07 92.06"/><polygon class="cls-13" points="264.76 85.1 261.35 85.26 261.21 85.26 261.23 85.58 261.38 88.87 265.05 88.7 264.9 85.42 264.77 85.43 264.76 85.1"/><polygon class="cls-13" points="264.44 78.16 261.03 78.31 260.89 78.31 260.91 78.64 261.06 81.92 264.73 81.75 264.58 78.47 264.45 78.48 264.44 78.16"/><polygon class="cls-13" points="264.12 71.21 260.71 71.36 260.57 71.36 260.59 71.69 260.74 74.97 264.42 74.81 264.26 71.52 264.13 71.53 264.12 71.21"/><path class="cls-13" d="M266.52,123.52l.12,2.43c1.32-.23,2.54-.46,3.65-.67l-.09-1.92Z"/><polygon class="cls-13" points="270.03 119.68 269.88 116.41 266.2 116.57 266.36 119.85 266.37 120.17 266.5 120.17 269.91 120.02 269.89 119.7 270.03 119.68"/><polygon class="cls-13" points="269.71 112.74 269.56 109.46 265.88 109.62 266.04 112.9 266.05 113.22 266.18 113.22 269.59 113.07 269.58 112.74 269.71 112.74"/><polygon class="cls-13" points="269.39 105.79 269.24 102.51 265.56 102.67 265.71 105.95 265.73 106.27 265.86 106.27 269.27 106.12 269.26 105.8 269.39 105.79"/><polygon class="cls-13" points="269.07 98.84 268.92 95.56 265.24 95.72 265.39 99 265.41 99.33 265.54 99.32 268.95 99.17 268.94 98.85 269.07 98.84"/><polygon class="cls-13" points="268.75 91.89 268.6 88.61 264.93 88.77 265.07 92.06 265.09 92.38 265.22 92.37 268.63 92.22 268.62 91.9 268.75 91.89"/><polygon class="cls-13" points="268.43 84.94 268.28 81.66 264.61 81.82 264.76 85.1 264.77 85.43 264.9 85.42 268.31 85.27 268.3 84.95 268.43 84.94"/><polygon class="cls-13" points="268.11 77.99 267.96 74.71 264.29 74.87 264.44 78.16 264.45 78.48 264.58 78.47 267.99 78.33 267.98 78 268.11 77.99"/><polygon class="cls-13" points="267.79 71.05 267.64 67.76 263.96 67.93 264.12 71.21 264.13 71.53 264.26 71.52 267.67 71.37 267.66 71.05 267.79 71.05"/><polygon class="cls-13" points="273.44 119.54 270.03 119.68 269.89 119.7 269.91 120.02 270.06 123.3 273.74 123.14 273.59 119.85 273.45 119.86 273.44 119.54"/><polygon class="cls-13" points="273.12 112.58 269.71 112.74 269.58 112.74 269.59 113.07 269.74 116.35 273.42 116.19 273.27 112.9 273.13 112.91 273.12 112.58"/><polygon class="cls-13" points="272.8 105.64 269.39 105.79 269.26 105.8 269.27 106.12 269.42 109.4 273.1 109.24 272.94 105.96 272.81 105.96 272.8 105.64"/><polygon class="cls-13" points="272.48 98.69 269.07 98.84 268.94 98.85 268.95 99.17 269.1 102.45 272.78 102.29 272.63 99 272.49 99.01 272.48 98.69"/><polygon class="cls-13" points="272.16 91.74 268.75 91.89 268.62 91.9 268.63 92.22 268.78 95.5 272.45 95.34 272.31 92.06 272.18 92.06 272.16 91.74"/><polygon class="cls-13" points="271.84 84.79 268.43 84.94 268.3 84.95 268.31 85.27 268.46 88.55 272.14 88.39 271.99 85.11 271.86 85.11 271.84 84.79"/><polygon class="cls-13" points="271.52 77.84 268.11 77.99 267.98 78 267.99 78.33 268.14 81.61 271.82 81.44 271.67 78.16 271.53 78.17 271.52 77.84"/><polygon class="cls-13" points="271.2 70.9 267.79 71.05 267.66 71.05 267.67 71.37 267.82 74.66 271.5 74.49 271.35 71.21 271.22 71.22 271.2 70.9"/><path class="cls-13" d="M273.61,123.21l.06,1.37a11.41,11.41,0,0,0,3.61-1.48V123Z"/><polygon class="cls-13" points="277.11 119.37 276.96 116.09 273.29 116.25 273.44 119.54 273.45 119.86 273.59 119.85 277 119.71 276.98 119.38 277.11 119.37"/><polygon class="cls-13" points="276.79 112.43 276.64 109.14 272.97 109.31 273.12 112.58 273.13 112.91 273.27 112.9 276.68 112.75 276.66 112.43 276.79 112.43"/><polygon class="cls-13" points="276.47 105.47 276.32 102.2 272.65 102.36 272.8 105.64 272.81 105.96 272.94 105.96 276.36 105.8 276.34 105.48 276.47 105.47"/><polygon class="cls-13" points="276.15 98.53 276 95.25 272.33 95.41 272.48 98.69 272.49 99.01 272.63 99 276.04 98.85 276.02 98.53 276.15 98.53"/><polygon class="cls-13" points="275.83 91.58 275.68 88.3 272.01 88.46 272.16 91.74 272.18 92.06 272.31 92.06 275.72 91.91 275.7 91.58 275.83 91.58"/><polygon class="cls-13" points="275.51 84.63 275.36 81.35 271.69 81.51 271.84 84.79 271.86 85.11 271.99 85.11 275.4 84.96 275.38 84.63 275.51 84.63"/><path class="cls-13" d="M271.52,77.84v.33h.14l3.41-.15,0-.32h.13l-.05-1.18c-.26-.7-.53-1.39-.79-2.07l-3,.13Z"/><path class="cls-13" d="M271.2,70.9l0,.32h.13l1.7-.07c-.5-1.24-1-2.42-1.47-3.55l-.53,0Z"/><path class="cls-13" d="M280.52,119.23l-3.41.14H277l0,.33.15,3.27h.35a10.33,10.33,0,0,0,3.14-3.43h-.1Z"/><polygon class="cls-13" points="280.2 112.27 276.79 112.43 276.66 112.43 276.68 112.75 276.83 116.04 280.5 115.87 280.35 112.59 280.22 112.6 280.2 112.27"/><polygon class="cls-13" points="279.88 105.33 276.47 105.47 276.34 105.48 276.36 105.8 276.51 109.08 280.18 108.92 280.03 105.64 279.9 105.65 279.88 105.33"/><polygon class="cls-13" points="279.56 98.38 276.15 98.53 276.02 98.53 276.04 98.85 276.19 102.14 279.86 101.98 279.71 98.7 279.58 98.7 279.56 98.38"/><polygon class="cls-13" points="279.24 91.43 275.83 91.58 275.7 91.58 275.72 91.91 275.87 95.19 279.54 95.03 279.39 91.75 279.26 91.75 279.24 91.43"/><path class="cls-13" d="M275.38,84.63l0,.33.15,3.28,3.52-.15q-.54-1.8-1.11-3.57l-2.45.11Z"/><path class="cls-13" d="M275.06,77.69l0,.32.15,3.28,1.62-.07c-.42-1.2-.85-2.39-1.28-3.56l-.38,0Z"/><path class="cls-13" d="M280.52,119.23l0,.32h.1a14.67,14.67,0,0,0,1.47-3.67l-1.74.07Z"/><path class="cls-13" d="M280.2,112.27l0,.33h.13l2.35-.1a35.29,35.29,0,0,0,.15-3.62l-2.8.12Z"/><path class="cls-13" d="M279.88,105.33l0,.32H280l2.65-.12c-.1-1.17-.24-2.37-.42-3.59l-2.53.12Z"/><path class="cls-13" d="M279.56,98.38l0,.32h.13l2-.09c-.23-1.18-.49-2.38-.77-3.58l-1.51.06Z"/><path class="cls-13" d="M279.26,91.75h.13l.7,0c-.32-1.19-.65-2.37-1-3.55l.15,3.26Z"/><path class="cls-13" d="M257.09,68.15l-.17-3.6-2.36.1a24.2,24.2,0,0,0,0,3.61Z"/><path class="cls-13" d="M256.75,60.87l-.15-3.28-.41,0A19,19,0,0,0,255,61.28l1.6-.07,0-.33Z"/><polygon class="cls-13" points="260.16 60.73 256.75 60.88 256.62 60.88 256.64 61.21 256.79 64.49 260.46 64.33 260.31 61.04 260.18 61.05 260.16 60.73"/><path class="cls-13" d="M256.47,57.54l3.67-.16-.08-1.76h-2.79a14.73,14.73,0,0,0-.83,1.43Z"/><polygon class="cls-13" points="264.17 67.84 264 64.23 260.33 64.39 260.5 68 264.17 67.84"/><polygon class="cls-13" points="263.83 60.56 263.69 57.28 260.01 57.45 260.16 60.73 260.18 61.05 260.31 61.04 263.72 60.89 263.71 60.57 263.83 60.56"/><polygon class="cls-13" points="267.25 60.41 263.83 60.56 263.71 60.57 263.72 60.89 263.87 64.17 267.55 64.01 267.39 60.73 267.26 60.74 267.25 60.41"/><path class="cls-13" d="M266.84,57.08c-.44-.92-.7-1.42-.7-1.42l-2.66,0,.07,1.59Z"/><path class="cls-13" d="M267.58,67.68l3.68-.16,0-.78c-.42-1-.82-1.9-1.21-2.77l-2.59.11Z"/><path class="cls-13" d="M267.26,60.74h.13l1.14,0c-.55-1.21-1-2.22-1.41-3l.12,2.75Z"/><path class="cls-14" d="M264.39,55.18l-40.67-.25s-22.85,62.42-6.89,69.44c17,7.48,45,1.95,54.23-.24C293.35,118.83,264.39,55.18,264.39,55.18Z"/><path class="cls-15" d="M261.05,120.76c0-2.67-6.77-4.82-15.12-4.82s-15.11,2.15-15.11,4.82,6.77,4.82,15.11,4.82S261.05,123.42,261.05,120.76Z"/><path class="cls-16" d="M290,255.25c.08,1.19.18,2.46.29,3.8h0C290.18,257.78,290.08,256.51,290,255.25Z"/><path class="cls-6" d="M290.38,260.33c0-.3-.05-.6-.07-.9h0C290.33,259.73,290.35,260,290.38,260.33Z"/><path class="cls-9" d="M290.29,259.24V259h0l0,.19Z"/><path class="cls-9" d="M290.3,259.44h0l0-.19h0C290.29,259.31,290.29,259.37,290.3,259.44Z"/><path class="cls-17" d="M210.28,151.93s6.16,4.93,5.91,13.07L204,226.78c.35,9.49.92,25,1,30.74l.29.05c4.3-11,9.43-22.46,9.43-22.46-.56,5.7-1.72,14-3.2,23.62l40.71,7.56,38-7.24c-.11-1.34-.21-2.61-.29-3.8-2.79-33.85-7.28-66.87-14.47-89,4.89,1.75-2.87-45.52-1.42-43.59-6.45-8.59-52.9-6.27-58,.51-3.28,4.39-9,35.75-14,108.92.27-3,.56-5.7.86-8.12C204.27,204.64,207.07,166.1,210.28,151.93Zm38.48-29.73v37.86l-3.19.48-1.48-37.85Z"/><path class="cls-17" d="M252.3,266.66h0l-.05,6.17h.05l38.48-7.24c-.13-1.76-.26-3.51-.4-5.27,0-.3-.05-.6-.08-.89l-38,7.21Z"/><path class="cls-17" d="M252.33,266.3h0Z"/><path class="cls-17" d="M205.31,257.72l.05-.15-.29-.05v.15Z"/><path class="cls-17" d="M252.3,266.48l38-7.24,0-.19-38,7.24h0l-40.71-7.56,0,.15Z"/><path class="cls-17" d="M252.3,266.66h0l38-7.21c0-.07,0-.13,0-.2l-38,7.24v.18Z"/><path class="cls-17" d="M252.3,273l15.12-2.84,23.37-4.38v-.2l-38.48,7.24h-.05V273Z"/><path class="cls-17" d="M252.33,272.84h0Z"/><path class="cls-17" d="M257.08,272.31l5.13-1-.12-.17,5.33-1L252.3,273l4.67-.88Z"/><polygon class="cls-17" points="252.3 273.02 252.25 273.01 252.25 273.01 252.3 273.02"/><path class="cls-17" d="M252.24,273.2h.09l4.75-.89-.11-.17-4.67.88h-.05Z"/><polygon class="cls-17" points="290.79 265.8 290.79 265.8 267.42 270.18 290.79 265.8"/><path class="cls-17" d="M262.21,271.35,290.8,266v-.19l-23.37,4.38-5.33,1Z"/><path class="cls-17" d="M252.25,272.83l.05-6.17h0L211.54,259c-.31,2-.63,4.06-1,6.16Z"/><path class="cls-17" d="M205.25,257.86l-.18,0-.13.85C205,258.41,205.15,258.14,205.25,257.86Z"/><path class="cls-17" d="M252.27,266.65h0v-.18l-40.73-7.6,0,.16Z"/><path class="cls-17" d="M205.31,257.72l-.23-.05v.16l.18,0Z"/><path class="cls-17" d="M210.55,265.35l34.76,6.39h0l6.94,1.27v-.18l-41.67-7.63Z"/><path class="cls-17" d="M236.22,270.07l.13.2,9.09,1.67-.13-.2-34.76-6.39h0Z"/><path class="cls-17" d="M236.35,270.27l-.13-.2-25.67-4.72,0,.16Z"/><rect class="cls-17" x="248.78" y="268.85" height="7.05" transform="translate(-64.07 467.83) rotate(-79.59)"/><path class="cls-17" d="M252.24,273.2V273l-6.94-1.27.13.2Z"/><polygon class="cls-15" points="248.76 160.06 248.76 122.2 244.09 122.69 245.57 160.54 248.76 160.06"/><path class="cls-18" d="M289.88,247.29a60.31,60.31,0,0,0,.09,8c.11,1.26.21,2.53.31,3.79l2.16-.41a87,87,0,0,1-.37-12.69c1.84-23-11.54-114.67-18-123.25C280.53,131.27,291.72,224.25,289.88,247.29Z"/><path class="cls-18" d="M290.93,265.57l2.12-.4c-.22-2.17-.42-4.22-.58-6.15l-2.16.41c0,.3.05.6.07.9C290.54,262,290.72,263.73,290.93,265.57Z"/><path class="cls-18" d="M290.29,259.24l2.16-.41c0-.07,0-.13,0-.2l-2.16.41Z"/><path class="cls-18" d="M290.31,259.43l2.16-.41a1.23,1.23,0,0,0,0-.19l-2.16.41Z"/><path class="cls-18" d="M291.22,265.92l-.24,0h0Z"/><path class="cls-18" d="M293.07,265.37c0-.07,0-.13,0-.2l-2.12.4,0,.2Z"/><rect class="cls-18" x="290.94" y="265.57" width="2.15"/><path class="cls-18" d="M291.22,265.92l1.87-.37c0-.06,0-.12,0-.18l-2.11.4,0,.19Z"/><path class="cls-18" d="M293.09,265.55l-1.87.37,1.87-.35Z"/><path class="cls-18" d="M275.5,166.28c7.19,22.1,11.68,55.12,14.47,89a60.31,60.31,0,0,1-.09-8c1.84-23-9.35-116-15.8-124.6C272.63,120.76,280.39,168,275.5,166.28Z"/><path class="cls-18" d="M290.93,265.57c-.21-1.84-.39-3.59-.55-5.24.14,1.76.27,3.51.4,5.27Z"/><path class="cls-18" d="M291,266h0l-.18,0h0Z"/><path class="cls-18" d="M290.79,265.8l.17,0,0-.2-.15,0Z"/><rect class="cls-18" x="290.87" y="265.7" height="0.17"/><path class="cls-18" d="M291,266l0-.19-.17,0V266Z"/><path class="cls-18" d="M210.28,151.93c-3.21,14.17-6,52.71-7.26,72.07.23-1.85.47-3.52.71-5,0,0,.12,3.18.29,7.74L216.19,165C216.44,156.86,210.28,151.93,210.28,151.93Z"/><path class="cls-18" d="M202.16,232.12c-.67,7.26-1.27,15.88-1.77,24.53l.22,0Q201.36,243.69,202.16,232.12Z"/><path class="cls-18" d="M200.6,256.84v-.15l-.22,0v.15Z"/><path class="cls-18" d="M200.59,257l-.22,0c-.12,2.11-.24,4.22-.35,6.31l.21,0Q200.41,260.11,200.59,257Z"/><path class="cls-18" d="M200.59,257v-.15l-.22,0V257Z"/><path class="cls-18" d="M200.22,263.45v-.15l-.21,0v.16Z"/><rect class="cls-18" x="200.12" y="263.33" height="0.21"/><path class="cls-18" d="M200.22,263.45l-.21,0v.15l.21,0Z"/><path class="cls-18" d="M205.07,257.52c-.13-5.73-.7-21.25-1-30.74l-1.7,8.65s.25-4.48.7-11.43c-.3,2.42-.59,5.15-.86,8.12q-.79,11.58-1.55,24.57Z"/><path class="cls-18" d="M205.07,257.52l-4.46-.83v.15l4.48.83Z"/><path class="cls-18" d="M203,263.81c.6-1.66,1.24-3.38,1.92-5.13l.13-.85-4.48-.84q-.18,3.12-.36,6.31Z"/><path class="cls-18" d="M205.07,257.83v-.16l-4.48-.83V257Z"/><path class="cls-18" d="M203,263.81l-2.79-.51v.15L203,264Z"/><rect class="cls-18" x="201.6" y="262.31" height="2.8"/><path class="cls-18" d="M202.92,264.1,203,264l-2.75-.51v.15Z"/><path class="cls-18" d="M203,224c-.45,6.95-.7,11.43-.7,11.43l1.7-8.65c-.17-4.56-.29-7.74-.29-7.74C203.49,220.48,203.25,222.15,203,224Z"/><path class="cls-18" d="M214.79,235.11s-5.13,11.41-9.43,22.46l6.23,1.16C213.07,249.16,214.23,240.81,214.79,235.11Z"/><path class="cls-18" d="M211.57,258.88l0-.15-6.23-1.16-.05.15Z"/><path class="cls-18" d="M210.58,265.2c.33-2.1.65-4.16,1-6.16l-6.29-1.18c-.1.28-.21.55-.31.82L204.1,264Z"/><path class="cls-18" d="M211.54,259l0-.16-6.26-1.16-.06.14Z"/><path class="cls-18" d="M210.58,265.2,204.1,264l0,.15,6.47,1.19Z"/><polygon class="cls-18" points="210.55 265.35 210.55 265.35 204.08 264.16 204.08 264.16 210.55 265.35"/><path class="cls-18" d="M210.55,265.35l-6.47-1.19,0,.15,6.47,1.2Z"/><path class="cls-18" d="M204.94,258.68c-.68,1.75-1.32,3.47-1.92,5.13l1.08.2Z"/><path class="cls-18" d="M204.08,264.16l0-.15-1.08-.2L203,264Z"/><rect class="cls-18" x="203.53" y="263.5" height="1.13" transform="translate(-92.97 416.52) rotate(-79.59)"/><path class="cls-18" d="M204.06,264.31l0-.15L203,264l-.05.14Z"/><path class="cls-19" d="M257.79,98.09h-23.1V120c4.73,5.07,16.53,4.35,23.1,0Z"/><path class="cls-20" d="M292.5,239.1c-.54-.4.11-1.42,1-2.45s1.7-1.7,2.23-1.29.25,1.57-.64,2.6S293,239.51,292.5,239.1Z"/><path class="cls-20" d="M294.34,239.68c-.54-.41.1-1.42,1-2.46s1.69-1.69,2.23-1.29.24,1.57-.65,2.6S294.87,240.08,294.34,239.68Z"/><path class="cls-21" d="M289.15,236.42c.33-.59,2,0,3.81.86s3.06,1.64,2.73,2.24-2.07.37-3.88-.48S288.82,237,289.15,236.42Z"/><path class="cls-21" d="M295.65,226.66c-1.81,2.3-8.08,9.1-5.74,11.21,2.1,1.88,7.37,1.21,8.34-10.18Z"/><path class="cls-17" d="M332.38,168c4.88-4.21-26.17-32.19-59.14-46.32,0,0-7.17,31.46,2.58,45.09C275.82,166.75,312.68,185,332.38,168Z"/><path class="cls-18" d="M271.88,157.53c-.12-.24-.24-.49-.35-.74a31,31,0,0,0,4.29,10s31.74,16.13,51.53,4.76C303.37,179,271.88,157.53,271.88,157.53Z"/><path class="cls-17" d="M332.86,166.2s-6.73,19.07-30.84,64c0,0-3.81,2.53-9.85-5.21,0,0,3.88-49.58,18.9-61.73C311.07,163.29,328.83,159.18,332.86,166.2Z"/><path class="cls-18" d="M303.18,174.5c-8.5,18.53-11,50.52-11,50.52a24.55,24.55,0,0,0,2.37,2.61c1.15-11.51,4.81-41,13.7-57.11C310,167.41,305.36,169.77,303.18,174.5Z"/><path class="cls-17" d="M312,172.43c-2.52,1.91-9,4-8.12,1.88,1.45-3.44,7.91-6,7.91-6Z"/><path class="cls-20" d="M200.42,239.1c.53-.4-.11-1.42-1-2.45s-1.69-1.7-2.22-1.29-.25,1.57.64,2.6S199.89,239.51,200.42,239.1Z"/><path class="cls-20" d="M198.6,239.68c.53-.41-.11-1.42-1-2.46s-1.68-1.69-2.22-1.29-.24,1.57.65,2.6S198.06,240.08,198.6,239.68Z"/><path class="cls-21" d="M203.75,236.42c-.33-.59-2,0-3.79.86s-3,1.64-2.71,2.24,2.06.37,3.86-.48S204.08,237,203.75,236.42Z"/><path class="cls-21" d="M197.29,226.66c1.8,2.3,8,9.1,5.7,11.21-2.09,1.88-7.32,1.21-8.29-10.18Z"/><path class="cls-17" d="M160.78,168c-4.85-4.21,26-32.19,58.78-46.32,0,0,7.14,31.46-2.56,45.09C217,166.75,180.36,185,160.78,168Z"/><path class="cls-18" d="M220.92,157.53c.12-.24.24-.49.35-.74a31,31,0,0,1-4.27,10s-31.55,16.13-51.23,4.76C189.62,179,220.92,157.53,220.92,157.53Z"/><path class="cls-17" d="M160.3,166.2s6.69,19.07,30.66,64c0,0,3.79,2.53,9.78-5.21,0,0-3.85-49.58-18.78-61.73C182,163.29,164.3,159.18,160.3,166.2Z"/><path class="cls-18" d="M189.8,174.5C198.26,193,200.74,225,200.74,225a23.44,23.44,0,0,1-2.35,2.61c-1.14-11.51-4.78-41-13.62-57.11C183.06,167.41,187.64,169.77,189.8,174.5Z"/><path class="cls-17" d="M181,172.43c2.51,1.91,9,4,8.08,1.88-1.44-3.44-7.86-6-7.86-6Z"/><path class="cls-14" d="M273.24,121.66l0,.14c-2.68-2.26-8.48-3.63-15.42-4.25V99.39a52.72,52.72,0,0,0-6.39-1.3H237.75c-1,.14-2.06.32-3.06.52v18.93c-.36.13-.69.26-1,.4-8.66,1-15.76,2.84-17.57,5.26h0c-1,.46,11.51,8.16,28.47,8.16C259.1,131.37,274.69,122.28,273.24,121.66Z"/><path class="cls-14" d="M267,58.85h-43.7c0,1.37,0,2.84,0,4.38h0c0,1.16.09,6.4.11,7.62,16.32-5.36,27.47-5.71,44.67-.43C267.88,67.47,267.38,61.17,267,58.85Z"/><path class="cls-12" d="M217,63.07a4.93,4.93,0,0,0,1.19-5.35c-1.08-2.19-.16-7.78,2.16-11.13C229,34,269.8,35,271.75,51.74c.34,2.9-1.75,8.25-1,11.9Z"/><path class="cls-13" d="M217,63.07h.48l0-.63A7.43,7.43,0,0,1,217,63.07Z"/><path class="cls-13" d="M221,60.43h.13l.23-3.28-3.5-.22a4,4,0,0,0,.25.78,4.28,4.28,0,0,1,.2,2.86l2.67.17Z"/><polygon class="cls-13" points="224.55 60.99 224.57 60.66 221.16 60.44 221.03 60.43 221.01 60.75 220.85 63.11 224.53 63.15 224.68 61 224.55 60.99"/><polygon class="cls-13" points="224.68 61 228.08 61.22 228.11 60.9 228.24 60.91 228.46 57.63 224.79 57.38 224.57 60.66 224.55 60.99 224.68 61"/><polygon class="cls-13" points="231.62 61.45 231.64 61.13 228.24 60.91 228.11 60.9 228.08 61.22 227.95 63.19 231.63 63.23 231.75 61.46 231.62 61.45"/><polygon class="cls-13" points="231.75 61.46 235.16 61.68 235.18 61.36 235.31 61.37 235.54 58.09 231.87 57.85 231.64 61.13 231.62 61.45 231.75 61.46"/><polygon class="cls-13" points="238.7 61.92 238.72 61.59 235.31 61.37 235.18 61.36 235.16 61.68 235.05 63.26 238.74 63.3 238.83 61.93 238.7 61.92"/><polygon class="cls-13" points="238.83 61.93 242.23 62.15 242.26 61.83 242.39 61.84 242.61 58.55 238.94 58.32 238.72 61.59 238.7 61.92 238.83 61.93"/><polygon class="cls-13" points="245.77 62.38 245.79 62.06 242.39 61.84 242.26 61.83 242.23 62.15 242.15 63.34 245.84 63.38 245.91 62.39 245.77 62.38"/><polygon class="cls-13" points="245.91 62.39 249.31 62.61 249.33 62.29 249.46 62.3 249.69 59.02 246.02 58.78 245.79 62.06 245.77 62.38 245.91 62.39"/><polygon class="cls-13" points="252.85 62.84 252.87 62.52 249.46 62.3 249.33 62.29 249.31 62.61 249.25 63.41 252.94 63.45 252.98 62.85 252.85 62.84"/><polygon class="cls-13" points="252.98 62.85 256.39 63.08 256.41 62.75 256.54 62.76 256.76 59.49 253.09 59.25 252.87 62.52 252.85 62.84 252.98 62.85"/><polygon class="cls-13" points="259.92 63.31 259.94 62.98 256.54 62.76 256.41 62.75 256.39 63.08 256.36 63.48 260.04 63.52 260.06 63.32 259.92 63.31"/><polygon class="cls-13" points="260.06 63.32 263.46 63.54 263.48 63.22 263.62 63.23 263.84 59.95 260.17 59.71 259.94 62.98 259.92 63.31 260.06 63.32"/><polygon class="cls-13" points="263.62 63.23 263.48 63.22 263.46 63.54 263.46 63.56 267.01 63.6 267.02 63.45 263.62 63.23"/><path class="cls-13" d="M267,63.45v.15l3.68,0,0-.49a11.39,11.39,0,0,1-.05-2.75l-3.44-.23Z"/><path class="cls-13" d="M218.18,53.26l-.32,0a10.65,10.65,0,0,0,0,3.62h.07Z"/><path class="cls-13" d="M221.72,53.43l.22-3.28h-.13l0-.33-3.06-.19a19.08,19.08,0,0,0-.62,2.08l-.1,1.48Z"/><path class="cls-13" d="M222.34,44.35a12.18,12.18,0,0,0-1.87,2l1.72.11Z"/><rect class="cls-13" x="221.49" y="53.56" width="3.61" height="3.68" transform="translate(153.47 274.61) rotate(-86.27)"/><polygon class="cls-13" points="221.94 50.15 225.35 50.37 225.37 50.05 225.5 50.05 225.73 46.78 222.06 46.54 221.83 49.81 221.81 50.14 221.94 50.15"/><path class="cls-13" d="M225.84,43.11H226l.09-1.2a21.85,21.85,0,0,0-2.34,1.38l2.1.14Z"/><polygon class="cls-13" points="225.35 50.37 225.13 53.65 228.79 53.89 229.02 50.61 228.89 50.6 228.91 50.28 225.5 50.05 225.37 50.05 225.35 50.37"/><polygon class="cls-13" points="229.38 43.34 225.97 43.11 225.84 43.11 225.82 43.43 225.6 46.71 229.27 46.95 229.49 43.67 229.36 43.66 229.38 43.34"/><polygon class="cls-13" points="228.41 57.54 232.08 57.78 232.33 54.19 228.66 53.94 228.41 57.54"/><polygon class="cls-13" points="229.02 50.61 232.43 50.84 232.45 50.51 232.58 50.52 232.8 47.24 229.13 47 228.91 50.28 228.89 50.6 229.02 50.61"/><path class="cls-13" d="M229.36,43.66h.13l3.41.23,0-.33h.13l.23-3.28-2.79-.18c-.31.1-.61.19-.91.3l-.2,2.92Z"/><polygon class="cls-13" points="232.43 50.84 232.2 54.11 235.87 54.35 236.09 51.08 235.96 51.07 235.98 50.75 232.58 50.52 232.45 50.51 232.43 50.84"/><polygon class="cls-13" points="236.46 43.8 233.05 43.58 232.92 43.57 232.9 43.9 232.67 47.17 236.34 47.41 236.57 44.13 236.43 44.13 236.46 43.8"/><path class="cls-13" d="M236.82,40.47l.12-1.82c-1.28.19-2.53.43-3.73.72l-.06.86Z"/><polygon class="cls-13" points="235.49 58.01 239.16 58.25 239.41 54.65 235.73 54.41 235.49 58.01"/><polygon class="cls-13" points="236.09 51.08 239.5 51.3 239.52 50.98 239.65 50.98 239.88 47.71 236.21 47.47 235.98 50.75 235.96 51.07 236.09 51.08"/><polygon class="cls-13" points="240.13 44.04 240.35 40.77 236.68 40.52 236.46 43.8 236.43 44.13 236.57 44.13 239.97 44.36 239.99 44.04 240.13 44.04"/><polygon class="cls-13" points="239.5 51.3 239.27 54.58 242.95 54.82 243.17 51.54 243.04 51.53 243.06 51.21 239.65 50.98 239.52 50.98 239.5 51.3"/><polygon class="cls-13" points="243.53 44.27 240.13 44.04 239.99 44.04 239.97 44.36 239.75 47.64 243.42 47.88 243.64 44.6 243.51 44.59 243.53 44.27"/><path class="cls-13" d="M243.89,40.94l.2-2.88c-1.24,0-2.48.09-3.7.19l-.17,2.45Z"/><polygon class="cls-13" points="242.56 58.47 246.23 58.71 246.48 55.11 242.81 54.87 242.56 58.47"/><polygon class="cls-13" points="243.17 51.54 246.58 51.76 246.6 51.44 246.73 51.45 246.95 48.17 243.28 47.93 243.06 51.21 243.04 51.53 243.17 51.54"/><polygon class="cls-13" points="247.2 44.51 247.42 41.23 243.76 40.99 243.53 44.27 243.51 44.59 243.64 44.6 247.05 44.82 247.07 44.5 247.2 44.51"/><polygon class="cls-13" points="246.58 51.76 246.35 55.04 250.02 55.28 250.25 52.01 250.11 51.99 250.13 51.67 246.73 51.45 246.6 51.44 246.58 51.76"/><polygon class="cls-13" points="250.61 44.73 247.2 44.51 247.07 44.5 247.05 44.82 246.83 48.1 250.5 48.34 250.72 45.06 250.59 45.06 250.61 44.73"/><path class="cls-13" d="M251,41.4l.2-3c-1.21-.14-2.43-.23-3.66-.29l-.21,3Z"/><polygon class="cls-13" points="249.64 58.94 253.31 59.18 253.55 55.58 249.88 55.34 249.64 58.94"/><polygon class="cls-13" points="250.25 52.01 253.65 52.23 253.67 51.91 253.8 51.91 254.03 48.64 250.36 48.4 250.13 51.67 250.11 51.99 250.25 52.01"/><polygon class="cls-13" points="254.28 44.97 254.5 41.69 250.83 41.46 250.61 44.73 250.59 45.06 250.72 45.06 254.12 45.29 254.14 44.97 254.28 44.97"/><polygon class="cls-13" points="253.65 52.23 253.43 55.51 257.1 55.75 257.32 52.47 257.19 52.46 257.21 52.14 253.8 51.91 253.67 51.91 253.65 52.23"/><polygon class="cls-13" points="257.68 45.2 254.28 44.97 254.14 44.97 254.12 45.29 253.9 48.56 257.57 48.8 257.79 45.53 257.66 45.52 257.68 45.2"/><path class="cls-13" d="M258,41.86l.14-2.06c-1.17-.34-2.38-.63-3.62-.86l-.19,2.68Z"/><polygon class="cls-13" points="256.71 59.4 260.38 59.64 260.63 56.04 256.96 55.8 256.71 59.4"/><polygon class="cls-13" points="257.32 52.47 260.73 52.69 260.75 52.37 260.88 52.38 261.1 49.1 257.43 48.86 257.21 52.14 257.19 52.46 257.32 52.47"/><polygon class="cls-13" points="261.35 45.44 261.58 42.16 257.9 41.92 257.68 45.2 257.66 45.52 257.79 45.53 261.2 45.75 261.22 45.43 261.35 45.44"/><polygon class="cls-13" points="260.73 52.69 260.5 55.97 264.17 56.21 264.4 52.93 264.26 52.92 264.29 52.6 260.88 52.38 260.75 52.37 260.73 52.69"/><polygon class="cls-13" points="264.76 45.66 261.35 45.44 261.22 45.43 261.2 45.75 260.98 49.03 264.64 49.27 264.87 45.99 264.74 45.98 264.76 45.66"/><path class="cls-13" d="M264.4,42.28a27.17,27.17,0,0,0-2.87-1.35l-.08,1.16Z"/><polygon class="cls-13" points="263.79 59.87 267.46 60.11 267.71 56.51 264.04 56.27 263.79 59.87"/><polygon class="cls-13" points="264.4 52.93 267.8 53.16 267.82 52.83 267.96 52.84 268.18 49.57 264.51 49.32 264.29 52.6 264.26 52.92 264.4 52.93"/><path class="cls-13" d="M264.74,46h.13l3.41.23,0-.33h.13l0-.63a17.33,17.33,0,0,0-3.5-2.66l-.21,3Z"/><path class="cls-13" d="M271.34,53.39l0-.32-3.4-.23h-.14l0,.33-.22,3.27,3.65.25a.44.44,0,0,0,0-.1l.22-3.18Z"/><path class="cls-13" d="M268.3,45.89l0,.33-.23,3.27,3.23.22A11,11,0,0,0,269.1,46l-.67-.05Z"/><path class="cls-13" d="M271,57.8l.18-1.07h-.11Z"/><path class="cls-13" d="M271.34,53.39h.39a8.55,8.55,0,0,0,0-1.67,9,9,0,0,0-.22-1.15l-.17,2.48Z"/><path class="cls-22" d="M217.29,57c-1.72.4-1.09,3.12.49,3.19l53.47.16c1.82-.13,3.18-3.56.88-3.92Z"/><path class="cls-12" d="M217.2,63.67C212,83.55,227.29,97.08,234,88.75,244.89,75.28,222.41,43.78,217.2,63.67Z"/><path class="cls-13" d="M218.53,79.81l.16,0-1.07-6.32-1.4.14a25.8,25.8,0,0,0,1.42,6.93l1-.1Z"/><path class="cls-13" d="M223.26,80l-.17,0-.1-.62-4.3.44-.16,0,.11.63.61,3.61A19.13,19.13,0,0,0,221,86.63l3.33-.34Z"/><path class="cls-13" d="M222.06,72.88,221,66.55l-.17,0-.1-.62-4.08.42c-.07.38-.14.77-.2,1.15l1,5.84Z"/><path class="cls-13" d="M219.65,58.73a6.58,6.58,0,0,0-.69.84l.82-.09Z"/><path class="cls-13" d="M224.19,86.42,224.8,90a8,8,0,0,0,4.91,1.23l-.89-5.26Z"/><polygon class="cls-13" points="223.26 79.95 227.56 79.51 227.45 78.89 227.61 78.87 226.53 72.54 221.91 73.02 222.99 79.35 223.09 79.97 223.26 79.95"/><polygon class="cls-13" points="220.98 66.56 225.27 66.11 225.16 65.49 225.33 65.47 224.25 59.14 219.63 59.62 220.71 65.95 220.81 66.57 220.98 66.56"/><polygon class="cls-13" points="227.56 79.51 228.63 85.84 233.26 85.37 232.18 79.04 232.01 79.05 231.91 78.43 227.61 78.87 227.45 78.89 227.56 79.51"/><polygon class="cls-13" points="225.27 66.11 226.35 72.44 230.97 71.96 229.9 65.63 229.74 65.65 229.63 65.03 225.33 65.47 225.16 65.49 225.27 66.11"/><path class="cls-13" d="M226.89,58.74a8,8,0,0,0-3.11-1.38l.29,1.67Z"/><path class="cls-13" d="M233.72,89.07c.1-.11.2-.2.3-.32a12.85,12.85,0,0,0,2-3.54l-2.88.29Z"/><polygon class="cls-13" points="232.18 79.04 236.47 78.59 236.37 77.97 236.53 77.95 235.46 71.63 230.83 72.1 231.91 78.43 232.01 79.05 232.18 79.04"/><path class="cls-13" d="M229.73,65.65l.17,0,2.79-.29a24.68,24.68,0,0,0-3.87-5l.8,4.69Z"/><path class="cls-13" d="M236.36,78l.11.62.41,2.41a19.92,19.92,0,0,0,0-3.09l-.35,0Z"/><path class="cls-13" d="M235.53,71.49c-.16-.46-.32-.9-.5-1.35l.24,1.38Z"/><path class="cls-14" d="M217,62.28c-5.21,19.89,10.81,36.34,17.54,28C245.44,76.82,222.24,42.4,217,62.28Z"/><path class="cls-14" d="M219.93,61.6c-5.21,19.89,10.8,36.34,17.54,28C248.34,76.14,225.14,41.72,219.93,61.6Z"/><path class="cls-12" d="M266.16,62.76c-11.3,8.23-10.5,27.29-3.72,27.1C273.39,89.54,277.45,54.54,266.16,62.76Z"/><path class="cls-13" d="M259.49,73.42l.08.1L261.93,69l-.69-.91a23,23,0,0,0-2.48,5.18l.5.65Z"/><path class="cls-13" d="M261.55,76.88l-.08-.11.23-.44-2.13-2.81-.08-.1-.23.45-1.35,2.6a23.45,23.45,0,0,0-.37,2.82l1.65,2.17Z"/><path class="cls-13" d="M264.19,71.77l2.37-4.57-.09-.11.24-.45-2-2.67c-.2.19-.41.37-.6.56l-2.18,4.22Z"/><path class="cls-13" d="M269.48,61.55a3.2,3.2,0,0,0-.69,0l.41.53Z"/><path class="cls-13" d="M259.07,81.44,257.74,84a9.78,9.78,0,0,0,1.66,4.26l2-3.8Z"/><polygon class="cls-13" points="261.56 76.88 263.69 79.69 263.92 79.24 264 79.34 266.36 74.77 264.07 71.75 261.7 76.33 261.47 76.77 261.56 76.88"/><polygon class="cls-13" points="266.56 67.2 268.69 70 268.92 69.55 269 69.66 271.37 65.08 269.07 62.07 266.7 66.64 266.48 67.09 266.56 67.2"/><polygon class="cls-13" points="263.69 79.69 261.32 84.26 263.62 87.28 265.98 82.72 265.9 82.6 266.13 82.15 264 79.34 263.92 79.24 263.69 79.69"/><polygon class="cls-13" points="268.69 70 266.33 74.58 268.62 77.6 270.99 73.02 270.9 72.92 271.13 72.46 269 69.66 268.92 69.55 268.69 70"/><path class="cls-13" d="M272.73,66.74a10.35,10.35,0,0,0-.78-3.06l-.62,1.21Z"/><path class="cls-13" d="M262.16,89.84l.28,0a5.47,5.47,0,0,0,2.48-.72l-1.43-1.88Z"/><polygon class="cls-13" points="265.98 82.72 268.11 85.51 268.35 85.06 268.43 85.17 270.79 80.6 268.49 77.58 266.13 82.15 265.9 82.6 265.98 82.72"/><path class="cls-13" d="M270.9,72.92l.09.1,1.38,1.82a31.8,31.8,0,0,0,.51-5.76l-1.74,3.38Z"/><path class="cls-13" d="M268.34,85.06l-.23.45-.9,1.74a13.65,13.65,0,0,0,1.39-1.86l-.17-.22Z"/><path class="cls-13" d="M270.88,80.57q.21-.57.39-1.17l-.52,1Z"/><path class="cls-14" d="M266.7,61.81C255.41,70,255.22,91.37,262,91.18,272.94,90.86,278,53.59,266.7,61.81Z"/><path class="cls-14" d="M263.56,63c-11.3,8.22-11.49,29.56-4.71,29.37C269.8,92,274.84,54.73,263.56,63Z"/><path class="cls-19" d="M264.69,85c.43-4.22,2.45-6.5,4.46-6.5s3.23,2.28,2.8,6.5-3.74,6.18-5.75,6.18S264.26,89.21,264.69,85Z"/><path class="cls-23" d="M264.26,85c.38-3,2.15-4.69,3.91-4.69S271,82,270.63,85a5.28,5.28,0,0,1-5,4.45C263.83,89.48,263.88,88.07,264.26,85Z"/><path class="cls-19" d="M265.25,86.81a2.4,2.4,0,0,1,2.18-2.34c1,0,1.58.82,1.37,2.34A2.86,2.86,0,0,1,266,89C265,89,265,88.32,265.25,86.81Z"/><path class="cls-19" d="M225.14,84.84c-.63-4.19-2.84-6.32-4.93-6.16s-3.28,2.53-2.66,6.72a6.4,6.4,0,0,0,6.27,5.73C225.91,91,225.76,89,225.14,84.84Z"/><path class="cls-23" d="M224.11,85c-.46-3-2.06-4.57-3.57-4.46s-2.37,1.84-1.92,4.87a4.62,4.62,0,0,0,4.53,4.14C224.67,89.39,224.56,88,224.11,85Z"/><path class="cls-19" d="M223.48,86.8c-.25-1.69-1.14-2.55-2-2.49s-1.32,1-1.07,2.72A2.58,2.58,0,0,0,223,89.34C223.79,89.28,223.73,88.49,223.48,86.8Z"/><path class="cls-24" d="M224.51,94.28s-4.4-40.91-.83-45.79,24.63-8.06,27.92-7.28c7.17,1.68,5.91,6.74,5.91,6.74a12.71,12.71,0,0,1,6.05,1.63C266,51.21,269.31,74.4,265.19,92S224.51,94.28,224.51,94.28Z"/><path class="cls-25" d="M247.45,76.8A28.42,28.42,0,0,1,222.3,61.9c.19,13.63.53,32.17.53,32.17s33.56,1.69,43.8-1.09c.26-7.61.71-16.59.45-23.89A28.63,28.63,0,0,1,247.45,76.8Z"/><path class="cls-19" d="M223.59,103.13c.3,2.27,9.87,12.08,20.75,12.08s19.91-8.94,21.8-12.57S260.4,52.88,256,49s-22.36-1.3-23.88.73C228.48,54.57,222.41,94.19,223.59,103.13Z"/><path class="cls-24" d="M266.63,73.88l-2.46.48c-.25,9.41-3.44,15.92-7.38,15.92s-7.37-3.14-11.06-3.14-5.16,3.14-13,3.38-6.39-5.31-7.38-15.19l-1.47.72s-4.43,17.36-1.23,27.49S245,118.25,245,118.25c14.25-1,21.38-13.27,22.12-14.71S266.63,73.88,266.63,73.88Z"/><path class="cls-19" d="M228,69.06c1.57.71,7.76-14.25,9.06-16.75s1.08-5.11-.49-5.82-3.89.76-5.19,3.26S226.44,68.36,228,69.06Z"/><path class="cls-19" d="M261.36,67.94c1.65-.52-2.71-15.71-3.66-18.34s-3.08-4.34-4.72-3.82-2.22,3.07-1.26,5.71S259.71,68.46,261.36,67.94Z"/><path class="cls-24" d="M252.63,47.81c0-1.6-3.53-2.9-7.9-2.9s-7.91,1.3-7.91,2.9,3.54,2.9,7.91,2.9S252.63,49.41,252.63,47.81Z"/><path class="cls-23" d="M241.3,91.23A7.87,7.87,0,0,0,244.79,93c1.56,0,3.44-1.45,3.5-1.93.16-1.16-2.39-14.13-3.3-14.25S241.23,89.54,241.3,91.23Z"/><path class="cls-19" d="M242.92,91.57c0,.3,1.45.77,2,.77.87,0,1.93-.44,2-1,.09-1.28.78-15.77-1.85-15.63C242.11,75.9,242.89,89.72,242.92,91.57Z"/><path class="cls-24" d="M249.66,46.86c3-1.27,6.93-1.13,5.83,4.41,0,0-1.43-2.84-6.27-1.11Z"/><path class="cls-25" d="M246.59,113.57c0-1-.49-1.78-1.08-1.78s-1.09.8-1.09,1.78.49,1.07,1.09,1.07S246.59,114.56,246.59,113.57Z"/><path class="cls-26" d="M257.73,76.44c-.06-2.21-1.1-3.88-2.33-3.72s-2.16,2.08-2.1,4.29,1.1,3.87,2.33,3.72S257.79,78.65,257.73,76.44Z"/><path class="cls-26" d="M237.83,77.29c.07-2.21-.87-3.93-2.1-3.85s-2.28,2-2.35,4.16.87,3.94,2.1,3.85S237.76,79.5,237.83,77.29Z"/><path class="cls-27" d="M236.45,96s1.4,3.75,2,4.26,10.56.62,12.35.07c1.33-.4,2.71-4.59,2.71-4.59Z"/><path class="cls-28" d="M252.72,96.24l-16,.06,1,1.3c2.13.09,12.77.14,14.26,0Z"/><path class="cls-28" d="M239.34,99.85c1.64,0,9.85-.06,11,0C251.23,100.71,238.1,100.72,239.34,99.85Z"/><path class="cls-27" d="M254.34,95.51c-.12-.27-.56-.34-1-.16s-.69.55-.57.82.56.34,1,.16S254.45,95.78,254.34,95.51Z"/><path class="cls-27" d="M236.74,96.3c.07-.28-.23-.61-.69-.73s-.89,0-1,.3.23.61.69.73S236.66,96.58,236.74,96.3Z"/><path class="cls-24" d="M240.08,70.79a3.59,3.59,0,0,0-.75-2.15c-1.18-1.41-10.62,2.28-10.43,4.66l.12,1.5c.13,1.73,2.92-.15,5.76-.67s5.49.43,5.41-1.19Z"/><path class="cls-24" d="M250.31,69.73a3,3,0,0,1,.71-1.94c1.13-1.27,10.42,2,10.27,4.15l-.09,1.35c-.11,1.55-2.87-.12-5.66-.58s-5.36.42-5.31-1Z"/><path class="cls-14" d="M265.83,57.53h-43.7c0,1.37,0,2.84,0,4.37h0c0,1.16.09,6.39.11,7.61,16.32-5.36,27.47-5.71,44.67-.42C266.69,66.14,266.2,59.84,265.83,57.53Z"/><path class="cls-12" d="M215.79,61.91c1.91-1.86,2.45-4.39,1.84-5.93-.91-2.33.56-8,3.15-11.15,8.81-10.83,45-9.28,49.94,5.45.95,2.83.09,8.31,1.71,12.26Z"/><path class="cls-13" d="M215.79,61.91h.52l.12-.72A8.67,8.67,0,0,1,215.79,61.91Z"/><path class="cls-13" d="M220.46,58.94h.14l.5-3.55-3.66-.26a4,4,0,0,0,.19.84,4.69,4.69,0,0,1-.07,3.11l2.85.21Z"/><polygon class="cls-13" points="224.18 59.56 224.22 59.21 220.6 58.95 220.46 58.94 220.41 59.3 220.04 61.95 224.04 62 224.32 59.57 224.18 59.56"/><polygon class="cls-13" points="224.32 59.57 227.94 59.83 227.97 59.47 228.11 59.48 228.46 55.93 224.64 55.65 224.22 59.21 224.18 59.56 224.32 59.57"/><polygon class="cls-13" points="231.69 60.09 231.71 59.73 228.11 59.48 227.97 59.47 227.94 59.83 227.72 62.04 231.68 62.08 231.82 60.1 231.69 60.09"/><polygon class="cls-13" points="231.82 60.1 235.43 60.35 235.44 60 235.58 60.01 235.78 56.45 231.98 56.18 231.71 59.73 231.69 60.09 231.82 60.1"/><polygon class="cls-13" points="239.16 60.62 239.16 60.26 235.58 60.01 235.44 60 235.43 60.35 235.33 62.13 239.24 62.17 239.29 60.63 239.16 60.62"/><polygon class="cls-13" points="239.29 60.63 242.87 60.88 242.88 60.52 243.02 60.53 243.06 56.97 239.29 56.71 239.16 60.26 239.16 60.62 239.29 60.63"/><polygon class="cls-13" points="246.58 61.14 246.58 60.78 243.02 60.53 242.88 60.52 242.87 60.88 242.85 62.21 246.73 62.25 246.72 61.15 246.58 61.14"/><polygon class="cls-13" points="246.72 61.15 250.28 61.4 250.27 61.04 250.41 61.05 250.3 57.5 246.55 57.23 246.58 60.78 246.58 61.14 246.72 61.15"/><polygon class="cls-13" points="253.97 61.66 253.95 61.3 250.41 61.05 250.27 61.04 250.28 61.4 250.31 62.3 254.14 62.34 254.11 61.67 253.97 61.66"/><polygon class="cls-13" points="254.11 61.67 257.65 61.92 257.62 61.56 257.76 61.57 257.51 58.02 253.78 57.75 253.95 61.3 253.97 61.66 254.11 61.67"/><polygon class="cls-13" points="261.32 62.18 261.29 61.82 257.76 61.57 257.62 61.56 257.65 61.92 257.68 62.38 261.47 62.42 261.45 62.19 261.32 62.18"/><polygon class="cls-13" points="261.45 62.19 264.98 62.44 264.94 62.08 265.08 62.09 264.68 58.53 260.96 58.26 261.29 61.82 261.32 62.18 261.45 62.19"/><polygon class="cls-13" points="265.08 62.09 264.94 62.08 264.98 62.44 264.98 62.46 268.6 62.5 268.58 62.34 265.08 62.09"/><path class="cls-13" d="M268.58,62.34l0,.16,3.74,0-.08-.53a14.52,14.52,0,0,1-.68-3l-3.47-.25Z"/><path class="cls-13" d="M218.09,51.32l-.32,0a10.93,10.93,0,0,0-.35,3.75h.08Z"/><path class="cls-13" d="M221.71,51.52l.45-3.26H222l0-.32-3-.22a17.11,17.11,0,0,0-.81,2L218,51.25Z"/><path class="cls-13" d="M222.92,42.79a12.76,12.76,0,0,0-2,1.84l1.69.13Z"/><polygon class="cls-13" points="221.05 55.31 224.87 55.58 225.3 51.85 221.57 51.57 221.05 55.31"/><polygon class="cls-13" points="222.16 48.26 225.56 48.51 225.6 48.2 225.73 48.21 226.1 45.08 222.51 44.81 222.07 47.93 222.03 48.25 222.16 48.26"/><path class="cls-13" d="M226.36,41.71h.13l.12-1.07a20.73,20.73,0,0,0-2.3,1.2l2,.15Z"/><polygon class="cls-13" points="225.56 48.51 225.18 51.77 228.9 52.05 229.22 48.78 229.08 48.77 229.12 48.46 225.73 48.21 225.6 48.2 225.56 48.51"/><polygon class="cls-13" points="229.74 41.97 226.49 41.72 226.36 41.71 226.33 42.01 225.97 45.01 229.55 45.28 229.84 42.27 229.71 42.26 229.74 41.97"/><polygon class="cls-13" points="228.41 55.84 232.21 56.11 232.48 52.37 228.77 52.1 228.41 55.84"/><polygon class="cls-13" points="229.22 48.78 232.6 49.04 232.62 48.72 232.75 48.73 232.98 45.6 229.41 45.33 229.12 48.46 229.08 48.77 229.22 48.78"/><path class="cls-13" d="M229.71,42.26h.13l3.25.26,0-.3h.12l.22-2.89-2.61-.2-.85.24L229.74,42Z"/><polygon class="cls-13" points="232.6 49.04 232.35 52.3 236.06 52.57 236.24 49.3 236.1 49.3 236.12 48.99 232.75 48.73 232.62 48.72 232.6 49.04"/><polygon class="cls-13" points="236.47 42.49 233.23 42.24 233.11 42.23 233.09 42.53 232.86 45.53 236.42 45.8 236.58 42.79 236.45 42.78 236.47 42.49"/><path class="cls-13" d="M236.75,39.55l.08-1.56c-1.17.14-2.33.33-3.45.55l0,.74Z"/><polygon class="cls-13" points="235.72 56.36 239.5 56.63 239.63 52.9 235.93 52.63 235.72 56.36"/><polygon class="cls-13" points="236.24 49.3 239.6 49.56 239.61 49.24 239.74 49.25 239.84 46.12 236.29 45.85 236.12 48.99 236.1 49.3 236.24 49.3"/><polygon class="cls-13" points="239.95 42.76 240.04 39.87 236.62 39.6 236.47 42.49 236.45 42.78 236.58 42.79 239.81 43.04 239.82 42.75 239.95 42.76"/><polygon class="cls-13" points="239.6 49.56 239.49 52.82 243.18 53.09 243.22 49.82 243.09 49.81 243.09 49.5 239.74 49.25 239.61 49.24 239.6 49.56"/><polygon class="cls-13" points="243.17 43.01 239.95 42.76 239.82 42.75 239.81 43.04 239.71 46.05 243.25 46.32 243.29 43.31 243.16 43.3 243.17 43.01"/><path class="cls-13" d="M243.32,40.07l0-2.46c-1.13,0-2.25,0-3.36.1l-.07,2.09Z"/><polygon class="cls-13" points="243 56.88 246.76 57.16 246.73 53.41 243.05 53.14 243 56.88"/><polygon class="cls-13" points="243.22 49.82 246.56 50.07 246.56 49.76 246.69 49.77 246.66 46.64 243.13 46.37 243.09 49.5 243.09 49.81 243.22 49.82"/><polygon class="cls-13" points="246.63 43.27 246.6 40.38 243.2 40.11 243.17 43.01 243.16 43.3 243.29 43.31 246.51 43.55 246.5 43.26 246.63 43.27"/><polygon class="cls-13" points="246.56 50.07 246.59 53.34 250.26 53.61 250.16 50.34 250.03 50.33 250.02 50.02 246.69 49.77 246.56 49.76 246.56 50.07"/><polygon class="cls-13" points="249.83 43.52 246.63 43.27 246.5 43.26 246.51 43.55 246.54 46.57 250.06 46.84 249.97 43.82 249.84 43.81 249.83 43.52"/><path class="cls-13" d="M249.87,40.57,249.79,38c-1.1-.13-2.21-.24-3.33-.31l0,2.59Z"/><polygon class="cls-13" points="250.24 57.41 253.99 57.68 253.79 53.93 250.13 53.67 250.24 57.41"/><polygon class="cls-13" points="250.16 50.34 253.5 50.59 253.48 50.28 253.61 50.28 253.45 47.15 249.93 46.89 250.02 50.02 250.03 50.33 250.16 50.34"/><polygon class="cls-13" points="253.28 43.78 253.13 40.88 249.75 40.62 249.83 43.52 249.84 43.81 249.97 43.82 253.17 44.06 253.15 43.77 253.28 43.78"/><polygon class="cls-13" points="253.5 50.59 253.66 53.86 257.31 54.13 257.08 50.86 256.95 50.85 256.93 50.53 253.61 50.28 253.48 50.28 253.5 50.59"/><polygon class="cls-13" points="256.47 44.03 253.28 43.78 253.15 43.77 253.17 44.06 253.32 47.08 256.83 47.35 256.61 44.33 256.49 44.32 256.47 44.03"/><path class="cls-13" d="M256.38,41.08l-.13-1.77c-1.09-.3-2.21-.57-3.36-.79l.12,2.3Z"/><polygon class="cls-13" points="257.45 57.93 261.17 58.19 260.83 54.45 257.18 54.18 257.45 57.93"/><polygon class="cls-13" points="257.08 50.86 260.39 51.1 260.36 50.79 260.49 50.8 260.21 47.66 256.7 47.4 256.93 50.53 256.95 50.85 257.08 50.86"/><polygon class="cls-13" points="259.9 44.29 259.63 41.39 256.26 41.13 256.47 44.03 256.49 44.32 256.61 44.33 259.8 44.58 259.77 44.28 259.9 44.29"/><polygon class="cls-13" points="260.39 51.1 260.69 54.38 264.32 54.64 263.96 51.37 263.83 51.36 263.8 51.05 260.49 50.8 260.36 50.79 260.39 51.1"/><polygon class="cls-13" points="263.07 44.54 259.9 44.29 259.77 44.28 259.8 44.58 260.07 47.59 263.56 47.86 263.23 44.84 263.11 44.83 263.07 44.54"/><path class="cls-13" d="M262.21,41.54a26.23,26.23,0,0,0-2.8-1.21l.09,1Z"/><polygon class="cls-13" points="264.61 58.44 268.32 58.71 267.82 54.96 264.2 54.7 264.61 58.44"/><polygon class="cls-13" points="263.96 51.37 267.25 51.62 267.21 51.3 267.34 51.31 266.93 48.17 263.44 47.9 263.8 51.05 263.83 51.36 263.96 51.37"/><path class="cls-13" d="M263.11,44.83h.12l3.17.25,0-.29h.12l-.07-.57a21.44,21.44,0,0,0-3.64-2.4l.3,2.71Z"/><path class="cls-13" d="M270.67,51.87l0-.31-3.29-.25h-.13l0,.32.43,3.27,3.61.26s0-.07,0-.1l-.48-3.17Z"/><path class="cls-13" d="M266.36,44.79l0,.29.39,3,3.06.24a14,14,0,0,0-2.74-3.5l-.63,0Z"/><path class="cls-13" d="M271.34,56.3c0-.37,0-.73,0-1.09h-.11Z"/><path class="cls-13" d="M270.67,51.87h.13l.25,0a9.84,9.84,0,0,0-.33-1.62c-.13-.39-.29-.75-.45-1.11l.36,2.39Z"/><path class="cls-22" d="M216.81,55.19c-1.87.42-1.5,3.38.19,3.46l55.13.31c1.77-.13,2.27-3.69,0-4.07Z"/></g></g></svg>