<svg id="bf2b12fd-98ef-4df9-abe4-52340225686d" xmlns="http://www.w3.org/2000/svg" viewBox="0 0 1143 663.72"><defs><style>.cls-1,.cls-4{opacity:0.1;}.cls-2{fill:#3f3d56;}.cls-3{fill:#00acf0;}.cls-4,.cls-5{isolation:isolate;}.cls-5{opacity:0.15;}.cls-6{fill:none;stroke:#3f3d56;stroke-miterlimit:10;stroke-width:4px;}.cls-7{fill:#ffc08d;}.cls-8{fill:#ff9a6e;}.cls-9{fill:#efbb70;}.cls-10{fill:#56453f;}.cls-11{fill:#44332e;}.cls-12{fill:#3a2a26;}.cls-13{fill:#f4515e;}.cls-14{fill:#d83548;}.cls-15{fill:#aa2135;}.cls-16{fill:#a0444b;}.cls-17{fill:#ef8f6f;}.cls-18{fill:#543732;}.cls-19{fill:#492a26;}.cls-20{fill:#fffdee;}.cls-21{fill:#82675f;}.cls-22{fill:#e8a452;}.cls-23{fill:#d88839;}.cls-24{fill:#f4b867;}.cls-25{fill:#ffcf8f;}</style></defs><g class="cls-1"><ellipse class="cls-2" cx="840.37" cy="625" rx="22.09" ry="28.91"/><path class="cls-2" d="M857.85,501.35a34.87,34.87,0,0,0,4.65-17.67c0-16-9.89-28.91-22.09-28.91s-22.08,12.94-22.08,28.91a34.86,34.86,0,0,0,4.61,17.67,36.13,36.13,0,0,0,0,35.33,36.15,36.15,0,0,0,0,35.34,34.86,34.86,0,0,0-4.61,17.67c0,16,9.89,28.91,22.08,28.91s22.09-12.94,22.09-28.91A34.86,34.86,0,0,0,857.89,572a36.15,36.15,0,0,0,0-35.34,36.13,36.13,0,0,0,0-35.33Z" transform="translate(0 -0.03)"/><ellipse class="cls-2" cx="840.37" cy="448.32" rx="22.09" ry="28.91"/><ellipse class="cls-2" cx="840.37" cy="412.98" rx="22.09" ry="28.91"/><path class="cls-3" d="M923.05,171.19a106.94,106.94,0,0,0,8.22-12.11l-58-9.53L936,150a106,106,0,0,0,2-83.82l-84.22,43.66L931.5,52.8A105.8,105.8,0,1,0,756.75,171.19a106.4,106.4,0,0,0-12.06,19.29L820,229.62l-80.32-27a105.8,105.8,0,0,0,17,99.34A105.79,105.79,0,1,0,923,302a105.79,105.79,0,0,0,0-130.81Z" transform="translate(0 -0.03)"/><path class="cls-4" d="M734.11,236.6A105.29,105.29,0,0,0,756.75,302a105.79,105.79,0,1,0,166.3,0C937.23,284,734.11,224.72,734.11,236.6Z" transform="translate(0 -0.03)"/></g><g class="cls-1"><ellipse class="cls-2" cx="220.81" cy="605.39" rx="13.44" ry="17.6"/><path class="cls-2" d="M231.5,530.13a21.15,21.15,0,0,0,2.81-10.76c0-9.72-6-17.6-13.45-17.6s-13.44,7.88-13.44,17.6a21.24,21.24,0,0,0,2.8,10.76,22.07,22.07,0,0,0,0,21.51,22.07,22.07,0,0,0,0,21.51,21.2,21.2,0,0,0-2.8,10.75c0,9.73,6,17.61,13.44,17.61s13.45-7.88,13.45-17.61a21.11,21.11,0,0,0-2.81-10.75,22,22,0,0,0,0-21.51,22,22,0,0,0,0-21.51Z" transform="translate(0 -0.03)"/><ellipse class="cls-2" cx="220.81" cy="497.83" rx="13.44" ry="17.6"/><ellipse class="cls-2" cx="220.81" cy="476.32" rx="13.44" ry="17.6"/><path class="cls-3" d="M170.5,329.13a63.21,63.21,0,0,1-5-7.37l35.33-5.8-38.21.29a64.57,64.57,0,0,1-1.23-51l51.23,26.61-47.27-34.8a64.4,64.4,0,1,1,106.37,72.07,64.44,64.44,0,0,1,7.34,11.73L233.2,364.7l48.9-16.41a64.44,64.44,0,0,1-10.38,60.48,64.4,64.4,0,1,1-101.24,0,64.43,64.43,0,0,1,0-79.64Z" transform="translate(0 -0.03)"/><path class="cls-4" d="M285.5,369a64.12,64.12,0,0,1-13.78,39.82,64.4,64.4,0,1,1-101.24,0C161.85,397.86,285.5,361.72,285.5,369Z" transform="translate(0 -0.03)"/></g><g class="cls-1"><ellipse class="cls-2" cx="523.81" cy="614.76" rx="17.99" ry="23.55"/><path class="cls-2" d="M538.05,514a28.39,28.39,0,0,0,3.75-14.4c0-13-8-23.55-18-23.55s-18,10.55-18,23.55a28.4,28.4,0,0,0,3.76,14.4,29.45,29.45,0,0,0,0,28.79,29.43,29.43,0,0,0,0,28.78A28.4,28.4,0,0,0,505.8,586c0,13,8.06,23.55,18,23.55s18-10.55,18-23.55a28.39,28.39,0,0,0-3.75-14.4,29.48,29.48,0,0,0,0-28.78A29.5,29.5,0,0,0,538.05,514Z" transform="translate(0 -0.03)"/><ellipse class="cls-2" cx="523.81" cy="470.82" rx="17.99" ry="23.55"/><ellipse class="cls-2" cx="523.81" cy="442.03" rx="17.99" ry="23.55"/><path class="cls-3" d="M456.5,245.06a85.5,85.5,0,0,1-6.7-9.86l47.27-7.76-51.12.38a86.36,86.36,0,0,1-1.65-68.29l68.6,35.58-63.27-46.5a86.19,86.19,0,1,1,142.31,96.45,86.06,86.06,0,0,1,9.82,15.72L540.4,292.66l65.43-22a86.22,86.22,0,0,1-13.89,80.93,86.18,86.18,0,1,1-135.48,0,86.2,86.2,0,0,1,0-106.57Z" transform="translate(0 -0.03)"/><path class="cls-4" d="M610.38,298.35a85.83,85.83,0,0,1-18.44,53.28,86.18,86.18,0,1,1-135.48,0C444.91,337,610.38,288.67,610.38,298.35Z" transform="translate(0 -0.03)"/></g><path class="cls-2" d="M1143,636.22c0,6.87-50.22,13.15-133.25,18-15.1.87-31.28,1.7-48.44,2.48q-22.24,1-46.62,1.89-23.62.84-49.05,1.56c-53.54,1.53-112.73,2.63-175.61,3.18q-22.89.21-46.39.32-24.48.11-49.52.1c-303.14,0-548.87-12.31-548.87-27.5s245.73-27.5,548.87-27.5c130.51,0,250.36,2.29,344.56,6.09l10.3.42H949C1067.7,620.29,1143,627.86,1143,636.22Z" transform="translate(0 -0.03)"/><path class="cls-5" d="M1143,636.22c0,6.87-50.22,13.15-133.25,18-15.1.87-31.28,1.7-48.44,2.48q-22.24,1-46.62,1.89-23.62.84-49.05,1.56c-53.54,1.53-112.73,2.63-175.61,3.18q-22.89.21-46.39.32-24.48.11-49.52.1c-303.14,0-548.87-12.31-548.87-27.5s245.73-27.5,548.87-27.5c130.51,0,250.36,2.29,344.56,6.09l10.3.42H949C1067.7,620.29,1143,627.86,1143,636.22Z" transform="translate(0 -0.03)"/><path class="cls-2" d="M1097.75,631.38c0,5.74-50.22,11-133.25,15-15.09.73-31.28,1.42-48.43,2.07q-22.25.84-46.62,1.58-23.62.71-49.05,1.31c-53.55,1.28-112.74,2.2-175.62,2.66q-22.87.16-46.39.26-24.48.09-49.51.09C245.74,654.35,0,644.06,0,631.35s245.74-23,548.88-23c130.5,0,250.35,1.91,344.55,5.09l10.3.35h.07C1022.5,618.06,1097.75,624.35,1097.75,631.38Z" transform="translate(0 -0.03)"/><path class="cls-2" d="M683.11,357.62q-51.18,0-80.67-40.63T573,218.55q0-58.2,28.52-98.24t80.46-40q55.08,0,83,42.19t27.93,97.66q0,55.07-28.9,96.28T683.11,357.62Zm1-30.47q33.67,0,50.33-29.35t16.66-74q0-49.7-17.05-81.39t-52.3-31.7q-67,0-67,106.44,0,110,69.34,110Zm11.24,291.79H646L969.08,85.74h48.42Zm285.82,5.47q-51.95,0-81-41T871,485q0-57.81,28.32-97.85t80.66-40q54.69,0,82.42,42.19T1090.14,487q0,54.7-28.71,96.1t-80.28,41.36Zm.58-31.25q33.51,0,50.06-28.85t16.55-73.7q0-48-16.75-80.51t-52.19-32.56Q912,377.54,912,484q0,109.18,69.7,109.18Z" transform="translate(0 -0.03)"/><path class="cls-2" d="M683.11,357.62q-51.18,0-80.67-40.63T573,218.55q0-58.2,28.52-98.24t80.46-40q55.08,0,83,42.19t27.93,97.66q0,55.07-28.9,96.28T683.11,357.62Zm1-30.47q33.67,0,50.33-29.35t16.66-74q0-49.7-17.05-81.39t-52.3-31.7q-67,0-67,106.44,0,110,69.34,110Zm11.24,291.79H646L969.08,85.74h48.42Zm285.82,5.47q-51.95,0-81-41T871,485q0-57.81,28.32-97.85t80.66-40q54.69,0,82.42,42.19T1090.14,487q0,54.7-28.71,96.1t-80.28,41.36Zm.58-31.25q33.51,0,50.06-28.85t16.55-73.7q0-48-16.75-80.51t-52.19-32.56Q912,377.54,912,484q0,109.18,69.7,109.18Z" transform="translate(0 -0.03)"/><path class="cls-5" d="M683.11,357.62q-51.18,0-80.67-40.63T573,218.55q0-58.2,28.52-98.24t80.46-40q55.08,0,83,42.19t27.93,97.66q0,55.07-28.9,96.28T683.11,357.62Zm1-30.47q33.67,0,50.33-29.35t16.66-74q0-49.7-17.05-81.39t-52.3-31.7q-67,0-67,106.44,0,110,69.34,110Zm11.24,291.79H646L969.08,85.74h48.42Zm285.82,5.47q-51.95,0-81-41T871,485q0-57.81,28.32-97.85t80.66-40q54.69,0,82.42,42.19T1090.14,487q0,54.7-28.71,96.1t-80.28,41.36Zm.58-31.25q33.51,0,50.06-28.85t16.55-73.7q0-48-16.75-80.51t-52.19-32.56Q912,377.54,912,484q0,109.18,69.7,109.18Z" transform="translate(0 -0.03)"/><path class="cls-2" d="M652.11,357.62q-51.18,0-80.67-40.63T542,218.55q0-58.2,28.52-98.24t80.46-40q55.08,0,83,42.19t27.93,97.66q0,55.07-28.9,96.28T652.11,357.62Zm1-30.47q33.67,0,50.33-29.35t16.66-74q0-49.7-17.05-81.39t-52.3-31.7q-67,0-67,106.44,0,110,69.34,110Zm11.24,291.79H615L938.08,85.74H986.5Zm285.82,5.47q-51.95,0-81-41T840,485q0-57.81,28.32-97.85t80.66-40q54.69,0,82.42,42.19T1059.14,487q0,54.7-28.71,96.1t-80.28,41.36Zm.58-31.25q33.51,0,50.06-28.85t16.55-73.7q0-48-16.75-80.51T948.4,377.54Q881,377.54,881,484q0,109.18,69.72,109.18Z" transform="translate(0 -0.03)"/><path class="cls-6" d="M760.07,632.32c4.12-7.64-.56-17-5.94-23.82s-11.94-13.9-11.8-22.59c.2-12.47,13.44-19.84,24-26.46a117.41,117.41,0,0,0,21.58-17.34,31.73,31.73,0,0,0,6.63-8.88c2.19-4.88,2.12-10.43,2-15.77q-.69-26.72-2.64-53.36" transform="translate(0 -0.03)"/><path class="cls-3" d="M814,463.12a19.45,19.45,0,0,0-9.71-15.94L800,455.8l.13-10.44A19.46,19.46,0,1,0,814,463.12Z" transform="translate(0 -0.03)"/><path class="cls-3" d="M779.32,594.86a19.45,19.45,0,1,1,.94-15.67l-12.16,9.89L781.5,586A19.41,19.41,0,0,1,779.32,594.86Z" transform="translate(0 -0.03)"/><path class="cls-3" d="M769.71,557.05a19.46,19.46,0,0,1-20.35-18.53h0a19.19,19.19,0,0,1,1.68-8.87,19.51,19.51,0,0,1,12.46-10.79l-.11,8,4.41-8.72h0A19.46,19.46,0,0,1,769.62,557h0Z" transform="translate(0 -0.03)"/><path class="cls-3" d="M817,525.62a19.47,19.47,0,1,1-2.58-38.85l.76,0a19.25,19.25,0,0,1,10.42,2.47l-3.44,9.42,7.08-6.79a19.38,19.38,0,0,1,6.31,13.43,19,19,0,0,1-.5,5.36A19.47,19.47,0,0,1,817,525.62Z" transform="translate(0 -0.03)"/><path class="cls-4" d="M811.4,468.31c-4.49.49-8.85,1.89-13.36,2.17s-9.46-.8-12.31-4.31c-1.54-1.88-2.3-4.27-3.6-6.33a13.79,13.79,0,0,0-4.9-4.61,19.46,19.46,0,1,0,36.38,12.91C812.87,468.18,812.14,468.23,811.4,468.31Z" transform="translate(0 -0.03)"/><path class="cls-4" d="M817,525.62a19.47,19.47,0,0,1-18.51-27.76,14.58,14.58,0,0,1,3.91,3.92c1.39,2.09,2.23,4.51,3.86,6.43,3,3.57,8.21,4.73,12.9,4.52s9.23-1.55,13.91-2c.65-.06,1.31-.1,2-.12A19.48,19.48,0,0,1,817,525.62Z" transform="translate(0 -0.03)"/><path class="cls-4" d="M769.71,557.05a19.46,19.46,0,0,1-20.35-18.53h0a19.19,19.19,0,0,1,1.68-8.87,15.79,15.79,0,0,1,4.11,4c1.51,2.13,2.46,4.59,4.23,6.56,3.28,3.65,8.8,4.94,13.77,4.82s9.46-1.28,14.25-1.65A19.46,19.46,0,0,1,769.71,557.05Z" transform="translate(0 -0.03)"/><path class="cls-4" d="M779.32,594.86A19.46,19.46,0,0,1,743.84,579a19.61,19.61,0,0,1,4.27,3.81c1.85,2.26,3.07,4.82,5.21,6.92,4,3.9,10.4,5.51,16.12,5.66A81.54,81.54,0,0,0,779.32,594.86Z" transform="translate(0 -0.03)"/><path class="cls-6" d="M1061.07,631.32c4.12-7.64-.56-17-5.94-23.82s-11.94-13.9-11.8-22.59c.2-12.47,13.44-19.84,24-26.46a117.41,117.41,0,0,0,21.58-17.34,31.73,31.73,0,0,0,6.63-8.88c2.19-4.88,2.12-10.43,2-15.77q-.69-26.72-2.64-53.36" transform="translate(0 -0.03)"/><path class="cls-3" d="M1115,462.12a19.45,19.45,0,0,0-9.71-15.94L1101,454.8l.13-10.44A19.46,19.46,0,1,0,1115,462.12Z" transform="translate(0 -0.03)"/><path class="cls-3" d="M1080.32,593.86a19.45,19.45,0,1,1,.94-15.67l-12.16,9.89,13.4-3.12A19.41,19.41,0,0,1,1080.32,593.86Z" transform="translate(0 -0.03)"/><path class="cls-3" d="M1070.71,556.05a19.46,19.46,0,0,1-20.35-18.53h0a19.19,19.19,0,0,1,1.68-8.87,19.51,19.51,0,0,1,12.46-10.79l-.11,8,4.41-8.72h0a19.46,19.46,0,0,1,1.82,38.88h0Z" transform="translate(0 -0.03)"/><path class="cls-3" d="M1118,524.62a19.47,19.47,0,1,1-2.58-38.85l.76,0a19.25,19.25,0,0,1,10.42,2.47l-3.44,9.42,7.08-6.79a19.38,19.38,0,0,1,6.31,13.43,19,19,0,0,1-.5,5.36A19.47,19.47,0,0,1,1118,524.62Z" transform="translate(0 -0.03)"/><path class="cls-4" d="M1112.4,467.31c-4.49.49-8.85,1.89-13.36,2.17s-9.46-.8-12.31-4.31c-1.54-1.88-2.3-4.27-3.6-6.33a13.79,13.79,0,0,0-4.9-4.61,19.46,19.46,0,1,0,36.38,12.91C1113.87,467.18,1113.14,467.23,1112.4,467.31Z" transform="translate(0 -0.03)"/><path class="cls-4" d="M1118,524.62a19.47,19.47,0,0,1-18.51-27.76,14.58,14.58,0,0,1,3.91,3.92c1.39,2.09,2.23,4.51,3.86,6.43,3,3.57,8.21,4.73,12.9,4.52s9.23-1.55,13.91-2c.65-.06,1.31-.1,2-.12A19.48,19.48,0,0,1,1118,524.62Z" transform="translate(0 -0.03)"/><path class="cls-4" d="M1070.71,556.05a19.46,19.46,0,0,1-20.35-18.53h0a19.19,19.19,0,0,1,1.68-8.87,15.79,15.79,0,0,1,4.11,4c1.51,2.13,2.46,4.59,4.23,6.56,3.28,3.65,8.8,4.94,13.77,4.82,4.82-.1,9.46-1.28,14.25-1.65A19.46,19.46,0,0,1,1070.71,556.05Z" transform="translate(0 -0.03)"/><path class="cls-4" d="M1080.32,593.86A19.46,19.46,0,0,1,1044.84,578a19.61,19.61,0,0,1,4.27,3.81c1.85,2.26,3.07,4.82,5.21,6.92,4,3.9,10.4,5.51,16.12,5.66A81.54,81.54,0,0,0,1080.32,593.86Z" transform="translate(0 -0.03)"/><path class="cls-6" d="M109.93,618.32c-4.12-7.64.56-17,5.94-23.82s11.94-13.9,11.8-22.59c-.2-12.47-13.44-19.84-24-26.46a117.41,117.41,0,0,1-21.58-17.34,31.73,31.73,0,0,1-6.63-8.88c-2.19-4.88-2.12-10.43-2-15.77q.69-26.71,2.64-53.36" transform="translate(0 -0.03)"/><path class="cls-3" d="M56,449.12a19.45,19.45,0,0,1,9.71-15.94l4.36,8.62-.13-10.44A19.46,19.46,0,1,1,56,449.12Z" transform="translate(0 -0.03)"/><path class="cls-3" d="M90.68,580.86a19.45,19.45,0,1,0-.94-15.67l12.16,9.89L88.5,572A19.41,19.41,0,0,0,90.68,580.86Z" transform="translate(0 -0.03)"/><path class="cls-3" d="M100.29,543.05a19.46,19.46,0,0,0,20.35-18.53h0a19.19,19.19,0,0,0-1.68-8.87,19.51,19.51,0,0,0-12.46-10.79l.11,8-4.41-8.72h0A19.46,19.46,0,1,0,100.38,543Z" transform="translate(0 -0.03)"/><path class="cls-3" d="M53.05,511.62a19.47,19.47,0,1,0,2.58-38.85l-.76,0A19.28,19.28,0,0,0,44.5,475.2l3.44,9.42-7.13-6.76a19.42,19.42,0,0,0-6.31,13.4,19,19,0,0,0,.5,5.36A19.47,19.47,0,0,0,53.05,511.62Z" transform="translate(0 -0.03)"/><path class="cls-4" d="M58.6,454.31c4.49.49,8.85,1.89,13.36,2.17s9.46-.8,12.31-4.31c1.54-1.88,2.3-4.27,3.6-6.33a13.79,13.79,0,0,1,4.9-4.61,19.46,19.46,0,1,1-36.38,12.91C57.13,454.18,57.86,454.23,58.6,454.31Z" transform="translate(0 -0.03)"/><path class="cls-4" d="M53.05,511.62a19.47,19.47,0,0,0,18.51-27.76,14.58,14.58,0,0,0-3.91,3.92c-1.39,2.09-2.23,4.51-3.86,6.43-3,3.57-8.21,4.73-12.9,4.52s-9.23-1.55-13.91-2c-.65-.06-1.31-.1-2-.12A19.48,19.48,0,0,0,53.05,511.62Z" transform="translate(0 -0.03)"/><path class="cls-4" d="M100.29,543.05a19.46,19.46,0,0,0,20.35-18.53h0a19.19,19.19,0,0,0-1.68-8.87,15.79,15.79,0,0,0-4.11,4c-1.51,2.13-2.46,4.59-4.23,6.56-3.28,3.65-8.8,4.94-13.77,4.82-4.82-.1-9.46-1.28-14.25-1.65A19.46,19.46,0,0,0,100.29,543.05Z" transform="translate(0 -0.03)"/><path class="cls-4" d="M90.68,580.86A19.46,19.46,0,0,0,126.16,565a19.61,19.61,0,0,0-4.27,3.81c-1.85,2.26-3.07,4.82-5.21,6.92-4,3.9-10.4,5.51-16.12,5.66A81.54,81.54,0,0,1,90.68,580.86Z" transform="translate(0 -0.03)"/><path class="cls-3" d="M313.8,589.21l13.32-7.83a31.94,31.94,0,0,0-6.81-8.15L295.19,581l19.68-11.57a32,32,0,0,0-47.37,28.07c0,17.67,14.33,18.28,32,18.28s32-.61,32-18.28a31.81,31.81,0,0,0-2.75-13Z" transform="translate(0 -0.03)"/><path class="cls-4" d="M317.19,606.39a24.91,24.91,0,0,0-4.72-3.71c-2.41-1.61-4.92-3.25-7.77-3.79-2.5-.48-5.08-.07-7.63-.22a17.81,17.81,0,0,1-11.69-5.36c-1.82-1.88-3.25-4.19-5.44-5.63a12,12,0,0,0-8.14-1.49,19.79,19.79,0,0,0-2.41.49,32.15,32.15,0,0,0-1.89,10.86c0,17.67,14.33,18.28,32,18.28,8.58,0,16.36-.14,22.11-2.31l-1-1.79A24.82,24.82,0,0,0,317.19,606.39Z" transform="translate(0 -0.03)"/><path class="cls-7" d="M493.29,261.15c-4.15,4.2-5.94,11.32-9.12,16.81l4.95,3.21c4.95-6.32,11-10.14,11.42-12.54C500.69,267.79,494.67,259.75,493.29,261.15Z" transform="translate(0 -0.03)"/><path class="cls-7" d="M498.29,270.69c1.76-1.85,4.5-3.57,3.91-4.51-.94-1.47-2.08-.17-4.67,1.62C494,270.24,498.29,270.69,498.29,270.69Z" transform="translate(0 -0.03)"/><path class="cls-7" d="M494.78,264c1.51-2.13,6.87-8.23,6-9.22-1.48-1.76-7.19,5.21-8.62,7.55C490,266,494.78,264,494.78,264Z" transform="translate(0 -0.03)"/><path class="cls-7" d="M492.64,266.63c-3.66,0,.9-10.71-1.77-9.73-2.16.79-3.11,10.39-4,15.89C487.44,277,492.64,266.63,492.64,266.63Z" transform="translate(0 -0.03)"/><path class="cls-7" d="M497.73,266.46c1.75-1.88,5.38-5.43,4.75-6.42-1-1.63-4.6,2.16-6.6,4C492.77,266.93,497.73,266.46,497.73,266.46Z" transform="translate(0 -0.03)"/><path class="cls-7" d="M452,512.78c-2.9.41-7.44,22.75-7.86,38.19s33.71,78,33.71,78l4.76-3.28C475.45,613.52,454.86,512.38,452,512.78Z" transform="translate(0 -0.03)"/><path class="cls-8" d="M477.42,611c-9-31.46-23.1-98.51-25.46-98.18-2.9.41-7.44,22.75-7.86,38.19-.32,11.89,19.86,51.76,29.14,69.44A43.63,43.63,0,0,1,477.42,611Z" transform="translate(0 -0.03)"/><path class="cls-9" d="M474.3,635.45h30.61s-19.44-14.62-26.46-10.36C474,627.79,474.3,635.45,474.3,635.45Z" transform="translate(0 -0.03)"/><path class="cls-9" d="M365,635.45h21.92s-4.14-11.78-12.69-11C369,625,365,635.45,365,635.45Z" transform="translate(0 -0.03)"/><path class="cls-10" d="M456.41,327.45c-11.71,2.83-54.87-66.94-44.25-86.4,6.21-11.38,17.23,22,31.29,40.26S475.28,322.9,456.41,327.45Z" transform="translate(0 -0.03)"/><path class="cls-11" d="M460.81,311.34c-6.64,1.74-15.66-1.8-19.81-17.65A59.49,59.49,0,0,1,439,274.85c-11.91-18.58-21.26-43.94-26.79-33.8-10.62,19.46,32.13,91.37,43.85,88.54,7.22-1.74,9.12-6.56,7.94-12.86C463,318,462.14,311,460.81,311.34Z" transform="translate(0 -0.03)"/><path class="cls-10" d="M370,242.26c-13.24,5.69-19.44,5.69-17,19.5s29,33.71,29,84.49c0,15.43-27.31,17.06-35.58,73.11-3.86,26.18,1.24,171.41,12,208.37,0,0,68.25,7.72,123.26-29.65,0,0-58.74-222.18-28.54-305,0,0-19.44-57.68-45.5-54S370,242.26,370,242.26Z" transform="translate(0 -0.03)"/><path class="cls-11" d="M435.76,257.14l-30.1,11.43,1.1,10.11C440.59,272.08,436.64,258.9,435.76,257.14Z" transform="translate(0 -0.03)"/><path class="cls-11" d="M352.52,255.88c0,10.49,18,28.26,11.61,29.24C372,298.61,382,317.06,382,346.25c0,15.43-27.31,17.06-35.58,73.11-3.86,26.18,1.24,171.41,12,208.37,0,0,26.21,3,59.23-3.67-12-45.87-22.08-121.34-21.41-184.11.6-57.25,9.36-103.42,50.25-117.24,1.33-10.7,4.46-21.29,6.65-29.67-20.56,6.23-38.37,8-57.78-2.06-11.85-6.17-10.14-54.32-33.62-45.26C359.86,246.43,352.26,249,352.52,255.88Z" transform="translate(0 -0.03)"/><path class="cls-12" d="M364.13,285.12C372,298.61,382,317.06,382,346.25c0,6-4.09,9.88-9.58,15.66,27.48-2.38,46.45-34,66.82-65.26-43.78,13.28-48.52-62.11-77.5-50.93-1.85.71-9.45,3.29-9.19,10.16C352.48,266.37,370.48,284.14,364.13,285.12Z" transform="translate(0 -0.03)"/><path class="cls-13" d="M422.5,299.94c-1.65-8.12-9.93-34.12-32.26-51.18l-25.41-3.55c20.81,18.46,32,54.73,35.33,67.73S424.15,308.07,422.5,299.94Z" transform="translate(0 -0.03)"/><path class="cls-14" d="M397.92,293.2c-1.51-12.78,3.94-18.94,11.25-19.8a14.24,14.24,0,0,1,2.52-.06,85.57,85.57,0,0,0-21.45-24.58l-30.32-4.24c20.8,18.46,36.93,55.42,40.24,68.42,1.59,6.23,7.17,5.36,12.37,1.87C405.71,314.43,399.33,305.19,397.92,293.2Z" transform="translate(0 -0.03)"/><path class="cls-13" d="M359.92,244.52c.31,2.92,6.18,7.13,24.11,20.08,19.35,14,56.37,3,51.87-8.77-3.69-9.68-20.88-16.61-15.65-39.15,4.74-20.42-55.18-26.83-54.72-23C370.26,232.9,358.85,234.59,359.92,244.52Z" transform="translate(0 -0.03)"/><path class="cls-14" d="M387.6,249.87c-8.24-20.53-4.7-42.1,7.44-53.64-14.5-3.8-31.14-4.52-30.91-2.59,4.73,39.23-5.28,41-4.21,50.88.31,2.92,5.84,8.9,23.76,21.85,5,3.62,11.54,3.78,17.89,4.48A59.91,59.91,0,0,1,387.6,249.87Z" transform="translate(0 -0.03)"/><path class="cls-13" d="M423.93,152.17c-11.5-13.24-45.57-12.83-57.91,9.34s.41,52.67,7,64.58c4.35,7.82,40.36,15.78,48.4,6.52C429.75,223,436.78,167,423.93,152.17Z" transform="translate(0 -0.03)"/><path class="cls-14" d="M382.31,171.49a79.53,79.53,0,0,1-.68-24.18A33.9,33.9,0,0,0,366,161.51c-12.35,22.17,1.16,56.77,7.78,68.68,4.34,7.82,35.76,22,43.8,12.75,1.79-2.07,8.18-24.94,9.66-30.47C407.59,213.27,387.51,200.46,382.31,171.49Z" transform="translate(0 -0.03)"/><polygon class="cls-15" points="411.81 247.01 398.41 223.06 423.01 211.64 411.81 247.01"/><path class="cls-7" d="M408.51,227.7c-13.47-1-26.61-13.41-22.82-37.27s13.73-30.19,26.27-28.56,19.68,7.58,14.86,31.85C426.24,205.43,419.94,222.57,408.51,227.7Z" transform="translate(0 -0.03)"/><path class="cls-16" d="M407.2,177.37c-5.17-.7-10.88-.88-16.94,5.18,0,0,.27-4.77,6.49-6.82A11.11,11.11,0,0,1,407.2,177.37Z" transform="translate(0 -0.03)"/><path class="cls-16" d="M415.63,178.72c4.12-.55,8.2-.53,11.25,5.89,0,0,.58-5-3.2-7.16S415.63,178.72,415.63,178.72Z" transform="translate(0 -0.03)"/><path class="cls-17" d="M410.74,198.72l-.09.67c1.73,1.36,3.1,2.79,3.09,3.82,0,1.9-2.41,2.46-3.85,2.62l0,.21s4.9,0,4.95-2.71C414.84,202.11,412.9,200.31,410.74,198.72Z" transform="translate(0 -0.03)"/><path class="cls-18" d="M413.36,188.62c3.62-1.27,7.63-2.26,12.34.83,0,0-.53-3.14-5.06-3.54A9.15,9.15,0,0,0,413.36,188.62Z" transform="translate(0 -0.03)"/><path class="cls-18" d="M424.14,191.88a4.52,4.52,0,0,0-3.19-5.39,4.25,4.25,0,0,0-5,3.46,4.55,4.55,0,0,0,3.21,5.39A4.22,4.22,0,0,0,424.14,191.88Z" transform="translate(0 -0.03)"/><path class="cls-18" d="M392.47,188.93c3.44-1.61,7.35-3,12.57-.29,0,0-1-3.11-5.65-3.1A8.66,8.66,0,0,0,392.47,188.93Z" transform="translate(0 -0.03)"/><path class="cls-18" d="M403.85,191.22a4.93,4.93,0,0,0-4.07-5.13,4,4,0,0,0-4.53,4,5,5,0,0,0,4.07,5.11A4,4,0,0,0,403.85,191.22Z" transform="translate(0 -0.03)"/><path class="cls-19" d="M414.31,211.47l-12.48-2s-.52,9.38,4.79,9.82S414.31,211.47,414.31,211.47Z" transform="translate(0 -0.03)"/><path class="cls-20" d="M403.21,214.2a17.32,17.32,0,0,1-.39-4.2l10.49,1.67a15.44,15.44,0,0,1-1.74,3.73Z" transform="translate(0 -0.03)"/><path class="cls-13" d="M405,155.56s-62.12,26.59-20,78.56L418.68,259C401,222,370.72,183.49,405,155.56Z" transform="translate(0 -0.03)"/><path class="cls-13" d="M410.81,151.22s43.54-2,12.11,97.54l-12.1,4.74C414.48,224.05,444.42,169.15,410.81,151.22Z" transform="translate(0 -0.03)"/><path class="cls-10" d="M398.29,341.71c-11.61,2.45-55.87-70.74-44.75-90.29,6.41-11.25,20.07,25.25,34,44.4C401.25,314.67,419.33,337.27,398.29,341.71Z" transform="translate(0 -0.03)"/><path class="cls-11" d="M406.37,327.81a4.23,4.23,0,0,1-2.54,3.17c-6.3,2.18-20.78-12.64-32.4-33.35-11.77-21-16-39.68-9.34-41.56a4.76,4.76,0,0,1,1.7-.08c-4.23-6.13-7.78-8.9-10.25-4.57-11.12,19.55,32,94.45,43.66,92C406.72,341.38,408.49,335.43,406.37,327.81Z" transform="translate(0 -0.03)"/><path class="cls-10" d="M486.71,272.5c-4.63,2.94-34.8,34.89-36,41.22-1.24,6.5-1.72,15.87,5.72,15.87,9.59,0,35.16-42.65,37.64-51.58l.05-.22Z" transform="translate(0 -0.03)"/><path class="cls-11" d="M475.75,289.87a17.06,17.06,0,0,0,14-1.65l-12-4.55Z" transform="translate(0 -0.03)"/><path class="cls-11" d="M470.3,298.67c8.79-12.15,15.86-22.48,20.91-22.95l-4.5-3.22c-4.63,2.94-36.94,35.32-38.15,41.66-1.24,6.5.42,15.43,7.86,15.43a4.87,4.87,0,0,0,1.91-.46C455.2,325.68,460.37,312.38,470.3,298.67Z" transform="translate(0 -0.03)"/><path class="cls-21" d="M490,288.36l4.8-10.93-8.42-7.34-10.8,10.45S478.93,290.91,490,288.36Z" transform="translate(0 -0.03)"/><path class="cls-22" d="M443.87,284.64a3,3,0,0,1-2.86-4.4L464.57,234a5.2,5.2,0,0,1,4.36-2.83L507,229.21a4.15,4.15,0,0,1,3.95,5.92l-21,44.13a5.78,5.78,0,0,1-4.92,3.28Z" transform="translate(0 -0.03)"/><path class="cls-23" d="M466.15,232.16a5.22,5.22,0,0,0-1.58,1.81L441,280.24a3,3,0,0,0,2.86,4.4l41.17-2.1a5.76,5.76,0,0,0,4.92-3.28l14.7-30.94Z" transform="translate(0 -0.03)"/><path class="cls-24" d="M445.48,286a3,3,0,0,1-2.86-4.4l23.56-46.27a5.19,5.19,0,0,1,4.36-2.83l38-1.93a4.13,4.13,0,0,1,3.95,5.91l-21,44.13a5.77,5.77,0,0,1-4.92,3.29Z" transform="translate(0 -0.03)"/><path class="cls-25" d="M512.25,232.36a4.15,4.15,0,0,0-3.65-1.83l-38.06,1.93a5.19,5.19,0,0,0-1.61.38,38.36,38.36,0,0,1,34.55,22.68l9.07-19.07A4.18,4.18,0,0,0,512.25,232.36Z" transform="translate(0 -0.03)"/><path class="cls-14" d="M384.15,206c-3.44-14.58-5.37-31.93,4-45.12-25.42,23.62-25.64,56.56,14.43,82.4C395.68,233.41,387.54,220.38,384.15,206Z" transform="translate(0 -0.03)"/><path class="cls-14" d="M388.74,243.54S408.16,253.12,420,251c0,0-5.36,5-16.55,2.19S388.74,243.54,388.74,243.54Z" transform="translate(0 -0.03)"/><path class="cls-10" d="M439.86,276.54a3.07,3.07,0,0,0-.31.17c-3.41,1.92-47.41,44.47-48.52,51.06s-.16,13.89,6.64,13.89c8.73,0,44.44-46.31,49.14-58.48Z" transform="translate(0 -0.03)"/><path class="cls-11" d="M437,297a17,17,0,0,1-7.58-11.86l11.09,6.37Z" transform="translate(0 -0.03)"/><path class="cls-11" d="M429.73,303c-15.67,16.45-31.92,26.39-36.74,23-.3-.21-3.48-2.18-3.67-2.49-1.05,1.76-1,19.9,8.88,19.9,8.28,0,40.39-43.13,47.65-58l-.78-1.6A128,128,0,0,1,429.73,303Z" transform="translate(0 -0.03)"/><path class="cls-11" d="M468.94,605.84,439.27,525s6.16,59.1,3.3,92.06C442.57,617.05,453.12,615.07,468.94,605.84Z" transform="translate(0 -0.03)"/><path class="cls-10" d="M424.61,335.89C365.63,394.75,387,488.81,387,488.81c5.62-56.06,26.7-91.47,26.7-91.47Z" transform="translate(0 -0.03)"/><path class="cls-12" d="M375.41,273.55s-22.26-26.81-17,13.18c0,0-14.22-29.21-2.64-37.79C363.69,243.08,375.41,273.55,375.41,273.55Z" transform="translate(0 -0.03)"/><path class="cls-14" d="M372.92,154,378,169.84c.59-7.18,6.89-24.17,32.23-25.19C410.27,144.65,389,137.18,372.92,154Z" transform="translate(0 -0.03)"/><path class="cls-7" d="M450.12,266.16c-4.83,3.38-7.88,10.06-12,14.89l4.3,4.05c6-5.33,12.6-8,13.49-10.29C456.2,274,451.73,265,450.12,266.16Z" transform="translate(0 -0.03)"/><path class="cls-7" d="M453.68,276.82c2.08-1.5,8.42-3.94,8-5-.66-1.62-5.37.7-8.23,2C449.59,275.61,453.68,276.82,453.68,276.82Z" transform="translate(0 -0.03)"/><path class="cls-7" d="M451.07,269.25c1.86-1.83,8.24-6.87,7.59-8-1.15-2-8,3.83-9.85,5.87C446,270.29,451.07,269.25,451.07,269.25Z" transform="translate(0 -0.03)"/><path class="cls-7" d="M448.5,271.43c-3.6-.68,2.81-10.37,0-9.89-2.26.39-4.92,9.66-6.82,14.9C441.52,280.66,448.5,271.43,448.5,271.43Z" transform="translate(0 -0.03)"/><path class="cls-7" d="M453.53,272.17c2.06-1.53,9.12-6.14,8.68-7.23-.7-1.79-7.76,3.07-10.06,4.53C448.57,271.75,453.53,272.17,453.53,272.17Z" transform="translate(0 -0.03)"/><path class="cls-21" d="M442.46,293.18,447.62,283l-7.69-7.47-10.87,9.45S431.7,295.05,442.46,293.18Z" transform="translate(0 -0.03)"/><path class="cls-23" d="M484.94,256.7c.93-2.44-.12-4.42-2.36-4.42s-4.8,2-5.73,4.42.12,4.43,2.35,4.43S484,259.14,484.94,256.7Z" transform="translate(0 -0.03)"/><path class="cls-22" d="M484.25,249.53a8.59,8.59,0,0,0-5.72,2.69,7.69,7.69,0,0,1,4.18-1.46c3.16,0,4.64,2.8,3.33,6.25a10.34,10.34,0,0,1-2.39,3.56,10.49,10.49,0,0,0,3.92-4.79C488.89,252.32,487.4,249.53,484.25,249.53Z" transform="translate(0 -0.03)"/><polygon class="cls-11" points="407.46 307.63 398.96 318.86 393.75 304.31 399.96 312.64 407.46 307.63"/><path class="cls-7" d="M502.12,265.86c0-.77-1.35-1.39-3-1.39s-3,.62-3,1.39,1.35,1.39,3,1.39S502.12,266.63,502.12,265.86Z" transform="translate(0 -0.03)"/><path class="cls-7" d="M502.84,260.44c0-.77-1.34-1.39-3-1.39s-3,.62-3,1.39,1.33,1.39,3,1.39S502.84,261.21,502.84,260.44Z" transform="translate(0 -0.03)"/></svg>