<svg xmlns="http://www.w3.org/2000/svg" viewBox="0 0 949.39 703.75"><defs><style>.cls-1,.cls-10,.cls-6,.cls-8{isolation:isolate;}.cls-2{fill:#f2f2f2;}.cls-3{fill:#3f3d56;}.cls-4{fill:none;stroke:#3f3d56;stroke-miterlimit:10;stroke-width:4px;}.cls-5{fill:#57b793;}.cls-6{opacity:0.1;}.cls-7{fill:#656380;}.cls-8{opacity:0.2;}.cls-9{fill:#63c3ff;}.cls-10{opacity:0.05;}.cls-11{fill:#f2a668;}.cls-12{fill:#ffb878;}.cls-13{fill:#cfd8dc;}.cls-14{fill:#c17840;}.cls-15{fill:#fff4d7;}.cls-16{fill:#ef5050;}.cls-17{fill:#bc5642;opacity:0.5;mix-blend-mode:multiply;}.cls-18{fill:#fff9de;}.cls-19{fill:#ff9a6e;}.cls-20{fill:#ead8b0;}.cls-21{fill:#eae6ca;}.cls-22{fill:#d6c49a;}.cls-23{fill:#e5dbbd;}.cls-24{fill:#ffaf73;}.cls-25{fill:#f4ad7d;}.cls-26{fill:#ffcd9c;}.cls-27{fill:#db6a4b;}.cls-28{fill:#512c27;}.cls-29{fill:#492622;}.cls-30{fill:#301a12;}.cls-31{fill:#fff2ee;}.cls-32{fill:#512f2f;}.cls-33{fill:#5b362a;}</style></defs><g class="cls-1"><g id="ab82d996-d758-4a94-9ad9-9e4bd5f70489"><path class="cls-2" d="M683.32,417.43l7.47-4.61c.71-.45,1.41-.93,2.13-1.38a71.36,71.36,0,0,1-59.18-67,70.56,70.56,0,0,1,6.16-32.5,71.46,71.46,0,0,1,45.81-39.52l-.37,29.4,16.15-32h.2a71.34,71.34,0,0,1,74.59,67.93h0c.06,1.36,0,2.7,0,4,5.62-6.41,10.72-13.28,14.1-20.81,6.84-15.25,7-32.52,6.43-53.51-1.08-41.6-2.87-83.51-5.21-125.3a71.31,71.31,0,0,1-63.35-67.49c-.1-2.19-.07-4.34,0-6.48a10.72,10.72,0,0,1,.08-1.6c.14-2.07.33-4.12.65-6.14a5.84,5.84,0,0,1,.18-1c.29-1.71.64-3.41,1.05-5.08.16-.62.31-1.25.48-1.87a54,54,0,0,1,1.69-5.38c.21-.59.46-1.16.68-1.74.51-1.3,1.06-2.58,1.64-3.85.31-.67.61-1.33.94-2,.08-.17.15-.34.24-.51h0A71.28,71.28,0,0,1,819.64,2.82l-.48,38.26,16-31.6a70.91,70.91,0,0,1,34,76.87h.08c-.11.51-.27,1-.39,1.5-.22.94-.46,1.87-.72,2.8-.34,1.19-.72,2.36-1.11,3.53-.3.87-.59,1.76-.92,2.62-.48,1.26-1,2.49-1.58,3.72-.32.72-.61,1.45-1,2.16q-1.37,2.76-3,5.4c-.37.61-.79,1.19-1.18,1.8-.76,1.18-1.53,2.35-2.36,3.49-.51.7-1.06,1.37-1.6,2.06-.78,1-1.58,2-2.41,2.91-.59.67-1.19,1.33-1.81,2-.87.92-1.77,1.81-2.7,2.69-.61.59-1.23,1.18-1.87,1.74-1.05.93-2.15,1.82-3.26,2.69-.56.44-1.1.9-1.68,1.32q-2.53,1.88-5.23,3.53c-.34.2-.7.37-1,.57-1.5.89-3,1.72-4.61,2.5-.67.33-1.37.62-2.06.93-1.29.58-2.59,1.14-3.92,1.65-.77.29-1.56.56-2.35.83-1.31.45-2.64.86-4,1.23-.8.22-1.59.44-2.4.63-1.46.35-3,.64-4.45.89a.51.51,0,0,0-.29.06Q812.83,168,814,194.51a71.3,71.3,0,0,1,95.32-32.88c1.25.61,2.47,1.25,3.68,1.93l-12.61,34.55L926.3,173.2a71.11,71.11,0,0,1,23,49.26,69.85,69.85,0,0,1-1.81,19.65,71.31,71.31,0,0,1-131.17,19.43c0,1.79.13,3.59.18,5.38.47,18.52,1.06,41.56-8.17,62.14C802.08,343,792,354.34,782.06,364.49c-6.47,6.61-13.18,13-20.06,19.19a71.26,71.26,0,0,1-25.76,21.42q-16.95,13.06-35.1,24.46l-7.35,4.74c-6.79,4.21-13.75,8.53-20.58,13,1.2-.12,2.39-.25,3.61-.3a71.38,71.38,0,0,1,70.24,46.43l-44.58,36.29,49-11.37A71.37,71.37,0,0,1,649.2,582.6c1.1,1.38,2.21,2.75,3.31,4.12,2.19,2.73,4.37,5.44,6.5,8.13,29,36.73,37.08,71.61,22.71,98.2l-17.46-9.44c14-25.88-7-59-20.83-76.46-2.09-2.64-4.23-5.3-6.39-8-18.53-23-39.53-49.12-39-81.13C598.79,469.82,645.68,440.75,683.32,417.43Z" transform="translate(0 0.1)"/><ellipse class="cls-3" cx="455.5" cy="682.75" rx="455.5" ry="21"/><path class="cls-4" d="M823.49,674.82c3-5.51-.4-12.26-4.28-17.18s-8.61-10-8.51-16.29c.14-9,9.69-14.31,17.33-19.08a84.38,84.38,0,0,0,15.55-12.51,22.79,22.79,0,0,0,4.79-6.4c1.57-3.52,1.53-7.52,1.43-11.38q-.49-19.26-1.9-38.48" transform="translate(0 0.1)"/><path class="cls-5" d="M862.41,552.82a14.06,14.06,0,0,0-7-11.5l-3.14,6.22.09-7.52a14,14,0,1,0,10,12.8h0Z" transform="translate(0 0.1)"/><path class="cls-5" d="M837.38,647.82a14,14,0,1,1,.67-11.3l-8.76,7.13,9.64-2.24A14,14,0,0,1,837.38,647.82Z" transform="translate(0 0.1)"/><path class="cls-5" d="M830.45,620.53a14,14,0,0,1-14.66-13.31v-.06a13.76,13.76,0,0,1,1.21-6.39,14,14,0,0,1,9-7.78l-.07,5.79,3.18-6.3h0a14,14,0,0,1,1.31,28Z" transform="translate(0 0.1)"/><path class="cls-5" d="M864.52,597.82a14,14,0,1,1,6.2-26.22l-2.48,6.8,5.1-4.9a14,14,0,0,1-8.82,24.32Z" transform="translate(0 0.1)"/><path class="cls-6" d="M860.52,556.52c-3.24.36-6.39,1.37-9.64,1.57s-6.82-.58-8.88-3.11c-1.11-1.36-1.66-3.08-2.6-4.56a10.05,10.05,0,0,0-3.53-3.33,14,14,0,1,0,25.26,12.08,14.16,14.16,0,0,0,1-2.76C861.57,556.43,861,556.47,860.52,556.52Z" transform="translate(0 0.1)"/><path class="cls-6" d="M864.52,597.82a14,14,0,0,1-13.35-20,10.4,10.4,0,0,1,2.82,2.83c1,1.51,1.6,3.25,2.78,4.64,2.18,2.57,5.92,3.41,9.31,3.25s6.65-1.11,10-1.42c.46,0,.94-.08,1.41-.09A14,14,0,0,1,864.52,597.82Z" transform="translate(0 0.1)"/><path class="cls-6" d="M830.45,620.53a14,14,0,0,1-14.66-13.31v-.06a13.76,13.76,0,0,1,1.21-6.39,11.62,11.62,0,0,1,3,2.85c1.09,1.54,1.77,3.31,3,4.73,2.37,2.64,6.35,3.57,9.94,3.48s6.82-.93,10.28-1.19A14.06,14.06,0,0,1,830.45,620.53Z" transform="translate(0 0.1)"/><path class="cls-6" d="M837.38,647.82a14,14,0,1,1-25.59-11.5,14.66,14.66,0,0,1,3.08,2.75c1.33,1.63,2.21,3.47,3.76,5,2.87,2.81,7.5,4,11.62,4.08A60.67,60.67,0,0,0,837.38,647.82Z" transform="translate(0 0.1)"/><path class="cls-7" d="M802.33,668.47s11.07-.34,14.41-2.72,17-5.22,17.87-1.4,16.65,19,4.14,19.06-29.06-2-32.39-4S802.33,668.47,802.33,668.47Z" transform="translate(0 0.1)"/><path class="cls-8" d="M839,682.08c-12.5.1-29.06-2-32.39-4-2.53-1.54-3.55-7.09-3.88-9.65h-.37s.7,8.93,4,11,19.88,4.08,32.39,4c3.61,0,4.86-1.32,4.79-3.22C843,681.34,841.66,682.06,839,682.08Z" transform="translate(0 0.1)"/><path class="cls-4" d="M194.41,644c-7.26-13.44,1-29.9,10.44-41.88s21-24.44,20.75-39.71c-.36-21.94-23.64-34.89-42.24-46.52a206.62,206.62,0,0,1-37.93-30.49c-4.57-4.67-9-9.65-11.66-15.61-3.84-8.58-3.74-18.33-3.49-27.73q1.2-47,4.64-93.82" transform="translate(0 0.1)"/><path class="cls-5" d="M99.55,346.5a34.22,34.22,0,0,1,17.08-28l7.66,15.15-.23-18.34a34.22,34.22,0,1,1-24.51,31.22Z" transform="translate(0 0.1)"/><path class="cls-5" d="M160.57,578.06a34.2,34.2,0,0,0,64.59-14,33.73,33.73,0,0,0-2.23-13.88,34.22,34.22,0,0,0-64,.37l21.37,17.38-23.51-5.47A33.86,33.86,0,0,0,160.57,578.06Z" transform="translate(0 0.1)"/><path class="cls-5" d="M177.46,511.64a34.22,34.22,0,0,0,10.85-67.12l.18,14.09-7.7-15.33h-.09a34.22,34.22,0,0,0-3.19,68.37h0Z" transform="translate(0 0.1)"/><path class="cls-5" d="M94.4,456.37a34.22,34.22,0,1,0-15.12-64l6,16.57L72.89,397a34.08,34.08,0,0,0-11.1,23.62,33.15,33.15,0,0,0,.87,9.42A34.2,34.2,0,0,0,94.4,456.37Z" transform="translate(0 0.1)"/><path class="cls-6" d="M104.15,355.62c7.9.87,15.58,3.32,23.5,3.81s16.63-1.4,21.64-7.56c2.7-3.32,4.05-7.52,6.33-11.14a24.28,24.28,0,0,1,8.62-8.11,34.22,34.22,0,1,1-64,22.71C101.57,355.39,102.87,355.48,104.15,355.62Z" transform="translate(0 0.1)"/><path class="cls-6" d="M94.4,456.37A34.24,34.24,0,0,0,127,407.57a25.31,25.31,0,0,0-6.88,6.88c-2.44,3.68-3.91,7.93-6.78,11.31C108,432,98.86,434.07,90.6,433.7S74.37,431,66.15,430.22c-1.14-.1-2.3-.18-3.45-.21A34.21,34.21,0,0,0,94.4,456.37Z" transform="translate(0 0.1)"/><path class="cls-6" d="M177.46,511.64a34.21,34.21,0,0,0,32.82-48.17,27.51,27.51,0,0,0-7.23,7c-2.66,3.75-4.32,8.07-7.43,11.53-5.77,6.43-15.47,8.7-24.22,8.49-8.47-.18-16.63-2.26-25.05-2.91A34.24,34.24,0,0,0,177.46,511.64Z" transform="translate(0 0.1)"/><path class="cls-6" d="M160.57,578.06a34.2,34.2,0,0,0,64.59-14,33.73,33.73,0,0,0-2.23-13.88,34.14,34.14,0,0,0-7.5,6.69c-3.25,4-5.4,8.46-9.16,12.16-7,6.86-18.29,9.7-28.34,10A145.93,145.93,0,0,1,160.57,578.06Z" transform="translate(0 0.1)"/><polygon class="cls-9" points="431.22 664.05 299.22 691.05 296.22 690.75 180.22 679.05 180.22 532.05 322.22 508.05 425.22 520.05 425.25 520.7 425.26 521.02 431.22 664.05"/><polygon class="cls-6" points="431.22 664.05 299.22 691.05 296.22 690.75 296.22 540.05 425.25 520.7 431.22 664.05"/><polygon class="cls-10" points="425.26 521.02 425.22 521.05 296.22 540.05 180.22 532.05 322.22 508.05 425.22 520.05 425.25 520.7 425.26 521.02"/><polygon class="cls-3" points="576.22 670.05 444.22 697.05 441.22 696.75 325.22 685.05 325.22 538.05 467.22 514.05 570.22 526.05 570.25 526.7 570.26 527.02 576.22 670.05"/><polygon class="cls-6" points="576.22 670.05 444.22 697.05 441.22 696.75 441.22 546.05 570.25 526.7 576.22 670.05"/><polygon class="cls-10" points="570.26 527.02 570.22 527.05 441.22 546.05 325.22 538.05 467.22 514.05 570.22 526.05 570.25 526.7 570.26 527.02"/><polygon class="cls-3" points="485.22 526.05 353.22 553.05 350.22 552.75 234.22 541.05 234.22 394.05 376.22 370.05 479.22 382.05 479.25 382.7 479.26 383.02 485.22 526.05"/><polygon class="cls-6" points="485.22 526.05 353.22 553.05 350.22 552.75 350.22 402.05 479.25 382.7 485.22 526.05"/><polygon class="cls-10" points="479.26 383.02 479.22 383.05 350.22 402.05 234.22 394.05 376.22 370.05 479.22 382.05 479.25 382.7 479.26 383.02"/><polygon class="cls-3" points="560.22 532.21 491.33 546.31 489.76 546.15 429.22 540.04 429.22 463.32 503.33 450.79 557.09 457.06 557.11 457.4 557.11 457.56 560.22 532.21"/><polygon class="cls-6" points="560.22 532.21 491.33 546.31 489.76 546.15 489.76 467.5 557.11 457.4 560.22 532.21"/><polygon class="cls-10" points="557.11 457.56 557.09 457.58 489.76 467.5 429.22 463.32 503.33 450.79 557.09 457.06 557.11 457.4 557.11 457.56"/><polygon class="cls-3" points="375.22 383.21 306.33 397.3 304.76 397.15 244.22 391.04 244.22 314.32 318.33 301.79 372.09 308.06 372.11 308.4 372.11 308.56 375.22 383.21"/><polygon class="cls-6" points="375.22 383.21 306.33 397.3 304.76 397.15 304.76 318.5 372.11 308.4 375.22 383.21"/><polygon class="cls-10" points="372.11 308.56 372.09 308.58 304.76 318.5 244.22 314.32 318.33 301.79 372.09 308.06 372.11 308.4 372.11 308.56"/><polygon class="cls-9" points="496.22 380.21 427.33 394.3 425.76 394.15 365.22 388.04 365.22 311.32 439.33 298.79 493.09 305.06 493.11 305.4 493.11 305.56 496.22 380.21"/><polygon class="cls-6" points="496.22 380.21 427.33 394.3 425.76 394.15 425.76 315.5 493.11 305.4 496.22 380.21"/><polygon class="cls-10" points="493.11 305.56 493.09 305.58 425.76 315.5 365.22 311.32 439.33 298.79 493.09 305.06 493.11 305.4 493.11 305.56"/><polygon class="cls-3" points="532.22 303.21 463.33 317.3 461.76 317.15 401.22 311.04 401.22 234.32 475.33 221.79 529.09 228.06 529.11 228.4 529.11 228.56 532.22 303.21"/><polygon class="cls-6" points="532.22 303.21 463.33 317.3 461.76 317.15 461.76 238.5 529.11 228.4 532.22 303.21"/><polygon class="cls-10" points="529.11 228.56 529.09 228.58 461.76 238.5 401.22 234.32 475.33 221.79 529.09 228.06 529.11 228.4 529.11 228.56"/><polygon class="cls-9" points="405.22 306.21 336.33 320.3 334.76 320.15 274.22 314.04 274.22 237.32 348.33 224.79 402.09 231.06 402.11 231.4 402.11 231.56 405.22 306.21"/><polygon class="cls-6" points="405.22 306.21 336.33 320.3 334.76 320.15 334.76 241.5 402.11 231.4 405.22 306.21"/><polygon class="cls-10" points="402.11 231.56 402.09 231.58 334.76 241.5 274.22 237.32 348.33 224.79 402.09 231.06 402.11 231.4 402.11 231.56"/><polygon class="cls-3" points="441.22 230.21 372.33 244.31 370.76 244.15 310.22 238.04 310.22 161.32 384.33 148.79 438.09 155.06 438.11 155.4 438.11 155.56 441.22 230.21"/><polygon class="cls-10" points="438.11 155.56 438.09 155.58 370.76 165.5 310.22 161.32 384.33 148.79 438.09 155.06 438.11 155.4 438.11 155.56"/><polygon class="cls-11" points="677.97 677.51 677.97 581.29 734.54 576.63 789.36 581.88 789.36 678.51 677.97 677.51"/><polygon class="cls-12" points="734.54 576.63 733.67 677.51 677.97 677.51 677.97 581.29 734.54 576.63"/><polygon class="cls-13" points="741.54 670.41 741.54 658.99 762.53 660.55 762.53 669.05 741.54 670.41"/><polygon class="cls-13" points="762.53 587.12 762.53 603.45 784.7 603.45 784.7 590.62 762.53 587.12"/><polygon class="cls-14" points="712.2 578.47 712.2 591.21 698.97 591.21 698.97 579.56 712.2 578.47"/><polygon class="cls-14" points="712.2 677.82 712.2 670.41 698.97 670.41 698.97 677.51 712.2 677.82"/><path class="cls-15" d="M595.81,106.07l-70.52-.39s-39.63,99.68-11.95,110.89c29.48,11.94,78.08,3.11,94-.38C646,207.72,595.81,106.07,595.81,106.07Z" transform="translate(0 0.1)"/><path class="cls-16" d="M505.9,205.5l.21,0,.35-5.24-2.58-.17A36.8,36.8,0,0,0,505,206l.87,0Z" transform="translate(0 0.1)"/><path class="cls-16" d="M506.64,194.42l.21,0,.35-5.24-3.56-.24c-.1,2-.14,3.92-.11,5.76l3.08.21Z" transform="translate(0 0.1)"/><path class="cls-16" d="M507.38,183.33l.21,0,.35-5.23-3.18-.22c-.28,1.94-.52,3.86-.71,5.73l3.3.22Z" transform="translate(0 0.1)"/><path class="cls-16" d="M508.13,172.25h.2l.35-5.23-2-.13q-.58,2.86-1.08,5.7l2.48.16Z" transform="translate(0 0.1)"/><path class="cls-16" d="M508.87,161.16l.21,0,.35-5.24h-.25q-.71,2.83-1.35,5.68l1,.07Z" transform="translate(0 0.1)"/><path class="cls-16" d="M511.62,206.4l-.21,0,0-.51-5.33-.35-.21,0,0,.51-.14,2.11a18.87,18.87,0,0,0,1.59,3.25l3.95.26Z" transform="translate(0 0.1)"/><polygon class="cls-16" points="506.61 195.02 506.26 200.26 512.01 200.65 512.36 195.41 512.15 195.4 512.18 194.88 506.85 194.53 506.64 194.51 506.61 195.02"/><polygon class="cls-16" points="507.35 183.95 507 189.18 512.75 189.56 513.1 184.33 512.89 184.31 512.93 183.8 507.59 183.45 507.38 183.43 507.35 183.95"/><polygon class="cls-16" points="508.09 172.86 507.74 178.1 513.49 178.48 513.84 173.25 513.64 173.24 513.67 172.72 508.33 172.36 508.13 172.35 508.09 172.86"/><polygon class="cls-16" points="508.83 161.77 508.49 167.01 514.23 167.4 514.58 162.16 514.38 162.15 514.41 161.63 509.07 161.28 508.87 161.26 508.83 161.77"/><path class="cls-16" d="M515,156.22l.35-5.24h-.2l0-.52-4.45-.29c-.1.36-.21.71-.31,1.07-.4,1.49-.78,3-1.16,4.49v.11Z" transform="translate(0 0.1)"/><path class="cls-16" d="M516.07,139.9h-.21l0-.52-2.12-.14c-.55,1.85-1.11,3.74-1.65,5.67l3.59.23Z" transform="translate(0 0.1)"/><path class="cls-16" d="M516.75,129.75c-.45,1.38-.9,2.78-1.35,4.23l1.06.07Z" transform="translate(0 0.1)"/><path class="cls-16" d="M516.45,217.34l.35-5.24-5.75-.38-.23,3.46a12,12,0,0,0,2.52,1.39q1.41.57,2.88,1.08l0-.33Z" transform="translate(0 0.1)"/><polygon class="cls-16" points="511.62 206.5 516.95 206.85 516.99 206.34 517.19 206.35 517.54 201.12 511.79 200.73 511.44 205.97 511.41 206.48 511.62 206.5"/><polygon class="cls-16" points="512.36 195.41 517.69 195.77 517.73 195.25 517.93 195.27 518.28 190.04 512.54 189.66 512.18 194.88 512.15 195.4 512.36 195.41"/><polygon class="cls-16" points="513.1 184.33 518.43 184.69 518.47 184.17 518.67 184.19 519.02 178.96 513.27 178.57 512.93 183.8 512.89 184.31 513.1 184.33"/><polygon class="cls-16" points="513.84 173.25 519.18 173.61 519.21 173.09 519.42 173.1 519.77 167.87 514.02 167.48 513.67 172.72 513.64 173.24 513.84 173.25"/><polygon class="cls-16" points="514.58 162.16 519.92 162.52 519.95 162 520.16 162.02 520.51 156.78 514.76 156.4 514.41 161.63 514.38 162.15 514.58 162.16"/><polygon class="cls-16" points="515.32 151.08 520.66 151.44 520.69 150.93 520.9 150.94 521.25 145.7 515.5 145.32 515.15 150.55 515.12 151.07 515.32 151.08"/><polygon class="cls-16" points="516.07 140 521.4 140.35 521.44 139.84 521.64 139.85 521.99 134.62 516.24 134.24 515.9 139.47 515.86 139.98 516.07 140"/><path class="cls-16" d="M522.18,128.66h.21l.34-5.23-3.8-.26c-.61,1.79-1.24,3.68-1.88,5.65l5.09.34Z" transform="translate(0 0.1)"/><path class="cls-16" d="M522.92,117.57l.21,0,.35-5.24-.7,0c-.6,1.64-1.29,3.53-2,5.65l2.14.14Z" transform="translate(0 0.1)"/><path class="cls-16" d="M521.75,218.21l0-.51-5.34-.36-.21,0,0,.33c1.83.64,3.72,1.2,5.66,1.7l.08-1.12Z" transform="translate(0 0.1)"/><polygon class="cls-16" points="516.95 206.85 516.6 212.09 522.35 212.47 522.7 207.24 522.49 207.22 522.53 206.71 517.19 206.35 516.99 206.34 516.95 206.85"/><polygon class="cls-16" points="517.69 195.77 517.34 201 523.09 201.39 523.44 196.15 523.24 196.14 523.27 195.62 517.93 195.27 517.73 195.25 517.69 195.77"/><polygon class="cls-16" points="518.43 184.69 518.09 189.92 523.83 190.31 524.18 185.07 523.98 185.06 524.01 184.55 518.67 184.19 518.47 184.17 518.43 184.69"/><polygon class="cls-16" points="519.18 173.61 518.83 178.84 524.58 179.22 524.93 173.99 524.72 173.97 524.75 173.45 519.42 173.1 519.21 173.09 519.18 173.61"/><polygon class="cls-16" points="519.92 162.52 519.57 167.75 525.31 168.14 525.67 162.9 525.46 162.89 525.49 162.38 520.16 162.02 519.95 162 519.92 162.52"/><polygon class="cls-16" points="520.66 151.44 520.31 156.67 526.06 157.05 526.41 151.82 526.2 151.81 526.23 151.3 520.9 150.94 520.69 150.93 520.66 151.44"/><polygon class="cls-16" points="521.4 140.35 521.05 145.59 526.8 145.97 527.15 140.74 526.94 140.72 526.98 140.21 521.64 139.85 521.44 139.84 521.4 140.35"/><polygon class="cls-16" points="527.72 129.13 522.39 128.77 522.18 128.76 522.14 129.27 521.79 134.5 527.54 134.89 527.89 129.65 527.69 129.64 527.72 129.13"/><polygon class="cls-16" points="528.46 118.05 523.13 117.68 522.92 117.67 522.89 118.19 522.53 123.42 528.28 123.81 528.63 118.57 528.43 118.56 528.46 118.05"/><polygon class="cls-16" points="521.96 218.33 527.29 218.68 527.33 218.16 527.53 218.18 527.88 212.94 522.14 212.56 521.78 217.8 521.75 218.31 521.96 218.33"/><polygon class="cls-16" points="522.7 207.24 528.03 207.59 528.07 207.08 528.27 207.09 528.63 201.86 522.88 201.48 522.53 206.71 522.49 207.22 522.7 207.24"/><polygon class="cls-16" points="523.44 196.15 528.78 196.51 528.81 196 529.02 196 529.37 190.78 523.62 190.39 523.27 195.62 523.24 196.14 523.44 196.15"/><polygon class="cls-16" points="524.18 185.07 529.52 185.43 529.55 184.91 529.76 184.92 530.11 179.7 524.36 179.31 524.01 184.55 523.98 185.06 524.18 185.07"/><polygon class="cls-16" points="524.93 173.99 530.26 174.35 530.3 173.83 530.5 173.84 530.85 168.62 525.1 168.23 524.75 173.45 524.72 173.97 524.93 173.99"/><polygon class="cls-16" points="525.67 162.9 531 163.26 531.04 162.75 531.24 162.76 531.59 157.53 525.84 157.14 525.49 162.38 525.46 162.89 525.67 162.9"/><polygon class="cls-16" points="526.41 151.82 531.74 152.18 531.78 151.67 531.99 151.68 532.33 146.44 526.59 146.06 526.23 151.3 526.2 151.81 526.41 151.82"/><polygon class="cls-16" points="527.15 140.74 532.49 141.1 532.52 140.58 532.73 140.59 533.08 135.36 527.33 134.97 526.98 140.21 526.94 140.72 527.15 140.74"/><polygon class="cls-16" points="533.47 129.51 533.82 124.28 528.07 123.89 527.72 129.13 527.69 129.64 527.89 129.65 533.23 130.02 533.26 129.5 533.47 129.51"/><polygon class="cls-16" points="534.21 118.43 534.56 113.19 528.81 112.81 528.46 118.05 528.43 118.56 528.63 118.57 533.97 118.93 534 118.42 534.21 118.43"/><path class="cls-16" d="M532.84,219l0-.51-5.34-.36h-.2l0,.51-.13,1.93q2.82.54,5.71.93L533,219Z" transform="translate(0 0.1)"/><polygon class="cls-16" points="528.03 207.59 527.68 212.83 533.43 213.21 533.78 207.97 533.58 207.96 533.61 207.45 528.27 207.09 528.07 207.08 528.03 207.59"/><polygon class="cls-16" points="528.78 196.51 528.43 201.74 534.17 202.13 534.53 196.9 534.32 196.88 534.35 196.37 529.02 196 528.81 196 528.78 196.51"/><polygon class="cls-16" points="529.52 185.43 529.17 190.66 534.92 191.05 535.27 185.81 535.06 185.8 535.1 185.28 529.76 184.92 529.55 184.91 529.52 185.43"/><polygon class="cls-16" points="530.26 174.35 529.91 179.58 535.66 179.97 536.01 174.73 535.8 174.72 535.84 174.21 530.5 173.84 530.3 173.83 530.26 174.35"/><polygon class="cls-16" points="531 163.26 530.65 168.49 536.4 168.88 536.75 163.64 536.54 163.63 536.58 163.11 531.24 162.76 531.04 162.75 531 163.26"/><polygon class="cls-16" points="531.74 152.18 531.39 157.41 537.14 157.79 537.49 152.56 537.29 152.55 537.32 152.03 531.99 151.68 531.78 151.67 531.74 152.18"/><polygon class="cls-16" points="532.49 141.1 532.14 146.33 537.88 146.71 538.23 141.48 538.03 141.47 538.06 140.95 532.73 140.59 532.52 140.58 532.49 141.1"/><polygon class="cls-16" points="538.8 129.87 533.47 129.51 533.26 129.5 533.23 130.02 532.87 135.25 538.63 135.63 538.98 130.4 538.77 130.38 538.8 129.87"/><polygon class="cls-16" points="539.55 118.79 534.21 118.43 534 118.42 533.97 118.93 533.62 124.16 539.36 124.55 539.72 119.31 539.51 119.3 539.55 118.79"/><polygon class="cls-16" points="533.04 219.07 538.38 219.42 538.41 218.91 538.61 218.92 538.97 213.69 533.22 213.3 532.87 218.53 532.84 219.05 533.04 219.07"/><polygon class="cls-16" points="533.78 207.97 539.12 208.33 539.15 207.82 539.36 207.84 539.71 202.6 533.96 202.22 533.61 207.45 533.58 207.96 533.78 207.97"/><polygon class="cls-16" points="534.53 196.9 539.86 197.26 539.9 196.74 540.1 196.75 540.45 191.52 534.7 191.13 534.35 196.37 534.32 196.88 534.53 196.9"/><polygon class="cls-16" points="535.27 185.81 540.61 186.17 540.64 185.66 540.84 185.67 541.19 180.44 535.44 180.06 535.1 185.28 535.06 185.8 535.27 185.81"/><polygon class="cls-16" points="536.01 174.73 541.34 175.09 541.38 174.58 541.58 174.59 541.93 169.36 536.19 168.97 535.84 174.21 535.8 174.72 536.01 174.73"/><polygon class="cls-16" points="536.75 163.64 542.09 164 542.12 163.49 542.32 163.5 542.68 158.27 536.93 157.88 536.58 163.11 536.54 163.63 536.75 163.64"/><polygon class="cls-16" points="537.49 152.56 542.83 152.92 542.86 152.41 543.07 152.42 543.42 147.19 537.67 146.8 537.32 152.03 537.29 152.55 537.49 152.56"/><polygon class="cls-16" points="538.23 141.48 543.57 141.84 543.6 141.32 543.81 141.34 544.16 136.1 538.41 135.71 538.06 140.95 538.03 141.47 538.23 141.48"/><polygon class="cls-16" points="544.55 130.25 544.9 125.02 539.15 124.64 538.8 129.87 538.77 130.38 538.98 130.4 544.31 130.76 544.35 130.24 544.55 130.25"/><polygon class="cls-16" points="545.29 119.17 545.64 113.94 539.89 113.55 539.55 118.79 539.51 119.3 539.72 119.31 545.05 119.67 545.09 119.16 545.29 119.17"/><path class="cls-16" d="M543.92,219.69l0-.51-5.34-.36h-.2l0,.51L538.2,222c1.89.17,3.81.29,5.74.38l.18-2.72Z" transform="translate(0 0.1)"/><polygon class="cls-16" points="539.12 208.33 538.77 213.57 544.51 213.95 544.87 208.72 544.66 208.71 544.69 208.19 539.36 207.84 539.15 207.82 539.12 208.33"/><polygon class="cls-16" points="539.86 197.26 539.51 202.49 545.26 202.87 545.61 197.64 545.4 197.63 545.43 197.11 540.1 196.75 539.9 196.74 539.86 197.26"/><polygon class="cls-16" points="540.61 186.17 540.25 191.41 546 191.79 546.35 186.56 546.14 186.54 546.18 186.02 540.84 185.67 540.64 185.66 540.61 186.17"/><polygon class="cls-16" points="541.34 175.09 540.99 180.32 546.74 180.71 547.09 175.47 546.88 175.46 546.92 174.95 541.58 174.59 541.38 174.58 541.34 175.09"/><polygon class="cls-16" points="542.09 164 541.73 169.24 547.48 169.63 547.83 164.39 547.63 164.37 547.66 163.86 542.32 163.5 542.12 163.49 542.09 164"/><polygon class="cls-16" points="542.83 152.92 542.48 158.15 548.23 158.54 548.58 153.31 548.37 153.29 548.4 152.78 543.07 152.42 542.86 152.41 542.83 152.92"/><polygon class="cls-16" points="543.57 141.84 543.22 147.07 548.97 147.46 549.31 142.22 549.11 142.21 549.14 141.7 543.81 141.34 543.6 141.32 543.57 141.84"/><polygon class="cls-16" points="549.88 130.62 544.55 130.25 544.35 130.24 544.31 130.76 543.96 135.99 549.71 136.38 550.06 131.14 549.85 131.12 549.88 130.62"/><polygon class="cls-16" points="550.63 119.53 545.29 119.17 545.09 119.16 545.05 119.67 544.7 124.91 550.45 125.29 550.8 120.06 550.59 120.04 550.63 119.53"/><path class="cls-16" d="M544.12,219.7l3.75.26q.28-2.88.6-5.74l-4.17-.28-.35,5.24,0,.51Z" transform="translate(0 0.1)"/><path class="cls-16" d="M544.87,208.62l4.21.28q.34-2.86.71-5.72l-4.75-.32-.35,5.24,0,.51Z" transform="translate(0 0.1)"/><path class="cls-16" d="M545.61,197.54l4.89.32q.39-2.88.81-5.71l-5.52-.37-.36,5.23,0,.52Z" transform="translate(0 0.1)"/><polygon class="cls-16" points="546.35 186.56 551.69 186.91 551.72 186.4 551.92 186.41 552.27 181.18 546.53 180.79 546.18 186.02 546.14 186.54 546.35 186.56"/><polygon class="cls-16" points="547.09 175.47 552.43 175.82 552.46 175.31 552.67 175.33 553.02 170.1 547.27 169.71 546.92 174.95 546.88 175.46 547.09 175.47"/><polygon class="cls-16" points="547.83 164.39 553.17 164.75 553.2 164.22 553.41 164.24 553.76 159.01 548.01 158.62 547.66 163.86 547.63 164.37 547.83 164.39"/><polygon class="cls-16" points="548.58 153.31 553.91 153.66 553.94 153.15 554.15 153.16 554.5 147.93 548.75 147.54 548.4 152.78 548.37 153.29 548.58 153.31"/><polygon class="cls-16" points="549.31 142.22 554.65 142.58 554.69 142.07 554.89 142.08 555.24 136.84 549.49 136.46 549.14 141.7 549.11 142.21 549.31 142.22"/><polygon class="cls-16" points="555.63 131 555.99 125.76 550.24 125.38 549.88 130.62 549.85 131.12 550.06 131.14 555.39 131.49 555.43 130.98 555.63 131"/><polygon class="cls-16" points="556.37 119.91 556.73 114.68 550.98 114.29 550.63 119.53 550.59 120.04 550.8 120.06 556.13 120.41 556.17 119.9 556.37 119.91"/><path class="cls-16" d="M551.69,186.81l-.35,5.14q.42-2.83.85-5.62l-.26,0h-.21Z" transform="translate(0 0.1)"/><path class="cls-16" d="M552.43,175.73l-.35,5.23,1,.07c.32-1.94.65-3.83,1-5.71l-1.36-.09-.21,0Z" transform="translate(0 0.1)"/><path class="cls-16" d="M553.17,164.65l-.35,5.23L555,170c.36-1.94.73-3.83,1.1-5.69l-2.68-.18-.21,0Z" transform="translate(0 0.1)"/><path class="cls-16" d="M553.91,153.56l-.35,5.23,3.61.25q.62-2.92,1.23-5.69l-4.25-.29h-.21Z" transform="translate(0 0.1)"/><path class="cls-16" d="M554.65,142.48l-.35,5.23,5.32.36c.2-.82.39-1.6.59-2.4l.19-2.8-.2,0,0-.51-5.34-.36h-.2Z" transform="translate(0 0.1)"/><polygon class="cls-16" points="560.97 131.35 555.63 131 555.43 130.98 555.39 131.49 555.04 136.73 560.79 137.12 561.14 131.88 560.93 131.87 560.97 131.35"/><polygon class="cls-16" points="561.71 120.27 556.37 119.91 556.17 119.9 556.13 120.41 555.78 125.65 561.53 126.03 561.88 120.8 561.68 120.79 561.71 120.27"/><path class="cls-16" d="M560.4,142.87l.51,0c.52-2,1-3.9,1.54-5.67l-1.87-.12-.35,5.23,0,.51Z" transform="translate(0 0.1)"/><polygon class="cls-16" points="566.72 131.74 567.07 126.5 561.32 126.12 560.97 131.35 560.93 131.87 561.14 131.88 566.48 132.23 566.51 131.72 566.72 131.74"/><polygon class="cls-16" points="567.46 120.66 567.81 115.42 562.06 115.03 561.71 120.27 561.68 120.79 561.88 120.8 567.22 121.16 567.25 120.64 567.46 120.66"/><polygon class="cls-16" points="572.05 132.09 566.72 131.74 566.51 131.72 566.48 132.23 566.38 133.62 572.14 133.84 572.22 132.62 572.02 132.61 572.05 132.09"/><polygon class="cls-16" points="572.79 121.01 567.46 120.66 567.25 120.64 567.22 121.16 566.87 126.39 572.62 126.77 572.97 121.53 572.76 121.53 572.79 121.01"/><polygon class="cls-16" points="577.8 132.48 578.15 127.24 572.4 126.86 572.05 132.09 572.02 132.61 572.22 132.62 577.56 132.98 577.6 132.47 577.8 132.48"/><polygon class="cls-16" points="578.54 121.39 578.89 116.16 573.15 115.77 572.79 121.01 572.76 121.53 572.97 121.53 578.3 121.9 578.34 121.38 578.54 121.39"/><polygon class="cls-16" points="583.13 132.84 577.8 132.48 577.6 132.47 577.56 132.98 577.49 134.03 583.25 134.25 583.31 133.37 583.1 133.35 583.13 132.84"/><polygon class="cls-16" points="583.88 121.75 578.54 121.39 578.34 121.38 578.3 121.9 577.95 127.13 583.7 127.51 584.05 122.28 583.85 122.27 583.88 121.75"/><polygon class="cls-16" points="588.88 133.22 589.24 127.98 583.49 127.6 583.13 132.84 583.1 133.35 583.31 133.37 588.65 133.72 588.68 133.21 588.88 133.22"/><polygon class="cls-16" points="589.63 122.14 589.98 116.91 584.23 116.52 583.88 121.75 583.85 122.27 584.05 122.28 589.39 122.64 589.42 122.12 589.63 122.14"/><polygon class="cls-16" points="594.22 133.58 588.88 133.22 588.68 133.21 588.65 133.72 588.6 134.44 594.35 134.65 594.39 134.1 594.18 134.09 594.22 133.58"/><polygon class="cls-16" points="594.96 122.49 589.63 122.14 589.42 122.12 589.39 122.64 589.03 127.87 594.78 128.25 595.13 123.02 594.92 123.01 594.96 122.49"/><polygon class="cls-16" points="599.97 133.96 600.32 128.73 594.57 128.35 594.22 133.58 594.18 134.09 594.39 134.1 599.73 134.46 599.76 133.95 599.97 133.96"/><polygon class="cls-16" points="600.71 122.88 601.06 117.65 595.31 117.26 594.96 122.49 594.92 123.01 595.13 123.02 600.47 123.38 600.5 122.87 600.71 122.88"/><polygon class="cls-16" points="605.3 134.32 599.97 133.96 599.76 133.95 599.73 134.46 599.7 134.85 605.46 135.06 605.48 134.85 605.27 134.84 605.3 134.32"/><path class="cls-16" d="M600.5,122.77l0,.51-.34,5.24,5.75.38h0q-1.26-3.12-2.45-5.93l-2.71-.18Z" transform="translate(0 0.1)"/><path class="cls-16" d="M605.3,134.22l0,.52h.21l2.77.18q-1.18-3.06-2.33-5.93h-.27Z" transform="translate(0 0.1)"/><path class="cls-16" d="M529.15,112.61l.38-5.75-4.58-.31c-.3.77-.79,2-1.42,3.75l-.13,1.92Z" transform="translate(0 0.1)"/><polygon class="cls-16" points="535.08 107.22 535.18 105.84 529.4 105.81 529.33 106.84 535.08 107.22"/><polygon class="cls-16" points="540.61 107.7 534.87 107.31 534.48 113.06 540.23 113.44 540.61 107.7"/><polygon class="cls-16" points="546.16 107.96 546.3 105.9 540.53 105.87 540.42 107.58 546.16 107.96"/><rect class="cls-16" x="545.75" y="108.14" width="5.76" height="5.76" transform="matrix(0.07, -1, 1, 0.07, 401.24, 651.12)"/><polygon class="cls-16" points="557.25 108.71 557.43 105.96 551.66 105.93 551.5 108.32 557.25 108.71"/><polygon class="cls-16" points="562.79 109.18 557.03 108.79 556.65 114.54 562.39 114.93 562.79 109.18"/><polygon class="cls-16" points="568.33 109.45 568.56 106.02 562.79 105.99 562.58 109.06 568.33 109.45"/><rect class="cls-16" x="567.92" y="109.62" width="5.76" height="5.76" transform="translate(420.59 674.65) rotate(-86.19)"/><polygon class="cls-16" points="579.41 110.19 579.69 106.08 573.92 106.05 573.66 109.8 579.41 110.19"/><rect class="cls-16" x="579" y="110.36" width="5.76" height="5.76" transform="translate(430.23 686.42) rotate(-86.19)"/><polygon class="cls-16" points="590.5 110.93 590.82 106.14 585.05 106.11 584.75 110.55 590.5 110.93"/><rect class="cls-16" x="590.09" y="111.11" width="5.76" height="5.76" transform="translate(439.51 698.08) rotate(-86.16)"/><path class="cls-16" d="M598.31,111.36c-1-2.21-1.78-3.81-2.18-4.64l-.3,4.47Z" transform="translate(0 0.1)"/><path class="cls-16" d="M601,117.42l0-.11v.11Z" transform="translate(0 0.1)"/><path class="cls-16" d="M563.38,221.7l0-.52-3,.14-.54,1.13c1.26,0,2.52-.11,3.76-.18l0-.58Z" transform="translate(0 0.1)"/><path class="cls-16" d="M563.28,214.94l-.4.91.44,0Z" transform="translate(0 0.1)"/><polygon class="cls-16" points="563.59 221.79 568.93 221.54 568.9 221.03 569.11 221.02 568.87 215.78 563.12 216.04 563.36 221.28 563.38 221.79 563.59 221.79"/><path class="cls-16" d="M568.61,209.82l-.24-5.24-.8,0q-1.2,3.09-2.37,5.88l3.23-.16,0-.51Z" transform="translate(0 0.1)"/><path class="cls-16" d="M574.48,221.19l0-.51-5.34.24h-.21l0,.51,0,.47c1.94-.15,3.86-.32,5.74-.52v-.2Z" transform="translate(0 0.1)"/><polygon class="cls-16" points="573.95 209.68 568.61 209.92 568.4 209.93 568.43 210.44 568.66 215.69 574.42 215.43 574.18 210.19 573.97 210.2 573.95 209.68"/><path class="cls-16" d="M573.45,198.48l-3.65.17q-.84,2.37-1.7,4.6l.06,1.24,5.76-.26-.24-5.24h-.21Z" transform="translate(0 0.1)"/><path class="cls-16" d="M573.2,188.31c-.5,1.67-1,3.31-1.53,4.9l1.75-.07Z" transform="translate(0 0.1)"/><path class="cls-16" d="M580.21,220.42l-.24-5.24-5.76.26.24,5.24,0,.51h.2L578,221l2-.23,0-.37Z" transform="translate(0 0.1)"/><polygon class="cls-16" points="579.71 209.42 579.47 204.18 573.72 204.44 573.95 209.68 573.97 210.2 574.18 210.19 579.52 209.94 579.5 209.43 579.71 209.42"/><polygon class="cls-16" points="579.2 198.33 578.97 193.09 573.22 193.35 573.45 198.58 573.47 199.1 573.68 199.09 579.02 198.85 579 198.33 579.2 198.33"/><path class="cls-16" d="M578.7,187.13l-.23-5.24-3.52.16c-.52,2-1.07,3.93-1.63,5.84l5.2-.24,0-.51Z" transform="translate(0 0.1)"/><path class="cls-16" d="M578.2,176l-.23-5.24-.43,0c-.39,2-.81,3.91-1.25,5.83l1.73-.09,0-.51Z" transform="translate(0 0.1)"/><path class="cls-16" d="M580,220.43l0,.37c1.51-.18,3-.38,4.46-.57l-4.27.19Z" transform="translate(0 0.1)"/><polygon class="cls-16" points="585.05 209.18 579.71 209.42 579.5 209.43 579.52 209.94 579.76 215.19 585.51 214.93 585.28 209.68 585.07 209.69 585.05 209.18"/><polygon class="cls-16" points="584.55 198.08 579.2 198.33 579 198.33 579.02 198.85 579.26 204.09 585.02 203.82 584.78 198.59 584.57 198.59 584.55 198.08"/><polygon class="cls-16" points="584.04 186.99 578.7 187.22 578.5 187.24 578.52 187.75 578.76 193 584.51 192.73 584.27 187.49 584.07 187.5 584.04 186.99"/><polygon class="cls-16" points="583.54 175.89 578.2 176.13 577.99 176.14 578.02 176.65 578.26 181.89 584.01 181.63 583.77 176.4 583.57 176.4 583.54 175.89"/><path class="cls-16" d="M583,164.7l-4.45.19c-.27,1.68-.56,3.34-.87,5l0,.84,5.75-.26-.24-5.24h-.21Z" transform="translate(0 0.1)"/><path class="cls-16" d="M582.55,153.6l-2.54.11q-.27,2.94-.63,5.8l3.63-.16-.23-5.25h-.21Z" transform="translate(0 0.1)"/><path class="cls-16" d="M582,142.5l-1.55.07a11.45,11.45,0,0,1-1.66,3.59l1.72-.13c0,.78-.09,1.54-.14,2.31l2.1-.09-.24-5.24h-.2Z" transform="translate(0 0.1)"/><path class="cls-16" d="M581.54,131.41l-2.93.12a10.34,10.34,0,0,0,1,2.31,9.37,9.37,0,0,1,1.19,3.37l1.2-.06-.23-5.24h-.22Z" transform="translate(0 0.1)"/><path class="cls-16" d="M585.31,214.94l.23,5.13c2-.28,3.9-.56,5.73-.86l-.2-4.53Z" transform="translate(0 0.1)"/><polygon class="cls-16" points="590.8 208.92 590.57 203.69 584.81 203.94 585.05 209.18 585.07 209.69 585.28 209.68 590.62 209.44 590.6 208.93 590.8 208.92"/><polygon class="cls-16" points="590.3 197.83 590.07 192.59 584.31 192.84 584.55 198.08 584.57 198.59 584.78 198.59 590.12 198.34 590.1 197.83 590.3 197.83"/><polygon class="cls-16" points="589.8 186.72 589.57 181.49 583.81 181.74 584.04 186.99 584.07 187.5 584.27 187.49 589.62 187.25 589.6 186.74 589.8 186.72"/><polygon class="cls-16" points="589.3 175.63 589.07 170.39 583.31 170.65 583.54 175.89 583.57 176.4 583.77 176.4 589.12 176.15 589.09 175.64 589.3 175.63"/><polygon class="cls-16" points="588.8 164.53 588.56 159.29 582.81 159.55 583.04 164.79 583.07 165.31 583.27 165.3 588.61 165.06 588.59 164.55 588.8 164.53"/><polygon class="cls-16" points="588.3 153.44 588.06 148.2 582.3 148.45 582.55 153.69 582.57 154.21 582.78 154.2 588.11 153.96 588.09 153.45 588.3 153.44"/><polygon class="cls-16" points="587.8 142.34 587.56 137.1 581.81 137.36 582.04 142.6 582.07 143.12 582.27 143.1 587.61 142.86 587.59 142.35 587.8 142.34"/><polygon class="cls-16" points="587.3 131.24 587.06 126 581.31 126.26 581.54 131.5 581.56 132.02 581.77 132.01 587.12 131.77 587.09 131.25 587.3 131.24"/><polygon class="cls-16" points="596.14 208.68 590.8 208.92 590.6 208.93 590.62 209.44 590.86 214.68 596.61 214.42 596.38 209.18 596.17 209.19 596.14 208.68"/><polygon class="cls-16" points="595.65 197.59 590.3 197.83 590.1 197.83 590.12 198.34 590.36 203.59 596.11 203.33 595.87 198.09 595.67 198.09 595.65 197.59"/><polygon class="cls-16" points="595.14 186.48 589.8 186.72 589.6 186.74 589.62 187.25 589.86 192.49 595.61 192.23 595.38 186.99 595.17 187 595.14 186.48"/><polygon class="cls-16" points="594.64 175.39 589.3 175.63 589.09 175.64 589.12 176.15 589.35 181.4 595.11 181.13 594.87 175.89 594.67 175.9 594.64 175.39"/><polygon class="cls-16" points="594.14 164.29 588.8 164.53 588.59 164.55 588.61 165.06 588.85 170.29 594.61 170.04 594.37 164.79 594.16 164.81 594.14 164.29"/><polygon class="cls-16" points="593.64 153.19 588.3 153.44 588.09 153.45 588.11 153.96 588.35 159.2 594.11 158.94 593.87 153.7 593.66 153.71 593.64 153.19"/><polygon class="cls-16" points="593.14 142.1 587.8 142.34 587.59 142.35 587.61 142.86 587.85 148.1 593.6 147.84 593.37 142.6 593.16 142.61 593.14 142.1"/><polygon class="cls-16" points="592.64 131.01 587.3 131.24 587.09 131.25 587.12 131.77 587.35 137.01 593.11 136.75 592.87 131.51 592.66 131.52 592.64 131.01"/><path class="cls-16" d="M596.41,214.44l.17,3.88c2.07-.37,4-.73,5.72-1.07l-.13-3.07Z" transform="translate(0 0.1)"/><polygon class="cls-16" points="601.9 208.41 601.66 203.18 595.91 203.44 596.14 208.68 596.17 209.19 596.38 209.18 601.72 208.94 601.69 208.43 601.9 208.41"/><polygon class="cls-16" points="601.4 197.32 601.16 192.09 595.41 192.34 595.65 197.59 595.67 198.09 595.87 198.09 601.22 197.85 601.19 197.33 601.4 197.32"/><polygon class="cls-16" points="600.9 186.22 600.66 180.99 594.91 181.25 595.14 186.48 595.17 187 595.38 186.99 600.72 186.75 600.7 186.24 600.9 186.22"/><polygon class="cls-16" points="600.39 175.13 600.16 169.88 594.4 170.15 594.64 175.39 594.67 175.9 594.87 175.89 600.22 175.65 600.19 175.14 600.39 175.13"/><polygon class="cls-16" points="599.9 164.03 599.66 158.79 593.91 159.05 594.14 164.29 594.16 164.81 594.37 164.79 599.71 164.56 599.69 164.04 599.9 164.03"/><polygon class="cls-16" points="599.4 152.93 599.16 147.7 593.41 147.95 593.64 153.19 593.66 153.71 593.87 153.7 599.21 153.46 599.19 152.94 599.4 152.93"/><polygon class="cls-16" points="598.9 141.84 598.66 136.6 592.9 136.86 593.14 142.1 593.16 142.61 593.37 142.6 598.71 142.37 598.69 141.85 598.9 141.84"/><polygon class="cls-16" points="598.39 130.74 598.16 125.5 592.4 125.76 592.64 131.01 592.66 131.52 592.87 131.51 598.21 131.27 598.19 130.75 598.39 130.74"/><polygon class="cls-16" points="607.24 208.18 601.9 208.41 601.69 208.43 601.72 208.94 601.96 214.18 607.71 213.93 607.48 208.69 607.26 208.69 607.24 208.18"/><polygon class="cls-16" points="606.74 197.08 601.4 197.32 601.19 197.33 601.22 197.85 601.45 203.09 607.21 202.83 606.97 197.58 606.76 197.6 606.74 197.08"/><polygon class="cls-16" points="606.24 185.99 600.9 186.22 600.7 186.24 600.72 186.75 600.95 191.99 606.71 191.73 606.47 186.49 606.27 186.5 606.24 185.99"/><polygon class="cls-16" points="605.74 174.88 600.39 175.13 600.19 175.14 600.22 175.65 600.45 180.89 606.2 180.64 605.97 175.39 605.76 175.4 605.74 174.88"/><polygon class="cls-16" points="605.24 163.79 599.9 164.03 599.69 164.04 599.71 164.56 599.95 169.79 605.7 169.53 605.47 164.29 605.27 164.31 605.24 163.79"/><polygon class="cls-16" points="604.74 152.69 599.4 152.93 599.19 152.94 599.21 153.46 599.45 158.7 605.2 158.44 604.97 153.2 604.76 153.21 604.74 152.69"/><polygon class="cls-16" points="604.24 141.6 598.9 141.84 598.69 141.85 598.71 142.37 598.95 147.61 604.7 147.34 604.47 142.1 604.26 142.11 604.24 141.6"/><polygon class="cls-16" points="603.74 130.5 598.39 130.74 598.19 130.75 598.21 131.27 598.45 136.51 604.2 136.25 603.97 131.01 603.76 131.02 603.74 130.5"/><path class="cls-16" d="M607.51,213.94l.1,2.19a17.51,17.51,0,0,0,5.66-2.36v-.1Z" transform="translate(0 0.1)"/><polygon class="cls-16" points="613 207.91 612.76 202.68 607 202.94 607.24 208.18 607.26 208.69 607.48 208.69 612.81 208.45 612.79 207.93 613 207.91"/><polygon class="cls-16" points="612.49 196.82 612.26 191.58 606.5 191.84 606.74 197.08 606.76 197.6 606.97 197.58 612.32 197.34 612.29 196.83 612.49 196.82"/><polygon class="cls-16" points="611.99 185.72 611.76 180.49 606.01 180.75 606.24 185.99 606.27 186.5 606.47 186.49 611.81 186.25 611.79 185.74 611.99 185.72"/><polygon class="cls-16" points="611.49 174.63 611.26 169.39 605.5 169.65 605.74 174.88 605.76 175.4 605.97 175.39 611.31 175.15 611.29 174.64 611.49 174.63"/><polygon class="cls-16" points="610.99 163.53 610.76 158.29 605 158.55 605.24 163.79 605.27 164.31 605.47 164.29 610.81 164.06 610.79 163.54 610.99 163.53"/><polygon class="cls-16" points="610.49 152.43 610.26 147.19 604.5 147.45 604.74 152.69 604.76 153.21 604.97 153.2 610.31 152.96 610.29 152.44 610.49 152.43"/><path class="cls-16" d="M604.24,141.5l0,.51h.21l5.34-.24,0-.52h.2l-.08-1.89c-.41-1.11-.83-2.22-1.24-3.3l-4.67.21Z" transform="translate(0 0.1)"/><path class="cls-16" d="M603.74,130.41l0,.51H604l2.66-.12q-1.17-3-2.3-5.67l-.83,0Z" transform="translate(0 0.1)"/><path class="cls-16" d="M618.34,207.58l-5.34.23-.21,0,0,.52.24,5.24.56,0a16.25,16.25,0,0,0,4.91-5.47h-.16Z" transform="translate(0 0.1)"/><polygon class="cls-16" points="617.84 196.58 612.49 196.82 612.29 196.83 612.32 197.34 612.55 202.59 618.3 202.33 618.07 197.09 617.86 197.1 617.84 196.58"/><polygon class="cls-16" points="617.34 185.49 611.99 185.72 611.79 185.74 611.81 186.25 612.05 191.49 617.8 191.23 617.57 185.99 617.36 186 617.34 185.49"/><polygon class="cls-16" points="616.83 174.39 611.49 174.63 611.29 174.64 611.31 175.15 611.55 180.39 617.3 180.14 617.07 174.9 616.86 174.9 616.83 174.39"/><polygon class="cls-16" points="616.33 163.29 610.99 163.53 610.79 163.54 610.81 164.06 611.05 169.29 616.8 169.04 616.57 163.8 616.36 163.81 616.33 163.29"/><path class="cls-16" d="M610.29,152.34l0,.52.24,5.24,5.51-.25c-.56-1.9-1.14-3.8-1.74-5.68l-3.83.16Z" transform="translate(0 0.1)"/><path class="cls-16" d="M609.79,141.25l0,.52L610,147l2.54-.11c-.66-1.92-1.32-3.82-2-5.68l-.6,0Z" transform="translate(0 0.1)"/><path class="cls-16" d="M618.34,207.58l0,.52h.16a23.78,23.78,0,0,0,2.3-5.87l-2.72.12Z" transform="translate(0 0.1)"/><path class="cls-16" d="M617.84,196.48l0,.52h.21l3.67-.17a53.86,53.86,0,0,0,.24-5.77l-4.38.19Z" transform="translate(0 0.1)"/><path class="cls-16" d="M617.34,185.39l0,.51h.21l4.15-.19q-.24-2.8-.66-5.73l-4,.18Z" transform="translate(0 0.1)"/><path class="cls-16" d="M616.83,174.29l0,.51h.21l3.1-.14c-.36-1.89-.77-3.8-1.21-5.72l-2.36.11Z" transform="translate(0 0.1)"/><path class="cls-16" d="M616.36,163.71h.21l1.09,0c-.49-1.88-1-3.77-1.56-5.65l.23,5.19Z" transform="translate(0 0.1)"/><path class="cls-16" d="M581.63,126l-.26-5.75-3.7.17a38.21,38.21,0,0,0,0,5.76Z" transform="translate(0 0.1)"/><path class="cls-16" d="M581.11,114.4l-.24-5.23-.65,0a30.84,30.84,0,0,0-1.8,5.84l2.5-.11,0-.51Z" transform="translate(0 0.1)"/><polygon class="cls-16" points="586.45 114.27 581.11 114.5 580.9 114.51 580.92 115.03 581.16 120.27 586.92 120.01 586.68 114.77 586.47 114.78 586.45 114.27"/><path class="cls-16" d="M580.66,109.08l5.75-.26-.12-2.8-4.37,0a22.73,22.73,0,0,0-1.3,2.29Z" transform="translate(0 0.1)"/><rect class="cls-16" x="586.83" y="119.89" width="5.76" height="5.76" transform="translate(-5.01 27.26) rotate(-2.63)"/><polygon class="cls-16" points="592.2 114 591.96 108.76 586.21 109.03 586.45 114.27 586.47 114.78 586.68 114.77 592.02 114.53 592 114.02 592.2 114"/><polygon class="cls-16" points="597.54 113.76 592.2 114 592 114.02 592.02 114.53 592.25 119.77 598.01 119.51 597.77 114.27 597.56 114.28 597.54 113.76"/><path class="cls-16" d="M596.91,108.34c-.69-1.46-1.1-2.27-1.1-2.27l-4.17,0,.11,2.53Z" transform="translate(0 0.1)"/><path class="cls-16" d="M598.06,125.28l5.76-.26-.05-1.25c-.66-1.56-1.29-3-1.89-4.43l-4.07.18Z" transform="translate(0 0.1)"/><path class="cls-16" d="M597.56,114.18h.21l1.79-.08c-.87-1.93-1.62-3.55-2.22-4.82l.2,4.39Z" transform="translate(0 0.1)"/><path class="cls-17" d="M593.07,105.3l-63.71-.38s-35.8,99.67-10.79,110.88c26.63,11.94,70.53,3.12,84.94-.38C638.42,207,593.07,105.3,593.07,105.3Z" transform="translate(0 0.1)"/><path class="cls-18" d="M587.84,210c0-4.25-10.6-7.7-23.68-7.7s-23.68,3.45-23.68,7.7,10.6,7.7,23.68,7.7S587.84,214.29,587.84,210Z" transform="translate(0 0.1)"/><path class="cls-19" d="M520.08,537.74s20,12.26,22.22,31.42-32.25,113.5-32.25,113.5h-6.2Z" transform="translate(0 0.1)"/><path class="cls-20" d="M515.87,684.32H490.6S503.34,671,509.36,672,515.87,684.32,515.87,684.32Z" transform="translate(0 0.1)"/><path class="cls-19" d="M640,537.74S619.71,550,617.46,569.16s32.64,113.5,32.64,113.5h6.27Z" transform="translate(0 0.1)"/><path class="cls-20" d="M644.21,684.32h25.57S656.9,671,650.8,672,644.21,684.32,644.21,684.32Z" transform="translate(0 0.1)"/><path class="cls-21" d="M484.65,641c31,31,135.35,6.27,185.13,1.22,0,0-39.67-193.35-36.79-230.15s-14.64-185.27-24.74-199-82.87-10-90.81.82S492.59,338,484.65,641Z" transform="translate(0 0.1)"/><polygon class="cls-18" points="568.59 212.44 561.27 213.21 563.58 273.66 568.59 272.89 568.59 212.44"/><path class="cls-22" d="M640.21,636.65c9.3,8.16,21.29,5,29.57,5.59,0,0-36.24-195.51-33.36-232.3s-18.07-183.12-28.17-196.83c-2.27-3.08,9.88,72.4,2.22,69.61C643.29,385.61,640.21,636.65,640.21,636.65Z" transform="translate(0 0.1)"/><path class="cls-22" d="M493.23,453.22c-9.66,43.65-6.68,172.41-6.68,172.41l9.65-89.09C488.37,518.52,493.23,453.22,493.23,453.22Z" transform="translate(0 0.1)"/><path class="cls-22" d="M508.31,259.81c-6.83,30.75-12.48,133.35-12.48,133.35l21.74-112.48C518,267.68,508.31,259.81,508.31,259.81Z" transform="translate(0 0.1)"/><path class="cls-22" d="M498.05,367c-5.2,31.06-8.36,130.27-8.36,130.27l10.47-68.42C499.87,415.82,498.05,367,498.05,367Z" transform="translate(0 0.1)"/><path class="cls-23" d="M567.4,524.62s1.05,87.49-.28,130.82l38.67-4.28S573.68,565.4,567.4,524.62Z" transform="translate(0 0.1)"/><path class="cls-22" d="M491.59,458.16,487.31,566s24-131.44,28.06-173.4C515.37,392.64,492.26,445.07,491.59,458.16Z" transform="translate(0 0.1)"/><path class="cls-24" d="M582.74,173.83h-36.2v35c7.42,8.09,25.9,6.94,36.2,0Z" transform="translate(0 0.1)"/><path class="cls-25" d="M637.1,399c-.84-.65.17-2.27,1.57-3.92s2.65-2.71,3.5-2.06.38,2.5-1,4.15S637.94,399.66,637.1,399Z" transform="translate(0 0.1)"/><path class="cls-25" d="M640,399.93c-.84-.64.17-2.27,1.57-3.92s2.65-2.71,3.49-2.07.39,2.51-1,4.17S640.82,400.57,640,399.93Z" transform="translate(0 0.1)"/><path class="cls-26" d="M631.85,394.74c.53-.95,3.15,0,6,1.36s4.79,2.63,4.26,3.58-3.24.6-6.07-.77S631.33,395.68,631.85,394.74Z" transform="translate(0 0.1)"/><path class="cls-26" d="M642,379.14c-2.84,3.67-12.66,14.53-9,17.9,3.29,3,11.54,1.94,13.06-16.25Z" transform="translate(0 0.1)"/><path class="cls-21" d="M699.57,285.44c7.64-6.73-41-51.4-92.63-74,0,0-11.25,50.23,4,72C611,283.47,668.71,312.56,699.57,285.44Z" transform="translate(0 0.1)"/><path class="cls-22" d="M604.8,268.76c-.19-.39-.37-.79-.55-1.2,1.61,6.2,3.79,11.73,6.73,15.91,0,0,49.71,25.77,80.72,7.61C654.13,303,604.8,268.76,604.8,268.76Z" transform="translate(0 0.1)"/><path class="cls-21" d="M700.32,282.6S689.78,313.05,652,384.84c0,0-6,4.05-15.42-8.32,0,0,6.07-79.17,29.6-98.57C666.19,278,694,271.38,700.32,282.6Z" transform="translate(0 0.1)"/><path class="cls-22" d="M653.84,295.85c-13.33,29.59-17.25,80.67-17.25,80.67a38.93,38.93,0,0,0,3.7,4.18c1.81-18.39,7.55-65.51,21.47-91.2C664.46,284.53,657.25,288.29,653.84,295.85Z" transform="translate(0 0.1)"/><path class="cls-21" d="M667.67,292.54c-4,3-14.12,6.37-12.73,3,2.27-5.5,12.39-9.53,12.39-9.53Z" transform="translate(0 0.1)"/><path class="cls-25" d="M492.86,399c.84-.65-.16-2.27-1.55-3.92s-2.64-2.71-3.48-2.06-.39,2.5,1,4.15S492,399.66,492.86,399Z" transform="translate(0 0.1)"/><path class="cls-25" d="M490,399.93c.83-.64-.17-2.27-1.56-3.92s-2.64-2.71-3.48-2.07-.38,2.51,1,4.17S489.17,400.57,490,399.93Z" transform="translate(0 0.1)"/><path class="cls-26" d="M498.08,394.74c-.52-.95-3.13,0-5.94,1.36s-4.76,2.63-4.24,3.58,3.22.6,6-.77S498.6,395.68,498.08,394.74Z" transform="translate(0 0.1)"/><path class="cls-26" d="M488,379.14c2.82,3.67,12.59,14.53,8.93,17.9-3.27,3-11.47,1.94-13-16.25Z" transform="translate(0 0.1)"/><path class="cls-21" d="M430.76,285.44c-7.59-6.73,40.75-51.4,92.09-74,0,0,11.18,50.23-4,72C518.83,283.47,461.44,312.56,430.76,285.44Z" transform="translate(0 0.1)"/><path class="cls-22" d="M525,268.76q.28-.58.54-1.2c-1.6,6.2-3.77,11.73-6.69,15.91,0,0-49.41,25.77-80.24,7.61C475.94,303,525,268.76,525,268.76Z" transform="translate(0 0.1)"/><path class="cls-21" d="M430,282.6s10.48,30.45,48,102.24c0,0,5.92,4.05,15.32-8.32,0,0-6-79.17-29.42-98.57C464,278,436.29,271.38,430,282.6Z" transform="translate(0 0.1)"/><path class="cls-22" d="M476.23,295.85c13.24,29.59,17.14,80.67,17.14,80.67a37.79,37.79,0,0,1-3.68,4.18c-1.79-18.39-7.5-65.51-21.34-91.2C465.67,284.53,472.84,288.29,476.23,295.85Z" transform="translate(0 0.1)"/><path class="cls-21" d="M462.48,292.54c3.93,3,14,6.37,12.66,3-2.26-5.5-12.33-9.53-12.33-9.53Z" transform="translate(0 0.1)"/><path class="cls-17" d="M606.94,211.47l-.05.23c-4.2-3.62-13.29-5.8-24.15-6.8v-29a80.75,80.75,0,0,0-10-2.07H551.34c-1.63.23-3.23.51-4.8.83V204.9c-.56.2-1.08.41-1.57.63-13.57,1.59-24.7,4.54-27.53,8.4h0c-1.57.75,18,13,44.61,13C584.78,227,609.21,212.46,606.94,211.47Z" transform="translate(0 0.1)"/><path class="cls-24" d="M595.11,155c.67-6.74,3.84-10.39,7-10.39s5.06,3.65,4.38,10.39-5.86,9.87-9,9.87S594.43,161.77,595.11,155Z" transform="translate(0 0.1)"/><path class="cls-27" d="M594.43,155.08c.59-4.85,3.37-7.48,6.13-7.48s4.44,2.63,3.85,7.48a8.33,8.33,0,0,1-7.9,7.12C593.76,162.2,593.84,159.94,594.43,155.08Z" transform="translate(0 0.1)"/><path class="cls-24" d="M596,157.93c.34-2.42,1.89-3.73,3.42-3.73s2.48,1.31,2.15,3.73-2.87,3.54-4.4,3.54S595.65,160.34,596,157.93Z" transform="translate(0 0.1)"/><path class="cls-24" d="M533.15,154.78c-1-6.69-4.45-10.08-7.73-9.83s-5.13,4-4.15,10.73,6.53,9.4,9.81,9.15S534.13,161.46,533.15,154.78Z" transform="translate(0 0.1)"/><path class="cls-27" d="M531.53,155c-.71-4.83-3.21-7.29-5.59-7.11s-3.71,2.94-3,7.77,4.72,6.81,7.09,6.62S532.24,159.79,531.53,155Z" transform="translate(0 0.1)"/><path class="cls-24" d="M530.55,157.91c-.4-2.7-1.79-4.07-3.12-4s-2.07,1.64-1.67,4.34a4,4,0,0,0,4,3.69C531,161.87,531,160.61,530.55,157.91Z" transform="translate(0 0.1)"/><path class="cls-28" d="M532.16,169.86s-6.89-65.33-1.29-73.11S569.44,83.87,574.6,85.1c11.23,2.7,9.26,10.78,9.26,10.78s5.59,0,9.47,2.6,9,39.63,2.56,67.75S532.16,169.86,532.16,169.86Z" transform="translate(0 0.1)"/><path class="cls-29" d="M568.1,141.94a44.42,44.42,0,0,1-39.4-23.79c.3,21.76.82,51.38.82,51.38s52.59,2.7,68.63-1.74c.4-12.15,1.1-26.49.7-38.15A44.42,44.42,0,0,1,568.1,141.94Z" transform="translate(0 0.1)"/><path class="cls-24" d="M530.73,184c.47,3.63,15.45,19.29,32.5,19.29s31.18-14.27,34.14-20.06-9-79.47-15.94-85.64-35-2.09-37.4,1.16C538.37,106.45,528.88,169.72,530.73,184Z" transform="translate(0 0.1)"/><path class="cls-28" d="M598.14,137.28l-3.85.78c-.39,15-5.39,25.41-11.55,25.41s-11.56-5-17.33-5-8.09,5-20.41,5.39-10-8.47-11.55-24.26l-2.31,1.16s-6.93,27.72-1.92,43.89,35,23.5,35,23.5c22.34-1.55,33.5-21.19,34.66-23.5S598.14,137.28,598.14,137.28Z" transform="translate(0 0.1)"/><path class="cls-24" d="M537.65,129.59c2.45,1.14,12.16-22.76,14.19-26.75s1.69-8.16-.77-9.29-6.1,1.2-8.13,5.2S535.19,128.47,537.65,129.59Z" transform="translate(0 0.1)"/><path class="cls-24" d="M589.89,127.79c2.58-.83-4.24-25.07-5.74-29.28s-4.81-6.93-7.4-6.1-3.46,4.91-2,9.11S587.31,128.63,589.89,127.79Z" transform="translate(0 0.1)"/><path class="cls-28" d="M576.22,95.65c0-2.56-5.55-4.63-12.38-4.63s-12.39,2.07-12.39,4.63,5.55,4.63,12.39,4.63S576.22,98.21,576.22,95.65Z" transform="translate(0 0.1)"/><path class="cls-28" d="M555.81,129.65a5.74,5.74,0,0,0-.44-3.49c-1.29-2.29-16.12,3.55-16.57,7.42l-.28,2.41c-.33,2.78,4.3-.22,8.58-1,4.09-.78,7.84.76,8.21-1.87Z" transform="translate(0 0.1)"/><path class="cls-28" d="M570.54,130.63a6.38,6.38,0,0,1,.4-3.66c1.25-2.54,16.19,1.2,16.7,5.1l.32,2.43c.36,2.81-4.31.45-8.61.27-4.12-.16-7.85,2-8.26-.66Z" transform="translate(0 0.1)"/><path class="cls-27" d="M558.46,165c0,.44,4,2.8,5.48,2.8,2.43,0,5.38-2.31,5.48-3.09.24-1.86-3.76-22.57-5.18-22.76S558.36,162.29,558.46,165Z" transform="translate(0 0.1)"/><path class="cls-24" d="M561,165.54c0,.47,2.28,1.22,3.08,1.22,1.36,0,3-.69,3.07-1.54.13-2,1.22-25.17-2.9-24.95C559.73,140.51,561,162.57,561,165.54Z" transform="translate(0 0.1)"/><path class="cls-28" d="M571.55,94.13c4.68-2,10.87-1.8,9.14,7.06,0,0-2.23-4.54-9.83-1.79Z" transform="translate(0 0.1)"/><path class="cls-30" d="M551.31,172.81s2.06,11.47,4.08,12.05c3.93,1.12,14.23.87,17,.29,2.26-.47,4.63-13.08,4.63-13.08Z" transform="translate(0 0.1)"/><path class="cls-31" d="M575.58,172.74l-23.61.58,3,10.91c2.65.77,16,1.14,17.81,0Z" transform="translate(0 0.1)"/><path class="cls-30" d="M578.62,171.43c-.17-.39-.85-.5-1.5-.23s-1,.79-.87,1.19.85.48,1.5.23S578.8,171.82,578.62,171.43Z" transform="translate(0 0.1)"/><path class="cls-30" d="M552.35,173.22c.12-.41-.35-.89-1-1.06s-1.34,0-1.45.44.35.88,1,1.05S552.24,173.63,552.35,173.22Z" transform="translate(0 0.1)"/><path class="cls-29" d="M566.75,188.72c0-.71-1.37-1.29-3-1.29s-3,.58-3,1.29,1.36.77,3,.77S566.75,189.43,566.75,188.72Z" transform="translate(0 0.1)"/><path class="cls-29" d="M565.39,200.48c0-1.58-.75-2.86-1.69-2.86S562,198.9,562,200.48s.76,1.71,1.69,1.71S565.39,202.05,565.39,200.48Z" transform="translate(0 0.1)"/><path class="cls-32" d="M584.2,141.37c-.1-3.52-1.73-6.19-3.64-5.94s-3.39,3.32-3.3,6.85,1.73,6.19,3.65,5.94S584.3,144.9,584.2,141.37Z" transform="translate(0 0.1)"/><path class="cls-32" d="M553,142.73c.11-3.52-1.36-6.28-3.29-6.14s-3.58,3.11-3.69,6.64,1.37,6.28,3.29,6.14S552.93,146.26,553,142.73Z" transform="translate(0 0.1)"/><path class="cls-17" d="M597.18,111.17H528.72c-.05,2.19-.05,4.54,0,7h0c0,1.86.15,10.21.18,12.16,25.56-8.56,43-9.12,70-.67C598.53,124.93,597.75,114.87,597.18,111.17Z" transform="translate(0 0.1)"/><path class="cls-15" d="M518.75,117.91c2.51-2.61,3-6.27,1.87-8.55-1.69-3.49-.25-12.42,3.38-17.77,13.65-20.08,77.54-18.48,80.6,8.23.54,4.63-2.74,13.16-1.52,19Z" transform="translate(0 0.1)"/><path class="cls-16" d="M518.75,117.91h.76l.06-1A8.27,8.27,0,0,1,518.75,117.91Z" transform="translate(0 0.1)"/><path class="cls-16" d="M525.15,113.7h.2l.36-5.24-5.49-.36a6.56,6.56,0,0,0,.4,1.25,6.92,6.92,0,0,1,.31,4.57l4.18.28Z" transform="translate(0 0.1)"/><polygon class="cls-16" points="530.65 114.68 530.69 114.17 525.35 113.81 525.15 113.8 525.11 114.31 524.86 118.07 530.63 118.14 530.86 114.69 530.65 114.68"/><polygon class="cls-16" points="530.86 114.69 536.2 115.05 536.23 114.54 536.44 114.55 536.79 109.31 531.04 108.93 530.69 114.17 530.65 114.68 530.86 114.69"/><polygon class="cls-16" points="541.74 115.42 541.77 114.91 536.44 114.55 536.23 114.54 536.2 115.05 535.98 118.19 541.75 118.25 541.94 115.43 541.74 115.42"/><polygon class="cls-16" points="541.94 115.43 547.28 115.79 547.31 115.28 547.52 115.29 547.87 110.06 542.13 109.67 541.77 114.91 541.74 115.42 541.94 115.43"/><polygon class="cls-16" points="552.82 116.17 552.85 115.65 547.52 115.29 547.31 115.28 547.28 115.79 547.11 118.31 552.88 118.38 553.03 116.18 552.82 116.17"/><polygon class="cls-16" points="553.03 116.18 558.36 116.53 558.4 116.02 558.61 116.03 558.96 110.8 553.21 110.42 552.85 115.65 552.82 116.17 553.03 116.18"/><polygon class="cls-16" points="563.9 116.91 563.94 116.39 558.61 116.03 558.4 116.02 558.36 116.53 558.23 118.43 564.01 118.49 564.11 116.92 563.9 116.91"/><polygon class="cls-16" points="564.11 116.92 569.45 117.28 569.48 116.76 569.69 116.78 570.04 111.54 564.29 111.16 563.94 116.39 563.9 116.91 564.11 116.92"/><polygon class="cls-16" points="574.99 117.65 575.02 117.13 569.69 116.78 569.48 116.76 569.45 117.28 569.36 118.55 575.13 118.61 575.19 117.66 574.99 117.65"/><polygon class="cls-16" points="575.19 117.66 580.53 118.02 580.56 117.5 580.77 117.52 581.12 112.28 575.37 111.9 575.02 117.13 574.99 117.65 575.19 117.66"/><polygon class="cls-16" points="586.07 118.39 586.11 117.87 580.77 117.52 580.56 117.5 580.53 118.02 580.49 118.67 586.26 118.73 586.28 118.4 586.07 118.39"/><polygon class="cls-16" points="586.28 118.4 591.61 118.75 591.65 118.25 591.86 118.26 592.2 113.03 586.45 112.64 586.11 117.87 586.07 118.39 586.28 118.4"/><polygon class="cls-16" points="591.86 118.26 591.65 118.25 591.61 118.75 591.61 118.79 597.17 118.85 597.19 118.61 591.86 118.26"/><path class="cls-16" d="M597.19,118.51l0,.24,5.77.06,0-.77a20,20,0,0,1-.07-4.4l-5.38-.36Z" transform="translate(0 0.1)"/><path class="cls-16" d="M520.68,102.24l-.5,0a17.39,17.39,0,0,0,0,5.78h.12Z" transform="translate(0 0.1)"/><path class="cls-16" d="M526.23,102.51l.35-5.24h-.21l0-.52-4.79-.32a28.82,28.82,0,0,0-1,3.34l-.16,2.36Z" transform="translate(0 0.1)"/><path class="cls-16" d="M527.2,88a19.15,19.15,0,0,0-2.93,3.22l2.7.18Z" transform="translate(0 0.1)"/><rect class="cls-16" x="525.81" y="102.78" width="5.76" height="5.76" transform="translate(388.16 626.27) rotate(-86.19)"/><polygon class="cls-16" points="526.58 97.37 531.91 97.73 531.95 97.21 532.15 97.22 532.5 91.99 526.75 91.61 526.4 96.84 526.37 97.35 526.58 97.37"/><path class="cls-16" d="M532.69,86h.2l.13-1.92a30.35,30.35,0,0,0-3.66,2.21l3.29.22Z" transform="translate(0 0.1)"/><polygon class="cls-16" points="531.91 97.73 531.56 102.96 537.31 103.34 537.66 98.11 537.45 98.1 537.49 97.58 532.15 97.22 531.95 97.21 531.91 97.73"/><polygon class="cls-16" points="538.23 86.5 532.89 86.14 532.69 86.13 532.65 86.65 532.3 91.88 538.05 92.26 538.4 87.03 538.19 87.01 538.23 86.5"/><rect class="cls-16" x="536.9" y="103.52" width="5.76" height="5.76" transform="translate(397.76 638.02) rotate(-86.19)"/><polygon class="cls-16" points="537.66 98.11 543 98.47 543.03 97.95 543.24 97.97 543.59 92.73 537.84 92.35 537.49 97.58 537.45 98.1 537.66 98.11"/><path class="cls-16" d="M538.19,86.91l.21,0,5.34.36,0-.52H544l.35-5.23L540,81.26l-1.42.47-.31,4.67Z" transform="translate(0 0.1)"/><polygon class="cls-16" points="543 98.47 542.64 103.7 548.39 104.09 548.75 98.85 548.54 98.84 548.57 98.33 543.24 97.97 543.03 97.95 543 98.47"/><polygon class="cls-16" points="549.31 87.24 543.98 86.88 543.77 86.87 543.74 87.39 543.38 92.62 549.14 93 549.49 87.77 549.27 87.75 549.31 87.24"/><path class="cls-16" d="M549.88,81.82l.19-2.91c-2,.31-4,.69-5.85,1.15l-.09,1.38Z" transform="translate(0 0.1)"/><rect class="cls-16" x="547.98" y="104.26" width="5.76" height="5.76" transform="translate(407.02 649.68) rotate(-86.16)"/><polygon class="cls-16" points="548.75 98.85 554.08 99.21 554.11 98.69 554.32 98.7 554.67 93.47 548.92 93.09 548.57 98.33 548.54 98.84 548.75 98.85"/><polygon class="cls-16" points="555.06 87.62 555.41 82.39 549.66 82 549.31 87.24 549.27 87.75 549.49 87.77 554.82 88.13 554.85 87.61 555.06 87.62"/><polygon class="cls-16" points="554.08 99.21 553.73 104.44 559.48 104.83 559.83 99.59 559.62 99.58 559.65 99.07 554.32 98.7 554.11 98.69 554.08 99.21"/><polygon class="cls-16" points="560.4 87.98 555.06 87.62 554.85 87.61 554.82 88.13 554.47 93.36 560.22 93.75 560.57 88.51 560.36 88.5 560.4 87.98"/><path class="cls-16" d="M561,82.57l.3-4.59q-2.91,0-5.78.29l-.27,3.91Z" transform="translate(0 0.1)"/><rect class="cls-16" x="559.06" y="105" width="5.76" height="5.76" transform="translate(416.67 661.44) rotate(-86.16)"/><polygon class="cls-16" points="559.83 99.59 565.16 99.95 565.2 99.44 565.4 99.45 565.75 94.21 560 93.83 559.65 99.07 559.62 99.58 559.83 99.59"/><polygon class="cls-16" points="566.14 88.37 566.49 83.13 560.75 82.75 560.4 87.98 560.36 88.5 560.57 88.51 565.9 88.87 565.94 88.35 566.14 88.37"/><polygon class="cls-16" points="565.16 99.95 564.81 105.18 570.56 105.57 570.91 100.34 570.7 100.32 570.74 99.81 565.4 99.45 565.2 99.44 565.16 99.95"/><polygon class="cls-16" points="571.48 88.73 566.14 88.37 565.94 88.35 565.9 88.87 565.56 94.1 571.3 94.48 571.65 89.25 571.45 89.24 571.48 88.73"/><path class="cls-16" d="M572.05,83.3l.31-4.75c-1.89-.23-3.81-.38-5.74-.47l-.32,4.84Z" transform="translate(0 0.1)"/><rect class="cls-16" x="570.15" y="105.74" width="5.76" height="5.76" transform="translate(426.4 673.22) rotate(-86.17)"/><polygon class="cls-16" points="570.91 100.34 576.25 100.69 576.28 100.18 576.49 100.19 576.84 94.96 571.09 94.58 570.74 99.81 570.7 100.32 570.91 100.34"/><polygon class="cls-16" points="577.23 89.11 577.58 83.87 571.83 83.49 571.48 88.73 571.45 89.24 571.65 89.25 576.99 89.61 577.02 89.1 577.23 89.11"/><polygon class="cls-16" points="576.25 100.69 575.9 105.93 581.64 106.31 581.99 101.08 581.78 101.06 581.82 100.55 576.49 100.19 576.28 100.18 576.25 100.69"/><polygon class="cls-16" points="582.56 89.47 577.23 89.11 577.02 89.1 576.99 89.61 576.63 94.84 582.38 95.23 582.74 89.99 582.53 89.98 582.56 89.47"/><path class="cls-16" d="M583.12,84l.23-3.3c-1.84-.53-3.73-1-5.69-1.37l-.28,4.29Z" transform="translate(0 0.1)"/><rect class="cls-16" x="581.23" y="106.48" width="5.76" height="5.76" transform="translate(436.33 685.06) rotate(-86.21)"/><polygon class="cls-16" points="581.99 101.08 587.33 101.43 587.36 100.92 587.57 100.94 587.92 95.7 582.17 95.31 581.82 100.55 581.78 101.06 581.99 101.08"/><polygon class="cls-16" points="588.31 89.85 588.66 84.62 582.91 84.23 582.56 89.47 582.53 89.98 582.74 89.99 588.07 90.35 588.11 89.84 588.31 89.85"/><polygon class="cls-16" points="587.33 101.43 586.98 106.67 592.73 107.05 593.08 101.82 592.87 101.8 592.91 101.29 587.57 100.94 587.36 100.92 587.33 101.43"/><polygon class="cls-16" points="593.65 90.21 588.31 89.85 588.11 89.84 588.07 90.35 587.72 95.59 593.47 95.97 593.82 90.73 593.61 90.72 593.65 90.21"/><path class="cls-16" d="M593.09,84.71a40.85,40.85,0,0,0-4.51-2.15l-.12,1.84Z" transform="translate(0 0.1)"/><rect class="cls-16" x="592.31" y="107.23" width="5.76" height="5.76" transform="translate(445.94 696.81) rotate(-86.21)"/><polygon class="cls-16" points="593.08 101.82 598.41 102.18 598.45 101.66 598.65 101.67 599 96.44 593.26 96.06 592.91 101.29 592.87 101.8 593.08 101.82"/><path class="cls-16" d="M593.61,90.62l.21,0,5.34.35,0-.51h.2l.07-1A27.22,27.22,0,0,0,594,85.24l-.32,4.87Z" transform="translate(0 0.1)"/><path class="cls-16" d="M604,102.45l0-.51-5.34-.36-.2,0,0,.52-.35,5.23,5.73.39,0-.16.34-5.08Z" transform="translate(0 0.1)"/><path class="cls-16" d="M599.19,90.48l0,.51-.36,5.24,5.05.34a17.89,17.89,0,0,0-3.4-6l-1.06-.07Z" transform="translate(0 0.1)"/><path class="cls-16" d="M603.48,109.49c.1-.57.19-1.13.29-1.7h-.17Z" transform="translate(0 0.1)"/><path class="cls-16" d="M604,102.45h.2l.4,0a13.41,13.41,0,0,0,0-2.67,16.14,16.14,0,0,0-.35-1.84l-.26,4Z" transform="translate(0 0.1)"/><path class="cls-33" d="M519.29,108.19c-2.7.65-1.7,5,.76,5.11l83.76.24c2.86-.2,5-5.68,1.39-6.26Z" transform="translate(0 0.1)"/></g></g></svg>