<svg xmlns="http://www.w3.org/2000/svg" viewBox="0 0 453.07 418.63"><defs><style>.cls-1{fill:#ebebeb;}.cls-2{fill:#e0e0e0;}.cls-3{fill:#fafafa;}.cls-4{fill:#f5f5f5;}.cls-5{fill:#263238;}.cls-6{fill:#eebe8d;}.cls-7{fill:#332825;}.cls-8{fill:#e69870;}.cls-9{fill:#ecd0a1;}.cls-10{fill:#524741;}.cls-11{fill:#463b36;}.cls-12{fill:#463a35;}.cls-13{fill:#3b302c;}.cls-14{fill:#8b464c;}.cls-15{fill:#d78d70;}.cls-16{fill:#4e3a35;}.cls-17{fill:#442e2b;}.cls-18{fill:#fdfced;}.cls-19{fill:#7d6b63;}.cls-20{fill:#00acf0;}.cls-21,.cls-25{opacity:0.3;}.cls-22{fill:#455a64;}.cls-23{opacity:0.5;}.cls-24{opacity:0.4;}</style></defs><g id="Background_Complete" data-name="Background Complete"><rect class="cls-1" x="144.08" y="337.48" width="104.15" height="80.33"/><path class="cls-2" d="M245.07,458.52c-.14,0-.26-17.91-.26-40s.12-40,.26-40,.26,17.91.26,40S245.21,458.52,245.07,458.52Z" transform="translate(-22.93 -41.27)"/><rect class="cls-3" x="231.42" y="399.53" width="7.98" height="9.03"/><rect class="cls-2" x="175.86" y="337.69" width="11.83" height="17.14"/><rect class="cls-2" x="175.86" y="400.43" width="11.83" height="17.14"/><rect class="cls-1" x="305.89" y="317.34" width="131.33" height="101.29"/><path class="cls-2" d="M427.24,459.18c-.14,0-.26-22.57-.26-50.42s.12-50.42.26-50.42.26,22.57.26,50.42S427.39,459.18,427.24,459.18Z" transform="translate(-22.93 -41.27)"/><rect class="cls-3" x="416.02" y="395.57" width="10.07" height="11.38"/><rect class="cls-2" x="345.96" y="317.6" width="14.92" height="21.61"/><rect class="cls-2" x="345.96" y="396.71" width="14.92" height="21.61"/><path class="cls-1" d="M81.46,361.59c5.32-2.74,11.58-3.1,17.48-2.12,3.17.52,6.47,1.47,8.63,3.85s2.56,6.57.09,8.62c-1.48,1.22-3.53,1.4-5.45,1.38-4.62-.06-9.74-.87-13.43,1.91-2.11,1.59-3.51,4.22-6,5s-5.24-.69-6.54-2.91a10.15,10.15,0,0,1-.74-7.51A11.45,11.45,0,0,1,81.46,361.59Z" transform="translate(-22.93 -41.27)"/><path class="cls-1" d="M69.28,338.08c3.25,4.64,9.57,3.11,12.5.27s4.17-6.94,5.29-10.85c2.58-8.95,5.17-18.34,3.26-27.45a15.19,15.19,0,0,0-3.51-7.46,8,8,0,0,0-7.54-2.51c-3.19.84-5.17,4-6.6,6.93a65.29,65.29,0,0,0-6.46,28.07c0,4.53.51,9.27,3.06,13" transform="translate(-22.93 -41.27)"/><path class="cls-1" d="M60.36,344.74c3.53-4.19,4.2-10.29,2.63-15.54s-5.12-9.71-9.21-13.36a49.6,49.6,0,0,0-16.48-9.72,17.58,17.58,0,0,0-7.42-1.26,7.77,7.77,0,0,0-6.22,3.76c-1.74,3.31-.07,7.32,1.73,10.6a125.87,125.87,0,0,0,10.82,16.49c3.25,4.18,7,8.31,11.91,10.2s10.09,1.67,12.71-1.76" transform="translate(-22.93 -41.27)"/><path class="cls-2" d="M69.06,408.1a10.07,10.07,0,0,0,.3-2.1c.15-1.54.33-3.47.56-5.76a84,84,0,0,1,1.29-8.44,64.62,64.62,0,0,1,3.07-10,37,37,0,0,1,5.09-9,19.22,19.22,0,0,1,6.43-5.35,18.1,18.1,0,0,1,5.42-1.68,9.88,9.88,0,0,0,2.1-.31,9.72,9.72,0,0,0-2.13,0,16.37,16.37,0,0,0-5.65,1.47,18.94,18.94,0,0,0-6.79,5.4,35.67,35.67,0,0,0-5.28,9.19,61.15,61.15,0,0,0-3,10.13,73.35,73.35,0,0,0-1.13,8.55c-.18,2.45-.25,4.43-.28,5.8A10,10,0,0,0,69.06,408.1Z" transform="translate(-22.93 -41.27)"/><path class="cls-2" d="M69.46,403.68a4.25,4.25,0,0,0,.06-1c0-.74,0-1.67,0-2.8,0-2.43,0-5.95.12-10.29.22-8.68,1-18,2.41-31.19,1.37-12.39,3.2-26.8,5.14-36.17.41-2.13.83-4.05,1.23-5.73s.69-3.14,1-4.31.48-2,.66-2.72a4.1,4.1,0,0,0,.17-1,4,4,0,0,0-.34.92c-.22.71-.49,1.59-.82,2.68s-.73,2.61-1.15,4.28-.9,3.59-1.35,5.72a317,317,0,0,0-5.41,33.56c-1.44,13.2-2.09,25.22-2.15,33.92,0,4.35,0,7.88.15,10.31.07,1.13.13,2.06.17,2.79A4.31,4.31,0,0,0,69.46,403.68Z" transform="translate(-22.93 -41.27)"/><path class="cls-2" d="M69.52,380.5a18.8,18.8,0,0,0,0-2.93c-.11-1.88-.37-4.59-.9-7.92A104.22,104.22,0,0,0,66,358.11a95.33,95.33,0,0,0-4.83-13.66A72.62,72.62,0,0,0,47,322.39a35.08,35.08,0,0,0-3.34-3.1c-.51-.44-1-.87-1.42-1.21L41,317.19a17.72,17.72,0,0,0-2.47-1.58c-.14.19,3.49,2.33,8.07,7.2a76.6,76.6,0,0,1,13.82,22,106.14,106.14,0,0,1,4.85,13.53A117.56,117.56,0,0,1,68,369.76c.6,3.29,1,6,1.16,7.84A18.36,18.36,0,0,0,69.52,380.5Z" transform="translate(-22.93 -41.27)"/><polygon class="cls-1" points="22.64 376.59 24.96 408.41 65.84 408.41 68.16 376.59 22.64 376.59"/><rect class="cls-1" x="18.69" y="364.05" width="54.35" height="12.54"/><polygon class="cls-2" points="18.69 407.2 18.69 410.67 21.24 410.67 72.14 410.67 72.14 407.2 18.69 407.2"/><polygon class="cls-2" points="23.74 416.41 21.24 410.29 70.19 410.29 67.27 416.41 23.74 416.41"/><path class="cls-4" d="M90.33,428.26a1.48,1.48,0,0,1-.19.3c-.16.21-.37.48-.61.81l-2.38,3-.11.14-.1-.14-5.85-8.09h.33l-5.76,8.15-.18.26-.2-.24-6.83-8.13h.39l-.37.48-6.11,7.65-.21.26-.18-.27-5.77-8.15.34,0-7.1,8.08-.12.15-.1-.17L47,428.67c-.24-.4-.42-.73-.57-1a1.55,1.55,0,0,1-.18-.36,1.54,1.54,0,0,1,.24.32l.63.95,2.33,3.67-.22,0,7-8.18.17-.21.16.22,5.82,8.12H62l6.09-7.67c.13-.16.26-.32.37-.47l.2-.25.2.24,6.81,8.15h-.38l5.82-8.11.17-.24.16.24c2.31,3.29,4.27,6.08,5.73,8.18h-.21l2.48-3c.27-.31.49-.56.66-.77A2.27,2.27,0,0,1,90.33,428.26Z" transform="translate(-22.93 -41.27)"/><path class="cls-4" d="M91.66,417.65c0,.14-10.25.26-22.88.26s-22.88-.12-22.88-.26,10.24-.25,22.88-.25S91.66,417.51,91.66,417.65Z" transform="translate(-22.93 -41.27)"/><rect class="cls-2" x="370.15" y="56.84" width="8.38" height="41.7" transform="translate(-23.34 -39.26) rotate(-0.31)"/><rect class="cls-1" x="297.5" y="56.99" width="21.7" height="23.02" transform="translate(-23.29 -39.62) rotate(-0.31)"/><rect class="cls-4" x="319.1" y="56.87" width="21.7" height="23.02" transform="translate(-23.29 -39.5) rotate(-0.31)"/><path class="cls-2" d="M297.47,63.4q21.64.18,43.3-.2a.23.23,0,0,0,0-.46c-14.42-.08-28.88,0-43.3.27a.2.2,0,0,0,0,.39Z" transform="translate(-22.93 -41.27)"/><rect class="cls-1" x="283.96" y="79.67" width="39.43" height="18.76" transform="translate(-23.4 -39.64) rotate(-0.31)"/><rect class="cls-4" x="323.2" y="79.46" width="39.43" height="18.76" transform="translate(-23.4 -39.43) rotate(-0.31)"/><path class="cls-2" d="M283.94,85c26.19.29,52.47,0,78.67-.39a.23.23,0,0,0,0-.46c-26.19-.14-52.48-.13-78.67.45a.2.2,0,0,0,0,.4Z" transform="translate(-22.93 -41.27)"/><rect class="cls-2" x="246.26" y="57.27" width="152.76" height="6.72"/><rect class="cls-2" x="271.27" y="60.5" width="6.2" height="22.93"/><rect class="cls-2" x="363.84" y="60.5" width="6.2" height="22.93"/><rect class="cls-1" x="378.37" y="41.29" width="8.38" height="57.35" transform="translate(-23.3 -39.22) rotate(-0.31)"/><rect class="cls-4" x="386.79" y="51.98" width="13.02" height="46.48" transform="translate(-23.32 -39.16) rotate(-0.31)"/><path class="cls-2" d="M399.6,60.9a92.25,92.25,0,0,1-13,0,96.43,96.43,0,0,1,13,0Z" transform="translate(-22.93 -41.27)"/><path class="cls-2" d="M399.6,59a48.59,48.59,0,0,1-6.51.22,48.72,48.72,0,0,1-6.51-.22,92.25,92.25,0,0,1,13,0Z" transform="translate(-22.93 -41.27)"/><path class="cls-2" d="M399.6,91.43a92.25,92.25,0,0,1-13,0,96.43,96.43,0,0,1,13,0Z" transform="translate(-22.93 -41.27)"/><path class="cls-2" d="M399.6,89.48a96.43,96.43,0,0,1-13,0,92.25,92.25,0,0,1,13,0Z" transform="translate(-22.93 -41.27)"/><path class="cls-2" d="M393.3,85.22c-.12,0-.22-4.69-.22-10.47s.1-10.48.22-10.48.23,4.69.23,10.48S393.43,85.22,393.3,85.22Z" transform="translate(-22.93 -41.27)"/><rect class="cls-1" x="376.82" y="22.09" width="14.17" height="35.08"/><circle class="cls-2" cx="359.36" cy="9.79" r="2.41"/><rect class="cls-2" x="358.61" y="16.42" width="1.49" height="34.12"/></g><g id="Floor"><path class="cls-5" d="M464.66,459.35c0,.15-96.12.26-214.65.26s-214.67-.11-214.67-.26,96.1-.26,214.67-.26S464.66,459.21,464.66,459.35Z" transform="translate(-22.93 -41.27)"/></g><g id="Character"><path class="cls-6" d="M233.78,146.26c-2.86,2.34-6.19,10.92-8.49,14.22l4.9-1.46c3.48-3.67,7.52-5.57,7.92-7.11C238.24,151.37,234.73,145.47,233.78,146.26Z" transform="translate(-22.93 -41.27)"/><path class="cls-6" d="M236.83,153.29c1.22-1,5.11-2.79,4.78-3.47-.54-1.06-3.39.57-5.14,1.49C234.12,152.56,236.83,153.29,236.83,153.29Z" transform="translate(-22.93 -41.27)"/><path class="cls-6" d="M234.61,148.3c1.07-1.26,4.79-4.74,4.29-5.47-.87-1.3-4.86,2.71-5.89,4.1C231.42,149.09,234.61,148.3,234.61,148.3Z" transform="translate(-22.93 -41.27)"/><path class="cls-6" d="M232.49,149.43c-2.36-.38.44-6.44-1.32-6.07-1.43.31-1.23,6.38-2.07,9.91C229.3,156.08,232.49,149.43,232.49,149.43Z" transform="translate(-22.93 -41.27)"/><path class="cls-6" d="M236.4,150.2c1.21-1.06,5.41-4.27,5-5-.58-1.18-4.76,2.2-6.13,3.22C233.19,150,236.4,150.2,236.4,150.2Z" transform="translate(-22.93 -41.27)"/><path class="cls-7" d="M129.31,233.68c-2.16-8.94-15.4-62.23,2.16-87.8s40.66,78.25,40.66,78.25Z" transform="translate(-22.93 -41.27)"/><path class="cls-8" d="M175,357.62c-2.15.34-7,18.52-8.32,31.08s19.53,63.49,19.53,63.49l3.71-2.67C185.48,439.61,177.13,357.3,175,357.62Z" transform="translate(-22.93 -41.27)"/><path class="cls-8" d="M116.22,357.13c1.78.33,7,18.51,8.91,31.07s-11.58,63.5-11.58,63.5L110.34,449C113.26,439.11,114.45,356.8,116.22,357.13Z" transform="translate(-22.93 -41.27)"/><path class="cls-9" d="M183.18,457.46h22.45s-13.28-11.91-18.72-8.44C183.47,451.22,183.18,457.46,183.18,457.46Z" transform="translate(-22.93 -41.27)"/><path class="cls-10" d="M162.74,163.84c8.92-2.32,43.33,39.88,35.78,52.88-4.41,7.59-15.75-13.51-27-24.09S146.19,168.14,162.74,163.84Z" transform="translate(-22.93 -41.27)"/><path class="cls-11" d="M162.74,163.84c3.3-.86,10.09,4.38,16.95,12-.32,3.84,1,9.59,3.91,15.49,4.49,9.23,11,15.32,14.54,13.59l.05,0c1.62,4.82,2,9,.33,11.85-4.41,7.59-15.75-13.51-27-24.09S146.19,168.14,162.74,163.84Z" transform="translate(-22.93 -41.27)"/><path class="cls-10" d="M196.42,218.22c6.83-1,32-46.51,33.29-54.86s-3.26-5.64-6.11-3.4c-2.46,1.93-33.14,41.11-33.58,46.53S191.27,219,196.42,218.22Z" transform="translate(-22.93 -41.27)"/><path class="cls-11" d="M190,206.49c.44-5.42,31.12-44.6,33.58-46.53a10.7,10.7,0,0,1,4.07-2.25c-4.47,4-10.39,11.93-15.83,21.73-8.51,15.31-12.62,29.27-9.18,31.18a2,2,0,0,0,1.36.15c-3.21,4.32-6,7.2-7.6,7.45C191.27,219,189.58,211.9,190,206.49Z" transform="translate(-22.93 -41.27)"/><path class="cls-10" d="M197.85,442.26c-36,9.94-76.34,9.94-96.11-5.46,0,0,5.08-127.2,22.64-167.95,11.78-27.33,15.71-47,9.24-62.6-12.94-31.3-9-47.7-3.42-48.69s33.46-4.48,39,2.48,18.25,44.72,18.25,44.72a164.79,164.79,0,0,0-9.12,35.77C175.82,259.91,198.87,364.25,197.85,442.26Z" transform="translate(-22.93 -41.27)"/><path class="cls-12" d="M169.53,220.42c-10.92.88-58.16,85.54-37.2,227.62-12.3-1.67-23-5.31-30.59-11.24,0,0,5.08-127.2,22.64-167.95,11.78-27.33,14.78-46.62,8.31-62.27-12.64-30.58-8.24-47.26-2.87-48.92,6.33,17.68,13.32,42.36,21,45.8,6.73,3,26.93,1.48,36.45.54l.25.76a164.82,164.82,0,0,0-7.42,25.69C177.75,224.09,174.47,220,169.53,220.42Z" transform="translate(-22.93 -41.27)"/><path class="cls-12" d="M154.57,206.47l-6,.84c-2.34-2.85-4-30.65-17.07-40.69L129,161.26A51.9,51.9,0,0,1,154.57,206.47Z" transform="translate(-22.93 -41.27)"/><path class="cls-13" d="M170.05,211.93c0-6.31-2.2-27-16.05-43l-21.62-7.61c12.52,16.85,17.22,28.3,17.71,38.5S170.06,218.24,170.05,211.93Z" transform="translate(-22.93 -41.27)"/><path class="cls-7" d="M143.18,165.16c11.44,15.77,15.82,26.74,16.29,36.53.24,4.94,4.93,9.4,9.7,12-3.81,2.43-18.65-4.94-19.08-13.82-.49-10.2-5.19-21.65-17.71-38.5Z" transform="translate(-22.93 -41.27)"/><path class="cls-13" d="M124.21,164.39c.23,2.24,7.56-7.42,20.12,14.26,9,15.56,34.38,11,33.89,1.4-.78-15.42-11.08-17-7.17-34.17,3.55-15.57-44.28-28.47-43.93-25.56C130.66,150.21,123.41,156.83,124.21,164.39Z" transform="translate(-22.93 -41.27)"/><path class="cls-7" d="M174.67,167.29s-9.38-6.7-9.88-15.41l7.36-1.17S168.14,153.89,174.67,167.29Z" transform="translate(-22.93 -41.27)"/><path class="cls-13" d="M156.68,164.17s-12.33-1.37-18.8-9.88l5.21-5.42S142,154.4,156.68,164.17Z" transform="translate(-22.93 -41.27)"/><path class="cls-7" d="M127.12,120.32c-.27-2.28,29.11,5.17,40.06,16a17.15,17.15,0,0,0-6.11-.26c-11.63,1.63-19.4,14.83-17.34,29.48,1.66,11.83,9.21,21,18.18,23.21-6.64-.38-13.66-3.34-17.58-10.11C131.77,157,124.27,167.56,124,165.32,123.23,157.76,130.66,150.21,127.12,120.32Z" transform="translate(-22.93 -41.27)"/><path class="cls-13" d="M174.19,93c-8.61-10.09-34.1-9.77-43.34,7.12s.3,40.14,5.26,49.22c3.25,5.95,30.2,12,36.22,5C178.54,147,183.8,104.24,174.19,93Z" transform="translate(-22.93 -41.27)"/><path class="cls-7" d="M130.85,100.09c5.45-10,16.55-14.16,26.51-13.85-13.17,2.85-18.36,19.89-18.36,37,0,14.7,5.34,26.95,13.92,33.37-6.89-.22-16-4.14-17.6-7.08C130.36,140.46,121.61,117,130.85,100.09Z" transform="translate(-22.93 -41.27)"/><path class="cls-6" d="M165.85,152.13c-10.5.69-23.12-11.82-20.28-30s10.27-23,19.66-21.77,13.26,8.13,12.67,22.75S173.57,151.62,165.85,152.13Z" transform="translate(-22.93 -41.27)"/><path class="cls-9" d="M103,457.46h16.09s-2.25-9.59-8.58-8.94C106.64,448.91,103,457.46,103,457.46Z" transform="translate(-22.93 -41.27)"/><path class="cls-10" d="M136.12,170.92c3.19,8.25-32.23,45.83-45.24,40.09-7.59-3.34,10.8-16.54,19.38-28.41S130.19,155.62,136.12,170.92Z" transform="translate(-22.93 -41.27)"/><path class="cls-11" d="M110.26,182.6c6.52-9,14.64-19.9,20.76-17.89A74.17,74.17,0,0,0,116,177.54c-9.94,10.72-15.71,21.53-12.88,24.15s13.17-3.94,23.11-14.66a83.83,83.83,0,0,0,9.61-12.35C131.69,187,102.44,216.11,90.88,211,83.29,207.67,101.68,194.47,110.26,182.6Z" transform="translate(-22.93 -41.27)"/><path class="cls-10" d="M89.34,207.6c-1.48,6.46,29.5,45.22,36.34,49.4s6.06-.88,5.1-4.23c-.83-2.88-24.39-44.3-29-46.64S90.45,202.74,89.34,207.6Z" transform="translate(-22.93 -41.27)"/><path class="cls-11" d="M89.34,207.6c1.11-4.86,7.89-3.81,12.47-1.47a2.8,2.8,0,0,1,.36.24,2.33,2.33,0,0,0-1.13.41c-3.51,2.72,2.18,16.43,12.72,30.64,6.17,8.33,12.63,15,17.63,18.48.16,2.4-.87,4.06-5.71,1.1C118.84,252.82,87.86,214.06,89.34,207.6Z" transform="translate(-22.93 -41.27)"/><path class="cls-14" d="M162.73,112.15c-4.26-.23-8.92,0-13.54,4.91,0,0,0-3.64,4.93-5.55A9.58,9.58,0,0,1,162.73,112.15Z" transform="translate(-22.93 -41.27)"/><path class="cls-14" d="M169.67,112.7c3.34-.65,6.66-.87,9.5,3.83,0,0,.2-3.84-3-5.26S169.67,112.7,169.67,112.7Z" transform="translate(-22.93 -41.27)"/><path class="cls-15" d="M166.75,128.19l0,.51c1.48.93,2.68,1.94,2.73,2.72.06,1.45-1.84,2-3,2.22l0,.15s4-.27,3.9-2.34C170.27,130.52,168.6,129.27,166.75,128.19Z" transform="translate(-22.93 -41.27)"/><path class="cls-16" d="M168.36,120.35c2.87-1.17,6.1-2.15,10.09-.07,0,0-.59-2.36-4.31-2.4A7.69,7.69,0,0,0,168.36,120.35Z" transform="translate(-22.93 -41.27)"/><path class="cls-16" d="M177.32,122.21a3.44,3.44,0,1,0-3.91,2.92A3.44,3.44,0,0,0,177.32,122.21Z" transform="translate(-22.93 -41.27)"/><path class="cls-16" d="M151.34,121.79c2.71-1.42,5.83-2.68,10.23-1,0,0-1-2.3-4.77-2A7.2,7.2,0,0,0,151.34,121.79Z" transform="translate(-22.93 -41.27)"/><path class="cls-16" d="M160.74,122.87a3.84,3.84,0,0,0-3.59-3.66,3.23,3.23,0,0,0-3.49,3.26,3.83,3.83,0,0,0,3.59,3.65A3.2,3.2,0,0,0,160.74,122.87Z" transform="translate(-22.93 -41.27)"/><path class="cls-17" d="M170.34,137.67l-10.27-.79s.06,7.16,4.42,7.2S170.34,137.67,170.34,137.67Z" transform="translate(-22.93 -41.27)"/><path class="cls-18" d="M161.44,140.38a11.84,11.84,0,0,1-.54-3.17l8.64.67a11.38,11.38,0,0,1-1.23,2.93Z" transform="translate(-22.93 -41.27)"/><path class="cls-7" d="M167.3,92.78c-6.2-2-22.6.16-29,18.42l2.18-16.58S154.91,83.57,167.3,92.78Z" transform="translate(-22.93 -41.27)"/><path class="cls-12" d="M142.52,448.59s-13.4.67-23.11-3.69c0,0,5.69-68,17.08-105.82C136.49,339.08,135.82,432.18,142.52,448.59Z" transform="translate(-22.93 -41.27)"/><path class="cls-12" d="M188.73,329c-6-22.11-11.61-43.76-11.61-49.45s1.9-23.22,1.9-23.22S186.5,312.18,188.73,329Z" transform="translate(-22.93 -41.27)"/><path class="cls-12" d="M156.58,230.25s-12.39,55.92-11.38,66.64l-6.37-32.15Z" transform="translate(-22.93 -41.27)"/><path class="cls-6" d="M138.65,266.45c-.6-3.65-6.36-10.83-8.08-14.47l-1.18,5c1.44,4.84,1.07,9.29,2.19,10.41C132,267.75,138.85,267.66,138.65,266.45Z" transform="translate(-22.93 -41.27)"/><path class="cls-6" d="M131,265.57c.28,1.58-.15,5.82.6,5.87,1.2.07,1.21-3.22,1.29-5.19C133,263.58,131,265.57,131,265.57Z" transform="translate(-22.93 -41.27)"/><path class="cls-6" d="M136.47,266.15c.55,1.55,1.7,6.51,2.58,6.45,1.57-.11.09-5.57-.6-7.16C137.38,263,136.47,266.15,136.47,266.15Z" transform="translate(-22.93 -41.27)"/><path class="cls-6" d="M136.55,263.74c1.51-1.85,5.35,3.6,5.91,1.89.45-1.38-4.91-4.25-7.54-6.74C132.39,257.65,136.55,263.74,136.55,263.74Z" transform="translate(-22.93 -41.27)"/><path class="cls-6" d="M133.93,266.75c.31,1.57,1,6.82,1.79,6.86,1.31.08.47-5.22.28-6.92C135.7,264.05,133.93,266.75,133.93,266.75Z" transform="translate(-22.93 -41.27)"/><path class="cls-19" d="M128.79,244.48l4.35,11.22-4,4.52-9.88-8.37C120.41,248.5,128.79,244.48,128.79,244.48Z" transform="translate(-22.93 -41.27)"/><path class="cls-19" d="M217.61,163.35l9.38-7.54,5.52,2.47-5,11.95C224,170.12,217.61,163.35,217.61,163.35Z" transform="translate(-22.93 -41.27)"/><path class="cls-7" d="M143,153.06s8.54,12.89,20.26,18.58c0,0-13.23-1.17-21.1-11Z" transform="translate(-22.93 -41.27)"/></g><g id="Plant"><path class="cls-5" d="M433.77,433.18a2.35,2.35,0,0,1,.18-.42c.14-.3.33-.7.56-1.21a29.54,29.54,0,0,0,1.67-4.84c1.1-4.3,1.49-10.87-.14-18.67a100.91,100.91,0,0,0-3.47-12.55c-1.46-4.45-3.17-9.17-4.56-14.28a55.38,55.38,0,0,1-2.25-16.42c.21-5.81,1.93-11.6,3.82-17.38S433.42,336,434,330.3a26.11,26.11,0,0,0-3.14-15.8c-2.5-4.61-5.65-8.56-8-12.64a44,44,0,0,1-4.81-12.16,45.33,45.33,0,0,1-.31-18.82,34.68,34.68,0,0,1,2-6.65,2.57,2.57,0,0,1-.12.44l-.4,1.27c-.34,1.12-.79,2.8-1.22,5a46,46,0,0,0,.49,18.69,43.51,43.51,0,0,0,4.83,12c2.35,4,5.51,8,8.07,12.63a26.64,26.64,0,0,1,3.23,16.13c-.59,5.78-2.55,11.47-4.44,17.24s-3.59,11.5-3.8,17.21a54.63,54.63,0,0,0,2.2,16.26c1.37,5.08,3.05,9.8,4.5,14.27a98.25,98.25,0,0,1,3.4,12.62c1.59,7.86,1.14,14.5,0,18.81a27.84,27.84,0,0,1-1.79,4.83l-.62,1.19A2.06,2.06,0,0,1,433.77,433.18Z" transform="translate(-22.93 -41.27)"/><path class="cls-20" d="M426.06,305.89s-4.78-15.31,3.8-24.27a.53.53,0,0,1,.91.26C431.23,284.41,431.8,292.11,426.06,305.89Z" transform="translate(-22.93 -41.27)"/><path class="cls-5" d="M428.93,286.72a14.65,14.65,0,0,1-.32,2.82c-.32,1.95-.69,4.23-1.09,6.75s-.77,4.81-1.08,6.75a16.84,16.84,0,0,1-.5,2.8A11.86,11.86,0,0,1,426,303c.16-1.75.47-4.15.9-6.79s.9-5,1.27-6.73A12.4,12.4,0,0,1,428.93,286.72Z" transform="translate(-22.93 -41.27)"/><path class="cls-20" d="M431.68,342s2.93-15.77,14.71-19.67a.53.53,0,0,1,.68.66C446.29,325.42,443.2,332.49,431.68,342Z" transform="translate(-22.93 -41.27)"/><path class="cls-5" d="M443.18,326.38a14.81,14.81,0,0,1-1.6,2.35l-4.13,5.45-4.1,5.47a16,16,0,0,1-1.75,2.23,11.84,11.84,0,0,1,1.4-2.48c1-1.47,2.36-3.45,4-5.58s3.13-4,4.26-5.36A12.88,12.88,0,0,1,443.18,326.38Z" transform="translate(-22.93 -41.27)"/><path class="cls-20" d="M428.5,381.53s-1.78-15.94,8.36-23.09a.52.52,0,0,1,.84.43C437.67,361.44,436.76,369.1,428.5,381.53Z" transform="translate(-22.93 -41.27)"/><path class="cls-5" d="M435,363.26a13.32,13.32,0,0,1-.85,2.71l-2.36,6.42c-.88,2.4-1.67,4.57-2.34,6.42a16.44,16.44,0,0,1-1,2.65,11.68,11.68,0,0,1,.62-2.78c.49-1.68,1.25-4,2.18-6.5s1.84-4.75,2.53-6.36A13.93,13.93,0,0,1,435,363.26Z" transform="translate(-22.93 -41.27)"/><path class="cls-20" d="M437.37,421.31s-1.2-16,9.18-22.78a.53.53,0,0,1,.83.46C447.26,401.56,446.08,409.19,437.37,421.31Z" transform="translate(-22.93 -41.27)"/><path class="cls-5" d="M444.49,403.29a13.85,13.85,0,0,1-.95,2.68c-.74,1.82-1.62,4-2.59,6.33s-1.82,4.5-2.56,6.33a15.56,15.56,0,0,1-1.13,2.61,12,12,0,0,1,.73-2.76c.55-1.66,1.39-3.94,2.41-6.41s2-4.69,2.75-6.27A13.36,13.36,0,0,1,444.49,403.29Z" transform="translate(-22.93 -41.27)"/><path class="cls-20" d="M419.18,292.44S405,285,404.69,272.61a.54.54,0,0,1,.83-.46C407.63,273.61,413.49,278.65,419.18,292.44Z" transform="translate(-22.93 -41.27)"/><path class="cls-5" d="M407.64,276.87a13.75,13.75,0,0,1,1.77,2.23c1.16,1.59,2.51,3.47,4,5.54l4,5.52a15.67,15.67,0,0,1,1.62,2.33,11.76,11.76,0,0,1-1.95-2.07c-1.13-1.34-2.61-3.26-4.17-5.43s-2.93-4.18-3.87-5.65A13.66,13.66,0,0,1,407.64,276.87Z" transform="translate(-22.93 -41.27)"/><path class="cls-20" d="M434.45,325.31s-14.64-6.55-15.67-18.92a.53.53,0,0,1,.8-.5C421.77,307.22,427.92,311.88,434.45,325.31Z" transform="translate(-22.93 -41.27)"/><path class="cls-5" d="M422,310.47a13.57,13.57,0,0,1,1.9,2.11l4.34,5.29,4.35,5.27a16,16,0,0,1,1.76,2.23,12.18,12.18,0,0,1-2.08-1.95c-1.2-1.28-2.8-3.1-4.49-5.17s-3.17-4-4.21-5.41A12.85,12.85,0,0,1,422,310.47Z" transform="translate(-22.93 -41.27)"/><path class="cls-20" d="M426,362s-10-12.5-5.33-24a.53.53,0,0,1,.94-.08C423,340.09,426.33,347.05,426,362Z" transform="translate(-22.93 -41.27)"/><path class="cls-5" d="M421.68,343.08a13.63,13.63,0,0,1,.74,2.75c.42,1.92.91,4.18,1.45,6.68s1.05,4.75,1.47,6.67a15.67,15.67,0,0,1,.55,2.79,12,12,0,0,1-1-2.68c-.49-1.69-1.09-4-1.65-6.66s-1-5-1.28-6.72A13,13,0,0,1,421.68,343.08Z" transform="translate(-22.93 -41.27)"/><path class="cls-20" d="M436,405.11s-14.53-6.79-15.35-19.17a.53.53,0,0,1,.81-.5C423.61,386.81,429.68,391.58,436,405.11Z" transform="translate(-22.93 -41.27)"/><path class="cls-5" d="M423.77,390.06a14.89,14.89,0,0,1,1.86,2.15l4.25,5.35,4.26,5.35a15.68,15.68,0,0,1,1.72,2.26,11.78,11.78,0,0,1-2-2c-1.19-1.3-2.75-3.15-4.41-5.25s-3.1-4.05-4.12-5.48A12.23,12.23,0,0,1,423.77,390.06Z" transform="translate(-22.93 -41.27)"/><path class="cls-5" d="M464.91,342.07s0,.12,0,.35,0,.61,0,1c0,1-.1,2.27-.17,3.89-.18,3.42-.45,8.19-.76,13.89h0v0c-1,5.8-4,12.23-8,18.48-2.91,4.6-6,8.78-8.6,12.67A89.36,89.36,0,0,0,441,403.05a44.9,44.9,0,0,0-3,7.82c-.25.95-.45,1.7-.56,2.21a4.65,4.65,0,0,1-.21.78,3.63,3.63,0,0,1,.1-.8c.07-.52.22-1.28.45-2.25a40.87,40.87,0,0,1,2.85-7.95A85.88,85.88,0,0,1,447,392.09c2.62-3.92,5.65-8.11,8.55-12.68,3.95-6.22,6.89-12.55,8-18.26v0c.4-5.69.73-10.45,1-13.87.13-1.62.24-2.91.32-3.88,0-.4.07-.74.1-1A1.32,1.32,0,0,1,464.91,342.07Z" transform="translate(-22.93 -41.27)"/><path class="cls-20" d="M456.26,378.53s6.15-14.8-1.58-24.51a.53.53,0,0,0-.93.18C453.06,356.68,451.79,364.29,456.26,378.53Z" transform="translate(-22.93 -41.27)"/><path class="cls-5" d="M455.14,359.19a13,13,0,0,1,.49,2.8c.22,1.74.46,4.15.65,6.82s.28,5.09.28,6.85a11.6,11.6,0,0,1-.17,2.84,15,15,0,0,1-.25-2.83c-.13-2-.29-4.27-.46-6.82s-.33-4.86-.47-6.82A14.46,14.46,0,0,1,455.14,359.19Z" transform="translate(-22.93 -41.27)"/><g class="cls-21"><path d="M456.26,378.53s6.15-14.8-1.58-24.51a.53.53,0,0,0-.93.18C453.06,356.68,451.79,364.29,456.26,378.53Z" transform="translate(-22.93 -41.27)"/></g><path class="cls-20" d="M437.21,414.22s4.93-15.26-3.57-24.3a.53.53,0,0,0-.91.25C432.25,392.69,431.6,400.39,437.21,414.22Z" transform="translate(-22.93 -41.27)"/><path class="cls-5" d="M434.52,395a12.27,12.27,0,0,1,.72,2.76c.36,1.71.79,4.1,1.2,6.74s.69,5.05.84,6.8a12,12,0,0,1,.05,2.85,17.08,17.08,0,0,1-.48-2.8c-.29-1.95-.63-4.23-1-6.76s-.73-4.81-1-6.76A14.48,14.48,0,0,1,434.52,395Z" transform="translate(-22.93 -41.27)"/><g class="cls-21"><path d="M437.21,414.22s4.93-15.26-3.57-24.3a.53.53,0,0,0-.91.25C432.25,392.69,431.6,400.39,437.21,414.22Z" transform="translate(-22.93 -41.27)"/></g><path class="cls-20" d="M464.1,360.44s13.13-9.2,11.81-21.54a.53.53,0,0,0-.88-.34C473.12,340.28,468,346,464.1,360.44Z" transform="translate(-22.93 -41.27)"/><g class="cls-21"><path d="M464.1,360.44s13.13-9.2,11.81-21.54a.53.53,0,0,0-.88-.34C473.12,340.28,468,346,464.1,360.44Z" transform="translate(-22.93 -41.27)"/></g><path class="cls-5" d="M473.53,343.51a12.33,12.33,0,0,1-1.09,2.63c-.75,1.58-1.84,3.74-3.11,6.1s-2.49,4.45-3.43,5.93a11.86,11.86,0,0,1-1.67,2.3,14.73,14.73,0,0,1,1.3-2.52c.94-1.73,2.05-3.75,3.27-6l3.26-6A14.61,14.61,0,0,1,473.53,343.51Z" transform="translate(-22.93 -41.27)"/><path class="cls-20" d="M442.51,399.09s15.84-2.47,20.08-14.13a.53.53,0,0,0-.63-.7C459.49,385,452.33,387.85,442.51,399.09Z" transform="translate(-22.93 -41.27)"/><g class="cls-21"><path d="M442.51,399.09s15.84-2.47,20.08-14.13a.53.53,0,0,0-.63-.7C459.49,385,452.33,387.85,442.51,399.09Z" transform="translate(-22.93 -41.27)"/></g><path class="cls-5" d="M458.43,388.05a12.84,12.84,0,0,1-2.14,1.87c-1.37,1.1-3.3,2.56-5.47,4.12s-4.2,2.89-5.7,3.81a11.57,11.57,0,0,1-2.52,1.33,15.44,15.44,0,0,1,2.29-1.69l5.58-3.94,5.57-4A13.29,13.29,0,0,1,458.43,388.05Z" transform="translate(-22.93 -41.27)"/><polygon class="cls-22" points="404.46 386.98 399.84 418.08 428.64 418.08 424.91 386.98 404.46 386.98"/><path class="cls-5" d="M449,437.88c0,.17-5.2.3-11.61.3s-11.62-.13-11.62-.3a114.71,114.71,0,0,1,11.62-.3A114.58,114.58,0,0,1,449,437.88Z" transform="translate(-22.93 -41.27)"/><path class="cls-5" d="M449.56,440.36c0,.17-5.37.3-12,.3s-12-.13-12-.3,5.37-.3,12-.3S449.56,440.19,449.56,440.36Z" transform="translate(-22.93 -41.27)"/></g><g id="Boxes"><path class="cls-5" d="M337.57,126.54s-.27,0-.79,0a19.23,19.23,0,0,0-2.28,0,25.62,25.62,0,0,0-8.53,2,26.19,26.19,0,0,0-10.82,8.43,23.63,23.63,0,0,0-3.78,7.73A26,26,0,0,0,314,164.34a22.22,22.22,0,0,0,3.4,4.52,18.48,18.48,0,0,0,4.6,3.6,11.3,11.3,0,0,0,5.77,1.45,8.29,8.29,0,0,0,5.59-2.26,8.07,8.07,0,0,0,2.23-5.76,10.62,10.62,0,0,0-2-6.13c-2.59-3.65-6.79-6.1-11.26-7.42a27.65,27.65,0,0,0-14.2-.2,29.76,29.76,0,0,0-6.84,2.72,24.65,24.65,0,0,0-5.87,4.61c-.41.47-.88.9-1.25,1.42l-1.13,1.52a28.55,28.55,0,0,0-1.84,3.34,27.1,27.1,0,0,0-2.17,7.37,27.94,27.94,0,0,0,2,15,23.17,23.17,0,0,0,9.65,11,16,16,0,0,0,6.84,2.07,12.08,12.08,0,0,0,6.75-1.62,10.55,10.55,0,0,0,4.56-5A9.06,9.06,0,0,0,319,188a13.23,13.23,0,0,0-3.76-5.32,17.22,17.22,0,0,0-5.53-3.21,21.43,21.43,0,0,0-12.18-.21,23.73,23.73,0,0,0-10,5.57,22.84,22.84,0,0,0-5.73,8.87,25.7,25.7,0,0,0,.27,18,27.29,27.29,0,0,0,8.23,11,29.61,29.61,0,0,0,7.57,4.41c.94.35,1.67.61,2.17.75l.74.24s-.26-.05-.76-.19a21.51,21.51,0,0,1-2.18-.71,28.33,28.33,0,0,1-7.66-4.34,27.41,27.41,0,0,1-8.39-11.05,26,26,0,0,1-.33-18.19,22.93,22.93,0,0,1,5.79-9,24.19,24.19,0,0,1,10.15-5.7,21.89,21.89,0,0,1,12.44.2,17.52,17.52,0,0,1,5.69,3.29,13.58,13.58,0,0,1,3.9,5.51,9.58,9.58,0,0,1-.1,6.89,11.2,11.2,0,0,1-4.77,5.21,12.62,12.62,0,0,1-7,1.7,16.26,16.26,0,0,1-7-2.14,23.64,23.64,0,0,1-9.89-11.19,28.5,28.5,0,0,1-2.06-15.28,27.86,27.86,0,0,1,2.22-7.52,28.94,28.94,0,0,1,1.88-3.41l1.16-1.55c.37-.53.85-1,1.27-1.46a25.33,25.33,0,0,1,6-4.7,30.13,30.13,0,0,1,7-2.76,28.14,28.14,0,0,1,14.47.21c4.56,1.36,8.83,3.85,11.52,7.63a11,11,0,0,1,2.1,6.4,8.54,8.54,0,0,1-2.37,6.09,8.75,8.75,0,0,1-5.9,2.37,11.63,11.63,0,0,1-6-1.51,18.59,18.59,0,0,1-4.7-3.69,23,23,0,0,1-3.45-4.61,26.37,26.37,0,0,1-2.64-20,23.9,23.9,0,0,1,3.87-7.81,26.32,26.32,0,0,1,11-8.45,25,25,0,0,1,8.59-1.88,17.47,17.47,0,0,1,2.3,0Z" transform="translate(-22.93 -41.27)"/><rect class="cls-20" x="207.83" y="185.33" width="140.21" height="108.14"/><polygon class="cls-20" points="207.83 185.33 233.72 209.49 371.56 209.49 348.04 185.33 207.83 185.33"/><path class="cls-5" d="M230.75,226.6,371,226.35h.11l.08.07,23.28,23.91.24.25.43.44h-.62l-137.83-.11h-.06l0,0L230.75,226.6l26,24-.11,0,137.83-.1-.18.44-.25-.25-23.27-23.91.18.08Z" transform="translate(-22.93 -41.27)"/><path class="cls-5" d="M272.87,276.47a2.9,2.9,0,1,0,.21,0" transform="translate(-22.93 -41.27)"/><path class="cls-5" d="M306,276.47a2.89,2.89,0,1,0,.22,0" transform="translate(-22.93 -41.27)"/><path class="cls-5" d="M306.19,302.35a20.72,20.72,0,0,0-2.78-6.21,18.25,18.25,0,0,0-5.3-5.08,16.17,16.17,0,0,0-17.13-.47,18.47,18.47,0,0,0-5.57,4.78,20.5,20.5,0,0,0-3.11,6.06,2.07,2.07,0,0,1,.08-.48,11.17,11.17,0,0,1,.37-1.33,16,16,0,0,1,2.37-4.47,18.19,18.19,0,0,1,5.63-5,16.45,16.45,0,0,1,17.62.48,18.14,18.14,0,0,1,5.34,5.28,16,16,0,0,1,2.13,4.6,11.74,11.74,0,0,1,.29,1.35A2.78,2.78,0,0,1,306.19,302.35Z" transform="translate(-22.93 -41.27)"/><polygon class="cls-23" points="208.14 186.52 232.94 217.96 348.04 217.96 348.04 209.49 233.72 209.49 208.14 186.52"/><path class="cls-5" d="M343.31,334.5c-.14,0-.26-18.81-.26-42s.12-42,.26-42,.27,18.8.27,42S343.46,334.5,343.31,334.5Z" transform="translate(-22.93 -41.27)"/><rect class="cls-4" x="330.04" y="268.71" width="12.36" height="13.97"/><polygon class="cls-20" points="207.83 185.33 179.04 209.49 207.83 209.49 207.83 185.33"/><g class="cls-24"><polygon points="207.83 185.33 179.04 209.49 207.83 209.49 207.83 185.33"/></g><rect class="cls-20" x="190.97" y="293.47" width="161.21" height="124.34"/><rect class="cls-25" x="190.97" y="293.47" width="161.21" height="124.34"/><path class="cls-5" d="M334.71,458.2c-.14,0-.26-27.71-.26-61.89s.12-61.9.26-61.9.26,27.71.26,61.9S334.85,458.2,334.71,458.2Z" transform="translate(-22.93 -41.27)"/><rect class="cls-4" x="326.15" y="389.51" width="12.36" height="13.97"/><rect class="cls-5" x="240.15" y="293.79" width="18.31" height="26.53"/><rect class="cls-5" x="240.15" y="390.91" width="18.31" height="26.53"/><path class="cls-5" d="M373.7,334.74l-.42,0-1.21,0-4.65.05-17.13.08L293.8,335l-56.51-.07-17.12-.08-4.65-.05-1.22,0-.41,0,.41,0,1.22,0,4.65-.05,17.12-.08,56.51-.08,56.49.08,17.13.08,4.65.05,1.21,0Z" transform="translate(-22.93 -41.27)"/></g><g id="Speech_Bubble" data-name="Speech Bubble"><path class="cls-5" d="M97.42,119.47l-17.56-4.32.13,0a29.15,29.15,0,0,1-15.15,4.55,31.87,31.87,0,0,1-9.39-1.37A29.44,29.44,0,0,1,35.23,93.89a29,29,0,0,1,7.54-23.43A30.08,30.08,0,0,1,47.86,66c.94-.59,1.88-1.2,2.86-1.71l1.49-.72.74-.36.78-.28A29.51,29.51,0,0,1,66.35,61,29.23,29.23,0,0,1,92.11,80.7a30.46,30.46,0,0,1,1.62,9.48,29.09,29.09,0,0,1-4.21,15.21v-.16c4.88,8.81,7.34,13.26,7.89,14.24-.57-1-3.12-5.37-8.17-14.09l0-.08,0-.08a28.86,28.86,0,0,0,4-15,29.78,29.78,0,0,0-1.64-9.32A28.76,28.76,0,0,0,66.31,61.6a29,29,0,0,0-12.37,1.9l-.76.27-.73.36-1.46.7c-1,.51-1.88,1.1-2.81,1.68a29.71,29.71,0,0,0-5,4.34,28.49,28.49,0,0,0-7.41,23,28.93,28.93,0,0,0,10.83,19.23,28.47,28.47,0,0,0,9,4.8,31.16,31.16,0,0,0,9.23,1.39,28.88,28.88,0,0,0,15-4.39l.06,0H80Z" transform="translate(-22.93 -41.27)"/><path class="cls-20" d="M62,77.3,62.89,92a2.38,2.38,0,0,0,2.23,2.23h0a2.39,2.39,0,0,0,2.51-2.12l1.63-14.73a1.87,1.87,0,0,0-1.89-2.07l-3.57,0A1.86,1.86,0,0,0,62,77.3Z" transform="translate(-22.93 -41.27)"/><path class="cls-20" d="M69,102.44a3.58,3.58,0,1,1-2.27-4.53A3.58,3.58,0,0,1,69,102.44Z" transform="translate(-22.93 -41.27)"/></g></svg>